<svg xmlns="http://www.w3.org/2000/svg" viewBox="0 0 1180.58 477.29">
	<a class="hide-on-fallback">
		<ellipse class="w_fill" cx="1056.53" cy="192.74" rx="131.15" ry="123.76" transform="translate(771.12 1228.09) rotate(-84.93)"/><path class="b1_fill" d="M1180.09,174.06a1,1,0,0,0-1.37.34l-33.65,56.18L1103,243.17a1,1,0,0,0-.68.2l-50.14,15,4.4-51.06,55.46-70.89a1,1,0,0,0,.59-.75l30.17-38.57a1,1,0,1,0-1.58-1.23l-29,37-10.44-63.43a1,1,0,0,0-2,.32l10.74,65.25-53.66,68.6,12.19-141.47a1,1,0,0,0-2-.17L1056,190.85,995.71,82.93a1,1,0,0,0-1.75,1l37,66.13-30,6.28-24.32-17.89a1,1,0,1,0-1.19,1.61l22.88,16.83-18.93,4a1,1,0,0,0,.2,2l.21,0,52.2-10.92,23.63,42.29a1,1,0,0,0,.15.2l-1.05,12.2-.24.3a1,1,0,0,0,.1,1.32L1050.15,259a1,1,0,0,0-.15,1.71l-1.72,19.93-33.12-18.57a1,1,0,0,0,0-.19,1,1,0,0,0-1.28-.59l-.05,0-40.17-22.53s0,0,0,0l-20.37-63a1,1,0,0,0-1.9.62l19.71,61-35.91-20.14a1,1,0,1,0-1,1.74l77.16,43.27-33.91,12.53a1,1,0,0,0,.69,1.88l35.51-13.12,34.47,19.33L1038.94,389c-16.7-6.32-36.55-9.35-60-6.75-74.06,8.19-140.66,10.58-164.09-96.67C797.21,204.81,698.14,180,581.43,242.89,390.39,345.8,429.51,148.19,261,44.73,171.2-10.38,80.47-9.07,0,19.06V477.29H1118.33s-18.83-64.12-77.44-87.55L1052,260.51l50.9-15.23,32.19,18.4a1,1,0,0,0,1-1.74l-30.54-17.46,72-21.53A1,1,0,0,0,1177,221l-29.05,8.69,32.52-54.3A1,1,0,0,0,1180.09,174.06Z"/>
	</a>
	<image src="assets/png/albero1.png" alt="Albero 1" xlink:href="">
</svg>