<svg xmlns="http://www.w3.org/2000/svg" viewBox="0 0 270.41 383.42"><defs><style>.cls-1{fill:#fff;}.cls-2{fill:#3d4689;}</style></defs><title>albero2</title><g id="Livello_2" data-name="Livello 2"><g id="Livello_1-2" data-name="Livello 1"><ellipse class="cls-1" cx="135.09" cy="144.15" rx="135.09" ry="143.16" transform="translate(-1.73 1.64) rotate(-0.69)"/><path class="cls-2" d="M270.33,162.31a1,1,0,0,0-1.31-.54l-30.82,12.71,29.46-62.75a1,1,0,1,0-1.81-.85l-30.39,64.73-44.32,18.28a1,1,0,0,0-.69.29L137.51,216l-.82-56.1,52.48-83.11a1,1,0,0,0,.53-.84l28.55-45.21a1,1,0,0,0-1.69-1.07L189,73.29,170.68,5.34a1,1,0,1,0-1.93.52l18.83,69.72-50.94,80.68L134.36,1a1,1,0,0,0-1-1,1,1,0,0,0-1,1l2.07,141.44L56.93,31.61a1,1,0,1,0-1.64,1.15l47.46,67.86L70.66,110.78,42.25,94a1,1,0,1,0-1,1.72L68.1,111.59,47.78,118a1,1,0,1,0,.6,1.91l55.56-17.6,30.34,43.39a1,1,0,0,0,.2.17l.2,13.46-.24.38a1,1,0,0,0,.26,1.33l.82,55.79a1,1,0,0,0,0,1.76l.32,22L97.7,224.05a1,1,0,0,0-.06-.23,1,1,0,0,0-1.34-.46l-.09,0L50,203.31s0,0,0,0L21,137.07a1,1,0,1,0-1.83.8l28.19,64.27-41.42-18a1,1,0,1,0-.8,1.83l88.72,38.61L58.21,242a1,1,0,1,0,.88,1.8l37.17-18.16,39.62,17.24h0l2,139.59a1,1,0,0,0,1,1h0a1,1,0,0,0,1-1l-2.41-164.24L191.24,196l37,16.47a1,1,0,0,0,.81-1.83L193.79,195l76-31.35A1,1,0,0,0,270.33,162.31Z"/></g></g></svg>