<svg xmlns="http://www.w3.org/2000/svg" viewBox="0 0 1039.57 821.33"><defs><style>.cls-1{fill:#3d4689;}.cls-2{fill:#859cec;}.cls-3{fill:#fff;}.cls-4{opacity:0.5;}.cls-5{fill:#a8aee5;}.cls-6{fill:#ffddd3;}.cls-7{fill:#1c204d;}</style></defs><title>auto</title><g id="Livello_2" data-name="Livello 2"><g id="Livello_1-2" data-name="Livello 1"><circle class="cls-1" cx="995.7" cy="364.84" r="34.7"/><circle class="cls-2" cx="995.7" cy="364.84" r="15.29"/><circle class="cls-1" cx="740.28" cy="364.84" r="34.7"/><circle class="cls-2" cx="740.28" cy="364.84" r="15.29"/><path class="cls-1" d="M668.11,336.21H603.18c-5.32,0-9.64-5.89-9.64-13.15h0c0-7.26,4.31-13.15,9.64-13.15h64.93"/><path class="cls-2" d="M1031.07,315.31a18.17,18.17,0,0,0-15-17.06l-106-18.41h0l-38.54-42.72a39.38,39.38,0,0,0-29.24-13H708.69A62.13,62.13,0,0,0,668.41,239L634.07,268.2a83.46,83.46,0,0,1-22,13.48h0a23.36,23.36,0,0,0-14.29,23.48l3.7,45a12.14,12.14,0,0,0,11.85,11.14l10.12.21h70l2.07,2.4a33.36,33.36,0,0,0,25.24,11.55H857.6a33.36,33.36,0,0,0,25.67-12.06h150Z"/><circle class="cls-1" cx="658.84" cy="364.84" r="34.7"/><circle class="cls-2" cx="658.84" cy="364.84" r="15.29"/><circle class="cls-1" cx="917.63" cy="364.84" r="34.7"/><path class="cls-1" d="M986,334.79h20.13A19.93,19.93,0,0,1,1026,354.72v0a0,0,0,0,1,0,0H966a0,0,0,0,1,0,0v0A19.93,19.93,0,0,1,986,334.79Z"/><path class="cls-3" d="M1027,355.72H965v-1A21,21,0,0,1,986,333.79h20.13A21,21,0,0,1,1027,354.72Zm-60-2H1025a19,19,0,0,0-18.91-17.93H986A19,19,0,0,0,967.05,353.72Z"/><rect class="cls-3" x="945.58" y="354.72" width="92.53" height="13.49" rx="5" ry="5"/><path class="cls-3" d="M599.58,351.83h23.07a6,6,0,0,1,6,6v4.39a6,6,0,0,1-6,6H599.58a5,5,0,0,1-5-5v-6.39A5,5,0,0,1,599.58,351.83Z"/><ellipse class="cls-3" cx="961.35" cy="324.12" rx="8.17" ry="10.96"/><path class="cls-3" d="M911.12,281h-34a14.59,14.59,0,0,1-10.66-4.63l-32.06-34.27a4.38,4.38,0,0,1,3.2-7.36h31.78Z"/><path class="cls-1" d="M911.12,282h-34a15.64,15.64,0,0,1-11.4-5l-32.06-34.27a5.38,5.38,0,0,1,3.93-9h31.78a1,1,0,0,1,0,2H837.58a3.38,3.38,0,0,0-2.47,5.68l32.06,34.27a13.63,13.63,0,0,0,9.93,4.32h34a1,1,0,0,1,0,2Z"/><circle class="cls-2" cx="917.63" cy="364.84" r="15.29"/><path class="cls-3" d="M749.47,239.1a4.38,4.38,0,0,0-4.38-4.38h-31a46.7,46.7,0,0,0-34.42,14.84l-19.06,20A6.56,6.56,0,0,0,665.08,281h80a4.38,4.38,0,0,0,4.38-4.38Z"/><path class="cls-1" d="M745.09,282h-80a7.56,7.56,0,0,1-5.13-13.12l19-20a47.7,47.7,0,0,1,35.14-15.15h31a5.38,5.38,0,0,1,5.38,5.38v37.51A5.38,5.38,0,0,1,745.09,282Zm-31-46.26a45.7,45.7,0,0,0-33.69,14.53l-19.06,20a5.57,5.57,0,0,0,3.73,9.7h80a3.38,3.38,0,0,0,3.38-3.38V239.1a3.38,3.38,0,0,0-3.38-3.38Z"/><path class="cls-3" d="M847.85,270l-28.36-31a13.13,13.13,0,0,0-9.69-4.27H768.3a4.38,4.38,0,0,0-4.38,4.38v37.51A4.38,4.38,0,0,0,768.3,281H843A6.56,6.56,0,0,0,847.85,270Z"/><path class="cls-1" d="M843,282H768.3a5.38,5.38,0,0,1-5.38-5.38V239.1a5.38,5.38,0,0,1,5.38-5.38h41.5a14.16,14.16,0,0,1,10.43,4.59l28.36,31h0A7.57,7.57,0,0,1,843,282Zm-74.7-46.26a3.38,3.38,0,0,0-3.38,3.38v37.51A3.38,3.38,0,0,0,768.3,280H843a5.57,5.57,0,0,0,4.11-9.32l-28.36-31a12.16,12.16,0,0,0-9-3.94Z"/><path class="cls-1" d="M863.07,362.47h-.17a1,1,0,0,1-.81-1.16c4.79-27.64,0-74.46,0-74.93a1,1,0,1,1,2-.21c0,.47,4.83,47.57,0,75.48A1,1,0,0,1,863.07,362.47Z"/><path class="cls-1" d="M756.7,362.47a1,1,0,0,1-1-.84c-4.16-25-.05-74.95,0-75.45V234.72a1,1,0,0,1,2,0v51.54c0,.58-4.14,50.33,0,75a1,1,0,0,1-.82,1.15Z"/><path class="cls-1" d="M991.3,307.94a210.17,210.17,0,0,1-40.74-3.89c-33.7-6.76-70.57-14.77-70.94-14.85a1,1,0,1,1,.42-2c.37.08,37.22,8.09,70.91,14.85,34.23,6.86,67.85,3.16,74.66.07a1,1,0,0,1,.83,1.82C1022.33,305.84,1008.79,307.94,991.3,307.94Z"/><rect class="cls-3" x="768.67" y="298.12" width="24.89" height="9.9" rx="3" ry="3"/><ellipse class="cls-3" cx="1030.4" cy="324.12" rx="8.17" ry="10.96"/><path class="cls-1" d="M961.35,336.08c-5.06,0-9.17-5.37-9.17-12s4.12-12,9.17-12,9.17,5.37,9.17,12S966.41,336.08,961.35,336.08Zm0-21.92c-4,0-7.17,4.47-7.17,10s3.22,10,7.17,10,7.17-4.47,7.17-10S965.31,314.16,961.35,314.16Z"/><path class="cls-1" d="M1030.4,336.08c-5.06,0-9.17-5.37-9.17-12s4.12-12,9.17-12,9.17,5.37,9.17,12S1035.46,336.08,1030.4,336.08Zm0-21.92c-4,0-7.17,4.47-7.17,10s3.22,10,7.17,10,7.17-4.47,7.17-10S1034.35,314.16,1030.4,314.16Z"/><rect class="cls-3" x="1019.6" y="341.06" width="2" height="12.81"/><rect class="cls-3" x="1014.18" y="336.35" width="2" height="17.51"/><rect class="cls-3" x="1008.75" y="334.9" width="2" height="18.97"/><rect class="cls-3" x="1003.33" y="334.79" width="2" height="19.07"/><rect class="cls-3" x="997.91" y="334.79" width="2" height="19.07"/><rect class="cls-3" x="992.48" y="334.79" width="2" height="19.07"/><rect class="cls-3" x="987.06" y="334.79" width="2" height="19.07"/><rect class="cls-3" x="981.64" y="334.79" width="2" height="19.07"/><rect class="cls-3" x="976.21" y="336.2" width="2" height="17.66"/><rect class="cls-3" x="970.79" y="340.54" width="2" height="13.33"/><rect class="cls-3" x="691.32" y="359.54" width="194.99" height="8.67" rx="3" ry="3"/><path class="cls-2" d="M566.5,35.47H0V0H544.74a3,3,0,0,1,2.61,1.53Z"/><circle class="cls-1" cx="489.46" cy="619.48" r="34.7"/><circle class="cls-2" cx="489.46" cy="619.48" r="15.29"/><circle class="cls-1" cx="234.04" cy="619.48" r="34.7"/><circle class="cls-2" cx="234.04" cy="619.48" r="15.29"/><path class="cls-1" d="M161.87,590.84H96.93c-5.32,0-9.64-5.89-9.64-13.15h0c0-7.26,4.31-13.15,9.64-13.15h64.93"/><path class="cls-2" d="M524.83,569.95a18.17,18.17,0,0,0-15-17.06l-106-18.41h0l-38.54-42.72a39.38,39.38,0,0,0-29.24-13H202.45a62.13,62.13,0,0,0-40.28,14.83l-34.34,29.24a83.46,83.46,0,0,1-22,13.48h0a23.36,23.36,0,0,0-14.29,23.48l3.7,45a12.14,12.14,0,0,0,11.85,11.14l10.12.21h70l2.07,2.4a33.36,33.36,0,0,0,25.24,11.55H351.36A33.36,33.36,0,0,0,377,618H527Z"/><circle class="cls-1" cx="152.59" cy="619.48" r="34.7"/><circle class="cls-2" cx="152.59" cy="619.48" r="15.29"/><circle class="cls-1" cx="411.39" cy="619.48" r="34.7"/><path class="cls-1" d="M479.72,589.42h20.13a19.93,19.93,0,0,1,19.93,19.93v0a0,0,0,0,1,0,0h-60a0,0,0,0,1,0,0v0A19.93,19.93,0,0,1,479.72,589.42Z"/><path class="cls-3" d="M520.78,610.36h-62v-1a21,21,0,0,1,20.93-20.93h20.13a21,21,0,0,1,20.93,20.93Zm-60-2h57.95a19,19,0,0,0-18.91-17.93H479.72A19,19,0,0,0,460.81,608.36Z"/><rect class="cls-3" x="439.34" y="609.36" width="92.53" height="13.49" rx="5" ry="5"/><path class="cls-3" d="M93.34,606.46h23.07a6,6,0,0,1,6,6v4.39a6,6,0,0,1-6,6H93.34a5,5,0,0,1-5-5v-6.39A5,5,0,0,1,93.34,606.46Z"/><ellipse class="cls-3" cx="455.11" cy="578.75" rx="8.17" ry="10.96"/><path class="cls-3" d="M404.87,535.62h-34A14.59,14.59,0,0,1,360.2,531l-32.06-34.27a4.38,4.38,0,0,1,3.2-7.36h31.78Z"/><path class="cls-1" d="M404.87,536.62h-34a15.64,15.64,0,0,1-11.4-5L327.41,497.4a5.38,5.38,0,0,1,3.93-9h31.78a1,1,0,0,1,0,2H331.34a3.38,3.38,0,0,0-2.47,5.68l32.06,34.27a13.63,13.63,0,0,0,9.93,4.32h34a1,1,0,0,1,0,2Z"/><circle class="cls-2" cx="411.39" cy="619.48" r="15.29"/><path class="cls-3" d="M243.23,493.73a4.38,4.38,0,0,0-4.38-4.38h-31a46.7,46.7,0,0,0-34.42,14.84l-19.06,20a6.56,6.56,0,0,0,4.45,11.39h80a4.38,4.38,0,0,0,4.38-4.38Z"/><path class="cls-1" d="M238.85,536.62h-80a7.56,7.56,0,0,1-5.13-13.12l19-20a47.7,47.7,0,0,1,35.14-15.15h31a5.38,5.38,0,0,1,5.38,5.38v37.51A5.38,5.38,0,0,1,238.85,536.62Zm-31-46.26a45.7,45.7,0,0,0-33.69,14.53l-19.06,20a5.57,5.57,0,0,0,3.73,9.7h80a3.38,3.38,0,0,0,3.38-3.38V493.73a3.38,3.38,0,0,0-3.38-3.38Z"/><path class="cls-3" d="M341.6,524.63l-28.36-31a13.13,13.13,0,0,0-9.69-4.27h-41.5a4.38,4.38,0,0,0-4.38,4.38v37.51a4.38,4.38,0,0,0,4.38,4.38h74.7A6.56,6.56,0,0,0,341.6,524.63Z"/><path class="cls-1" d="M336.76,536.62h-74.7a5.38,5.38,0,0,1-5.38-5.38V493.73a5.38,5.38,0,0,1,5.38-5.38h41.5A14.16,14.16,0,0,1,314,493l28.36,31a7.56,7.56,0,0,1-5.58,12.67Zm-74.7-46.26a3.38,3.38,0,0,0-3.38,3.38v37.51a3.38,3.38,0,0,0,3.38,3.38h74.7a5.56,5.56,0,0,0,4.11-9.32h0l-28.36-31a12.16,12.16,0,0,0-9-3.94Z"/><path class="cls-1" d="M356.83,617.1h-.17a1,1,0,0,1-.81-1.16c4.79-27.64,0-74.46,0-74.93a1,1,0,0,1,2-.21c0,.47,4.83,47.57,0,75.48A1,1,0,0,1,356.83,617.1Z"/><path class="cls-1" d="M250.46,617.1a1,1,0,0,1-1-.84c-4.16-25-.05-74.95,0-75.45V489.36a1,1,0,0,1,2,0V540.9c0,.58-4.14,50.33,0,75a1,1,0,0,1-.82,1.15Z"/><path class="cls-1" d="M485.05,562.58a210.18,210.18,0,0,1-40.74-3.89c-33.7-6.76-70.57-14.77-70.94-14.85a1,1,0,0,1,.42-2c.37.08,37.22,8.09,70.91,14.85,34.23,6.86,67.85,3.16,74.66.07a1,1,0,0,1,.83,1.82C516.08,560.48,502.55,562.58,485.05,562.58Z"/><rect class="cls-3" x="262.43" y="552.75" width="24.89" height="9.9" rx="3" ry="3"/><ellipse class="cls-3" cx="524.16" cy="578.75" rx="8.17" ry="10.96"/><path class="cls-1" d="M455.11,590.71c-5.06,0-9.17-5.37-9.17-12s4.12-12,9.17-12,9.17,5.37,9.17,12S460.17,590.71,455.11,590.71Zm0-21.92c-4,0-7.17,4.47-7.17,10s3.22,10,7.17,10,7.17-4.47,7.17-10S459.07,568.79,455.11,568.79Z"/><path class="cls-1" d="M524.16,590.71c-5.06,0-9.17-5.37-9.17-12s4.12-12,9.17-12,9.17,5.37,9.17,12S529.21,590.71,524.16,590.71Zm0-21.92c-4,0-7.17,4.47-7.17,10s3.22,10,7.17,10,7.17-4.47,7.17-10S528.11,568.79,524.16,568.79Z"/><rect class="cls-3" x="513.36" y="595.69" width="2" height="12.81"/><rect class="cls-3" x="507.93" y="590.99" width="2" height="17.51"/><rect class="cls-3" x="502.51" y="589.53" width="2" height="18.97"/><rect class="cls-3" x="497.09" y="589.42" width="2" height="19.07"/><rect class="cls-3" x="491.66" y="589.42" width="2" height="19.07"/><rect class="cls-3" x="486.24" y="589.42" width="2" height="19.07"/><rect class="cls-3" x="480.82" y="589.42" width="2" height="19.07"/><rect class="cls-3" x="475.39" y="589.42" width="2" height="19.07"/><rect class="cls-3" x="469.97" y="590.83" width="2" height="17.66"/><rect class="cls-3" x="464.55" y="595.17" width="2" height="13.33"/><rect class="cls-3" x="185.08" y="614.18" width="194.99" height="8.67" rx="3" ry="3"/><g class="cls-4"><polygon class="cls-5" points="771.04 685.47 0 685.47 0 35.47 690.64 35.47 771.04 685.47"/></g><g class="cls-4"><polygon class="cls-3" points="690.64 35.47 344.4 35.88 0 394.56 0 685.47 771.04 685.47 690.64 35.47"/></g><polygon class="cls-3" points="691.04 114.21 175 114.21 175 35.64 177 35.64 177 112.21 691.04 112.21 691.04 114.21"/><rect class="cls-3" y="220.42" width="713.66" height="2"/><rect class="cls-3" x="582.67" y="113.21" width="2" height="384.71"/><rect class="cls-3" x="632.54" y="221.42" width="2" height="226.27"/><rect class="cls-3" x="289.14" y="35.3" width="2" height="412.45"/><polygon class="cls-6" points="0 447.69 741.78 447.69 791.13 709.73 0 712.37 0 447.69"/><circle class="cls-1" cx="379.68" cy="451.58" r="34.7"/><circle class="cls-2" cx="379.68" cy="451.58" r="15.29"/><circle class="cls-1" cx="124.26" cy="451.58" r="34.7"/><circle class="cls-2" cx="124.26" cy="451.58" r="15.29"/><path class="cls-2" d="M415,402A18.17,18.17,0,0,0,400,385L294,366.58l-38.54-42.72a39.38,39.38,0,0,0-29.24-13H92.67a62.13,62.13,0,0,0-40.28,14.83L18,354.93A83.45,83.45,0,0,1,0,366.64v81.42l7.47.15h70l2.07,2.4a33.36,33.36,0,0,0,25.24,11.55H241.58a33.36,33.36,0,0,0,25.67-12.06h150Z"/><circle class="cls-1" cx="42.81" cy="451.58" r="34.7"/><circle class="cls-2" cx="42.81" cy="451.58" r="15.29"/><circle class="cls-1" cx="301.61" cy="451.58" r="34.7"/><path class="cls-1" d="M369.94,421.52h20.13A19.93,19.93,0,0,1,410,441.46v0a0,0,0,0,1,0,0H350a0,0,0,0,1,0,0v0A19.93,19.93,0,0,1,369.94,421.52Z"/><path class="cls-3" d="M411,442.46H349v-1a21,21,0,0,1,20.93-20.93h20.13A21,21,0,0,1,411,441.46Zm-60-2H409a19,19,0,0,0-18.91-17.93H369.94A19,19,0,0,0,351,440.46Z"/><rect class="cls-3" x="329.56" y="441.46" width="92.53" height="13.49" rx="5" ry="5"/><path class="cls-3" d="M6.64,438.57H0V455H6.64a6,6,0,0,0,6-6v-4.39A6,6,0,0,0,6.64,438.57Z"/><ellipse class="cls-3" cx="345.33" cy="410.86" rx="8.17" ry="10.96"/><path class="cls-3" d="M295.09,367.72h-34a14.59,14.59,0,0,1-10.66-4.63l-32.06-34.27a4.38,4.38,0,0,1,3.2-7.36h31.78Z"/><path class="cls-1" d="M295.09,368.72h-34a15.64,15.64,0,0,1-11.4-5l-32.06-34.27a5.38,5.38,0,0,1,3.93-9h31.78a1,1,0,0,1,0,2H221.56a3.38,3.38,0,0,0-2.47,5.68l32.06,34.27a13.63,13.63,0,0,0,9.93,4.32h34a1,1,0,0,1,0,2Z"/><circle class="cls-2" cx="301.61" cy="451.58" r="15.29"/><path class="cls-3" d="M133.45,325.84a4.38,4.38,0,0,0-4.38-4.38h-31A46.7,46.7,0,0,0,63.66,336.3l-19.06,20a6.56,6.56,0,0,0,4.45,11.39h80a4.38,4.38,0,0,0,4.38-4.38Z"/><path class="cls-1" d="M129.07,368.72h-80a7.56,7.56,0,0,1-5.13-13.12l19-20a47.7,47.7,0,0,1,35.14-15.15h31a5.38,5.38,0,0,1,5.38,5.38v37.51A5.38,5.38,0,0,1,129.07,368.72Zm-31-46.26A45.7,45.7,0,0,0,64.39,337L45.32,357a5.57,5.57,0,0,0,3.73,9.7h80a3.38,3.38,0,0,0,3.38-3.38V325.84a3.38,3.38,0,0,0-3.38-3.38Z"/><path class="cls-3" d="M231.82,356.73l-28.36-31a13.13,13.13,0,0,0-9.69-4.27h-41.5a4.38,4.38,0,0,0-4.38,4.38v37.51a4.38,4.38,0,0,0,4.38,4.38H227A6.56,6.56,0,0,0,231.82,356.73Z"/><path class="cls-1" d="M227,368.72h-74.7a5.38,5.38,0,0,1-5.38-5.38V325.84a5.38,5.38,0,0,1,5.38-5.38h41.5a14.16,14.16,0,0,1,10.43,4.59l28.36,31A7.56,7.56,0,0,1,227,368.72Zm-74.7-46.26a3.38,3.38,0,0,0-3.38,3.38v37.51a3.38,3.38,0,0,0,3.38,3.38H227a5.56,5.56,0,0,0,4.11-9.32h0l-28.36-31a12.16,12.16,0,0,0-9-3.94Z"/><path class="cls-1" d="M247,449.21h-.17a1,1,0,0,1-.81-1.16c4.79-27.64,0-74.46,0-74.93a1,1,0,1,1,2-.21c0,.47,4.83,47.57,0,75.48A1,1,0,0,1,247,449.21Z"/><path class="cls-1" d="M140.68,449.21a1,1,0,0,1-1-.84c-4.16-25-.05-74.95,0-75.45V321.46a1,1,0,0,1,2,0V373c0,.58-4.14,50.33,0,75a1,1,0,0,1-.82,1.15Z"/><path class="cls-1" d="M375.27,394.68a210.18,210.18,0,0,1-40.74-3.89C300.83,384,264,376,263.59,375.93a1,1,0,0,1,.42-2c.37.08,37.22,8.09,70.91,14.85,34.23,6.86,67.85,3.16,74.66.07a1,1,0,1,1,.83,1.82C406.31,392.58,392.77,394.68,375.27,394.68Z"/><rect class="cls-3" x="152.65" y="384.85" width="24.89" height="9.9" rx="3" ry="3"/><ellipse class="cls-3" cx="414.38" cy="410.86" rx="8.17" ry="10.96"/><path class="cls-1" d="M345.33,422.82c-5.06,0-9.17-5.37-9.17-12s4.12-12,9.17-12,9.17,5.37,9.17,12S350.39,422.82,345.33,422.82Zm0-21.92c-4,0-7.17,4.47-7.17,10s3.22,10,7.17,10,7.17-4.47,7.17-10S349.29,400.9,345.33,400.9Z"/><path class="cls-1" d="M414.38,422.82c-5.06,0-9.17-5.37-9.17-12s4.12-12,9.17-12,9.17,5.37,9.17,12S419.44,422.82,414.38,422.82Zm0-21.92c-4,0-7.17,4.47-7.17,10s3.22,10,7.17,10,7.17-4.47,7.17-10S418.33,400.9,414.38,400.9Z"/><rect class="cls-3" x="403.58" y="427.79" width="2" height="12.81"/><rect class="cls-3" x="398.15" y="423.09" width="2" height="17.51"/><rect class="cls-3" x="392.73" y="421.63" width="2" height="18.97"/><rect class="cls-3" x="387.31" y="421.52" width="2" height="19.07"/><rect class="cls-3" x="381.88" y="421.52" width="2" height="19.07"/><rect class="cls-3" x="376.46" y="421.52" width="2" height="19.07"/><rect class="cls-3" x="371.04" y="421.52" width="2" height="19.07"/><rect class="cls-3" x="365.61" y="421.52" width="2" height="19.07"/><rect class="cls-3" x="360.19" y="422.94" width="2" height="17.66"/><rect class="cls-3" x="354.77" y="427.27" width="2" height="13.33"/><rect class="cls-3" x="75.3" y="446.28" width="194.99" height="8.67" rx="3" ry="3"/><circle class="cls-1" cx="489.46" cy="619.48" r="34.7"/><circle class="cls-2" cx="489.46" cy="619.48" r="15.29"/><circle class="cls-1" cx="234.04" cy="619.48" r="34.7"/><circle class="cls-2" cx="234.04" cy="619.48" r="15.29"/><path class="cls-1" d="M161.87,590.84H96.93c-5.32,0-9.64-5.89-9.64-13.15h0c0-7.26,4.31-13.15,9.64-13.15h64.93"/><path class="cls-2" d="M524.83,569.95a18.17,18.17,0,0,0-15-17.06l-106-18.41h0l-38.54-42.72a39.38,39.38,0,0,0-29.24-13H202.45a62.13,62.13,0,0,0-40.28,14.83l-34.34,29.24a83.46,83.46,0,0,1-22,13.48h0a23.36,23.36,0,0,0-14.29,23.48l3.7,45a12.14,12.14,0,0,0,11.85,11.14l10.12.21h70l2.07,2.4a33.36,33.36,0,0,0,25.24,11.55H351.36A33.36,33.36,0,0,0,377,618H527Z"/><circle class="cls-1" cx="152.59" cy="619.48" r="34.7"/><circle class="cls-2" cx="152.59" cy="619.48" r="15.29"/><circle class="cls-1" cx="411.39" cy="619.48" r="34.7"/><path class="cls-1" d="M479.72,589.42h20.13a19.93,19.93,0,0,1,19.93,19.93v0a0,0,0,0,1,0,0h-60a0,0,0,0,1,0,0v0A19.93,19.93,0,0,1,479.72,589.42Z"/><path class="cls-3" d="M520.78,610.36h-62v-1a21,21,0,0,1,20.93-20.93h20.13a21,21,0,0,1,20.93,20.93Zm-60-2h57.95a19,19,0,0,0-18.91-17.93H479.72A19,19,0,0,0,460.81,608.36Z"/><rect class="cls-3" x="439.34" y="609.36" width="92.53" height="13.49" rx="5" ry="5"/><path class="cls-3" d="M93.34,606.46h23.07a6,6,0,0,1,6,6v4.39a6,6,0,0,1-6,6H93.34a5,5,0,0,1-5-5v-6.39A5,5,0,0,1,93.34,606.46Z"/><ellipse class="cls-3" cx="455.11" cy="578.75" rx="8.17" ry="10.96"/><path class="cls-3" d="M404.87,535.62h-34A14.59,14.59,0,0,1,360.2,531l-32.06-34.27a4.38,4.38,0,0,1,3.2-7.36h31.78Z"/><path class="cls-1" d="M404.87,536.62h-34a15.64,15.64,0,0,1-11.4-5L327.41,497.4a5.38,5.38,0,0,1,3.93-9h31.78a1,1,0,0,1,0,2H331.34a3.38,3.38,0,0,0-2.47,5.68l32.06,34.27a13.63,13.63,0,0,0,9.93,4.32h34a1,1,0,0,1,0,2Z"/><circle class="cls-2" cx="411.39" cy="619.48" r="15.29"/><path class="cls-3" d="M243.23,493.73a4.38,4.38,0,0,0-4.38-4.38h-31a46.7,46.7,0,0,0-34.42,14.84l-19.06,20a6.56,6.56,0,0,0,4.45,11.39h80a4.38,4.38,0,0,0,4.38-4.38Z"/><path class="cls-1" d="M238.85,536.62h-80a7.56,7.56,0,0,1-5.13-13.12l19-20a47.7,47.7,0,0,1,35.14-15.15h31a5.38,5.38,0,0,1,5.38,5.38v37.51A5.38,5.38,0,0,1,238.85,536.62Zm-31-46.26a45.7,45.7,0,0,0-33.69,14.53l-19.06,20a5.57,5.57,0,0,0,3.73,9.7h80a3.38,3.38,0,0,0,3.38-3.38V493.73a3.38,3.38,0,0,0-3.38-3.38Z"/><path class="cls-3" d="M341.6,524.63l-28.36-31a13.13,13.13,0,0,0-9.69-4.27h-41.5a4.38,4.38,0,0,0-4.38,4.38v37.51a4.38,4.38,0,0,0,4.38,4.38h74.7A6.56,6.56,0,0,0,341.6,524.63Z"/><path class="cls-1" d="M336.76,536.62h-74.7a5.38,5.38,0,0,1-5.38-5.38V493.73a5.38,5.38,0,0,1,5.38-5.38h41.5A14.16,14.16,0,0,1,314,493l28.36,31a7.56,7.56,0,0,1-5.58,12.67Zm-74.7-46.26a3.38,3.38,0,0,0-3.38,3.38v37.51a3.38,3.38,0,0,0,3.38,3.38h74.7a5.56,5.56,0,0,0,4.11-9.32h0l-28.36-31a12.16,12.16,0,0,0-9-3.94Z"/><path class="cls-1" d="M356.83,617.1h-.17a1,1,0,0,1-.81-1.16c4.79-27.64,0-74.46,0-74.93a1,1,0,0,1,2-.21c0,.47,4.83,47.57,0,75.48A1,1,0,0,1,356.83,617.1Z"/><path class="cls-1" d="M250.46,617.1a1,1,0,0,1-1-.84c-4.16-25-.05-74.95,0-75.45V489.36a1,1,0,0,1,2,0V540.9c0,.58-4.14,50.33,0,75a1,1,0,0,1-.82,1.15Z"/><path class="cls-1" d="M485.05,562.58a210.18,210.18,0,0,1-40.74-3.89c-33.7-6.76-70.57-14.77-70.94-14.85a1,1,0,0,1,.42-2c.37.08,37.22,8.09,70.91,14.85,34.23,6.86,67.85,3.16,74.66.07a1,1,0,0,1,.83,1.82C516.08,560.48,502.55,562.58,485.05,562.58Z"/><rect class="cls-3" x="262.43" y="552.75" width="24.89" height="9.9" rx="3" ry="3"/><ellipse class="cls-3" cx="524.16" cy="578.75" rx="8.17" ry="10.96"/><path class="cls-1" d="M455.11,590.71c-5.06,0-9.17-5.37-9.17-12s4.12-12,9.17-12,9.17,5.37,9.17,12S460.17,590.71,455.11,590.71Zm0-21.92c-4,0-7.17,4.47-7.17,10s3.22,10,7.17,10,7.17-4.47,7.17-10S459.07,568.79,455.11,568.79Z"/><path class="cls-1" d="M524.16,590.71c-5.06,0-9.17-5.37-9.17-12s4.12-12,9.17-12,9.17,5.37,9.17,12S529.21,590.71,524.16,590.71Zm0-21.92c-4,0-7.17,4.47-7.17,10s3.22,10,7.17,10,7.17-4.47,7.17-10S528.11,568.79,524.16,568.79Z"/><rect class="cls-3" x="513.36" y="595.69" width="2" height="12.81"/><rect class="cls-3" x="507.93" y="590.99" width="2" height="17.51"/><rect class="cls-3" x="502.51" y="589.53" width="2" height="18.97"/><rect class="cls-3" x="497.09" y="589.42" width="2" height="19.07"/><rect class="cls-3" x="491.66" y="589.42" width="2" height="19.07"/><rect class="cls-3" x="486.24" y="589.42" width="2" height="19.07"/><rect class="cls-3" x="480.82" y="589.42" width="2" height="19.07"/><rect class="cls-3" x="475.39" y="589.42" width="2" height="19.07"/><rect class="cls-3" x="469.97" y="590.83" width="2" height="17.66"/><rect class="cls-3" x="464.55" y="595.17" width="2" height="13.33"/><rect class="cls-3" x="185.08" y="614.18" width="194.99" height="8.67" rx="3" ry="3"/><path class="cls-3" d="M555.89,564.41H594a3,3,0,0,1,3,3v23a0,0,0,0,1,0,0h-44.1a0,0,0,0,1,0,0v-23A3,3,0,0,1,555.89,564.41Z"/><rect class="cls-3" x="552.89" y="590.41" width="44.1" height="60.18"/><rect class="cls-1" x="560.69" y="578.75" width="28.5" height="4.32" rx="2.16" ry="2.16"/><g class="cls-4"><path class="cls-3" d="M0,685.47H304.51L260.88,295.9a3,3,0,0,1,3-3.33h308.4a3,3,0,0,1,3,2.67L619,685.47H771l-80.4-650H0Z"/></g><path class="cls-1" d="M264.26,686.47a1,1,0,0,1-1-.89l-70-649.83a1,1,0,0,1,2-.21l70,649.83a1,1,0,0,1-.89,1.1Z"/><path class="cls-1" d="M659.18,686.12a1,1,0,0,1-1-.89l-70-649.83a1,1,0,0,1,2-.21l70,649.83a1,1,0,0,1-.89,1.1Z"/><path class="cls-1" d="M69.34,686.47a1,1,0,0,1-1-.89L0,51.11V40.77a1,1,0,0,1,1,.89l69.34,643.7a1,1,0,0,1-.89,1.1Z"/><path class="cls-7" d="M691,73.76H0v-2H691a1,1,0,0,1,0,2Z"/><path class="cls-1" d="M719.35,266.47H0v-2H719.35a1,1,0,0,1,0,2Z"/><path class="cls-1" d="M0,70.19H716.12a3,3,0,0,1,3,3v84a3,3,0,0,1-3,3H0a0,0,0,0,1,0,0v-90A0,0,0,0,1,0,70.19Z"/><path class="cls-3" d="M150,99.23l-20.81,31.54h-3.78l-8.55-31.54h8.32l4.78,17.93,11.81-17.93Z"/><path class="cls-3" d="M162.29,99.27h19.58l-1.33,6.84h-11.3l-1,5.12h10l-1.36,7h-10L165.75,124H177l-1.32,6.76H156.15Z"/><path class="cls-3" d="M213.8,130.76l-12-14.91-2.91,14.91h-8.28l6.14-31.5h3.36l12,14.87,2.9-14.87h8.28l-6.14,31.5Z"/><path class="cls-3" d="M238.83,99.27h11.68c8.7,0,14.38,7.05,12.68,15.75s-10.13,15.75-18.82,15.75H232.69Zm3.68,23.35H246a9.55,9.55,0,0,0,8.93-7.47,6,6,0,0,0-6-7.43h-3.49Z"/><path class="cls-3" d="M280.53,99.27h8.28l-6.14,31.5h-8.28Z"/><path class="cls-3" d="M302,99.23h24.83l-1.6,8.23H316.9l-4.54,23.31h-8.28l4.54-23.31h-8.19Z"/><path class="cls-3" d="M328.61,130.76l20.84-31.5h3.74l8.69,31.5h-8.28l-1.13-4.12h-12.9l-2.69,4.12Zm15.56-11.09h6.43l-1.84-6.93Z"/><path class="cls-3" d="M399.68,130.76l20.84-31.5h3.74l8.69,31.5h-8.28l-1.13-4.12h-12.9L408,130.76Zm15.56-11.09h6.43l-1.84-6.93Z"/><path class="cls-3" d="M454.27,118.21a3.3,3.3,0,0,0,3.31,4.12,5.26,5.26,0,0,0,4.92-4.12l3.69-18.94h8.32l-3.72,19.07c-1.35,6.93-8,12.43-14.86,12.43s-11.36-5.5-10-12.43l3.72-19.07H458Z"/><path class="cls-3" d="M487.8,99.23h24.83l-1.6,8.23h-8.36l-4.54,23.31h-8.28l4.54-23.31h-8.19Z"/><path class="cls-3" d="M540.52,99.27c8.7,0,14.37,7.1,12.67,15.79s-10.12,15.71-18.82,15.71-14.34-7-12.65-15.71S531.83,99.27,540.52,99.27Zm-1.6,8.23A9.56,9.56,0,0,0,530,115a6,6,0,0,0,6,7.52,9.61,9.61,0,0,0,9-7.52A6,6,0,0,0,538.92,107.5Z"/><polygon class="cls-1" points="766.98 652.47 615.25 652.47 614.47 645.47 766.12 645.47 766.98 652.47"/><path class="cls-3" d="M462.27,402h38.1a3,3,0,0,1,3,3v23a0,0,0,0,1,0,0h-44.1a0,0,0,0,1,0,0V405A3,3,0,0,1,462.27,402Z"/><rect class="cls-3" x="459.27" y="427.98" width="44.1" height="60.18"/><rect class="cls-1" x="467.07" y="414.98" width="28.5" height="4.32" rx="2.16" ry="2.16"/><polygon class="cls-1" points="300.81 652.47 0 652.47 0 645.47 300.03 645.47 300.81 652.47"/><path class="cls-1" d="M0,821.33H400.77c-28.57-128.53-122.3-91.28-169-75-111.84,39-91.21-113.21-167.43-162.55C45.16,571.36,23.15,563.65,0,559.84Z"/></g></g></svg>