<svg xmlns="http://www.w3.org/2000/svg" viewBox="0 0 94.33 94.33"><defs><style>.cls-1{fill:#fff;}</style></defs><title>down_arrow</title><g id="Livello_2" data-name="Livello 2"><g id="Livello_1-2" data-name="Livello 1"><path class="cls-1" d="M47.17,94.33A47.17,47.17,0,1,1,94.33,47.17,47.22,47.22,0,0,1,47.17,94.33ZM47.17,2A45.17,45.17,0,1,0,92.33,47.17,45.22,45.22,0,0,0,47.17,2Z"/><path class="cls-1" d="M47.17,74.65a1,1,0,0,1-1-1v-53a1,1,0,0,1,2,0v53A1,1,0,0,1,47.17,74.65Z"/><path class="cls-1" d="M47.17,74.65a1,1,0,0,1-.71-.29L21.31,49.21a1,1,0,1,1,1.41-1.41L47.17,72.24,71.61,47.8A1,1,0,1,1,73,49.21L47.87,74.36A1,1,0,0,1,47.17,74.65Z"/></g></g></svg>