b1_fill{fill:#3E4887;}
.b2_fill{fill:#859cec;}
<svg xmlns="http://www.w3.org/2000/svg" viewBox="0 0 1361.45 1202.74">
	<defs>
	<style>
		.b1_fill{fill:#3d4689;}
	</style>
	</defs>
	<polygon class="b3_fill" points="350 338 473 428 473 865.13 350 865.13 350 338"/>
	<polygon class="b2_fill" points="473 428 524 465.36 524 865.13 473 865.13 473 428"/>
	<polygon class="b3_fill" points="206 139.55 336.42 68 336.42 865.36 206 865.36 206 139.55"/>
	<polygon class="b2_fill" points="336.42 68 401.75 116.34 401.75 865.15 336.42 865.15 336.42 68"/>
	<path class="b1_fill" d="M292.7,866.15a1,1,0,0,1-1-1V92a1,1,0,0,1,2,0V865.15A1,1,0,0,1,292.7,866.15Z"/>
	<path class="b1_fill" d="M248.31,866.15a1,1,0,0,1-1-1V116.34a1,1,0,1,1,2,0V865.15A1,1,0,0,1,248.31,866.15Z"/>
	<path class="b1_fill" d="M378.36,854.64a37.81,37.81,0,0,0-37.65-16.55h-.05a38,38,0,0,0-13.72,5.12l-.1,0s0,0-.08.07a38,38,0,0,0-10.72,10l0,0v0a37.62,37.62,0,0,0-5.89,12.54c-21.28-2.61-28.54-16.71-37.34-40.5-16.57-44.8-107-189.58-272.78-90.9V950.07H473S451.09,835.63,378.36,854.64ZM355.95,840.8a35.77,35.77,0,0,1,10.95,5l-10.64,14.77c-1.8.44-3.54.84-5.25,1.23Zm-15.18,23.08-12-19.43A36,36,0,0,1,340,840.24l3.75,23.08Zm35.55-8.71q-9.13,2.63-17.07,4.63l9.27-12.86A35.73,35.73,0,0,1,376.32,855.18ZM354,840.35l-5.17,21.92-3.11.66-3.73-23A35.64,35.64,0,0,1,354,840.35Zm-26.94,5.16,11.6,18.76q-2.41.42-4.68.75l-15.72-11.33A36,36,0,0,1,327.06,845.51Zm-10,9.8,14,10.1a90.61,90.61,0,0,1-19,.68A35.64,35.64,0,0,1,317.08,855.31Z"/>
	<rect class="b3_fill" width="146" height="1015.13"/>
	<path class="b2_fill" d="M146,0h71a3,3,0,0,1,3,3V1015.13H146Z"/>
	<path class="b1_fill" d="M107.22,538.2h-10a1,1,0,0,1-1-1v-42a1,1,0,0,1,1-1h10a1,1,0,0,1,1,1v42A1,1,0,0,1,107.22,538.2Zm-9-2h8v-40h-8Z"/>
	<path class="b1_fill" d="M85.72,477.53h-10a1,1,0,0,1-1-1v-42a1,1,0,0,1,1-1h10a1,1,0,0,1,1,1v42A1,1,0,0,1,85.72,477.53Zm-9-2h8v-40h-8Z"/>
	<path class="b1_fill" d="M107.22,108h-10a1,1,0,0,1-1-1V65a1,1,0,0,1,1-1h10a1,1,0,0,1,1,1v42A1,1,0,0,1,107.22,108Zm-9-2h8V66h-8Z"/>
	<path class="b1_fill" d="M1241.72,428.16C1128.19,370.26,1085,503.76,1068,516.84s-105.54,61-144,46.93c-33.84-12.35-77.9-2.53-83.94,33.07l-12.86-5,2.23-5.67a1,1,0,1,0-1.86-.73l-10.13,25.81h0L785.3,693.12a76.23,76.23,0,0,1-21.38.26C713.62,687.13,640,691.76,618,795.26l605-.36S1302.78,459.32,1241.72,428.16ZM836.1,650.06l-10.27-4,10.36-26.41,4.27,1.68A79.92,79.92,0,0,1,836.1,650.06Zm-9.71,18.35-8.09-3.18,6.81-17.34,10.31,4A68.82,68.82,0,0,1,826.39,668.41Zm-32,7,7.18,12.9a63.88,63.88,0,0,1-9.3,3.29l-2.48-4.46Zm9,12.05L795.33,673l4.6-11.73L810.34,680l-1.85,4.71Q806,686.22,803.38,687.5Zm7.91-9.89L802.05,661l13.65,5.36ZM801,658.47l6.81-17.34,15.39,6-6.81,17.34Zm17.9-45.62,13.65,5.36-18.06,5.88Zm15,7-9.57,24.39-10-18ZM813,628l9.29,16.68-13.72-5.39Zm23.91-10.21,2.7-6.88c.06.65.13,1.31.21,2q.39,3.15.54,6.26Zm2.84-18.9a52.49,52.49,0,0,0-.4,7.19l-4.31,11-15.39-6,6.81-17.34Zm-50.93,90.72,1.42,2.56q-1.31.31-2.65.57Zm22.54-6.7,6.19-15.78,7.56,3A62.86,62.86,0,0,1,811.37,682.88Z"/>
	<path class="b3_fill" d="M874.76,166h170.7V825.13H868.76V172A6,6,0,0,1,874.76,166Z"/>
	<path class="b2_fill" d="M1099.47,166h-54V825.13h60V172A6,6,0,0,0,1099.47,166Z"/>
	<path class="b1_fill" d="M1045.47,778.93H868.76a1,1,0,0,1,0-2h176.7a1,1,0,0,1,0,2Z"/>
	<path class="b1_fill" d="M1045.47,708.32H868.76a1,1,0,0,1,0-2h176.7a1,1,0,0,1,0,2Z"/>
	<path class="b1_fill" d="M1045.47,637.71H868.76a1,1,0,0,1,0-2h176.7a1,1,0,0,1,0,2Z"/>
	<path class="b1_fill" d="M1045.47,567.11H868.76a1,1,0,0,1,0-2h176.7a1,1,0,0,1,0,2Z"/>
	<path class="b1_fill" d="M1045.47,496.5H868.76a1,1,0,0,1,0-2h176.7a1,1,0,0,1,0,2Z"/>
	<path class="b1_fill" d="M1045.47,425.89H868.76a1,1,0,0,1,0-2h176.7a1,1,0,0,1,0,2Z"/>
	<path class="b1_fill" d="M1045.47,355.29H868.76a1,1,0,0,1,0-2h176.7a1,1,0,0,1,0,2Z"/>
	<path class="b1_fill" d="M1045.47,284.68H868.76a1,1,0,0,1,0-2h176.7a1,1,0,0,1,0,2Z"/>
	<path class="b1_fill" d="M1045.47,214.07H868.76a1,1,0,0,1,0-2h176.7a1,1,0,0,1,0,2Z"/>
	<ellipse class="w_fill" cx="901.18" cy="736.5" rx="77.7" ry="72.94" transform="translate(73.52 1554.74) rotate(-83.93)"/>
	<path class="b1_fill" d="M889.53,847.08h-.11a1,1,0,0,1-.89-1.1l19.87-186.84a1,1,0,1,1,2,.21L890.52,846.18A1,1,0,0,1,889.53,847.08Z"/>
	<path class="b1_fill" d="M902.11,728.82a1,1,0,0,1-.54-1.84l58.22-37.66a1,1,0,1,1,1.09,1.68l-58.22,37.66A1,1,0,0,1,902.11,728.82Z"/>
	<path class="b1_fill" d="M938.94,704.84h0a1,1,0,0,1-1-1l1.24-34.15a1,1,0,0,1,2,.07l-1.24,34.15A1,1,0,0,1,938.94,704.84Z"/>
	<path class="b1_fill" d="M898.58,761.93a1,1,0,0,1-.48-.12l-69.34-37.67a1,1,0,1,1,1-1.76l69.34,37.67a1,1,0,0,1-.48,1.88Z"/>
	<path class="b1_fill" d="M849.6,735.2a1,1,0,0,1-1-.83l-7.38-43a1,1,0,1,1,2-.34l7.38,43a1,1,0,0,1-.82,1.15Z"/>
	<path class="b1_fill" d="M839.39,778.76a1,1,0,0,1-.56-1.83l40.41-27.59a1,1,0,1,1,1.13,1.65L840,778.59A1,1,0,0,1,839.39,778.76Z"/>
	<path class="b1_fill" d="M861.73,763.6a1,1,0,0,1-.33-.06l-32.27-11.41a1,1,0,1,1,.67-1.89l32.27,11.41a1,1,0,0,1-.33,1.94Z"/>
	<path class="b1_fill" d="M896.66,780.07a1,1,0,0,1-.13-2l70.35-9.26a1,1,0,0,1,.26,2l-70.35,9.26Z"/>
	<path class="b1_fill" d="M951.61,773.15a1,1,0,0,1-.78-1.62l22.11-27.95a1,1,0,1,1,1.57,1.24l-22.11,27.95A1,1,0,0,1,951.61,773.15Z"/>
	<path class="b1_fill" d="M947.43,797.43a1,1,0,0,1-.61-.21l-26.54-20.36a1,1,0,1,1,1.22-1.59L948,795.63a1,1,0,0,1-.61,1.79Z"/>
	<path class="b1_fill" d="M903.72,713.68a1,1,0,0,1-.82-.42l-33-46.32a1,1,0,0,1,1.63-1.16l33,46.32a1,1,0,0,1-.81,1.58Z"/>
	<polygon class="b3_fill" points="1069.45 101 1069.45 1015 1316.45 1015 1316.45 0 1069.45 101"/>
	<rect class="b2_fill" x="1316.45" width="45" height="1015"/>
	<path class="b1_fill" d="M1267.84,1016a1,1,0,0,1-1-1V108.57a1,1,0,1,1,2,0V1015A1,1,0,0,1,1267.84,1016Z"/>
	<path class="b1_fill" d="M1148,921.88a1,1,0,0,1-1-1V607.41a1,1,0,0,1,2,0V920.88A1,1,0,0,1,1148,921.88Z"/>
	<path class="b1_fill" d="M1148,789.69h-78.51a1,1,0,0,1,0-2H1148a1,1,0,0,1,0,2Z"/>
	<path class="b1_fill" d="M1083,1001.24a1,1,0,0,1-1-1V788.69a1,1,0,1,1,2,0v211.55A1,1,0,0,1,1083,1001.24Z"/>
	<path class="b1_fill" d="M1083,875.89h-13.51a1,1,0,0,1,0-2H1083a1,1,0,0,1,0,2Z"/>
	<path class="b1_fill" d="M1316.45,730.2h-247a1,1,0,0,1,0-2h247a1,1,0,0,1,0,2Z"/>
	<path class="b1_fill" d="M1316.45,830.58h-48.39a1,1,0,0,1,0-2h48.39a1,1,0,0,1,0,2Z"/>
	<path class="b1_fill" d="M1267.84,875.89H1148a1,1,0,0,1,0-2h119.88a1,1,0,0,1,0,2Z"/>
	<path class="b1_fill" d="M1267.84,921.88H1083a1,1,0,0,1,0-2h184.88a1,1,0,0,1,0,2Z"/>
	<path class="b1_fill" d="M1316.45,993.36h-48.39a1,1,0,0,1,0-2h48.39a1,1,0,0,1,0,2Z"/>
	<path class="b1_fill" d="M1316.45,674.36h-48.61a1,1,0,0,1,0-2h48.61a1,1,0,0,1,0,2Z"/>
	<path class="b1_fill" d="M1148,674.36h-78.51a1,1,0,0,1,0-2H1148a1,1,0,0,1,0,2Z"/>
	<path class="b1_fill" d="M1316.45,608.41h-247a1,1,0,0,1,0-2h247a1,1,0,0,1,0,2Z"/>
	<path class="b1_fill" d="M1267.84,554.73H1069.45a1,1,0,0,1,0-2h198.39a1,1,0,0,1,0,2Z"/>
	<path class="b1_fill" d="M1267.84,408H1069.45a1,1,0,0,1,0-2h198.39a1,1,0,0,1,0,2Z"/>
	<path class="b1_fill" d="M1195.76,554.73a1,1,0,0,1-1-1V407a1,1,0,0,1,2,0V553.73A1,1,0,0,1,1195.76,554.73Z"/>
	<path class="b1_fill" d="M1316.45,433.26h-48.61a1,1,0,0,1,0-2h48.61a1,1,0,0,1,0,2Z"/>
	<path class="b1_fill" d="M1316.45,337.22h-48.61a1,1,0,0,1,0-2h48.61a1,1,0,0,1,0,2Z"/>
	<path class="b1_fill" d="M1316.45,302.67h-247a1,1,0,0,1,0-2h247a1,1,0,0,1,0,2Z"/>
	<path class="b1_fill" d="M1148,408a1,1,0,0,1-1-1V68.9a1,1,0,0,1,2,0V407A1,1,0,0,1,1148,408Z"/>
	<path class="b1_fill" d="M1148,229.74h-78.51a1,1,0,0,1,0-2H1148a1,1,0,0,1,0,2Z"/>
	<path class="b1_fill" d="M1148,337.22h-78.51a1,1,0,0,1,0-2H1148a1,1,0,0,1,0,2Z"/>
	<path class="b1_fill" d="M1267.84,196.2H1148a1,1,0,0,1,0-2h119.88a1,1,0,0,1,0,2Z"/>
	<path class="b1_fill" d="M1231.8,196.2a1,1,0,0,1-1-1V34.61a1,1,0,0,1,2,0V195.2A1,1,0,0,1,1231.8,196.2Z"/>
	<path class="b1_fill" d="M1231.8,53h-42.43a1,1,0,0,1,0-2h42.43a1,1,0,0,1,0,2Z"/>
	<path class="b1_fill" d="M1316.45,109.57H1231.8a1,1,0,0,1,0-2h84.65a1,1,0,0,1,0,2Z"/>
	<path class="b1_fill" d="M1316.45,169.65h-48.61a1,1,0,0,1,0-2h48.61a1,1,0,0,1,0,2Z"/>
	<path class="b1_fill" d="M1316.45,229.74h-48.61a1,1,0,0,1,0-2h48.61a1,1,0,0,1,0,2Z"/>
	<path class="b1_fill" d="M1148,113.31h-78.51a1,1,0,0,1,0-2H1148a1,1,0,0,1,0,2Z"/>
	<path class="b1_fill" d="M1305.84,866.56a371.16,371.16,0,0,0-57.09,28.88l-242.29,76.47C894.6,947.63,856.33,992.3,839,1033.24c-8.15,19.21-15.56,49.06-25.69,74.57a38.47,38.47,0,0,0-4.33-1,37.65,37.65,0,0,0-14.73.45h-.06a38,38,0,0,0-13.35,6l-.1,0a.92.92,0,0,0-.07.08,38,38,0,0,0-10,10.66l0,0v0a37.79,37.79,0,0,0-4.77,28.53s0,0,0,0v0a37.82,37.82,0,0,0,1.07,3.74c-5.35-.29-11.16-2-17.51-5.53-55.5-30.66-99,51.83-99,51.83h711.1V851.28C1345.1,853.11,1326.73,858.05,1305.84,866.56ZM767.17,1139.23l26.19,4.38q-1,1.1-2,2.12l-23.86,5.51A35.64,35.64,0,0,1,767.17,1139.23Zm4.59-13.22,23.15,14.46a8.55,8.55,0,0,0-.49,1.28l-26.91-4.5A35.64,35.64,0,0,1,771.76,1126Zm21.89-16.55,6,25.85-.76,1.14-.32.16-15.84-22.21A36,36,0,0,1,793.65,1109.46Zm-5.14,39c-5.73,4.94-12.16,7.87-19.48,8q-.59-1.61-1-3.28Zm19.08-27.55,2-11.93q1.49.29,2.93.7C810.94,1113.55,809.3,1117.31,807.59,1120.91Zm0-12.26-3.06,18.27c-1.11,2.08-2.25,4.1-3.43,6L795.59,1109A35.63,35.63,0,0,1,807.61,1108.65Zm-26.54,6.93,15.84,22.21a8.63,8.63,0,0,0-.94,1l-23.14-14.46A36,36,0,0,1,781.07,1115.58ZM1158,971.5l-1.42-4.5,10.64-3.36C1164.18,966.42,1161.13,969,1158,971.5Zm-28.17,16.05-3.48-11,28.32-8.94,1.65,5.22C1148.15,979.16,1139.66,984.23,1129.88,987.55Zm-17-47.13,5.19,16.45-13.57,4.28L1085.79,949Zm30.23-9.54,5.19,16.45L1120,956.27l-5.19-16.45Zm11.15-3.52L1173,939.53l-22.79,7.19L1145,930.27Zm30.09-9.5L1203,930l-.17.15-27.35,8.63-18.74-12.18Zm29.59-9.34,3,9.56c-4.39,3.55-8.52,7.06-12.42,10.51l-17.71-11.51Zm-88.16,66.1-5.19-16.45,28.32-8.94,5.19,16.45Zm-2.5-1.27-16.61-10.79,12-3.79Zm27.53-24.72,24.36-7.69,9.5,6.17c-4.86,4.68-9.44,9.15-13.93,13.32L1156,965.09Zm26.83-8.47,21.61-6.82c-4.64,4.24-9,8.37-13.11,12.35Zm-75.61,21.77L1076,970.15l8-19.93Zm-28.52,9-29.19,9.21L1025.6,968l56.28-17.76Zm-24.2,12.46-2.82-1.83,26.05-8.22-5.81,14.42Q1058.54,986,1049.33,983.39Zm-7.46-2.47-.46.14q-10.39-3.15-20.07-5.63l2.51-6.23Zm26.87,7.26,6.3-15.63,29.19-9.21L1123,975.52l-45.35,14.31Q1073.31,989.13,1068.74,988.18Zm149.92-71.44-2.78-8.82,26.43-8.34C1233.58,905.32,1225.77,911.07,1218.65,916.74Zm-197,52.46-2.32,5.75c-3.05-.77-6.07-1.5-9-2.17Zm60.39,21.32,42.4-13.38,3.48,11C1115.51,992,1100.89,993.12,1082.09,990.52Z"/>
</svg>