<svg xmlns="http://www.w3.org/2000/svg" xmlns:xlink="http://www.w3.org/1999/xlink" viewBox="0 0 1844.78 1585.03"><defs><style>.cls-1{fill:#fff;}.cls-11,.cls-2,.cls-7{fill:none;}.cls-3{fill:#3d4689;}.cls-4{clip-path:url(#clip-path);}.cls-5{fill:#859cec;}.cls-6{fill:#a8aee5;}.cls-7{stroke:#1c204d;stroke-linecap:round;stroke-width:2px;}.cls-11,.cls-7{stroke-miterlimit:10;}.cls-8{fill:#c8bfde;}.cls-9{opacity:0.5;}.cls-10{fill:#ffddd3;}.cls-11{stroke:#7580ef;stroke-width:3px;}.cls-12{clip-path:url(#clip-path-2);}.cls-13{fill:#474ab3;}.cls-14{clip-path:url(#clip-path-3);}.cls-15{clip-path:url(#clip-path-4);}</style><clipPath id="clip-path"><path class="cls-1" d="M1676.21,193.39l-2.84.2a14.42,14.42,0,0,1-15.44-14.73l.63-26.24a24.11,24.11,0,0,1,24.1-23.53h0a24.11,24.11,0,0,1,23.92,27.14l-1.21,9.56A31.66,31.66,0,0,1,1676.21,193.39Z"/></clipPath><clipPath id="clip-path-2"><path class="cls-1" d="M896.79,1160.82h13.41a13.47,13.47,0,0,0,13.45-12.8l1.76-35.13a21.94,21.94,0,0,0-21.91-23h0a21.94,21.94,0,0,0-21.91,23l1.76,35.13A13.47,13.47,0,0,0,896.79,1160.82Z"/></clipPath><clipPath id="clip-path-3"><path class="cls-1" d="M1138.73,1170.82h0a20.51,20.51,0,0,0,20.49-19.49l1.42-28.44a21.94,21.94,0,0,0-21.91-23h0a21.94,21.94,0,0,0-21.91,23l1.42,28.44A20.51,20.51,0,0,0,1138.73,1170.82Z"/></clipPath><clipPath id="clip-path-4"><rect class="cls-2" x="462.18" y="1239.35" width="821.88" height="130.24"/></clipPath></defs><title>fabbrica2</title><g id="Livello_2" data-name="Livello 2"><g id="Livello_1-2" data-name="Livello 1"><path class="cls-1" d="M1610,321.68s26.37-68.45,27-70.27c1.72-5.34,2.35-17.07,8.88-30.61l6.37,42.09-33.45,63a4.87,4.87,0,0,1-5.72,2.34h0A4.87,4.87,0,0,1,1610,321.68Z"/><path class="cls-3" d="M1694.09,466.56l2,2.51,15.16-13.34-12.1-26.26,7.46-55.21A39.43,39.43,0,0,1,1714,356c14.82-19.9.1-47.81.1-47.81h-53.91L1651,398.62a26.79,26.79,0,0,0,5.46,19.49l17.34,22.32.36,28.67,19.4,1.43Z"/><rect class="cls-1" x="1678.8" y="167.94" width="22.52" height="31.01"/><path class="cls-1" d="M1676.21,193.39l-2.84.2a14.42,14.42,0,0,1-15.44-14.73l.63-26.24a24.11,24.11,0,0,1,24.1-23.53h0a24.11,24.11,0,0,1,23.92,27.14l-1.21,9.56A31.66,31.66,0,0,1,1676.21,193.39Z"/><g class="cls-4"><rect class="cls-3" x="1642.83" y="127.57" width="93.83" height="33.91" transform="translate(52.48 -297.62) rotate(10.22)"/></g><ellipse class="cls-1" cx="1693.06" cy="163.88" rx="7.38" ry="9.68"/><path class="cls-5" d="M1639.33,218.78c10.74-22.21,24.44-18.88,38.18-20.79.72-.1,1.44.85,2.16.73,7.75-1.29,15.87-.4,24-.73,5.7.77,22.73-2,32.78,10.75,5,6.29,10.11,28.34,10.11,28.34l-15.37,3.19c-2.75,21.18-10.85,45.89-13.71,67.89h-57.31l-11.74-67.89-12.75-5S1638.6,220.29,1639.33,218.78Z"/><path class="cls-1" d="M1703.31,197.94l-25.47,16.85V197.94Z"/><path class="cls-1" d="M1678.9,309.16a1,1,0,0,1-1-1c0-5.14-.27-30.54-.53-55.1s-.53-50-.53-55.12a1,1,0,1,1,2,0c0,5.14.27,30.54.53,55.1s.53,50,.53,55.12A1,1,0,0,1,1678.9,309.16Z"/><path class="cls-1" d="M1677.84,215.8a1,1,0,0,1-.55-1.83l25.47-16.85a1,1,0,1,1,1.1,1.67l-25.47,16.85A1,1,0,0,1,1677.84,215.8Z"/><path class="cls-1" d="M1678.32,222.65a1,1,0,0,1-.55-1.83l35.1-23.31a1,1,0,0,1,1.11,1.67l-35.1,23.31A1,1,0,0,1,1678.32,222.65Z"/><path class="cls-1" d="M1720.9,240.27l3.71,22.08.88,68.28A5.23,5.23,0,0,0,1728,335h0a5.23,5.23,0,0,0,7.93-3.89l6.8-63.2,3.09-30.72Z"/><path class="cls-1" d="M1729.67,232.27a9.77,9.77,0,1,1,9.77-9.77A9.78,9.78,0,0,1,1729.67,232.27Zm0-17.53a7.77,7.77,0,1,0,7.77,7.77A7.78,7.78,0,0,0,1729.67,214.74Z"/><path class="cls-1" d="M1729.8,228.34l-.13.14-.13-.14a14.32,14.32,0,0,1-3.77-9.69h7.81A14.32,14.32,0,0,1,1729.8,228.34Z"/><circle class="cls-1" cx="1673.01" cy="222.23" r="1.34"/><circle class="cls-1" cx="1673.01" cy="240.93" r="1.34"/><circle class="cls-1" cx="1673.01" cy="259.63" r="1.34"/><circle class="cls-1" cx="1673.01" cy="278.33" r="1.34"/><circle class="cls-1" cx="1673.01" cy="297.03" r="1.34"/><path class="cls-1" d="M1636.54,232.06a1,1,0,0,1-.22-2,7.81,7.81,0,0,0,6.08-7.58,7.7,7.7,0,0,0-2.41-5.62,1,1,0,0,1,1.38-1.45,9.68,9.68,0,0,1,3,7.07,9.82,9.82,0,0,1-7.65,9.53Z"/><path class="cls-1" d="M1683.62,470.8h-.07a1,1,0,0,1-.93-1.07l9.11-132.47a1,1,0,1,1,2,.14l-9.11,132.47A1,1,0,0,1,1683.62,470.8Z"/><path class="cls-1" d="M1723.85,483.2l-12.65-27.47L1696,469.07l1.36,1.75h0l15,19.33a6.74,6.74,0,0,0,11.44-6.95Z"/><path class="cls-1" d="M1674.15,469.11l.36,28.58a6.74,6.74,0,0,0,6.73,6.65h1.85a6.74,6.74,0,0,0,6.68-5.87l3.67-27.11h0l.11-.82Z"/><path class="cls-3" d="M1651.89,123.21l60.9,10.14a1,1,0,0,1,.49,1.84l-5.7,4.64-.32,12.51-49.62-1.28.39-15.12-7.19-11.13A1,1,0,0,1,1651.89,123.21Z"/><rect class="cls-5" x="1657.71" y="145.44" width="49.63" height="6.26" transform="translate(4.41 -43.48) rotate(1.48)"/><path class="cls-5" d="M1655,153.48l2.62-2.43,29.48.76-31.28,3.47A1,1,0,0,1,1655,153.48Z"/><polygon class="cls-6" points="1311.36 278.23 1348.27 780.81 1271.34 780.81 1271.34 278.23 1311.36 278.23"/><polygon class="cls-5" points="1231.33 278.23 1271.34 278.23 1271.34 780.81 1194.42 780.81 1231.33 278.23"/><path class="cls-7" d="M1211.6,641.63"/><path class="cls-8" d="M1229.29,775.35h0a1,1,0,0,1-1-1L1250,278.19a1,1,0,1,1,2,.09l-21.72,496.12A1,1,0,0,1,1229.29,775.35Z"/><path class="cls-8" d="M1315.32,342.48h-88.11a1,1,0,0,1,0-2h88.11a1,1,0,0,1,0,2Z"/><path class="cls-8" d="M1322.65,433H1220a1,1,0,0,1,0-2h102.62a1,1,0,0,1,0,2Z"/><path class="cls-8" d="M1329.3,523.52H1213.39a1,1,0,0,1,0-2H1329.3a1,1,0,0,1,0,2Z"/><path class="cls-8" d="M1335.95,614H1206.74a1,1,0,0,1,0-2h129.21a1,1,0,0,1,0,2Z"/><path class="cls-8" d="M1342.59,704.57h-142.5a1,1,0,0,1,0-2h142.5a1,1,0,0,1,0,2Z"/><path class="cls-3" d="M1231.33,268.84h80a0,0,0,0,1,0,0v6.62a2.77,2.77,0,0,1-2.77,2.77H1234.1a2.77,2.77,0,0,1-2.77-2.77v-6.62A0,0,0,0,1,1231.33,268.84Z" transform="translate(2542.68 547.08) rotate(-180)"/><polygon class="cls-6" points="594.1 278.23 631.01 780.81 554.09 780.81 554.09 278.23 594.1 278.23"/><polygon class="cls-5" points="514.07 278.23 554.09 278.23 554.09 780.81 477.16 780.81 514.07 278.23"/><path class="cls-7" d="M494.34,641.63"/><path class="cls-8" d="M511.75,781.81h0a1,1,0,0,1-1-1l22-502.58a1,1,0,1,1,2,.09l-22,502.58A1,1,0,0,1,511.75,781.81Z"/><path class="cls-8" d="M598.07,342.48H510a1,1,0,0,1,0-2h88.11a1,1,0,0,1,0,2Z"/><path class="cls-8" d="M605.39,433H502.78a1,1,0,0,1,0-2H605.39a1,1,0,0,1,0,2Z"/><path class="cls-8" d="M612,523.52H496.13a1,1,0,1,1,0-2H612a1,1,0,0,1,0,2Z"/><path class="cls-8" d="M618.69,614H489.48a1,1,0,0,1,0-2H618.69a1,1,0,0,1,0,2Z"/><path class="cls-8" d="M625.34,704.57H482.83a1,1,0,1,1,0-2h142.5a1,1,0,0,1,0,2Z"/><path class="cls-3" d="M514.07,268.84h80a0,0,0,0,1,0,0v6.62a2.77,2.77,0,0,1-2.77,2.77H516.84a2.77,2.77,0,0,1-2.77-2.77v-6.62a0,0,0,0,1,0,0Z" transform="translate(1108.17 547.08) rotate(-180)"/><polygon class="cls-5" points="1678.56 1260.16 1493.45 1075.06 1472.45 1059.15 1491.58 1432.93 1648.86 1432.93 1678.56 1432.93 1678.56 1260.16"/><path class="cls-3" d="M1678.56,1307.92H1501.73a1,1,0,0,1,0-2h176.82a1,1,0,1,1,0,2Z"/><path class="cls-3" d="M1678.56,1346H1501.73a1,1,0,0,1,0-2h176.82a1,1,0,0,1,0,2Z"/><rect class="cls-6" x="323.52" y="781.45" width="1178.39" height="651.48"/><g class="cls-9"><path class="cls-1" d="M1501.91,780.81a110.73,110.73,0,0,0-110.73-110.73H434.25A110.73,110.73,0,0,0,323.52,780.81H1501.91Z"/></g><rect class="cls-1" x="435.31" y="669.08" width="955.87" height="2"/><path class="cls-1" d="M1183.29,781.81a1,1,0,0,1-1-1,109.85,109.85,0,0,0-109.73-109.73,1,1,0,0,1,0-2,111.86,111.86,0,0,1,111.73,111.73A1,1,0,0,1,1183.29,781.81Z"/><path class="cls-1" d="M864.66,781.81a1,1,0,0,1-1-1A109.85,109.85,0,0,0,753.93,671.08a1,1,0,0,1,0-2A111.86,111.86,0,0,1,865.66,780.81,1,1,0,0,1,864.66,781.81Z"/><path class="cls-1" d="M546,781.81a1,1,0,0,1-1-1A109.85,109.85,0,0,0,435.31,671.08a1,1,0,1,1,0-2A111.86,111.86,0,0,1,547,780.81,1,1,0,0,1,546,781.81Z"/><path class="cls-1" d="M323.52,781.81a1,1,0,0,1-1-1A111.86,111.86,0,0,1,434.25,669.08a1,1,0,0,1,0,2A109.85,109.85,0,0,0,324.52,780.81,1,1,0,0,1,323.52,781.81Z"/><rect class="cls-3" x="323.52" y="780.81" width="1178.39" height="6.46"/><path class="cls-3" d="M1501.91,873.8H323.52a1,1,0,1,1,0-2H1501.91a1,1,0,0,1,0,2Z"/><path class="cls-3" d="M1501.91,832.62H323.52a1,1,0,1,1,0-2H1501.91a1,1,0,0,1,0,2Z"/><path class="cls-8" d="M1372.94,911.61h-866a16.61,16.61,0,0,0-11.88,5l-73.43,75.11a16.61,16.61,0,0,0-4.73,11.61V1358H1463V1003.33a16.61,16.61,0,0,0-4.73-11.61l-73.43-75.11A16.61,16.61,0,0,0,1372.94,911.61Z"/><g class="cls-9"><path class="cls-6" d="M1372.94,911.61H413.69v74.51h725.66A16.61,16.61,0,0,1,1151.1,991l294.44,257.53H1463V1003.33a16.61,16.61,0,0,0-4.73-11.61l-73.43-75.11A16.61,16.61,0,0,0,1372.94,911.61Z"/></g><g class="cls-9"><path class="cls-1" d="M1171.78,1376.86H594.08V1243.18h577.7Zm-576.7-1h575.7V1244.18H595.08Z"/></g><rect class="cls-10" x="416.86" y="1357.99" width="1055.35" height="90.86"/><rect class="cls-3" x="1501.91" y="1426.47" width="176.59" height="6.46"/><path class="cls-11" d="M1504.78,1152.21"/><path class="cls-11" d="M1394.32,1262.67"/><path class="cls-6" d="M1389.33,1274.71v84a16.61,16.61,0,0,1-4.86,11.74l-34.07,34.07a16.61,16.61,0,0,1-11.74,4.86H1040.52a27.68,27.68,0,0,0-27.68,27.68v23.6H1501.9V1412l-29.28-227.5L1394.19,1263A16.61,16.61,0,0,0,1389.33,1274.71Z"/><rect class="cls-3" x="1012.84" y="1454.16" width="489.06" height="6.46"/><path class="cls-1" d="M812.56,1061.05H718.47a16.61,16.61,0,0,1-12.81-6L593.78,919.44H701.57l113.13,137.09A2.77,2.77,0,0,1,812.56,1061.05Z"/><path class="cls-1" d="M966.42,1061.05H872.33a16.61,16.61,0,0,1-12.81-6L747.64,919.44H855.43l113.13,137.09A2.77,2.77,0,0,1,966.42,1061.05Z"/><path class="cls-6" d="M900.23,911.61,900,895.3H397.34v55.35h457a16.61,16.61,0,0,0,11.74-4.86Z"/><path class="cls-3" d="M1501.91,1335.61H1389.16a1,1,0,0,1,0-2h112.75a1,1,0,0,1,0,2Z"/><path class="cls-3" d="M1501.91,1373.65H1382.05a1,1,0,0,1,0-2h119.86a1,1,0,0,1,0,2Z"/><path class="cls-5" d="M1043.39,1244.68a1,1,0,0,1-1-1V911.61a1,1,0,0,1,2,0v332.07A1,1,0,0,1,1043.39,1244.68Z"/><path class="cls-5" d="M1207.83,1359a1,1,0,0,1-1-1V911.61a1,1,0,0,1,2,0V1358A1,1,0,0,1,1207.83,1359Z"/><path class="cls-5" d="M1207.83,1019.72H1043.39a1,1,0,0,1,0-2h164.44a1,1,0,0,1,0,2Z"/><path class="cls-5" d="M1441.47,975.56H1207.83a1,1,0,0,1,0-2h233.64a1,1,0,0,1,0,2Z"/><path class="cls-5" d="M872.2,1018.46H485.87a1,1,0,0,1-1-1V998.75a1,1,0,0,1,1-1H872.2a1,1,0,0,1,1,1v18.71A1,1,0,0,1,872.2,1018.46Zm-385.33-2H871.2V999.75H486.87Z"/><path class="cls-3" d="M464.95,1222h815.39a3.73,3.73,0,0,1,3.73,3.73v143.91a0,0,0,0,1,0,0H462.18a0,0,0,0,1,0,0V1224.72A2.77,2.77,0,0,1,464.95,1222Z"/><path class="cls-1" d="M1333,1078.64a44.7,44.7,0,1,1,44.7-44.7A44.75,44.75,0,0,1,1333,1078.64Zm0-87.4a42.7,42.7,0,1,0,42.7,42.7A42.75,42.75,0,0,0,1333,991.25Z"/><path class="cls-3" d="M1348.06,1050a1,1,0,0,1-.71-.29l-15.07-15.07a1,1,0,0,1,1.41-1.41l15.07,15.07a1,1,0,0,1-.71,1.71Z"/><path class="cls-1" d="M1333,1034.95a1,1,0,0,1-1-1v-30.74a1,1,0,1,1,2,0v30.74A1,1,0,0,1,1333,1034.95Z"/><g class="cls-9"><path class="cls-1" d="M1191.47,284.27v1.13a43.7,43.7,0,0,1-43.65,44H920.76a15,15,0,0,0-15,15h0a15,15,0,0,0,15,15h17.77a45,45,0,0,1,45,45h0a45,45,0,0,1-45,45H801.7a15,15,0,0,0-15,15h0a15,15,0,0,0,15,15h293.56a45,45,0,0,1,45,44.93v0a45,45,0,0,1-45,45.06H.33L0,0H704.8a45,45,0,0,1,45,45h0a45,45,0,0,1-45,45H648.7a15,15,0,0,0-15,15.73A15.28,15.28,0,0,0,649.13,120H932.4a45,45,0,0,1,45,45.77C977,190.44,956.33,210,931.66,210H843a14.67,14.67,0,0,0-14.66,15.38,14.94,14.94,0,0,0,15.06,14h303.1A45,45,0,0,1,1191.47,284.27Z"/></g><polygon class="cls-6" points="952.73 278.23 989.64 780.81 912.71 780.81 912.71 278.23 952.73 278.23"/><polygon class="cls-5" points="872.7 278.23 912.71 278.23 912.71 780.81 835.79 780.81 872.7 278.23"/><path class="cls-7" d="M853,641.63"/><path class="cls-8" d="M870.38,781.81h0a1,1,0,0,1-1-1l22-502.58a1,1,0,1,1,2,.09l-22,502.58A1,1,0,0,1,870.38,781.81Z"/><path class="cls-8" d="M956.7,342.48H868.59a1,1,0,0,1,0-2H956.7a1,1,0,0,1,0,2Z"/><path class="cls-8" d="M964,433H861.41a1,1,0,0,1,0-2H964a1,1,0,0,1,0,2Z"/><path class="cls-8" d="M970.67,523.52H854.76a1,1,0,0,1,0-2H970.67a1,1,0,0,1,0,2Z"/><path class="cls-8" d="M977.32,614H848.11a1,1,0,0,1,0-2H977.32a1,1,0,0,1,0,2Z"/><path class="cls-8" d="M984,704.57H841.46a1,1,0,1,1,0-2H984a1,1,0,0,1,0,2Z"/><path class="cls-3" d="M872.7,268.84h80a0,0,0,0,1,0,0v6.62a2.77,2.77,0,0,1-2.77,2.77H875.47a2.77,2.77,0,0,1-2.77-2.77v-6.62A0,0,0,0,1,872.7,268.84Z" transform="translate(1825.43 547.08) rotate(-180)"/><rect class="cls-3" x="857.23" y="1172.19" width="92.52" height="49.76"/><polygon class="cls-3" points="949.75 1172.19 857.23 1172.19 903.54 1148.58 949.75 1172.19"/><polygon class="cls-3" points="974.62 1200.55 832.36 1200.55 857.23 1172.19 949.75 1172.19 974.62 1200.55"/><path class="cls-3" d="M903.49,1089.86h0a24.75,24.75,0,0,1,24.75,24.75v23.21a0,0,0,0,1,0,0h-49.5a0,0,0,0,1,0,0v-23.21A24.75,24.75,0,0,1,903.49,1089.86Z"/><path class="cls-1" d="M922.79,1173.61l-19.3,14-19.3-14a.78.78,0,0,1-.32-.68l8-35H917.1l6,35A.78.78,0,0,1,922.79,1173.61Z"/><path class="cls-1" d="M919.79,1146.1h-32.6a12.46,12.46,0,0,1-12.26-10.23h0a7.93,7.93,0,0,1,7.8-9.35h41.51a7.93,7.93,0,0,1,7.8,9.35h0A12.46,12.46,0,0,1,919.79,1146.1Z"/><path class="cls-1" d="M896.79,1160.82h13.41a13.47,13.47,0,0,0,13.45-12.8l1.76-35.13a21.94,21.94,0,0,0-21.91-23h0a21.94,21.94,0,0,0-21.91,23l1.76,35.13A13.47,13.47,0,0,0,896.79,1160.82Z"/><g class="cls-12"><ellipse class="cls-3" cx="909.25" cy="1102.06" rx="27.05" ry="24.26"/><ellipse class="cls-3" cx="872.44" cy="1106.72" rx="17.74" ry="23.06"/></g><path class="cls-3" d="M882.72,1134h-.38l-.11-8,4.74-16.08v19.86A4.25,4.25,0,0,1,882.72,1134Z"/><path class="cls-3" d="M924.71,1134h-.38a4.25,4.25,0,0,1-4.25-4.25v-19.86l4.89,11.67Z"/><path class="cls-1" d="M903.54,1089.15h0a26.31,26.31,0,0,1,26.31,26.31v1.11a0,0,0,0,1,0,0H877.23a0,0,0,0,1,0,0v-1.11A26.31,26.31,0,0,1,903.54,1089.15Z"/><path class="cls-1" d="M874.12,1116.57H933a3.68,3.68,0,0,1,3.68,3.68v0a0,0,0,0,1,0,0H870.43a0,0,0,0,1,0,0v0A3.68,3.68,0,0,1,874.12,1116.57Z"/><path class="cls-6" d="M929.85,1117.57H877.23a1,1,0,0,1,0-2h52.62a1,1,0,1,1,0,2Z"/><path class="cls-6" d="M919.58,1117.57a1,1,0,0,1-1-1v-21.93a1,1,0,0,1,2,0v21.93A1,1,0,0,1,919.58,1117.57Z"/><path class="cls-6" d="M903.54,1117.57a1,1,0,0,1-1-1v-27.42a1,1,0,0,1,2,0v27.42A1,1,0,0,1,903.54,1117.57Z"/><path class="cls-6" d="M887.5,1117.57a1,1,0,0,1-1-1v-21.93a1,1,0,0,1,2,0v21.93A1,1,0,0,1,887.5,1117.57Z"/><rect class="cls-13" x="903.15" y="1187.62" width="0.78" height="34.33"/><path class="cls-6" d="M885.23,1183.33h31.85a3,3,0,0,1,3,3V1222a0,0,0,0,1,0,0H882.23a0,0,0,0,1,0,0v-35.62A3,3,0,0,1,885.23,1183.33Z"/><path class="cls-5" d="M885.23,1183.33h9.88a0,0,0,0,1,0,0v38.62a0,0,0,0,1,0,0H882.23a0,0,0,0,1,0,0v-35.62A3,3,0,0,1,885.23,1183.33Z"/><path class="cls-1" d="M974.62,1200.55H942l7.78,21.4H973a9.25,9.25,0,0,0,9.25-9.25h0a9.25,9.25,0,0,0-2.29-6.1Z"/><path class="cls-1" d="M832.36,1200.55H865l-7.78,21.4H834a9.25,9.25,0,0,1-9.25-9.25h0a9.25,9.25,0,0,1,2.29-6.1Z"/><path class="cls-8" d="M857.23,1200.44a1,1,0,0,1-1-1v-27.25a1,1,0,0,1,2,0v27.25A1,1,0,0,1,857.23,1200.44Z"/><path class="cls-8" d="M949.75,1200.44a1,1,0,0,1-1-1v-27.25a1,1,0,0,1,2,0v27.25A1,1,0,0,1,949.75,1200.44Z"/><path class="cls-8" d="M857.23,1196.85H836.48a1,1,0,0,1,0-2h20.75a1,1,0,0,1,0,2Z"/><path class="cls-8" d="M970.5,1196.85H949.75a1,1,0,1,1,0-2H970.5a1,1,0,0,1,0,2Z"/><circle class="cls-3" cx="908.7" cy="1216.63" r="1.48"/><circle class="cls-10" cx="914.83" cy="1216.63" r="1.48"/><path class="cls-5" d="M900.53,1221.95h-2v-9.46a3.34,3.34,0,0,1,3.33-3.33h18.22v2H901.86a1.33,1.33,0,0,0-1.33,1.33Z"/><rect class="cls-5" x="911.62" y="1183.33" width="2" height="26.82"/><path class="cls-1" d="M921.81,1188.31h-7.18a5.67,5.67,0,0,0-5.43,4h0a5.67,5.67,0,0,0,3.31,6.88l14.62,5.89L949.74,1222l14.81-16.33-39.7-16.57A6.61,6.61,0,0,0,921.81,1188.31Z"/><rect class="cls-5" x="895.11" y="1186.37" width="17.51" height="2"/><path class="cls-1" d="M897.77,1192.35a5.67,5.67,0,0,0-5.43-4h-7.18a6.61,6.61,0,0,0-3,.74l-39.7,16.57,14.81,16.33,22.61-16.82,14.62-5.89a5.67,5.67,0,0,0,3.31-6.88Z"/><rect class="cls-3" x="1092.47" y="1172.19" width="92.52" height="49.76"/><polygon class="cls-3" points="1185 1172.19 1092.47 1172.19 1138.79 1158.58 1185 1172.19"/><polygon class="cls-3" points="1209.86 1200.55 1067.61 1200.55 1092.47 1172.19 1185 1172.19 1209.86 1200.55"/><path class="cls-3" d="M1138.73,1099.86h0a24.75,24.75,0,0,1,24.75,24.75v23.21a0,0,0,0,1,0,0H1114a0,0,0,0,1,0,0v-23.21A24.75,24.75,0,0,1,1138.73,1099.86Z"/><path class="cls-1" d="M1155,1173.68l-16.27,13.95-16.27-13.95a1,1,0,0,1-.35-.82l2-24.94h29.22l2,24.94A1,1,0,0,1,1155,1173.68Z"/><path class="cls-1" d="M1155,1158.1h-32.6a12.46,12.46,0,0,1-12.26-10.23h0a7.93,7.93,0,0,1,7.8-9.35h41.51a7.93,7.93,0,0,1,7.8,9.35h0A12.46,12.46,0,0,1,1155,1158.1Z"/><path class="cls-1" d="M1138.73,1170.82h0a20.51,20.51,0,0,0,20.49-19.49l1.42-28.44a21.94,21.94,0,0,0-21.91-23h0a21.94,21.94,0,0,0-21.91,23l1.42,28.44A20.51,20.51,0,0,0,1138.73,1170.82Z"/><g class="cls-14"><rect class="cls-3" x="1107.69" y="1102.91" width="75.68" height="31.02"/></g><path class="cls-3" d="M1118,1144h-.38l-.79-12.72,5.42-11.39v19.86A4.25,4.25,0,0,1,1118,1144Z"/><path class="cls-3" d="M1160,1144h-.38a4.25,4.25,0,0,1-4.25-4.25v-19.86l4.89,11.67Z"/><path class="cls-1" d="M1138.79,1098.15h0a26.31,26.31,0,0,1,26.31,26.31v1.11a0,0,0,0,1,0,0h-52.62a0,0,0,0,1,0,0v-1.11A26.31,26.31,0,0,1,1138.79,1098.15Z"/><path class="cls-1" d="M1109.37,1125.57h58.84a3.68,3.68,0,0,1,3.68,3.68v0a0,0,0,0,1,0,0h-66.21a0,0,0,0,1,0,0v0a3.68,3.68,0,0,1,3.68-3.68Z"/><path class="cls-6" d="M1165.1,1126.57h-52.62a1,1,0,0,1,0-2h52.62a1,1,0,0,1,0,2Z"/><path class="cls-6" d="M1154.83,1126.57a1,1,0,0,1-1-1v-21.93a1,1,0,0,1,2,0v21.93A1,1,0,0,1,1154.83,1126.57Z"/><path class="cls-6" d="M1138.79,1126.57a1,1,0,0,1-1-1v-27.42a1,1,0,0,1,2,0v27.42A1,1,0,0,1,1138.79,1126.57Z"/><path class="cls-6" d="M1122.75,1126.57a1,1,0,0,1-1-1v-21.93a1,1,0,0,1,2,0v21.93A1,1,0,0,1,1122.75,1126.57Z"/><rect class="cls-13" x="1138.4" y="1187.62" width="0.78" height="34.33"/><path class="cls-6" d="M1120.48,1183.33h31.85a3,3,0,0,1,3,3V1222a0,0,0,0,1,0,0h-37.85a0,0,0,0,1,0,0v-35.62A3,3,0,0,1,1120.48,1183.33Z"/><path class="cls-5" d="M1120.48,1183.33h9.88a0,0,0,0,1,0,0v38.62a0,0,0,0,1,0,0h-12.88a0,0,0,0,1,0,0v-35.62A3,3,0,0,1,1120.48,1183.33Z"/><path class="cls-1" d="M1209.86,1200.55h-32.64l7.78,21.4h23.22a9.25,9.25,0,0,0,9.25-9.25h0a9.25,9.25,0,0,0-2.29-6.1Z"/><path class="cls-1" d="M1067.6,1200.55h32.64l-7.78,21.4h-23.22a9.25,9.25,0,0,1-9.25-9.25h0a9.25,9.25,0,0,1,2.29-6.1Z"/><path class="cls-8" d="M1092.47,1200.44a1,1,0,0,1-1-1v-27.25a1,1,0,0,1,2,0v27.25A1,1,0,0,1,1092.47,1200.44Z"/><path class="cls-8" d="M1185,1200.44a1,1,0,0,1-1-1v-27.25a1,1,0,0,1,2,0v27.25A1,1,0,0,1,1185,1200.44Z"/><path class="cls-8" d="M1092.47,1196.85h-20.75a1,1,0,0,1,0-2h20.75a1,1,0,0,1,0,2Z"/><path class="cls-8" d="M1205.74,1196.85H1185a1,1,0,0,1,0-2h20.75a1,1,0,0,1,0,2Z"/><circle class="cls-3" cx="1143.94" cy="1216.63" r="1.48"/><circle class="cls-10" cx="1150.07" cy="1216.63" r="1.48"/><path class="cls-5" d="M1135.77,1221.95h-2v-9.46a3.34,3.34,0,0,1,3.33-3.33h18.22v2h-18.22a1.33,1.33,0,0,0-1.33,1.33Z"/><rect class="cls-5" x="1146.86" y="1183.33" width="2" height="26.82"/><path class="cls-1" d="M1157.06,1188.31h-7.18a5.67,5.67,0,0,0-5.43,4h0a5.67,5.67,0,0,0,3.31,6.88l9.13,3.68a45.9,45.9,0,0,1,10.24,5.75L1185,1222l14.81-16.33-39.7-16.57A6.61,6.61,0,0,0,1157.06,1188.31Z"/><rect class="cls-5" x="1130.35" y="1186.37" width="17.51" height="2"/><path class="cls-1" d="M1133,1192.35a5.67,5.67,0,0,0-5.43-4h-7.18a6.61,6.61,0,0,0-3,.74l-39.7,16.57,14.81,16.33,16.79-12.5a56.2,56.2,0,0,1,12.54-7l7.9-3.18a5.67,5.67,0,0,0,3.31-6.88Z"/><rect class="cls-5" x="462.18" y="1239.35" width="821.88" height="130.24"/><g class="cls-15"><path class="cls-6" d="M940.28,1376.62l-2-.07c.18-5.4-2.67-10.56-8.46-15.32-14.45-11.88-41.39-17-55.83-13.67-27.29,6.32-71-9.1-100-19.31l-3.31-1.16.66-1.89,3.31,1.16c28.73,10.13,72.16,25.44,98.88,19.25,14.89-3.45,42.66,1.84,57.55,14.07C937.3,1364.8,940.48,1370.65,940.28,1376.62Z"/><path class="cls-6" d="M1083,1330.12c-17.9,0-30-14.56-40.71-27.44-8.6-10.34-16.71-20.1-26.7-21.75-21.62-3.56-42.49,6.79-62.67,16.8-15.16,7.52-29.49,14.62-43.6,15.76-12.1,1-24.67-1.21-36.82-3.33-14.33-2.5-29.15-5.08-42.8-2.27-12.4,2.55-25.52-.66-39.41-4.06-6.26-1.53-12.73-3.11-19.47-4.28l.34-2c6.82,1.17,13.32,2.76,19.61,4.3,13.67,3.34,26.58,6.5,38.54,4,14-2.88,29-.27,43.54,2.26,12,2.1,24.48,4.26,36.32,3.3,13.73-1.11,27.88-8.13,42.87-15.56,20.47-10.15,41.63-20.65,63.89-17,10.72,1.76,19.07,11.81,27.91,22.44,11.17,13.43,22.69,27.31,40.28,26.7,12.59-.44,34-11.09,56.76-22.37,35-17.39,74.74-37.09,96-26.68,13.5,6.62,26.65,17.38,39.37,27.78,3.88,3.17,7.54,6.17,11.14,9l-1.23,1.57c-3.62-2.84-7.29-5.84-11.18-9-12.63-10.33-25.69-21-39-27.54-20.33-10-59.57,9.5-94.18,26.68-22.91,11.37-44.56,22.11-57.58,22.57Z"/><path class="cls-6" d="M974.48,1376.92c-3.09-8.7-8.78-16.89-13.79-24.11-6.28-9-11.25-16.2-8.89-21.16,2.44-5.14,9.57-10.17,18.16-12.82,7.61-2.35,23-4.78,40.37,5.35,4.48,2.61,9,5.5,13.87,8.57,24.64,15.63,52.56,33.35,91.12,28.06,24.26-3.33,42-18.23,56.3-30.21,13.1-11,24.41-20.48,36.26-17.31,9.5,2.54,22.61,12.27,36.49,22.57,14.3,10.61,29.1,21.59,42.76,27.28l-.77,1.85c-13.89-5.79-28.78-16.84-43.19-27.52-13.73-10.18-26.69-19.8-35.82-22.24-10.86-2.9-21.27,5.84-34.46,16.91-14.47,12.14-32.48,27.25-57.31,30.66-39.29,5.39-68.77-13.32-92.47-28.35-4.81-3.05-9.36-5.94-13.8-8.53-16.74-9.75-31.48-7.42-38.78-5.17-9.18,2.84-15.13,8-16.94,11.77s3,11,8.72,19.16c5.09,7.33,10.85,15.63,14,24.58Z"/><path class="cls-6" d="M1102.62,1257.44a12.83,12.83,0,0,1-4.73-.89,165.19,165.19,0,0,1-16-7.86c-6.55-3.49-14-7.44-21.25-10.5l.78-1.84c7.35,3.09,14.82,7.07,21.41,10.57a164.28,164.28,0,0,0,15.75,7.76c9.52,3.68,23.36-7.76,34.35-18.14l1.37,1.45C1117.8,1253.6,1108.55,1257.44,1102.62,1257.44Z"/><path class="cls-6" d="M912.62,1287.34c-1.11,0-2.24,0-3.41-.11-22.25-1.45-27.81-20.51-32.28-35.83a91.42,91.42,0,0,0-4.74-13.7l1.8-.87a92.81,92.81,0,0,1,4.86,14c4.52,15.49,9.65,33,30.49,34.4,19.81,1.29,30.08-8.91,40-18.77,8.45-8.37,16.42-16.28,29.44-16.58,30.81-.71,69.62,2,96.39,29.36,17.37,17.77,55.37-8.13,85.91-28.93,7.55-5.14,14.68-10,21-13.91l1,1.7c-6.33,3.88-13.44,8.73-21,13.86-23.63,16.1-51.65,35.19-71.89,35.19-6.44,0-12.1-1.93-16.58-6.51-26.23-26.83-64.49-29.47-94.91-28.76-12.22.28-19.92,7.92-28.08,16C941.54,1277,931.14,1287.34,912.62,1287.34Z"/><path class="cls-6" d="M811.11,1256.89c-9,0-22.72-3.93-36-7.75l-4.35-1.24.55-1.92,4.35,1.25c15.14,4.34,30.79,8.84,39,7.4,1-.18,1.29-.63,1.42-1,.42-1,.55-4.66-7.42-15.83l1.63-1.16c6.37,8.94,8.87,14.74,7.64,17.75a3.59,3.59,0,0,1-2.93,2.17A22.38,22.38,0,0,1,811.11,1256.89Z"/><path class="cls-6" d="M816.21,1280.93c-8.78,0-17.2-3.72-25.43-7.36-6.45-2.85-13.11-5.79-19.94-7l.35-2c7.07,1.25,13.85,4.24,20.4,7.14,11.88,5.25,23.1,10.2,35.3,5,14.66-6.24,12.68-23.56,9.68-39.31l2-.37c2.43,12.76,6.51,34.13-10.86,41.52A28.84,28.84,0,0,1,816.21,1280.93Z"/><path class="cls-6" d="M818.16,1377.34a66.35,66.35,0,0,1-12.25-15c-5.16-8.33-16.28-6.64-27-5-2.73.42-5.31.81-7.77,1l-.18-2c2.4-.22,5-.6,7.65-1,10.86-1.65,23.18-3.52,29,5.93a64.39,64.39,0,0,0,11.88,14.57Z"/><path class="cls-6" d="M940.28,1376.62l-2-.07c.18-5.4-2.67-10.56-8.46-15.32-14.45-11.88-41.39-17-55.83-13.67-27.29,6.32-71-9.1-100-19.31l-3.31-1.16.66-1.89,3.31,1.16c28.73,10.13,72.16,25.44,98.88,19.25,14.89-3.45,42.66,1.84,57.55,14.07C937.3,1364.8,940.48,1370.65,940.28,1376.62Z"/><path class="cls-6" d="M816.21,1280.93c-8.78,0-17.2-3.72-25.43-7.36-6.45-2.85-13.11-5.79-19.94-7l.35-2c7.07,1.25,13.85,4.24,20.4,7.14,11.88,5.25,23.1,10.2,35.3,5,14.66-6.24,12.68-23.56,9.68-39.31l2-.37c2.43,12.76,6.51,34.13-10.86,41.52A28.85,28.85,0,0,1,816.21,1280.93Z"/><path class="cls-6" d="M912.62,1287.34c-1.11,0-2.24,0-3.41-.11-22.25-1.45-27.81-20.51-32.28-35.83a91.42,91.42,0,0,0-4.74-13.7l1.8-.87a92.81,92.81,0,0,1,4.86,14c4.52,15.49,9.65,33,30.49,34.4,19.81,1.29,30.08-8.91,40-18.77,8.45-8.37,16.42-16.28,29.44-16.58,30.81-.71,69.62,2,96.39,29.36,17.37,17.77,55.37-8.13,85.91-28.93,7.55-5.14,14.68-10,21-13.91l1,1.7c-6.33,3.88-13.44,8.73-21,13.86-31.15,21.23-69.93,47.65-88.47,28.68-26.23-26.83-64.49-29.47-94.91-28.76-12.22.28-19.92,7.92-28.08,16C941.54,1277,931.14,1287.34,912.62,1287.34Z"/><path class="cls-6" d="M1286.31,1276.57c-12.53-6.17-28.4-11.58-53.07-18.09-10.45-2.75-15.85-6.17-16.52-10.43-.57-3.66,2.32-7.46,8.85-11.63l1.08,1.69c-5.62,3.59-8.37,6.92-7.95,9.64.36,2.3,3.26,5.7,15,8.81,24.81,6.54,40.79,12,53.44,18.23Z"/><path class="cls-6" d="M1083,1330.12c-17.9,0-30-14.56-40.71-27.44-8.6-10.34-16.71-20.1-26.7-21.75-21.62-3.56-42.49,6.79-62.67,16.8-15.16,7.52-29.49,14.62-43.6,15.76-12.1,1-24.67-1.21-36.82-3.33-14.33-2.5-29.15-5.08-42.8-2.27-12.4,2.55-25.52-.66-39.41-4.06-6.26-1.53-12.73-3.11-19.47-4.28l.34-2c6.82,1.17,13.32,2.76,19.61,4.3,13.67,3.34,26.58,6.5,38.54,4,14-2.88,29-.27,43.54,2.26,12,2.1,24.48,4.26,36.32,3.3,13.73-1.11,27.88-8.13,42.87-15.56,20.47-10.15,41.63-20.65,63.89-17,10.72,1.76,19.07,11.81,27.91,22.44,11.17,13.43,22.69,27.31,40.28,26.7,12.59-.44,34-11.09,56.76-22.37,35-17.39,74.74-37.09,96-26.68,13.5,6.62,26.65,17.38,39.37,27.78,3.88,3.17,7.54,6.17,11.14,9l-1.23,1.57c-3.62-2.84-7.29-5.84-11.18-9-12.63-10.33-25.69-21-39-27.54-20.33-10-59.57,9.5-94.18,26.68-22.91,11.37-44.56,22.11-57.58,22.57Z"/><path class="cls-6" d="M1037.29,1377.44a192.21,192.21,0,0,1-15.68-11.43c-10.7-8.35-21.77-17-28.57-15.24-2.57.66-2.83,1.89-2.91,2.3-1,4.55,8.95,14.7,19.19,22.74l-1.23,1.57c-5.06-4-21.44-17.48-19.91-24.73.4-1.9,1.87-3.18,4.38-3.82,7.75-2,18.7,6.56,30.29,15.6a190.89,190.89,0,0,0,15.5,11.31Z"/><path class="cls-6" d="M974.48,1376.92c-3.09-8.7-8.78-16.89-13.79-24.11-6.28-9-11.25-16.2-8.89-21.16,2.44-5.14,9.57-10.17,18.16-12.82,7.61-2.35,23-4.78,40.37,5.35,4.48,2.61,9,5.5,13.87,8.57,24.64,15.63,52.56,33.35,91.12,28.06,24.26-3.33,42-18.23,56.3-30.21,13.1-11,24.41-20.48,36.26-17.31,9.5,2.54,22.61,12.27,36.49,22.57,14.3,10.61,29.1,21.59,42.76,27.28l-.77,1.85c-13.89-5.79-28.78-16.84-43.19-27.52-13.73-10.18-26.69-19.8-35.82-22.24-10.86-2.9-21.27,5.84-34.46,16.91-14.47,12.14-32.48,27.25-57.31,30.66-39.29,5.39-68.77-13.32-92.47-28.35-4.81-3.05-9.36-5.94-13.8-8.53-16.74-9.75-31.48-7.42-38.78-5.17-9.18,2.84-15.13,8-16.94,11.77s3,11,8.72,19.16c5.09,7.33,10.85,15.63,14,24.58Z"/><path class="cls-6" d="M1252.42,1377.26c-15-16.69-28.28-26.08-47.77-21.3-12.17,3-20.78,12-28.28,21.26l-1.56-1.26c7.71-9.55,16.61-18.82,29.35-21.94,20.39-5,34.63,5.14,49.74,21.9Z"/><path class="cls-6" d="M1286.74,1252a54.62,54.62,0,0,1-16.6-3.24c-6.33-2.15-9.56-4.52-9.87-7.26-.14-1.28.33-3.2,3.42-5.09l1,1.7c-1.21.74-2.62,1.9-2.48,3.16.1.84,1.12,3.07,8.53,5.58a52.64,52.64,0,0,0,16,3.13Z"/><path class="cls-6" d="M1286.31,1276.57c-12.53-6.17-28.4-11.58-53.07-18.09-10.45-2.75-15.85-6.17-16.52-10.43-.57-3.66,2.32-7.46,8.85-11.63l1.08,1.69c-5.62,3.59-8.37,6.92-7.95,9.64.36,2.3,3.26,5.7,15,8.81,24.81,6.54,40.79,12,53.44,18.23Z"/><path class="cls-6" d="M1286.74,1252a54.62,54.62,0,0,1-16.6-3.24c-6.33-2.15-9.56-4.52-9.87-7.26-.14-1.28.33-3.2,3.42-5.09l1,1.7c-1.21.74-2.62,1.9-2.48,3.16.1.84,1.12,3.07,8.53,5.58a52.64,52.64,0,0,0,16,3.13Z"/><path class="cls-6" d="M1102.62,1257.44a12.83,12.83,0,0,1-4.73-.89,165.19,165.19,0,0,1-16-7.86c-6.55-3.49-14-7.44-21.25-10.5l.78-1.84c7.35,3.09,14.82,7.07,21.41,10.57a164.28,164.28,0,0,0,15.75,7.76c9.52,3.68,23.36-7.76,34.35-18.14l1.37,1.45C1117.8,1253.6,1108.55,1257.44,1102.62,1257.44Z"/><path class="cls-6" d="M818.16,1377.34a66.35,66.35,0,0,1-12.25-15c-5.16-8.33-16.28-6.64-27-5-2.73.42-5.31.81-7.77,1l-.18-2c2.4-.22,5-.6,7.65-1,10.86-1.65,23.18-3.52,29,5.93a64.39,64.39,0,0,0,11.88,14.57Z"/><path class="cls-6" d="M1252.42,1377.26c-15-16.69-28.28-26.08-47.77-21.3-12.17,3-20.78,12-28.28,21.26l-1.56-1.26c7.71-9.55,16.61-18.82,29.35-21.94,20.39-5,34.63,5.14,49.74,21.9Z"/><path class="cls-6" d="M1037.29,1377.44a192.21,192.21,0,0,1-15.68-11.43c-10.7-8.35-21.77-17-28.57-15.24-2.57.66-2.83,1.89-2.91,2.3-1,4.55,8.95,14.7,19.19,22.74l-1.23,1.57c-5.06-4-21.44-17.48-19.91-24.73.4-1.9,1.87-3.18,4.38-3.82,7.75-2,18.7,6.56,30.29,15.6a190.89,190.89,0,0,0,15.5,11.31Z"/><path class="cls-6" d="M811.11,1256.89c-9,0-22.72-3.93-36-7.75l-4.35-1.24.55-1.92,4.35,1.25c15.14,4.34,30.79,8.84,39,7.4,1-.18,1.29-.63,1.42-1,.42-1,.55-4.66-7.42-15.83l1.63-1.16c6.37,8.94,8.87,14.74,7.64,17.75a3.59,3.59,0,0,1-2.93,2.17A22.35,22.35,0,0,1,811.11,1256.89Z"/><path class="cls-6" d="M912.56,1252.51a2.16,2.16,0,0,1-1.49-.56c-.66-.59-2.44-3.42,2.23-15.07l1.86.74c-2.4,6-3.69,12-2.75,12.84.07.06.45.12,1.35-.36a85.16,85.16,0,0,0,8.86-5.94c5.59-4.07,10.88-7.91,14.42-7.91v2c-2.89,0-8.39,4-13.24,7.53a86.34,86.34,0,0,1-9.09,6.08A4.67,4.67,0,0,1,912.56,1252.51Z"/><path class="cls-6" d="M751.93,1288.64l-3.31-1.17c-28.73-10.13-72.16-25.44-98.88-19.25-14.89,3.45-42.66-1.84-57.55-14.07-6.21-5.1-9.39-11-9.19-16.93l2,.06c-.18,5.4,2.67,10.56,8.46,15.32,14.45,11.88,41.39,17,55.83,13.67,27.29-6.32,71,9.1,100,19.31l3.31,1.16Z"/><path class="cls-6" d="M300.6,1337.69a31.92,31.92,0,0,1-14.17-2.9c-13.5-6.62-26.65-17.38-39.37-27.78-3.88-3.17-7.54-6.17-11.14-9l1.23-1.57c3.62,2.83,7.29,5.84,11.18,9,12.63,10.33,25.69,21,39,27.54,20.33,10,59.56-9.5,94.18-26.68,22.91-11.37,44.56-22.11,57.58-22.57,18.55-.64,30.95,14.26,41.89,27.42,8.6,10.34,16.71,20.1,26.7,21.75,21.61,3.56,42.49-6.79,62.67-16.8,15.16-7.52,29.49-14.62,43.6-15.76,12.1-1,24.67,1.21,36.82,3.33,14.33,2.5,29.15,5.08,42.8,2.27,12.4-2.55,25.52.66,39.41,4.06,6.26,1.53,12.73,3.11,19.47,4.28l-.34,2c-6.82-1.17-13.32-2.76-19.61-4.3-13.67-3.34-26.58-6.5-38.54-4-14,2.88-29,.27-43.54-2.26-12-2.1-24.48-4.26-36.32-3.3-13.73,1.11-27.88,8.13-42.87,15.56-20.47,10.15-41.64,20.65-63.89,17-10.72-1.76-19.07-11.81-27.91-22.44-11.17-13.43-22.69-27.31-40.28-26.7-12.59.44-34,11.09-56.76,22.37C354.1,1322.15,322.78,1337.69,300.6,1337.69Z"/><path class="cls-6" d="M320.1,1301.18a18.1,18.1,0,0,1-4.7-.62c-9.5-2.54-22.61-12.27-36.49-22.57-14.3-10.61-29.1-21.59-42.76-27.28l.77-1.85c13.89,5.79,28.78,16.84,43.19,27.52,13.73,10.18,26.69,19.8,35.82,22.24,10.85,2.9,21.27-5.84,34.46-16.91,14.47-12.14,32.48-27.25,57.31-30.66,39.28-5.39,68.77,13.32,92.47,28.35,4.81,3.05,9.36,5.94,13.8,8.53,16.74,9.75,31.48,7.42,38.78,5.17,9.18-2.84,15.13-8,16.94-11.77s-3-11-8.72-19.16c-5.09-7.33-10.85-15.63-14-24.59l1.88-.67c3.09,8.7,8.78,16.89,13.79,24.11,6.28,9,11.25,16.2,8.89,21.16-2.44,5.14-9.57,10.17-18.16,12.82-7.61,2.35-23,4.78-40.37-5.35-4.48-2.61-9-5.5-13.87-8.57-24.64-15.63-52.56-33.35-91.12-28.06-24.26,3.33-42,18.23-56.3,30.21C340.3,1292.78,330.29,1301.18,320.1,1301.18Z"/><path class="cls-6" d="M461.83,1377.51c-7.35-3.09-14.82-7.07-21.41-10.57a164.16,164.16,0,0,0-15.75-7.76c-9.52-3.68-23.36,7.76-34.35,18.14l-1.37-1.45c21.74-20.53,30.9-20.7,36.44-18.56a165.19,165.19,0,0,1,16,7.86c6.55,3.49,14,7.44,21.25,10.5Z"/><path class="cls-6" d="M341.13,1377.44l-1-1.7c6.33-3.88,13.44-8.73,21-13.86,31.15-21.23,69.93-47.65,88.47-28.68,26.23,26.83,64.5,29.47,94.91,28.76,12.22-.28,19.92-7.92,28.08-16,9.79-9.7,20.88-20.69,41.57-19.34,22.25,1.45,27.81,20.51,32.28,35.83a91.48,91.48,0,0,0,4.74,13.7l-1.8.88a92.82,92.82,0,0,1-4.86-14c-4.52-15.49-9.65-33-30.49-34.4-19.8-1.29-30.08,8.91-40,18.77-8.45,8.37-16.42,16.28-29.44,16.58-30.81.71-69.62-2-96.39-29.36-17.37-17.77-55.37,8.13-85.91,28.93C354.63,1368.68,347.5,1373.53,341.13,1377.44Z"/><path class="cls-6" d="M713,1377.17c-6.37-8.94-8.87-14.74-7.64-17.75a3.59,3.59,0,0,1,2.93-2.17c8.62-1.52,24.5,3,39.86,7.45l4.35,1.24-.55,1.92-4.35-1.25c-15.14-4.34-30.79-8.84-39-7.4-1,.18-1.29.63-1.42,1-.42,1-.55,4.66,7.42,15.83Z"/><path class="cls-6" d="M684.75,1376.78c-2.43-12.76-6.51-34.13,10.86-41.52,13-5.54,25.15-.17,36.89,5,6.44,2.85,13.11,5.79,19.94,7l-.35,2c-7.07-1.25-13.85-4.24-20.4-7.14-11.88-5.25-23.1-10.21-35.3-5-14.66,6.24-12.68,23.56-9.68,39.31Z"/><path class="cls-6" d="M731.55,1259.86c-6.48,0-12.35-1.59-15.88-7.28A64.4,64.4,0,0,0,703.79,1238l1.33-1.5a66.33,66.33,0,0,1,12.25,15c5.16,8.33,16.28,6.64,27,5,2.73-.42,5.31-.81,7.77-1l.18,2c-2.4.22-5,.6-7.65,1A89.86,89.86,0,0,1,731.55,1259.86Z"/><path class="cls-6" d="M751.93,1288.64l-3.31-1.17c-28.73-10.13-72.16-25.44-98.88-19.25-14.89,3.45-42.66-1.84-57.55-14.07-6.21-5.1-9.39-11-9.19-16.93l2,.06c-.18,5.4,2.67,10.56,8.46,15.32,14.45,11.88,41.39,17,55.83,13.67,27.29-6.32,71,9.1,100,19.31l3.31,1.16Z"/><path class="cls-6" d="M684.75,1376.78c-2.43-12.76-6.51-34.13,10.86-41.52,13-5.54,25.15-.17,36.89,5,6.44,2.85,13.11,5.79,19.94,7l-.35,2c-7.07-1.25-13.85-4.24-20.4-7.14-11.88-5.25-23.1-10.21-35.3-5-14.66,6.24-12.68,23.56-9.68,39.31Z"/><path class="cls-6" d="M341.13,1377.44l-1-1.7c6.33-3.88,13.44-8.73,21-13.86,31.15-21.23,69.93-47.65,88.47-28.68,26.23,26.83,64.5,29.47,94.91,28.76,12.22-.28,19.92-7.92,28.08-16,9.79-9.7,20.88-20.69,41.57-19.34,22.25,1.45,27.81,20.51,32.28,35.83a91.48,91.48,0,0,0,4.74,13.7l-1.8.88a92.82,92.82,0,0,1-4.86-14c-4.52-15.49-9.65-33-30.49-34.4-19.8-1.29-30.08,8.91-40,18.77-8.45,8.37-16.42,16.28-29.44,16.58-30.81.71-69.62-2-96.39-29.36-17.37-17.77-55.37,8.13-85.91,28.93C354.63,1368.68,347.5,1373.53,341.13,1377.44Z"/><path class="cls-6" d="M297.7,1377.43l-1.08-1.69c5.62-3.59,8.37-6.92,7.95-9.63-.36-2.3-3.26-5.7-15.05-8.81-24.81-6.54-40.79-12-53.44-18.23l.88-1.79c12.53,6.17,28.4,11.58,53.07,18.09,10.45,2.75,15.85,6.17,16.52,10.43C307.12,1369.46,304.23,1373.27,297.7,1377.43Z"/><path class="cls-6" d="M300.6,1337.69a31.91,31.91,0,0,1-14.17-2.9c-13.5-6.62-26.65-17.38-39.37-27.78-3.88-3.17-7.54-6.17-11.14-9l1.23-1.57c3.62,2.83,7.29,5.84,11.18,9,12.63,10.33,25.69,21,39,27.54,20.33,10,59.56-9.5,94.18-26.68,22.91-11.37,44.56-22.11,57.58-22.57,18.55-.64,30.95,14.26,41.89,27.42,8.6,10.34,16.71,20.1,26.7,21.75,21.61,3.56,42.49-6.79,62.67-16.8,15.16-7.52,29.49-14.62,43.6-15.76,12.1-1,24.67,1.21,36.82,3.33,14.33,2.5,29.15,5.08,42.8,2.27,12.4-2.55,25.52.66,39.41,4.06,6.26,1.53,12.73,3.11,19.47,4.28l-.34,2c-6.82-1.17-13.32-2.76-19.61-4.3-13.67-3.34-26.58-6.5-38.54-4-14,2.88-29,.27-43.54-2.26-12-2.1-24.48-4.26-36.32-3.3-13.73,1.11-27.88,8.13-42.87,15.56-20.47,10.15-41.64,20.65-63.89,17-10.72-1.76-19.07-11.81-27.91-22.44-11.17-13.43-22.69-27.31-40.28-26.7-12.59.44-34,11.09-56.76,22.37C354.1,1322.15,322.78,1337.69,300.6,1337.69Z"/><path class="cls-6" d="M528.34,1265.31c-7.53,0-17.46-7.74-27.9-15.89a190.9,190.9,0,0,0-15.5-11.31l1.06-1.7a192.07,192.07,0,0,1,15.68,11.43c10.7,8.35,21.77,17,28.57,15.24,2.57-.66,2.83-1.89,2.91-2.3,1-4.55-8.95-14.7-19.19-22.74l1.23-1.57c5.06,4,21.44,17.48,19.91,24.73-.4,1.9-1.87,3.18-4.38,3.82A9.61,9.61,0,0,1,528.34,1265.31Z"/><path class="cls-6" d="M320.1,1301.18a18.11,18.11,0,0,1-4.7-.62c-9.5-2.54-22.61-12.27-36.49-22.57-14.3-10.61-29.1-21.59-42.76-27.28l.77-1.85c13.89,5.79,28.78,16.84,43.19,27.52,13.73,10.18,26.69,19.8,35.82,22.24,10.85,2.9,21.27-5.84,34.46-16.91,14.47-12.14,32.48-27.25,57.31-30.66,39.28-5.39,68.77,13.32,92.47,28.35,4.81,3.05,9.36,5.94,13.8,8.53,16.74,9.75,31.48,7.42,38.78,5.17,9.18-2.84,15.13-8,16.94-11.77s-3-11-8.72-19.16c-5.09-7.33-10.85-15.63-14-24.59l1.88-.67c3.09,8.7,8.78,16.89,13.79,24.11,6.28,9,11.25,16.2,8.89,21.16-2.44,5.14-9.57,10.17-18.16,12.82-7.61,2.35-23,4.78-40.37-5.35-4.48-2.61-9-5.5-13.87-8.57-24.64-15.63-52.56-33.35-91.12-28.06-24.26,3.33-42,18.23-56.3,30.21C340.3,1292.78,330.29,1301.18,320.1,1301.18Z"/><path class="cls-6" d="M309,1261.11c-15.26,0-27.15-9.33-39.63-23.18l1.49-1.34c15,16.69,28.28,26.08,47.77,21.3,12.17-3,20.78-12,28.28-21.26l1.56,1.26c-7.71,9.55-16.61,18.82-29.35,21.94A42.29,42.29,0,0,1,309,1261.11Z"/><path class="cls-6" d="M259.59,1377.44l-1-1.7c1.21-.74,2.62-1.9,2.48-3.16-.09-.84-1.12-3.07-8.53-5.59a52.65,52.65,0,0,0-16-3.13l0-2a54.63,54.63,0,0,1,16.6,3.24c6.33,2.15,9.56,4.52,9.87,7.26C263.15,1373.63,262.67,1375.54,259.59,1377.44Z"/><path class="cls-6" d="M297.7,1377.43l-1.08-1.69c5.62-3.59,8.37-6.92,7.95-9.63-.36-2.3-3.26-5.7-15.05-8.81-24.81-6.54-40.79-12-53.44-18.23l.88-1.79c12.53,6.17,28.4,11.58,53.07,18.09,10.45,2.75,15.85,6.17,16.52,10.43C307.12,1369.46,304.23,1373.27,297.7,1377.43Z"/><path class="cls-6" d="M259.59,1377.44l-1-1.7c1.21-.74,2.62-1.9,2.48-3.16-.09-.84-1.12-3.07-8.53-5.59a52.65,52.65,0,0,0-16-3.13l0-2a54.63,54.63,0,0,1,16.6,3.24c6.33,2.15,9.56,4.52,9.87,7.26C263.15,1373.63,262.67,1375.54,259.59,1377.44Z"/><path class="cls-6" d="M461.83,1377.51c-7.35-3.09-14.82-7.07-21.41-10.57a164.16,164.16,0,0,0-15.75-7.76c-9.52-3.68-23.36,7.76-34.35,18.14l-1.37-1.45c21.74-20.53,30.9-20.7,36.44-18.56a165.19,165.19,0,0,1,16,7.86c6.55,3.49,14,7.44,21.25,10.5Z"/><path class="cls-6" d="M731.55,1259.86c-6.48,0-12.35-1.59-15.88-7.28A64.4,64.4,0,0,0,703.79,1238l1.33-1.5a66.33,66.33,0,0,1,12.25,15c5.16,8.33,16.28,6.64,27,5,2.73-.42,5.31-.81,7.77-1l.18,2c-2.4.22-5,.6-7.65,1A89.86,89.86,0,0,1,731.55,1259.86Z"/><path class="cls-6" d="M309,1261.11c-15.26,0-27.15-9.33-39.63-23.18l1.49-1.34c15,16.69,28.28,26.08,47.77,21.3,12.17-3,20.78-12,28.28-21.26l1.56,1.26c-7.71,9.55-16.61,18.82-29.35,21.94A42.29,42.29,0,0,1,309,1261.11Z"/><path class="cls-6" d="M528.34,1265.31c-7.53,0-17.46-7.74-27.9-15.89a190.9,190.9,0,0,0-15.5-11.31l1.06-1.7a192.07,192.07,0,0,1,15.68,11.43c10.7,8.35,21.77,17,28.57,15.24,2.57-.66,2.83-1.89,2.91-2.3,1-4.55-8.95-14.7-19.19-22.74l1.23-1.57c5.06,4,21.44,17.48,19.91,24.73-.4,1.9-1.87,3.18-4.38,3.82A9.61,9.61,0,0,1,528.34,1265.31Z"/><path class="cls-6" d="M713,1377.17c-6.37-8.94-8.87-14.74-7.64-17.75a3.59,3.59,0,0,1,2.93-2.17c8.62-1.52,24.5,3,39.86,7.45l4.35,1.24-.55,1.92-4.35-1.25c-15.14-4.34-30.79-8.84-39-7.4-1,.18-1.29.63-1.42,1-.42,1-.55,4.66,7.42,15.83Z"/><path class="cls-6" d="M586.25,1377.59v-2c2.89,0,8.39-4,13.24-7.53a86.3,86.3,0,0,1,9.09-6.09c1.55-.82,2.77-.85,3.63-.08.66.59,2.44,3.42-2.23,15.07l-1.86-.74c2.4-6,3.69-12,2.75-12.84-.07-.06-.45-.12-1.35.36a85.15,85.15,0,0,0-8.86,5.94C595.07,1373.75,589.79,1377.59,586.25,1377.59Z"/></g><path class="cls-5" d="M565,1093.61H766.51a0,0,0,0,1,0,0v303.89a0,0,0,0,1,0,0H565a3.64,3.64,0,0,1-3.64-3.64V1097.25A3.64,3.64,0,0,1,565,1093.61Z"/><rect class="cls-1" x="656.59" y="1093.61" width="118.4" height="303.89" rx="3.64" ry="3.64"/><path class="cls-3" d="M757.09,1372.51h-82.6a1,1,0,0,1,0-2h82.6a1,1,0,0,1,0,2Z"/><path class="cls-3" d="M757.09,1349h-82.6a1,1,0,1,1,0-2h82.6a1,1,0,0,1,0,2Z"/><path class="cls-3" d="M757.09,1325.48h-82.6a1,1,0,1,1,0-2h82.6a1,1,0,0,1,0,2Z"/><rect class="cls-3" x="671.53" y="1129.5" width="88.53" height="61.12" rx="2.04" ry="2.04"/><rect class="cls-3" x="696.36" y="1198.81" width="5.31" height="5.31" rx="2.65" ry="2.65"/><rect class="cls-3" x="705.6" y="1198.81" width="5.31" height="5.31" rx="2.65" ry="2.65"/><rect class="cls-3" x="715.76" y="1198.81" width="19.46" height="5.31" rx="2.65" ry="2.65"/><path class="cls-6" d="M638.4,1398.49a1,1,0,0,1-1-1V1093.61a1,1,0,0,1,2,0v303.89A1,1,0,0,1,638.4,1398.49Z"/><rect class="cls-3" x="572.55" y="1397.49" width="191.26" height="7.56"/><path class="cls-6" d="M638.4,1202.59h-77a1,1,0,0,1,0-2h77a1,1,0,0,1,0,2Z"/><path class="cls-6" d="M638.4,1265.3h-77a1,1,0,0,1,0-2h77a1,1,0,0,1,0,2Z"/><path class="cls-1" d="M1502.91,780.81h-2a109.85,109.85,0,0,0-109.73-109.73v-2A111.86,111.86,0,0,1,1502.91,780.81Z"/><ellipse class="cls-1" cx="1727.84" cy="1378.38" rx="116.9" ry="123.87" transform="translate(-101.37 137.67) rotate(-4.43)"/><path class="cls-3" d="M1742.93,1585a1,1,0,0,1-1-.93l-24.67-329.16a1,1,0,1,1,2-.15L1743.93,1584a1,1,0,0,1-.92,1.07Z"/><path class="cls-3" d="M1732.09,1440.37l-.23,0-116.42-26.95a1,1,0,0,1,.45-1.95l116.42,26.95a1,1,0,0,1-.22,2Z"/><path class="cls-3" d="M1648.86,1421.1a1,1,0,0,1-.79-.39l-37.83-49a1,1,0,1,1,1.58-1.22l37.83,49a1,1,0,0,1-.79,1.61Z"/><path class="cls-3" d="M1648.82,1469.91a1,1,0,0,1-.62-1.78l47.65-37.79a1,1,0,1,1,1.24,1.57l-47.65,37.79A1,1,0,0,1,1648.82,1469.91Z"/><path class="cls-3" d="M1733.83,1463.62a1,1,0,0,1-.27-2l98.45-27.54a1,1,0,0,1,.54,1.93l-98.45,27.54A1,1,0,0,1,1733.83,1463.62Z"/><path class="cls-3" d="M1787.93,1448.49a1,1,0,0,1-.88-1.48l25.43-46.37a1,1,0,1,1,1.75,1L1788.81,1448A1,1,0,0,1,1787.93,1448.49Z"/><path class="cls-3" d="M1799.92,1477.58a1,1,0,0,1-.58-.19l-32.59-23.33a1,1,0,0,1,1.16-1.63l32.59,23.33a1,1,0,0,1-.58,1.81Z"/><path class="cls-3" d="M1726.21,1361.92a1,1,0,0,1-.21-2L1837.53,1336a1,1,0,1,1,.42,2l-111.53,23.89Z"/><path class="cls-3" d="M1760.46,1354.58a1,1,0,0,1-1-1.3l25.68-82a1,1,0,1,1,1.91.6l-25.68,82A1,1,0,0,1,1760.46,1354.58Z"/><path class="cls-3" d="M1775.25,1307.34a1,1,0,0,1-1-.7l-14.7-46.57a1,1,0,1,1,1.91-.6l14.7,46.57a1,1,0,0,1-1,1.3Z"/><path class="cls-3" d="M1727,1372.61a1,1,0,0,1-.47-.12l-101.61-54a1,1,0,1,1,.94-1.77l101.61,54a1,1,0,0,1-.47,1.88Z"/><path class="cls-3" d="M1670.88,1342.8a1,1,0,0,1-1-1l-2.05-70.92a1,1,0,0,1,2-.06l2.05,70.92a1,1,0,0,1-1,1Z"/><path class="cls-3" d="M.16,1579.09h751s-43.51-82.5-99-51.83-77.9-62.81-97-107.81-77.73-81.55-199.3-7.58c-124.57,75.78-102.31-104.63-260.18-168.95-34.61-14.1-66.64-11.55-95.56,1Z"/></g></g></svg>