<svg xmlns="http://www.w3.org/2000/svg" xmlns:xlink="http://www.w3.org/1999/xlink" viewBox="0 0 853.58 1179.88"><defs><style>.cls-1{fill:#859cec;}.cls-2{fill:#a8aee5;}.cls-3{fill:#2f6ffb;}.cls-4{clip-path:url(#clip-path);}.cls-5{fill:#fff;}.cls-6{fill:#3d4689;}.cls-7{opacity:0.5;}.cls-8{fill:#c8bfde;}</style><clipPath id="clip-path"><circle class="cls-1" cx="456.36" cy="299.19" r="54.99"/></clipPath></defs><title>fabbrica1</title><g id="Livello_2" data-name="Livello 2"><g id="Livello_1-2" data-name="Livello 1"><rect class="cls-2" x="264.03" y="205.27" width="384.66" height="266.52"/><rect class="cls-1" y="205.27" width="264.43" height="266.52"/><path class="cls-3" d="M465,303a1,1,0,0,1-1-1V263.59a1,1,0,0,1,2,0V302A1,1,0,0,1,465,303Z"/><circle class="cls-1" cx="456.36" cy="299.19" r="54.99"/><g class="cls-4"><circle class="cls-5" cx="431.02" cy="299.19" r="54.99"/><path class="cls-6" d="M392.87,328.08a1,1,0,0,1-.74-1.68l11.81-12.84a1,1,0,0,1,.92-.31l34.71,6.54,3.63-5.49-4.68-16.74a1,1,0,0,1,0-.42l2.41-15.64a1,1,0,0,1,.55-.75l10-4.81a1,1,0,0,1,.87,1.8l-9.52,4.58-2.29,14.91,4.74,17a1,1,0,0,1-.13.82l-4.24,6.42a1,1,0,0,1-1,.43L405,315.33l-11.43,12.43A1,1,0,0,1,392.87,328.08Z"/><path class="cls-6" d="M453.33,327.46a1,1,0,0,1-.8-.4l-9-12a1,1,0,0,1,1.6-1.2l8.72,11.56,16-.54a1,1,0,1,1,.07,2l-16.52.56Z"/><path class="cls-6" d="M440.05,321.91l-.19,0-18.74-3.53a1,1,0,0,1-.81-1.09l1.53-13.68a1,1,0,0,1,.64-.82l16.65-6.39a1,1,0,0,1,1.32.66l4.8,17.18a1,1,0,0,1-.13.82l-4.24,6.42A1,1,0,0,1,440.05,321.91Zm-17.64-5.34,17.17,3.24,3.63-5.49-4.38-15.68-15.06,5.77Z"/><path class="cls-6" d="M397.28,323.29a1,1,0,0,1-.47-.12l-6.36-3.42a1,1,0,1,1,.95-1.76l6.36,3.42a1,1,0,0,1-.47,1.88Z"/><path class="cls-6" d="M451.53,343h-.12a1,1,0,0,1-.88-1.11l1.8-15.55a1,1,0,0,1,2,.23l-1.8,15.55A1,1,0,0,1,451.53,343Z"/></g><path class="cls-6" d="M101.78,279h-95a1,1,0,0,1,0-2h95a1,1,0,0,1,0,2Z"/><path class="cls-6" d="M27.75,279a1,1,0,0,1-1-1V243.2a1,1,0,0,1,2,0V278A1,1,0,0,1,27.75,279Z"/><path class="cls-6" d="M54.3,244.2H0v-2H54.3a1,1,0,0,1,0,2Z"/><g class="cls-7"><polygon class="cls-5" points="264.03 205.25 0 205.25 0 55.33 467.27 55.33 264.03 205.25"/></g><g class="cls-7"><polygon class="cls-5" points="648.29 205.25 264.03 205.25 467.27 55.33 648.29 205.25"/></g><rect class="cls-5" x="239.37" y="129.29" width="252.55" height="2" transform="translate(-5.93 242.55) rotate(-36.42)"/><rect class="cls-5" x="-3.56" y="129.29" width="252.55" height="2" transform="translate(-53.39 98.31) rotate(-36.42)"/><path class="cls-5" d="M648.29,206.25a1,1,0,0,1-.64-.23L466.91,56.33H0v-2H467.27a1,1,0,0,1,.64.23l181,149.93a1,1,0,0,1-.64,1.77Z"/><rect class="cls-6" y="205.27" width="648.69" height="7.23"/><rect class="cls-2" y="471.79" width="852.58" height="627.49"/><rect class="cls-1" x="102.24" y="471.81" width="268.81" height="627.49"/><g class="cls-7"><polygon class="cls-5" points="0 471.79 852.63 471.79 726.03 374.06 0 374.06 0 471.79"/></g><path class="cls-5" d="M611.81,472.79a1,1,0,0,1-.61-.21L484.6,374.85a1,1,0,0,1,1.22-1.58L612.42,471a1,1,0,0,1-.61,1.79Z"/><path class="cls-5" d="M371,472.79a1,1,0,0,1-.61-.21L243.83,374.85a1,1,0,0,1,1.22-1.58L371.66,471a1,1,0,0,1-.61,1.79Z"/><path class="cls-5" d="M102.24,472.79a1,1,0,0,1-.61-1.79l126.6-97.73a1,1,0,0,1,1.22,1.58l-126.6,97.73A1,1,0,0,1,102.24,472.79Z"/><path class="cls-5" d="M852.58,472.79a1,1,0,0,1-.61-.21L725.63,375.06H0v-2H726a1,1,0,0,1,.61.21L853.19,471a1,1,0,0,1-.61,1.79Z"/><path class="cls-6" d="M308.46,587.33h-95a1,1,0,0,1,0-2h95a1,1,0,0,1,0,2Z"/><path class="cls-6" d="M287.53,622.13a1,1,0,0,1-1-1v-34.8a1,1,0,0,1,2,0v34.8A1,1,0,0,1,287.53,622.13Z"/><path class="cls-6" d="M359.94,622.13H261a1,1,0,0,1,0-2h99a1,1,0,0,1,0,2Z"/><path class="cls-6" d="M392.3,866.14H326a1,1,0,0,1,0-2H392.3a1,1,0,0,1,0,2Z"/><path class="cls-6" d="M346,898.29a1,1,0,0,1-1-1V865.14a1,1,0,0,1,2,0v32.15A1,1,0,0,1,346,898.29Z"/><path class="cls-6" d="M371,898.29H297.16a1,1,0,0,1,0-2H371a1,1,0,1,1,0,2Z"/><path class="cls-6" d="M322.33,941.24a1,1,0,0,1-1-1V897.29a1,1,0,0,1,2,0v42.94A1,1,0,0,1,322.33,941.24Z"/><path class="cls-6" d="M417.26,941.24H297.16a1,1,0,1,1,0-2H417.26a1,1,0,0,1,0,2Z"/><path class="cls-6" d="M40,741.11H0v-2H40a1,1,0,0,1,0,2Z"/><path class="cls-6" d="M20,741.11a1,1,0,0,1-1-1V708a1,1,0,0,1,2,0v32.15A1,1,0,0,1,20,741.11Z"/><path class="cls-6" d="M68.84,709H10.61a1,1,0,1,1,0-2H68.84a1,1,0,1,1,0,2Z"/><path class="cls-6" d="M43.66,709a1,1,0,0,1-1-1V665a1,1,0,0,1,2,0V708A1,1,0,0,1,43.66,709Z"/><path class="cls-6" d="M68.84,666H0v-2H68.84a1,1,0,1,1,0,2Z"/><path class="cls-6" d="M852.58,714.67H829.15a1,1,0,0,1,0-2h23.43a1,1,0,0,1,0,2Z"/><path class="cls-6" d="M840.8,760.68a1,1,0,0,1-1-1v-46a1,1,0,0,1,2,0v46A1,1,0,0,1,840.8,760.68Z"/><path class="cls-6" d="M852.58,760.8H817.83a1,1,0,1,1,0-2h34.75a1,1,0,0,1,0,2Z"/><path class="cls-6" d="M428.39,1084H0v-2H428.39a1,1,0,1,1,0,2Z"/><path class="cls-6" d="M852.58,1084H777.1a1,1,0,1,1,0-2h75.48a1,1,0,1,1,0,2Z"/><rect class="cls-6" y="471.75" width="852.58" height="7.23"/><path class="cls-5" d="M810.42,1099.28H429.51V585.8a66.63,66.63,0,0,1,66.63-66.63H743.78a66.63,66.63,0,0,1,66.63,66.63Z"/><path class="cls-1" d="M777.1,1099.28V585.8a66.63,66.63,0,0,0-66.63-66.63h33.32a66.63,66.63,0,0,1,66.63,66.63v513.48Z"/><g class="cls-7"><path class="cls-1" d="M744.35,1099.28V585.8a66.63,66.63,0,0,0-66.63-66.63H711a66.63,66.63,0,0,1,66.63,66.63v513.48Z"/></g><path class="cls-6" d="M774.59,561.82H433.93a1,1,0,0,1,0-2H774.59a1,1,0,0,1,0,2Z"/><path class="cls-6" d="M777.1,608.28H429.51a1,1,0,1,1,0-2H777.1a1,1,0,0,1,0,2Z"/><path class="cls-6" d="M777.1,654.74H429.51a1,1,0,0,1,0-2H777.1a1,1,0,0,1,0,2Z"/><path class="cls-6" d="M777.1,701.2H429.51a1,1,0,0,1,0-2H777.1a1,1,0,1,1,0,2Z"/><path class="cls-6" d="M777.1,747.66H429.51a1,1,0,1,1,0-2H777.1a1,1,0,0,1,0,2Z"/><path class="cls-6" d="M777.1,794.12H429.51a1,1,0,1,1,0-2H777.1a1,1,0,0,1,0,2Z"/><path class="cls-6" d="M777.1,840.58H429.51a1,1,0,1,1,0-2H777.1a1,1,0,0,1,0,2Z"/><path class="cls-6" d="M777.1,887H429.51a1,1,0,0,1,0-2H777.1a1,1,0,0,1,0,2Z"/><path class="cls-6" d="M777.1,933.49H429.51a1,1,0,0,1,0-2H777.1a1,1,0,1,1,0,2Z"/><path class="cls-6" d="M777.1,980H429.51a1,1,0,0,1,0-2H777.1a1,1,0,0,1,0,2Z"/><path class="cls-6" d="M777.1,1026.41H429.51a1,1,0,0,1,0-2H777.1a1,1,0,1,1,0,2Z"/><path class="cls-6" d="M777.1,1072.87H429.51a1,1,0,0,1,0-2H777.1a1,1,0,0,1,0,2Z"/><rect class="cls-6" x="593.76" y="1083.59" width="38.31" height="6.8" rx="3.4" ry="3.4"/><polygon class="cls-8" points="719.43 925.03 509.64 933.85 498.22 662.45 668.68 655.28 708.7 669.99 719.43 925.03"/><path class="cls-5" d="M541.86,718.05l-7.28.31-.2-4.87a8.75,8.75,0,0,0-.34-2.64,1,1,0,0,0-1.05-.48,1.08,1.08,0,0,0-1.11.69,9.77,9.77,0,0,0-.12,2.78l.55,13a9.09,9.09,0,0,0,.35,2.65,1,1,0,0,0,1.12.58,1,1,0,0,0,1-.67,10.21,10.21,0,0,0,.13-2.94l-.15-3.52,7.28-.31,0,1.09a21.54,21.54,0,0,1-.35,6.19,6.3,6.3,0,0,1-2.58,3.3A9.31,9.31,0,0,1,534,734.8a10.72,10.72,0,0,1-5.32-.94,5.63,5.63,0,0,1-2.88-3.09,21.05,21.05,0,0,1-.93-6.14l-.34-8.18a36.4,36.4,0,0,1,0-4.55,6.36,6.36,0,0,1,1.11-3,6.9,6.9,0,0,1,2.76-2.32,11.68,11.68,0,0,1,9.52,0,6,6,0,0,1,2.88,3,18.64,18.64,0,0,1,.9,5.75Z"/><path class="cls-5" d="M560.69,705l1.18,28-7.28.31-.49-11.76-2.18.09.49,11.76-7.28.31-1.18-28,7.28-.31.42,10,2.18-.09-.42-10Z"/><path class="cls-5" d="M570.89,704.62l1.18,28-7.28.31-1.18-28Z"/><path class="cls-5" d="M590.36,703.8l.79,18.71a32.48,32.48,0,0,1,0,4.48,6.08,6.08,0,0,1-1.12,2.7,6.38,6.38,0,0,1-2.6,2.17,10.14,10.14,0,0,1-3.9.87,11.07,11.07,0,0,1-4.46-.64,6.67,6.67,0,0,1-3-2,6,6,0,0,1-1.24-2.76q-.24-1.47-.43-6.21l-.7-16.56,7.28-.31.88,21a8.25,8.25,0,0,0,.3,2.33.78.78,0,0,0,.83.48.84.84,0,0,0,.87-.6,10.44,10.44,0,0,0,.09-2.66l-.87-20.63Z"/><path class="cls-5" d="M609,711.51l-6.76.29-.09-2.08a4.07,4.07,0,0,0-.34-1.84,1,1,0,0,0-.88-.36,1.1,1.1,0,0,0-1,.58,3.11,3.11,0,0,0-.27,1.64,4.61,4.61,0,0,0,.47,2.09,5.49,5.49,0,0,0,2.13,1.63q5,2.68,6.32,4.48t1.51,5.91a10.47,10.47,0,0,1-.51,4.44,5.49,5.49,0,0,1-2.61,2.49,10.72,10.72,0,0,1-4.63,1.16,10.44,10.44,0,0,1-5-.9,5.43,5.43,0,0,1-2.82-2.7,14.44,14.44,0,0,1-.84-4.83l-.08-1.83,6.76-.28.14,3.41a4.49,4.49,0,0,0,.37,2,1.1,1.1,0,0,0,1,.41,1.18,1.18,0,0,0,1.06-.62,3.26,3.26,0,0,0,.28-1.71q-.1-2.47-.81-3.21a21.59,21.59,0,0,0-3.51-2.4,33.47,33.47,0,0,1-3.71-2.46,6.1,6.1,0,0,1-1.56-2.19,9.89,9.89,0,0,1-.73-3.64,10.18,10.18,0,0,1,.62-4.74,5.53,5.53,0,0,1,2.56-2.44,10.6,10.6,0,0,1,4.39-1,11.55,11.55,0,0,1,4.87.71,5.07,5.07,0,0,1,2.74,2.2,12.23,12.23,0,0,1,.85,4.7Z"/><path class="cls-5" d="M628.81,718.6q.18,4.22.05,6a6.69,6.69,0,0,1-3.84,5.61,10.31,10.31,0,0,1-4.12,1,10.55,10.55,0,0,1-4.07-.57,6.74,6.74,0,0,1-4.4-5.23,59.27,59.27,0,0,1-.46-6l-.2-4.79q-.18-4.22-.05-6a6.7,6.7,0,0,1,3.84-5.61,10.31,10.31,0,0,1,4.12-1,10.57,10.57,0,0,1,4.07.57,6.73,6.73,0,0,1,4.4,5.23,59.1,59.1,0,0,1,.46,6Zm-7.67-8.89a8.68,8.68,0,0,0-.32-2.49.86.86,0,0,0-.91-.51,1,1,0,0,0-.85.48,6.26,6.26,0,0,0-.19,2.61l.55,13.07a12.86,12.86,0,0,0,.33,3,.87.87,0,0,0,.95.53.89.89,0,0,0,.92-.7,13.88,13.88,0,0,0,.08-3.14Z"/><path class="cls-5" d="M637.08,701.84l7.33-.31a17.24,17.24,0,0,1,4.59.27,5.11,5.11,0,0,1,2.46,1.25,4.63,4.63,0,0,1,1.18,2.09,19.17,19.17,0,0,1,.45,3.87l.1,2.44a10.16,10.16,0,0,1-.39,3.93,3.79,3.79,0,0,1-2,2,9.63,9.63,0,0,1-3.84.82l-2,.08.47,11.27-7.28.31Zm7.48,4.48.3,7.12h.54a1.69,1.69,0,0,0,1.37-.55,3.63,3.63,0,0,0,.3-2.07l-.1-2.3a2.7,2.7,0,0,0-.53-1.85A2.83,2.83,0,0,0,644.56,706.32Z"/><path class="cls-5" d="M654.85,701.09l12.14-.51.24,5.6-4.86.2.22,5.31,4.55-.19.22,5.33-4.55.19.26,6.15,5.34-.22.24,5.6-12.62.53Z"/><path class="cls-5" d="M669.56,700.47l5.15-.22a39.42,39.42,0,0,1,7,.1,4.81,4.81,0,0,1,3.06,1.91q1.22,1.58,1.37,5.17.14,3.27-.63,4.43a4.28,4.28,0,0,1-3.14,1.48,5.47,5.47,0,0,1,3,1.31,4.29,4.29,0,0,1,1,1.61,26.11,26.11,0,0,1,.36,4.13l.31,7.38-6.76.28-.39-9.3a6.41,6.41,0,0,0-.47-2.77q-.38-.52-1.88-.46l.53,12.62-7.28.31ZM677,705l.26,6.22a3.22,3.22,0,0,0,1.71-.41q.48-.36.4-2.21l-.06-1.54a2.33,2.33,0,0,0-.55-1.73A2.7,2.7,0,0,0,677,705Z"/><path class="cls-5" d="M526.56,749.05l12.33-.52.24,5.6-5,.21.22,5.31,4.5-.19.22,5.33-4.5.19.49,11.76-7.28.31Z"/><path class="cls-5" d="M552.52,748l5.34,27.82-7.44.31-.6-5-2.6.11-.23,5-7.53.32L542,748.4Zm-3.1,18.16q-.75-4.73-1.6-11.71-.77,8.09-.9,11.82Z"/><path class="cls-5" d="M565.2,747.43l.94,22.39,4.43-.19.24,5.6-11.71.49-1.18-28Z"/><path class="cls-5" d="M578.67,746.86l.94,22.39,4.43-.19.24,5.6-11.71.49-1.18-28Z"/><path class="cls-5" d="M592.14,746.29l1.18,28-7.28.31-1.18-28Z"/><path class="cls-5" d="M617.52,745.23l1.18,28-6.36.27-.8-18.9-1.74,19-4.51.19-3.45-18.35.77,18.47-6.36.27-1.18-28,9.42-.4q.53,2.51,1.11,5.92l1.33,7.08L608,745.62Z"/><path class="cls-5" d="M620.44,745.1l12.14-.51.24,5.6-4.86.2.22,5.31,4.55-.19.22,5.33-4.55.19.26,6.15L634,767l.24,5.6-12.62.53Z"/><path class="cls-5" d="M651.41,743.8l1.18,28-6.38.27-4.32-12.57.54,12.73-6.09.26-1.18-28,6.09-.26,4.61,12.43-.53-12.6Z"/><path class="cls-5" d="M669,743.06l.24,5.6-4.32.18.94,22.39-7.28.31-.94-22.39-4.31.18-.24-5.6Z"/><path class="cls-5" d="M688,758.68q.18,4.22.05,6a6.69,6.69,0,0,1-3.84,5.61,10.3,10.3,0,0,1-4.12,1,10.55,10.55,0,0,1-4.07-.56,6.73,6.73,0,0,1-4.4-5.23,59,59,0,0,1-.46-6l-.2-4.79q-.18-4.22-.05-6a6.7,6.7,0,0,1,3.84-5.61,10.3,10.3,0,0,1,4.12-1,10.53,10.53,0,0,1,4.07.57,6.73,6.73,0,0,1,4.4,5.23,59,59,0,0,1,.46,6Zm-7.67-8.89a8.67,8.67,0,0,0-.32-2.49.86.86,0,0,0-.91-.51,1,1,0,0,0-.85.48,6.26,6.26,0,0,0-.19,2.61l.55,13.07a12.87,12.87,0,0,0,.33,3,.87.87,0,0,0,.95.53.9.9,0,0,0,.92-.7,13.89,13.89,0,0,0,.08-3.14Z"/><path class="cls-5" d="M574,840.13l1.9,45.13-11.26.47-1-24.19a42.47,42.47,0,0,0-.52-6.29,2.36,2.36,0,0,0-1.45-1.54q-1.15-.5-5.05-.33l-1.11,0-.22-5.26q8.09-2.1,12.1-7.75Z"/><path class="cls-5" d="M579.77,873.09l11.26-.47q.13,3.15.25,4a2.12,2.12,0,0,0,.74,1.35,2.31,2.31,0,0,0,1.65.49,2,2,0,0,0,1.4-.59,2,2,0,0,0,.57-1.39q0-.84-.07-3.38l-.3-7.19a5.72,5.72,0,0,1-2.39,2.82,8.65,8.65,0,0,1-4.11,1.08,9.24,9.24,0,0,1-5.53-1.44,7.27,7.27,0,0,1-3.18-3.89,24.89,24.89,0,0,1-.91-6.3l-.15-3.6a48,48,0,0,1,.08-7.07,9.17,9.17,0,0,1,1.76-4.36,10.1,10.1,0,0,1,4.19-3.23,17.44,17.44,0,0,1,6.36-1.36,18.81,18.81,0,0,1,7.47.94,10.09,10.09,0,0,1,4.64,3.42,10.59,10.59,0,0,1,2,4.87q.36,2.58.67,10l.26,6.27q.34,8.06.23,10.78a10.28,10.28,0,0,1-1.72,5.22,10.44,10.44,0,0,1-4.49,3.83,17.59,17.59,0,0,1-6.72,1.5,17.25,17.25,0,0,1-7.85-1.21,9.26,9.26,0,0,1-4.53-4.14A16.39,16.39,0,0,1,579.77,873.09Zm10.67-14.55q.12,2.84.89,3.48a2.26,2.26,0,0,0,1.55.6,1.89,1.89,0,0,0,1.68-.92,6.88,6.88,0,0,0,.4-3.35l-.34-8.17a9.41,9.41,0,0,0-.68-3.88,1.81,1.81,0,0,0-1.75-.85,2.29,2.29,0,0,0-1.48.77q-.75.74-.62,3.87Z"/><path class="cls-5" d="M635.13,875.06l.32,7.69-24.78,1-.26-6.44q10.25-18.47,12.15-22.83t1.8-6.76a4.85,4.85,0,0,0-.74-2.72,2.17,2.17,0,0,0-1.95-.83,2.1,2.1,0,0,0-1.87,1.08,8.44,8.44,0,0,0-.46,4l.18,4.29-10.09.42-.07-1.64a35.76,35.76,0,0,1,.14-6,10.5,10.5,0,0,1,1.74-4.39,9.67,9.67,0,0,1,3.85-3.37,14.46,14.46,0,0,1,5.84-1.33q6.72-.28,10.3,2.9a11.25,11.25,0,0,1,3.8,8.29,20.08,20.08,0,0,1-1.59,8.28q-1.76,4.4-10.64,18.82Z"/><path class="cls-5" d="M639.33,870.58l11.26-.47q.13,3.15.25,4a2.12,2.12,0,0,0,.74,1.35,2.3,2.3,0,0,0,1.65.49,2,2,0,0,0,1.4-.59,2.05,2.05,0,0,0,.57-1.39q0-.84-.07-3.37l-.3-7.19a5.71,5.71,0,0,1-2.39,2.82,8.63,8.63,0,0,1-4.11,1.08,9.24,9.24,0,0,1-5.53-1.44,7.27,7.27,0,0,1-3.18-3.89,24.89,24.89,0,0,1-.91-6.3l-.15-3.6a48.13,48.13,0,0,1,.08-7.07,9.18,9.18,0,0,1,1.76-4.36,10.09,10.09,0,0,1,4.19-3.23,17.4,17.4,0,0,1,6.36-1.36,18.81,18.81,0,0,1,7.47.94,10.09,10.09,0,0,1,4.64,3.42,10.59,10.59,0,0,1,2,4.87q.36,2.58.67,10l.26,6.27q.34,8.06.23,10.78a10.28,10.28,0,0,1-1.72,5.22,10.44,10.44,0,0,1-4.49,3.83,17.6,17.6,0,0,1-6.72,1.5,17.24,17.24,0,0,1-7.85-1.21,9.26,9.26,0,0,1-4.53-4.14A16.38,16.38,0,0,1,639.33,870.58ZM650,856q.12,2.84.89,3.48a2.26,2.26,0,0,0,1.55.6,1.89,1.89,0,0,0,1.68-.92,6.89,6.89,0,0,0,.4-3.35l-.34-8.17a9.39,9.39,0,0,0-.68-3.88,1.81,1.81,0,0,0-1.75-.85,2.3,2.3,0,0,0-1.48.77q-.75.74-.62,3.87Z"/><path class="cls-5" d="M540.4,813.21a1,1,0,0,1,0-2L677,805.29a1,1,0,0,1,1,1,1,1,0,0,1-1,1l-136.61,5.92Z"/><polygon class="cls-2" points="699.33 676.74 668.68 655.28 708.7 669.99 699.33 676.74"/><rect class="cls-6" x="428.39" y="890.21" width="372.78" height="33.44"/><rect class="cls-6" x="427.99" y="1039.51" width="372.78" height="33.44" transform="translate(16.3 -9.31) rotate(0.88)"/><rect class="cls-6" x="427.99" y="990.1" width="372.78" height="33.44" transform="translate(-26.95 16.95) rotate(-1.55)"/><rect class="cls-6" x="428.39" y="940.38" width="372.78" height="33.44" transform="translate(27.95 -17.39) rotate(1.66)"/><rect class="cls-2" x="419.55" y="868.42" width="9.96" height="206.57"/><polygon class="cls-2" points="190.88 7.93 208.46 1178.79 109.54 1178.79 109.54 7.93 190.88 7.93"/><polygon class="cls-1" points="28.2 7.93 109.54 7.93 109.54 1178.79 10.61 1178.79 28.2 7.93"/><path class="cls-8" d="M59.12,1179.88h0a1,1,0,0,1-1-1L70.29,7.92a1,1,0,1,1,2,0L60.12,1178.89A1,1,0,0,1,59.12,1179.88Z"/><path class="cls-8" d="M191.86,74H27.22a1,1,0,1,1,0-2H191.86a1,1,0,0,1,0,2Z"/><path class="cls-8" d="M193.06,154.46H26a1,1,0,0,1,0-2H193.06a1,1,0,0,1,0,2Z"/><path class="cls-8" d="M194.27,234.91H24.81a1,1,0,1,1,0-2H194.27a1,1,0,0,1,0,2Z"/><path class="cls-8" d="M195.48,315.36H23.6a1,1,0,1,1,0-2H195.48a1,1,0,0,1,0,2Z"/><path class="cls-8" d="M196.69,395.81H22.39a1,1,0,1,1,0-2h174.3a1,1,0,0,1,0,2Z"/><path class="cls-8" d="M197.9,476.27H21.18a1,1,0,0,1,0-2H197.9a1,1,0,0,1,0,2Z"/><path class="cls-8" d="M199.11,556.72H20a1,1,0,0,1,0-2H199.11a1,1,0,0,1,0,2Z"/><path class="cls-8" d="M200.31,637.17H18.76a1,1,0,1,1,0-2H200.31a1,1,0,0,1,0,2Z"/><path class="cls-8" d="M201.54,717.62h-184a1,1,0,0,1,0-2h184a1,1,0,0,1,0,2Z"/><path class="cls-8" d="M202.72,798.08H16.35a1,1,0,0,1,0-2H202.72a1,1,0,0,1,0,2Z"/><path class="cls-8" d="M203.94,878.53H15.14a1,1,0,0,1,0-2h188.8a1,1,0,0,1,0,2Z"/><path class="cls-8" d="M205.15,959H13.93a1,1,0,1,1,0-2H205.15a1,1,0,0,1,0,2Z"/><path class="cls-8" d="M206.36,1039.43H12.72a1,1,0,0,1,0-2H206.36a1,1,0,0,1,0,2Z"/><path class="cls-6" d="M28.2,0H190.88a0,0,0,0,1,0,0V4.53a3.4,3.4,0,0,1-3.4,3.4H31.6a3.4,3.4,0,0,1-3.4-3.4V0a0,0,0,0,1,0,0Z" transform="translate(219.08 7.93) rotate(-180)"/></g></g></svg>