<svg xmlns="http://www.w3.org/2000/svg" viewBox="0 0 1920 2017.34"><defs><style>.cls-1{fill:#fff;}.cls-2{fill:#3d4689;}.cls-3{fill:#859cec;}.cls-4{fill:#a8aee5;}.cls-5{fill:#ffddd3;}.cls-6{fill:#c8bfde;}</style></defs><title>foresta</title><g id="Livello_2" data-name="Livello 2"><g id="Livello_1-2" data-name="Livello 1"><path class="cls-1" d="M97.67,1.1A226.41,226.41,0,0,0,0,12.93V494.31A226.58,226.58,0,0,0,48.15,504.4c131.15,12.9,248.56-89.3,262.23-228.29S228.82,14,97.67,1.1Z"/><path class="cls-2" d="M311,219.8a1,1,0,0,0-1.37.33l-66.09,108L161.7,351.76a1,1,0,0,0-.91.26L62.33,380.46l9.58-100,59.31-74.34,127.31,4.42h0a1,1,0,0,0,0-2l-125.82-4.37,47.67-59.76h0a1,1,0,0,0,.83-1l59-74a1,1,0,0,0-1.56-1.25l-57.87,72.55L161.58,16.08a1,1,0,0,0-2,.31l19.57,126.4-106.92,134L98.66,1.19A1,1,0,0,0,97.76.1a1,1,0,0,0-1.09.9L72.6,252.2.88,120.93a1,1,0,0,0-.88-.51v3.07l25.74,47.1L0,175.72v2l.2,0,26.55-5.29L71.86,255a1,1,0,0,0,.44.41L70,279.68l-.64.8a1,1,0,0,0,.16,1.41,1,1,0,0,0,.25.14l-9.49,99-.36.1a1,1,0,0,0-.68,1.24,1,1,0,0,0,.85.7l-3.88,40.51L.5,391.68a1,1,0,0,0-.5-.12v2.14l55.5,31.82a1,1,0,0,0,.49.13L32.41,671.74a1,1,0,0,0,.9,1.09h.1a1,1,0,0,0,1-.9L62.12,382.6l99.39-28.7,62.07,36.27a1,1,0,1,0,1-1.73l-60.43-35.31L305.4,312.34a1,1,0,0,0-.55-1.92l-58.47,16.88,64.95-106.13A1,1,0,0,0,311,219.8Z"/><ellipse class="cls-1" cx="1520.13" cy="498.87" rx="252.48" ry="238.79" transform="translate(831.54 1942.99) rotate(-82.68)"/><path class="cls-2" d="M1759.6,511.48a1,1,0,0,0-1.26-.65l-155,49.66,50.92-96.72a1,1,0,0,0-1.77-.93l-51.87,98.53-91.26,29.24,17.74-138,210.28-61.87a1,1,0,1,0-.56-1.92l-102.55,30.17,66.55-88.25a1,1,0,1,0-1.6-1.21L1631,419.89l-103.67,30.5,9.17-71.32,64.13-48.82,64-9.14a1,1,0,0,0-.28-2l-60.45,8.64L1655,288.91a1,1,0,1,0-1.21-1.59l-116.88,89,16.42-127.71a1,1,0,1,0-2-.25L1534.6,378.4h0l-4.35,33.85-48.07-60.37,29.55-104.69a1,1,0,1,0-1.92-.54L1480.65,350l-62.19-78.11a1,1,0,0,0-1.56,1.25L1529.9,415l-4.71,36.65h0L1513,546.47l-71.92-50.93-13.16-154a1,1,0,0,0-1.08-.91,1,1,0,0,0-.91,1.08l3.09,36.11-60.48-30a1,1,0,1,0-.89,1.79l61.57,30.55L1438.95,494l-136.19-96.45a1,1,0,0,0-1.16,1.63l65.29,46.24-80.79,4.29a1,1,0,0,0,.05,2h.05l83.31-4.43,69.65,49.32v0a1,1,0,0,0,1,.92h.09a1,1,0,0,0,.18-.05l55.11,39-128.61-1-83.64-63a1,1,0,1,0-1.2,1.6l81.48,61.39-80.41-.64h0a1,1,0,0,0,0,2l177.63,1.42-86.54,40.83a1,1,0,1,0,.85,1.81l90.29-42.61,33,.26,14.31,10.13-12,93.24-51.47-.65h0l-128.67-1.63a1,1,0,0,0-1,1,1,1,0,0,0,1,1l127.18,1.61-35.52,82.41a1,1,0,1,0,1.84.79l35.85-83.18,50.57.64L1452,1020.7a1,1,0,0,0,.86,1.12h.13a1,1,0,0,0,1-.87l44-342.55,131.2,44a1,1,0,1,0,.64-1.9L1524,685l89.84-43.22a1,1,0,1,0-.87-1.8l-91.69,44.11-23-7.71,10.74-83.59L1576,571.35l144.63,62.21a1,1,0,0,0,.79-1.84l-64.67-27.82,59.85-32.53a1,1,0,0,0-1-1.76l-61.23,33.28-75.51-32.48,180-57.68A1,1,0,0,0,1759.6,511.48Z"/><path class="cls-3" d="M1854.55,1019.37c-42.19,6.69-75.54,34.26-94.94,80-20.24-20.29-46-32.84-79.82-32.84-45.26,0-81,20.54-108.43,52.64-24.45-58-66.21-99.12-140.72-105.84-51.24-4.62-104.71,17.24-146.68,52.6a118.21,118.21,0,0,0-42.78-7.57c-43.13,0-77.94,18-105.4,46.69-20.08-47-53.77-79.43-119-85.3-74.72-6.73-163.23,43.11-210.29,109-30.22-52.63-80.15-90.93-144.82-90.93-55.67,0-109,18.64-151.44,52.95-17.43-66-75.56-97.93-137.26-104.46-86-9.1-205.3,67.51-192.43,168,13.19,103,49.89,194.33,135.84,203.43,42.77,4.53,85.41-13.15,120.16-44.56,33.37,63,119,107.6,198.63,107.6,76.07,0,144.39-30.6,179.4-83.71,35.78,44,91.49,72.26,154.06,72.26a219,219,0,0,0,111.47-31.16c34.48,53.73,103.15,90.16,173,90.16,58.88,0,105.33-26.28,131.23-66.72,5.51.45,11.09.69,16.73.69,42.63,0,84.62-13.33,118.83-35.77,31.3,56.06,100.71,94.77,171.38,94.77,79.74,0,135.8-50.06,146.43-117.68,23.18,8.89,47.58,12.07,69.59,8.58a100.82,100.82,0,0,0,12.64-2.86V1028.6C1898.68,1019.45,1876.12,1015.95,1854.55,1019.37Z"/><rect class="cls-4" y="1157.54" width="1920" height="357.95"/><path class="cls-5" d="M1433.15,1183a116.91,116.91,0,0,0-217.81,0Z"/><ellipse class="cls-3" cx="483.68" cy="592.65" rx="325.18" ry="307.55" transform="translate(-136.26 1040.82) rotate(-86.65)"/><path class="cls-2" d="M790.84,559a1,1,0,0,0-1.3-.56L610.1,629l74.62-119.72,90-23.85a1,1,0,0,0-.51-1.93l-88,23.31,57-91.37a1,1,0,0,0-1.7-1.06L607,630.26,479.53,680.41l6-101.7,116.9-93.31a1,1,0,1,0-1.25-1.56L485.65,576l9-154.26,38.94-20.16,133.08,17.67h.13a1,1,0,0,0,.13-2L536.74,400l131.61-68.15a1,1,0,1,0-.92-1.78L494.83,419.44l8.87-151.36a1,1,0,0,0-2-.12l-3.52,60L437,270.94a1,1,0,0,0-1.36,1.46L498,330.6,485.47,545l-64.33-45.14L359.3,296.25a1,1,0,0,0-1.91.58L418.49,498l-167-117.16a1,1,0,0,0-1.15,1.64L338.17,444,206,453.25a1,1,0,0,0,.07,2h.07l134.6-9.38L485,547.09a1,1,0,0,0,.31.14L474,740.93l-61.27-34.5L337.64,516.58a1,1,0,0,0-1.86.74l74.17,187.56L177.14,573.78a1,1,0,1,0-1,1.74l130.27,73.35-119.3,32.6a1,1,0,0,0,.26,2,1,1,0,0,0,.26,0l121.25-33.13,80.58,45.38-98.82,38.66a1,1,0,0,0,.73,1.86l100.34-39.26,82.11,46.24-3.62,61.77L415,832,242,794.26a1,1,0,1,0-.43,2l170.51,37.23L329,874.21a1,1,0,0,0,.44,1.9,1,1,0,0,0,.44-.1L470.1,807.22l-21.2,361.62a1,1,0,0,0,.94,1.06h.06a1,1,0,0,0,1-.94L470.84,828.7l152.3,53.6a1,1,0,0,0,.33.06,1,1,0,0,0,.33-1.94l-91.05-32,93.81-34.6a1,1,0,0,0-.69-1.88l-96.07,35.44L471,826.62l8.44-144,57.24-22.53L640.41,743.9l-.21,0a1,1,0,0,0,.21,2l.22,0,1.77-.39,73.21,59.14a1,1,0,0,0,1.26-1.56L644.9,745l122.59-27.13a1,1,0,1,0-.43-2L642.91,743.35,538.79,659.25l251.49-99A1,1,0,0,0,790.84,559Z"/><ellipse class="cls-3" cx="1208.64" cy="658.27" rx="252.89" ry="267.39" transform="translate(-29.16 56.63) rotate(-2.65)"/><path class="cls-2" d="M1447.4,750.21l-153.92-42.48,153.81-138.15a1,1,0,0,0-1.34-1.49l-68.46,61.49.37-75.46a1,1,0,0,0-1-1h0a1,1,0,0,0-1,1l-.38,77.27L1215.07,775.47l-8.12-175.41L1382,464.7a1,1,0,0,0-1.22-1.58l-63.5,49.11-13.7-101.89a1,1,0,1,0-2,.27l13.86,103-108.59,84-9.56-206.5a1,1,0,0,0-1-1,1,1,0,0,0-1,1L1200,493.88l-95.11-80.55a1,1,0,1,0-1.29,1.53l96.53,81.75,9.33,201.4-76.68-25.78.09,0a1,1,0,0,0,.57-1.29l-84.73-220.24a1,1,0,1,0-1.87.72l34.2,88.9-60.19-8.56a1,1,0,0,0-.28,2l61.29,8.71,49.7,129.2a1,1,0,0,0,.13.23l-172.59-58a1,1,0,0,0-.64,1.9l251.07,84.41,5,107.37-66.7,12.27L969.37,741.68a1,1,0,1,0-.8,1.83l175.78,76.93L1026.6,842.1a1,1,0,0,0,.18,2l.18,0L1179.56,816l-36.69,58.92a1,1,0,0,0,1.7,1.06l37.65-60.46,32.42-6,21.75,469.54a1,1,0,0,0,1,1h0a1,1,0,0,0,1-1L1219,861.3l117.35,29.29.24,0a1,1,0,0,0,.24-2l-66.36-16.56,58-59.83a1,1,0,1,0-1.44-1.39l-58.76,60.66L1219,859.22l-3.76-81.16,76.52-68.73,155.15,42.82a1,1,0,0,0,.53-1.93Z"/><path class="cls-2" d="M573.55,1199.39c-18-46.2-55.16-84.92-107.75-84.92-65.85,0-105.34,38.72-123.37,84.92Z"/><path class="cls-6" d="M813.58,1218.58c-19.29-49.41-58.4-87.19-130-87.19-56.24,0-105.46,37.84-117.13,87.19Z"/><path class="cls-2" d="M1424.48,1293.65c-8.48-43.18-51.53-74.61-100.23-74.61s-97.13,33.26-113.83,74.61Z"/><path class="cls-3" d="M1920,443.2a280.64,280.64,0,0,0-76.59-13.36c-163-5.54-299.9,129.68-305.76,302s121.53,316.56,284.54,322.11a280.47,280.47,0,0,0,97.82-14Z"/><path class="cls-2" d="M1920,619v-2.11a1,1,0,0,0-.46.1l-84.21,43.65,2-50.47a1,1,0,0,0,0-1l2.85-72.48,79.8-75.69v-2.38a1,1,0,0,0-.69.27l-79,74.93,4.09-104a1,1,0,0,0-1-1,1,1,0,0,0-1,1l-7,177.68-91.65-78.21,18.55-89.91a1,1,0,0,0-2-.4L1742,527.8l-62-52.88a1,1,0,1,0-1.3,1.52L1835.32,610l-5.17,131.42L1690.56,626.1,1648.66,499a1,1,0,1,0-1.9.63l40.9,124.06-87.89-72.63a1,1,0,1,0-1.27,1.54l152.08,125.67-129.44,4.09a1,1,0,0,0,0,2h0l131.7-4.16L1830,744l-2.51,63.81L1603.69,782,1542,692.78a1,1,0,0,0-1.65,1.14L1601,781.7l-61.91-7.13a1,1,0,1,0-.23,2l181.58,20.9L1568.74,883.1a1,1,0,0,0,1,1.74l154.14-87,103.59,11.93-3.54,89.88L1761,925.8l.56-1.22a1,1,0,0,0-1.82-.84l-1.47,3.19-120.21,50a1,1,0,0,0,.77,1.85l118.2-49.13-45.1,97.77a1,1,0,0,0,1.82.84l46-99.74,64.06-26.62L1809,1278.46a1,1,0,0,0,1,1h0a1,1,0,0,0,1-1l12-304.67,91,68.62a1,1,0,1,0,1.2-1.6l-57.52-43.4,62.37-.19v-2h0l-65,.2-31-23.37a1,1,0,0,0-.94-.12l2.8-71.06a1,1,0,0,0,.06-1.51l1.06-26.82,92.84,16.14h.17v-2l-92.94-16.16,2.4-61a1,1,0,0,0,.05-1.39l1.28-32.52,66.94-22.57,21.78,12a1,1,0,0,0,.48.12h0v-2.14l-19.69-10.85,19.69-6.64v-2a1,1,0,0,0-.32,0l-22.12,7.46h0l-66.68,22.48,1.15-29.24,0,0a1,1,0,0,0,0-1.23l3.15-80.14Z"/><path class="cls-2" d="M1172.65,1204h-115.4a1,1,0,0,1,0-2h115.4a1,1,0,0,1,0,2Z"/><path class="cls-2" d="M976.22,1302.79H797a1,1,0,1,1,0-2h179.2a1,1,0,1,1,0,2Z"/><path class="cls-3" d="M559.25,1338.32A240.85,240.85,0,0,0,416,1385c-19.38-61.71-75.72-91.83-135.43-98.15-29.1-3.08-62,3.67-92.35,17.84-28.11-55.07-75.42-93.33-134.45-93.33a141.43,141.43,0,0,0-53.75,11v355.64a160.39,160.39,0,0,0,53.75,9.41,150,150,0,0,0,64.87-15.13c21.73,47.38,55.13,80.77,105.34,86.08,40,4.24,80-11,113.42-38.72,35.43,59.93,118.26,101.77,195.37,101.77,110.18,0,214.11-84.17,214.11-188S669.43,1338.32,559.25,1338.32Z"/><path class="cls-3" d="M1806.51,1369.9c-42.12-54.9-105.67-91.73-175.41-86.61-79.51,5.83-129.8,47.49-156.85,109.25-32.46-27.42-72.45-41.11-109.65-35.21-73.68,11.69-121.73,84-119.35,204,1.93,97.72,101.13,157.27,174.81,145.58,47.3-7.5,88.88-47.84,108.55-101.29,48,32.76,110.68,52.25,163.64,52.25,69.84,0,138.53,16.62,163.89-34.85a208.11,208.11,0,0,0,63.86,47.61V1235.45C1864.74,1258.89,1825.5,1309.29,1806.51,1369.9Z"/><rect class="cls-4" y="1516.32" width="1920" height="461.02"/><path class="cls-5" d="M590.79,1530.62c-24-61.38-72.54-108.31-161.54-108.31-69.86,0-131,47-145.5,108.31Z"/><path class="cls-6" d="M0,1611.22H228.9A191.28,191.28,0,0,0,0,1496.49Z"/><path class="cls-2" d="M1450.26,1527.38c-12.59-64.06-76.45-110.71-148.72-110.71s-144.11,49.35-168.89,110.71Z"/><path class="cls-6" d="M1892.85,1557.32c-24.48-60-100.63-113-172-113s-130,51-141.68,113Z"/><path class="cls-2" d="M1232.2,1869.65H991.6a1,1,0,0,1,0-2h240.6a1,1,0,1,1,0,2Z"/><path class="cls-2" d="M1343.13,1837.57H1043.75a1,1,0,0,1,0-2h299.38a1,1,0,1,1,0,2Z"/><path class="cls-2" d="M1198,1545.39H1000.22a1,1,0,0,1,0-2H1198a1,1,0,1,1,0,2Z"/><path class="cls-2" d="M539.79,1583.09H325.14a1,1,0,0,1,0-2H539.79a1,1,0,1,1,0,2Z"/><path class="cls-2" d="M1855.8,1603.09H1558.31a1,1,0,0,1,0-2H1855.8a1,1,0,0,1,0,2Z"/><ellipse class="cls-1" cx="719.83" cy="881.4" rx="322.02" ry="340.47" transform="translate(-58.27 50.99) rotate(-3.9)"/><path class="cls-2" d="M1039.59,835.4a1,1,0,0,0-1.36-.39L845.48,941.8l42.21-142.12a1,1,0,1,0-1.92-.57L843,943.18l-113.65,63-12.82-188L978.63,681a1,1,0,1,0-.93-1.77L849,746.52l65.32-135.15a1,1,0,0,0-1.8-.87l-66.5,137.58L716.37,815.93l-6.64-97.41,67.88-76.73L864.27,608a1,1,0,1,0-.73-1.86l-83,32.37,62.33-70.46a1,1,0,1,0-1.5-1.32l-131.8,149L697.67,541.65a1,1,0,0,0-1.07-.93,1,1,0,0,0-.93,1.07L710.89,765,630.7,697.09l11.62-146.4a1,1,0,1,0-2-.16l-11.5,145L525.54,608.06a1,1,0,0,0-1.29,1.53L711.08,767.75l3.4,49.85h0l8.81,129.18L614.12,898,556.25,697.63a1,1,0,0,0-1.92.55l13.73,47.55-88.47-24a1,1,0,1,0-.52,1.93L568.71,748l43,148.95L405.58,804.8a1,1,0,0,0-.82,1.83l99.42,44.43L397.47,878.19a1,1,0,0,0,.25,2,1,1,0,0,0,.25,0l109.16-27.75,105.33,47.08.06.21a1,1,0,0,0,1,.72,1,1,0,0,0,.28,0,1,1,0,0,0,.32-.17l84.29,37.67L513.28,973,436,940.84a1,1,0,0,0-.77,1.85l74.45,31-93.79,17.84a1,1,0,0,0,.19,2l.19,0,236.83-45-105,77.63a1,1,0,1,0,1.19,1.61l108.31-80.1,43.92-8.35,21.88,9.78,8.66,127-68.55,12.7h0l-170.62,31.62a1,1,0,0,0,.18,2l.18,0L662.44,1091,637,1209.83a1,1,0,0,0,.77,1.19l.21,0a1,1,0,0,0,1-.79l25.63-119.66,67.67-12.54,32,469.77a1,1,0,0,0,1,.93h.07a1,1,0,0,0,.93-1.07l-28.86-423.41,185.53,23.86H923a1,1,0,0,0,.13-2l-150.24-19.32,108.17-81.26a1,1,0,0,0-1.2-1.6l-109.82,82.5-32.83-4.22-7.76-113.9,83.23-46.11,207.76,44.36.21,0a1,1,0,0,0,.21-2l-93.55-20,71.18-59.2a1,1,0,1,0-1.28-1.54l-72.39,60.2L815.38,960.76l223.83-124A1,1,0,0,0,1039.59,835.4Z"/><ellipse class="cls-6" cx="1540.33" cy="990.3" rx="307.97" ry="305.39" transform="translate(442.22 2455.73) rotate(-85.89)"/><path class="cls-2" d="M1841.06,1042.49l-100.61,18.87,100.74-128.45a1,1,0,0,0-1.57-1.23l-102.14,130.24-129.26,24.24h0l-24.39,4.57,95.4-162.82a1,1,0,1,0-1.73-1l-96.28,164.32-47.14,8.84L1550.34,877l48.58-20.55,232.26,40.87h.17a1,1,0,0,0,.17-2L1602.31,855l164.1-69.41a1,1,0,1,0-.78-1.84l-73.28,31,25.51-75.62a1,1,0,0,0-1.9-.64l-26.08,77.3-139.39,59,14-191.52a1,1,0,0,0-2-.14l-8.08,110.82L1473,689.49a1,1,0,1,0-1.58,1.23l82.73,106.12-5.74,78.75-.65.27a1,1,0,0,0,.39,1.92l.1,0-7.83,107.48L1394.33,867.57l-7.79-142.65a1,1,0,0,0-1.05-.94,1,1,0,0,0-.94,1.05l7.69,140.85-87.91-70.8a1,1,0,0,0-1.25,1.56L1471,931.88l-109.37,25.59L1250,895.42a1,1,0,1,0-1,1.75l109.66,61-124,29a1,1,0,0,0,.23,2l.23,0L1473,933.47l67,54a1,1,0,0,0,.3.17L1532,1100.48a1,1,0,0,0-.13,1.81l-1.33,18.26-84.82,20.2-77.41-34.62-13.29-92.5a1,1,0,1,0-2,.29l13.11,91.25-125.2-56a1,1,0,1,0-.82,1.83l202.38,90.52-145.47,34.64a1,1,0,0,0,.23,2l.23,0,232.87-55.46-7,95.75-150.58,28.84a1,1,0,0,0,.19,2l.19,0,150.06-28.74L1497,1580.84a1,1,0,0,0,.92,1.07h.07a1,1,0,0,0,1-.93l28.53-391.36,108.8,93.52a1,1,0,0,0,1.3-1.52L1582.21,1234l83.19-20a1,1,0,0,0-.47-1.95l-83.32,20a1,1,0,0,0-.74.77l-53.15-45.69,6.2-85,74.29-13.93,162.39,104.36a1,1,0,0,0,.54.16,1,1,0,0,0,.54-1.84l-160.6-103.21,230.35-43.2a1,1,0,1,0-.37-2Z"/><path class="cls-2" d="M637.25,1709.36h-446a1,1,0,0,1,0-2h446a1,1,0,1,1,0,2Z"/><path class="cls-2" d="M878.3,1551.81c-21.09-54-64.5-99.3-126-99.3-77,0-123.17,45.28-144.26,99.3Z"/><path class="cls-2" d="M1418.94,1737.83H1297.31a1,1,0,0,1,0-2h121.62a1,1,0,0,1,0,2Z"/><path class="cls-6" d="M483.18,931.84C453,729.07,261.92,589.49,56.37,620.06A384.35,384.35,0,0,0,0,632.83v709.66a379.09,379.09,0,0,0,165.6,11.86C371.16,1323.76,513.34,1134.6,483.18,931.84Z"/><path class="cls-2" d="M482.85,1040.21l-127.09,24.26L478.33,902.84a1,1,0,0,0-1.59-1.21L240,1213.73l-96.59-15.05-20.12-135.23L454.1,833a1,1,0,0,0-1.14-1.64L349.11,903.72,386.44,732.4a1,1,0,1,0-2-.43L346.7,905.4,206.6,1003l29.78-119.12,84.81-104.25a1,1,0,0,0-1.55-1.26L237.53,879.3l20-79.94a1,1,0,0,0-1.94-.48l-51.46,205.85-81.1,56.5L92,852.93,179.56,746.7l168.28-21a1,1,0,1,0-.25-2L281.31,732l30.21-38.79a1,1,0,1,0-1.58-1.23L278.5,732.34l-97.09,12.12,80.5-97.68a1,1,0,0,0-1.54-1.27l-39.68,48.16-3.49-63.48a1,1,0,0,0-1.05-.94,1,1,0,0,0-.94,1.05l3.61,65.65-40.28,48.88-.43.05a1,1,0,0,0-.87,1.12,1,1,0,0,0,.09.29l-85.7,104L57.36,619.92a1,1,0,1,0-2,.29l36,241.88L.76,755.93A1,1,0,0,0,0,755.6v2.53l36.29,42.53L.1,796.87H0v2l38.18,4,53.74,63L108.75,979,.36,937.21a1,1,0,0,0-.36-.06v2.07L109.09,981.3l24.07,161.78-96.22,47.64L.45,1172a1,1,0,0,0-.45-.1V1174l34.71,17.8L0,1209v2.12H0a1,1,0,0,0,.44-.1l133-65.87,17.14,115.23L50.22,1353.32a1,1,0,1,0,1.36,1.47l99.38-92,97.14,653a1,1,0,0,0,1,.85h.15a1,1,0,0,0,.84-1.14L143.76,1200.75l49.75,7.75,70.73,117.41a1,1,0,1,0,1.71-1l-69.87-116,191.38,29.82h.16a1,1,0,0,0,.15-2L319,1226l126.26-68a1,1,0,1,0-.95-1.76l-128.58,69.28-73.45-11.44L354,1066.85l129.27-24.68a1,1,0,0,0-.37-2Z"/><path class="cls-2" d="M1869,1747.16c-39-69.2-130.67-118.08-212.31-118.08-97,0-146.63,69-155.12,159.2-23.87-21.36-51.66-32.29-79.78-28.6-59.48,7.8-120.65,80.51-133.93,175.4H824.65c-10-59.8-40.32-98.33-80.07-98.33-34.91,0-62.85,20.62-82.95,47.74-21.35-99-81.06-125.31-141.62-125.31-28.3,0-57.89,11.94-83.2,32.9-5.86-61.33-34.39-107.5-92.52-129.85-67-25.77-179-11.51-241.32,92.69-21.73-48.82-60-80.67-103-93.12v355.55H1920V1662.9C1901.06,1684.36,1883.31,1712.47,1869,1747.16Z"/></g></g></svg>