<svg xmlns="http://www.w3.org/2000/svg" xmlns:xlink="http://www.w3.org/1999/xlink" viewBox="0 0 1920 4012.86"><defs><style>.cls-1{fill:#fff;}.cls-11,.cls-2{fill:none;}.cls-3{fill:#c8bfde;}.cls-4{fill:#3d4689;}.cls-5{fill:#a8aee5;}.cls-6{fill:#859cec;}.cls-7{fill:#f4eedf;}.cls-8{fill:#ffddd3;}.cls-9{opacity:0.5;}.cls-10{clip-path:url(#clip-path);}.cls-11{stroke:red;stroke-linecap:round;stroke-linejoin:round;stroke-width:1.59px;}.cls-12{fill:#edbdb3;}.cls-13{clip-path:url(#clip-path-2);}.cls-14{fill:#f2f2f2;}.cls-15{fill:#1c204d;}.cls-16{opacity:0.2;}.cls-17{fill:#fef6db;}.cls-18{fill:#474ab3;}.cls-19{clip-path:url(#clip-path-3);}.cls-20{clip-path:url(#clip-path-4);}.cls-21{fill:#2f6ffb;}</style><clipPath id="clip-path"><path id="SVGID" class="cls-1" d="M1290.46,3273l-8.84.63a8.93,8.93,0,0,1-9.56-9.13l.78-32.23a24.09,24.09,0,0,1,24.08-23.51h0a24.09,24.09,0,0,1,23.9,27.11l-1.21,9.55A31.63,31.63,0,0,1,1290.46,3273Z"/></clipPath><clipPath id="clip-path-2"><path id="SVGID-2" data-name="SVGID" class="cls-2" d="M737.75,1029.59h555.84a60,60,0,0,1,60,60v399.18a0,0,0,0,1,0,0H677.75a0,0,0,0,1,0,0V1089.59A60,60,0,0,1,737.75,1029.59Z"/></clipPath><clipPath id="clip-path-3"><path id="SVGID-3" data-name="SVGID" class="cls-1" d="M960.89,1269.94l6,.52a11.46,11.46,0,0,0,12.45-11.5l-.23-29.26a24,24,0,0,0-23.58-23.78h0a24,24,0,0,0-24.22,26.59l1,9.52A31.48,31.48,0,0,0,960.89,1269.94Z"/></clipPath><clipPath id="clip-path-4"><path id="SVGID-4" data-name="SVGID" class="cls-1" d="M1227.38,1265.07h4.76a17,17,0,0,0,17-16.18l1.47-29.45a20.89,20.89,0,0,0-20.86-21.93h0a20.89,20.89,0,0,0-20.86,21.93l1.47,29.45A17,17,0,0,0,1227.38,1265.07Z"/></clipPath></defs><title>grattacielo</title><g id="Livello_2" data-name="Livello 2"><g id="Livello_1-2" data-name="Livello 1"><rect class="cls-3" y="1827.75" width="1920" height="1818.29"/><rect class="cls-4" y="1736.63" width="1920" height="171.13"/><rect class="cls-1" x="1277.43" y="1758.44" width="2" height="149.32"/><rect class="cls-1" x="1454.21" y="1758.44" width="2" height="149.32"/><rect class="cls-1" x="1630.99" y="1758.44" width="2" height="149.32"/><rect class="cls-1" x="1807.77" y="1758.44" width="2" height="149.32"/><rect class="cls-1" y="1757.44" width="1920" height="2"/><rect class="cls-1" x="1100.66" y="1758.44" width="2" height="149.32"/><rect class="cls-1" x="393.55" y="1758.44" width="2" height="149.32"/><rect class="cls-1" x="570.32" y="1758.44" width="2" height="149.32"/><rect class="cls-1" x="747.1" y="1758.44" width="2" height="149.32"/><rect class="cls-1" x="923.88" y="1758.44" width="2" height="149.32"/><rect class="cls-1" x="216.77" y="1758.44" width="2" height="149.32"/><rect class="cls-1" x="39.99" y="1758.44" width="2" height="149.32"/><rect class="cls-5" x="1554.13" y="2018.32" width="365.87" height="171.07" transform="translate(3474.13 4207.72) rotate(-180)"/><path class="cls-1" d="M1920,2172.32H1572.59a1,1,0,0,1-1-1V2036.39a1,1,0,0,1,1-1H1920v2H1573.59v132.93H1920Z"/><path class="cls-1" d="M1905.73,2172.32a1,1,0,0,1-1-1V2036.39a1,1,0,0,1,2,0v134.93A1,1,0,0,1,1905.73,2172.32Z"/><path class="cls-1" d="M1877.8,2172.32a1,1,0,0,1-1-1V2036.39a1,1,0,0,1,2,0v134.93A1,1,0,0,1,1877.8,2172.32Z"/><path class="cls-1" d="M1849.87,2172.32a1,1,0,0,1-1-1V2036.39a1,1,0,0,1,2,0v134.93A1,1,0,0,1,1849.87,2172.32Z"/><path class="cls-1" d="M1821.95,2172.32a1,1,0,0,1-1-1V2036.39a1,1,0,0,1,2,0v134.93A1,1,0,0,1,1821.95,2172.32Z"/><path class="cls-1" d="M1794,2172.32a1,1,0,0,1-1-1V2036.39a1,1,0,0,1,2,0v134.93A1,1,0,0,1,1794,2172.32Z"/><path class="cls-1" d="M1766.09,2172.32a1,1,0,0,1-1-1V2036.39a1,1,0,0,1,2,0v134.93A1,1,0,0,1,1766.09,2172.32Z"/><path class="cls-1" d="M1738.16,2172.32a1,1,0,0,1-1-1V2036.39a1,1,0,0,1,2,0v134.93A1,1,0,0,1,1738.16,2172.32Z"/><path class="cls-1" d="M1710.24,2172.32a1,1,0,0,1-1-1V2036.39a1,1,0,0,1,2,0v134.93A1,1,0,0,1,1710.24,2172.32Z"/><path class="cls-1" d="M1682.31,2172.32a1,1,0,0,1-1-1V2036.39a1,1,0,0,1,2,0v134.93A1,1,0,0,1,1682.31,2172.32Z"/><path class="cls-1" d="M1654.38,2172.32a1,1,0,0,1-1-1V2036.39a1,1,0,0,1,2,0v134.93A1,1,0,0,1,1654.38,2172.32Z"/><path class="cls-1" d="M1626.46,2172.32a1,1,0,0,1-1-1V2036.39a1,1,0,0,1,2,0v134.93A1,1,0,0,1,1626.46,2172.32Z"/><path class="cls-1" d="M1598.53,2172.32a1,1,0,0,1-1-1V2036.39a1,1,0,0,1,2,0v134.93A1,1,0,0,1,1598.53,2172.32Z"/><rect class="cls-6" x="1439.53" y="2018.32" width="114.6" height="171.07"/><path class="cls-1" d="M1537.2,2172.32h-80.74a1,1,0,0,1-1-1V2036.39a1,1,0,0,1,1-1h80.74a1,1,0,0,1,1,1v134.93A1,1,0,0,1,1537.2,2172.32Zm-79.74-2h78.74V2037.39h-78.74Z"/><rect class="cls-6" x="1452.97" y="2189.39" width="395.99" height="171.07"/><path class="cls-7" d="M1830.5,2343.39H1471.42a1,1,0,0,1-1-1V2207.46a1,1,0,0,1,1-1H1830.5a1,1,0,0,1,1,1v134.93A1,1,0,0,1,1830.5,2343.39Zm-358.08-2H1829.5V2208.46H1472.42Z"/><rect class="cls-7" x="1496.36" y="2207.46" width="2" height="134.93"/><rect class="cls-7" x="1524.29" y="2207.46" width="2" height="134.93"/><rect class="cls-7" x="1552.22" y="2207.46" width="2" height="134.93"/><rect class="cls-7" x="1580.15" y="2207.46" width="2" height="134.93"/><rect class="cls-7" x="1608.07" y="2207.46" width="2" height="134.93"/><rect class="cls-7" x="1636" y="2207.46" width="2" height="134.93"/><rect class="cls-7" x="1663.93" y="2207.46" width="2" height="134.93"/><rect class="cls-7" x="1691.85" y="2207.46" width="2" height="134.93"/><rect class="cls-7" x="1719.78" y="2207.46" width="2" height="134.93"/><rect class="cls-7" x="1747.71" y="2207.46" width="2" height="134.93"/><rect class="cls-7" x="1775.64" y="2207.46" width="2" height="134.93"/><rect class="cls-7" x="1803.56" y="2207.46" width="2" height="134.93"/><rect class="cls-5" x="1848.96" y="2189.39" width="71.04" height="171.07" transform="translate(3768.96 4549.85) rotate(180)"/><path class="cls-7" d="M1920,2343.39h-54.11a1,1,0,0,1-1-1V2207.46a1,1,0,0,1,1-1H1920v2h-53.11v132.93H1920Z"/><rect class="cls-5" y="2080.08" width="249.08" height="171.07"/><path class="cls-1" d="M230.63,2234.07H0v-2H229.63V2099.14H0v-2H230.63a1,1,0,0,1,1,1v134.93A1,1,0,0,1,230.63,2234.07Z"/><path class="cls-1" d="M204.68,2234.07a1,1,0,0,1-1-1V2098.14a1,1,0,0,1,2,0v134.93A1,1,0,0,1,204.68,2234.07Z"/><path class="cls-1" d="M176.76,2234.07a1,1,0,0,1-1-1V2098.14a1,1,0,0,1,2,0v134.93A1,1,0,0,1,176.76,2234.07Z"/><path class="cls-1" d="M148.83,2234.07a1,1,0,0,1-1-1V2098.14a1,1,0,0,1,2,0v134.93A1,1,0,0,1,148.83,2234.07Z"/><path class="cls-1" d="M120.9,2234.07a1,1,0,0,1-1-1V2098.14a1,1,0,0,1,2,0v134.93A1,1,0,0,1,120.9,2234.07Z"/><path class="cls-1" d="M93,2234.07a1,1,0,0,1-1-1V2098.14a1,1,0,0,1,2,0v134.93A1,1,0,0,1,93,2234.07Z"/><path class="cls-1" d="M65,2234.07a1,1,0,0,1-1-1V2098.14a1,1,0,0,1,2,0v134.93A1,1,0,0,1,65,2234.07Z"/><path class="cls-1" d="M37.12,2234.07a1,1,0,0,1-1-1V2098.14a1,1,0,0,1,2,0v134.93A1,1,0,0,1,37.12,2234.07Z"/><path class="cls-1" d="M9.19,2234.07a1,1,0,0,1-1-1V2098.14a1,1,0,0,1,2,0v134.93A1,1,0,0,1,9.19,2234.07Z"/><rect class="cls-6" y="2251.14" width="155.91" height="171.07"/><path class="cls-7" d="M137.46,2405.14H0v-2H136.46V2270.21H0v-2H137.46a1,1,0,0,1,1,1v134.93A1,1,0,0,1,137.46,2405.14Z"/><rect class="cls-7" x="26.74" y="2269.21" width="2" height="134.93"/><rect class="cls-7" x="54.66" y="2269.21" width="2" height="134.93"/><rect class="cls-7" x="82.59" y="2269.21" width="2" height="134.93"/><rect class="cls-7" x="110.52" y="2269.21" width="2" height="134.93"/><rect class="cls-5" x="155.91" y="2251.14" width="114.6" height="171.07" transform="translate(426.43 4673.35) rotate(180)"/><path class="cls-7" d="M253.59,2405.14H172.85a1,1,0,0,1-1-1V2269.21a1,1,0,0,1,1-1h80.74a1,1,0,0,1,1,1v134.93A1,1,0,0,1,253.59,2405.14Zm-79.74-2h78.74V2270.21H173.85Z"/><rect class="cls-6" x="374.45" y="2251.14" width="395.99" height="171.07"/><path class="cls-7" d="M752,2405.14H392.9a1,1,0,0,1-1-1V2269.21a1,1,0,0,1,1-1H752a1,1,0,0,1,1,1v134.93A1,1,0,0,1,752,2405.14Zm-358.08-2H751V2270.21H393.9Z"/><rect class="cls-7" x="417.84" y="2269.21" width="2" height="134.93"/><rect class="cls-7" x="445.77" y="2269.21" width="2" height="134.93"/><rect class="cls-7" x="473.7" y="2269.21" width="2" height="134.93"/><rect class="cls-7" x="501.62" y="2269.21" width="2" height="134.93"/><rect class="cls-7" x="529.55" y="2269.21" width="2" height="134.93"/><rect class="cls-7" x="557.48" y="2269.21" width="2" height="134.93"/><rect class="cls-7" x="585.4" y="2269.21" width="2" height="134.93"/><rect class="cls-7" x="613.33" y="2269.21" width="2" height="134.93"/><rect class="cls-7" x="641.26" y="2269.21" width="2" height="134.93"/><rect class="cls-7" x="669.19" y="2269.21" width="2" height="134.93"/><rect class="cls-7" x="697.11" y="2269.21" width="2" height="134.93"/><rect class="cls-7" x="725.04" y="2269.21" width="2" height="134.93"/><rect class="cls-5" x="770.44" y="2251.14" width="114.6" height="171.07" transform="translate(1655.48 4673.35) rotate(180)"/><path class="cls-7" d="M868.11,2405.14H787.37a1,1,0,0,1-1-1V2269.21a1,1,0,0,1,1-1h80.74a1,1,0,0,1,1,1v134.93A1,1,0,0,1,868.11,2405.14Zm-79.74-2h78.74V2270.21H788.37Z"/><path class="cls-4" d="M1146.32,2391.51H0v-2H1146.32a544.72,544.72,0,0,0,250.28-61.18,1,1,0,0,1,.46-.11H1920v2H1397.3A546.71,546.71,0,0,1,1146.32,2391.51Z"/><path class="cls-4" d="M491.23,2424.21a1,1,0,0,1-1-1v-32.7a1,1,0,0,1,2,0v32.7A1,1,0,0,1,491.23,2424.21Z"/><path class="cls-4" d="M362.71,2424.21a1,1,0,0,1-1-1v-32.7a1,1,0,0,1,2,0v32.7A1,1,0,0,1,362.71,2424.21Z"/><path class="cls-4" d="M234.2,2424.21a1,1,0,0,1-1-1v-32.7a1,1,0,0,1,2,0v32.7A1,1,0,0,1,234.2,2424.21Z"/><path class="cls-4" d="M105.68,2424.21a1,1,0,0,1-1-1v-32.7a1,1,0,0,1,2,0v32.7A1,1,0,0,1,105.68,2424.21Z"/><path class="cls-4" d="M1904.9,2360.92a1,1,0,0,1-1-1v-30.71a1,1,0,0,1,2,0v30.71A1,1,0,0,1,1904.9,2360.92Z"/><path class="cls-4" d="M1776.38,2360.92a1,1,0,0,1-1-1v-30.71a1,1,0,0,1,2,0v30.71A1,1,0,0,1,1776.38,2360.92Z"/><path class="cls-4" d="M1647.87,2360.92a1,1,0,0,1-1-1v-30.71a1,1,0,0,1,2,0v30.71A1,1,0,0,1,1647.87,2360.92Z"/><path class="cls-4" d="M1519.35,2360.92a1,1,0,0,1-1-1v-30.71a1,1,0,0,1,2,0v30.71A1,1,0,0,1,1519.35,2360.92Z"/><path class="cls-4" d="M1397.31,2361.25a1,1,0,0,1-1-1v-30.71a1,1,0,0,1,2,0v30.71A1,1,0,0,1,1397.31,2361.25Z"/><path class="cls-4" d="M1262.32,2371.27a1,1,0,0,1-1-1v-30.71a1,1,0,0,1,2,0v30.71A1,1,0,0,1,1262.32,2371.27Z"/><path class="cls-4" d="M1133.8,2409.9a1,1,0,0,1-1-1v-32.7a1,1,0,0,1,2,0v32.7A1,1,0,0,1,1133.8,2409.9Z"/><path class="cls-4" d="M1005.29,2409.9a1,1,0,0,1-1-1v-32.7a1,1,0,0,1,2,0v32.7A1,1,0,0,1,1005.29,2409.9Z"/><path class="cls-4" d="M876.77,2409.9a1,1,0,0,1-1-1v-32.7a1,1,0,0,1,2,0v32.7A1,1,0,0,1,876.77,2409.9Z"/><path class="cls-4" d="M748.26,2409.9a1,1,0,0,1-1-1v-32.7a1,1,0,0,1,2,0v32.7A1,1,0,0,1,748.26,2409.9Z"/><path class="cls-4" d="M619.74,2424.87a1,1,0,0,1-1-1v-33.36a1,1,0,0,1,2,0v33.36A1,1,0,0,1,619.74,2424.87Z"/><path class="cls-4" d="M1797.49,2701.37h-2.78a61.67,61.67,0,0,1-61.43-56.39H0v105.86H1847A49.47,49.47,0,0,0,1797.49,2701.37Z"/><path class="cls-5" d="M1920,2359.92H1397.06a543.48,543.48,0,0,1-250.74,61.3H67.68L0,2420.73V2645H1733.29a61.78,61.78,0,0,1,14.14-44.79l78-93.29a171.65,171.65,0,0,1,94.58-57.49Z"/><path class="cls-1" d="M1731.63,2389.23v10.59h4.61v-10.59h7.52v28.88h-7.52v-11.89h-4.61v11.89h-7.52v-28.87Z"/><path class="cls-1" d="M1755.51,2389.23v11.08h.08l5.58-11.08h8l-7.28,12.62,8.17,16.26h-8.57l-4.41-10.07-1.58,2.43v7.64H1748v-28.87Z"/><path class="cls-1" d="M1783.33,2395.19a7.15,7.15,0,0,1,1.38-3.07,6.4,6.4,0,0,1,2.83-2,13.74,13.74,0,0,1,4.77-.69,14.58,14.58,0,0,1,4.61.61,6.92,6.92,0,0,1,2.81,1.68,5.68,5.68,0,0,1,1.42,2.49,11.52,11.52,0,0,1,.38,3,11.06,11.06,0,0,1-1,4.89,13.44,13.44,0,0,1-2.59,3.6l-4.45,4.33-1.07,1.09a3.19,3.19,0,0,0-.79,1.25h9.87v5.66h-18.85a17.71,17.71,0,0,1,.91-5.72,14.13,14.13,0,0,1,3.38-5.24l5-5.1a7.66,7.66,0,0,0,1.56-2.08,6.19,6.19,0,0,0,.46-2.61,4.33,4.33,0,0,0-.53-2.51,1.69,1.69,0,0,0-1.42-.69,2.11,2.11,0,0,0-.77.14,1.57,1.57,0,0,0-.67.55,3.2,3.2,0,0,0-.49,1.15,8.59,8.59,0,0,0-.18,2v1.21h-7A22.21,22.21,0,0,1,1783.33,2395.19Z"/><path class="cls-1" d="M1804.91,2396.91a11.74,11.74,0,0,1,1.78-4.49,6.21,6.21,0,0,1,3-2.31,14.94,14.94,0,0,1,8.7,0,6.22,6.22,0,0,1,3,2.31,11.76,11.76,0,0,1,1.78,4.49,44.14,44.14,0,0,1,0,14.34,11.54,11.54,0,0,1-1.78,4.45,6,6,0,0,1-3,2.24,15.89,15.89,0,0,1-8.7,0,6,6,0,0,1-3-2.24,11.52,11.52,0,0,1-1.78-4.45,44.14,44.14,0,0,1,0-14.34Zm7.46,16a1.88,1.88,0,0,0,3.4,0,10.64,10.64,0,0,0,.53-4.11v-9.46a10.64,10.64,0,0,0-.53-4.1,1.88,1.88,0,0,0-3.4,0,10.64,10.64,0,0,0-.53,4.1v9.46A10.64,10.64,0,0,0,1812.37,2412.91Z"/><path class="cls-1" d="M1834.59,2413.41a1.79,1.79,0,0,0,1.5.57,1.92,1.92,0,0,0,1.44-.67,2.83,2.83,0,0,0,.63-2v-4.57h-.08a3.52,3.52,0,0,1-1.8,1.62,7.11,7.11,0,0,1-3,.61,8.65,8.65,0,0,1-2.79-.42,5.13,5.13,0,0,1-2.16-1.42,6.58,6.58,0,0,1-1.39-2.67,15.28,15.28,0,0,1-.49-4.19,17,17,0,0,1,.63-5,8.42,8.42,0,0,1,1.86-3.36,7.11,7.11,0,0,1,3-1.9,13,13,0,0,1,4.08-.59,14.44,14.44,0,0,1,4.33.59,6.69,6.69,0,0,1,3.09,2,9.32,9.32,0,0,1,1.86,3.76,23.18,23.18,0,0,1,.63,5.86v3.15a44.74,44.74,0,0,1-.34,5.88,11.28,11.28,0,0,1-1.39,4.33,6.47,6.47,0,0,1-3,2.63,12.71,12.71,0,0,1-5.14.87,15.19,15.19,0,0,1-4.55-.57,6.61,6.61,0,0,1-2.75-1.58,5.47,5.47,0,0,1-1.37-2.33,9.8,9.8,0,0,1-.38-2.77h7A3.5,3.5,0,0,0,1834.59,2413.41Zm-.18-10.84a1.66,1.66,0,0,0,1.64,1,1.69,1.69,0,0,0,1.58-1,8.84,8.84,0,0,0,.53-3.72,9.87,9.87,0,0,0-.46-3.72,1.66,1.66,0,0,0-1.64-1,1.69,1.69,0,0,0-1.58,1,8.81,8.81,0,0,0-.53,3.72A9.86,9.86,0,0,0,1834.41,2402.57Z"/><path class="cls-1" d="M1854.48,2398.61h-5.42v-4.69a17.39,17.39,0,0,0,3-.22,6.68,6.68,0,0,0,2.14-.73,4.19,4.19,0,0,0,1.46-1.37,7.94,7.94,0,0,0,.93-2.12H1862v28.63h-7.52Z"/><path class="cls-1" d="M1869.92,2391.57q2.22-2.1,6.63-2.1a15.38,15.38,0,0,1,4.37.53,6.61,6.61,0,0,1,2.77,1.54,5.57,5.57,0,0,1,1.46,2.49,12.24,12.24,0,0,1,.42,3.38,8.12,8.12,0,0,1-.2,1.76,5.81,5.81,0,0,1-.67,1.7,5,5,0,0,1-1.23,1.4,4.57,4.57,0,0,1-1.9.85v.08a4.9,4.9,0,0,1,3.52,2.21,7.88,7.88,0,0,1,1,4.06q0,4.85-2.35,7t-7,2.12a19.52,19.52,0,0,1-4.23-.4,6.48,6.48,0,0,1-3-1.46,6.24,6.24,0,0,1-1.74-2.81,14.34,14.34,0,0,1-.57-4.35h7a12,12,0,0,0,.14,2,6.24,6.24,0,0,0,.38,1.38,1.72,1.72,0,0,0,1.7,1.05,2.57,2.57,0,0,0,1.05-.18,1.27,1.27,0,0,0,.63-.69,4.56,4.56,0,0,0,.3-1.37q.08-.87.08-2.2a4.33,4.33,0,0,0-.67-2.83,2.69,2.69,0,0,0-2.08-.73h-1.9v-4.69H1875a5.68,5.68,0,0,0,1.46-.16,2,2,0,0,0,1-.61,2.86,2.86,0,0,0,.61-1.23,8.45,8.45,0,0,0,.2-2,4.44,4.44,0,0,0-.46-2.45,1.67,1.67,0,0,0-1.44-.63,1.63,1.63,0,0,0-1.56.85,7.16,7.16,0,0,0-.47,3.11h-6.79Q1867.69,2393.64,1869.92,2391.57Z"/><path class="cls-3" d="M953.75,2750.9c74.59,0,74.59-49.82,149.18-49.82s74.59,49.82,149.18,49.82,74.59-49.82,149.17-49.82,74.59,49.82,149.18,49.82,74.59-49.82,149.17-49.82,74.59,49.82,149.17,49.82v39.24H953.75Z"/><path class="cls-3" d="M619.6,2701.09c-74.59,0-74.59,49.81-149.17,49.81s-74.59-49.81-149.17-49.81-74.59,49.81-149.17,49.81-74.59-49.81-149.18-49.81A136.36,136.36,0,0,0,0,2702.9v87.24H768.77V2750.9C694.18,2750.9,694.18,2701.09,619.6,2701.09Z"/><path class="cls-1" d="M1699.75,2545.93a19.5,19.5,0,1,1,19.5-19.5A19.52,19.52,0,0,1,1699.75,2545.93Zm0-37a17.5,17.5,0,1,0,17.5,17.5A17.52,17.52,0,0,0,1699.75,2508.93Z"/><path class="cls-1" d="M1598.29,2545.93a19.5,19.5,0,1,1,19.5-19.5A19.52,19.52,0,0,1,1598.29,2545.93Zm0-37a17.5,17.5,0,1,0,17.5,17.5A17.52,17.52,0,0,0,1598.29,2508.93Z"/><path class="cls-1" d="M1496.82,2545.93a19.5,19.5,0,1,1,19.5-19.5A19.52,19.52,0,0,1,1496.82,2545.93Zm0-37a17.5,17.5,0,1,0,17.5,17.5A17.52,17.52,0,0,0,1496.82,2508.93Z"/><path class="cls-4" d="M1920,1288.18c-74.23-4.17-147.86,30.62-178.86,104.62-25.31,60.41-41.39,142.11-114.66,128.57-117.34-21.69-152.9,83-152.9,83H1920Z"/><path class="cls-5" d="M516.87,2886.06h-27v21.87a6,6,0,0,0,2.71,5l24.25,15.9Z"/><rect class="cls-5" x="647.75" y="856.11" width="431.44" height="2886.95"/><rect class="cls-5" x="715.01" y="677.51" width="378.19" height="171.6"/><rect class="cls-6" x="1093.21" y="677.51" width="223.55" height="171.6"/><path class="cls-5" d="M835.72,593.69h257.49a0,0,0,0,1,0,0v52.09a0,0,0,0,1,0,0H832.72a0,0,0,0,1,0,0V596.69A3,3,0,0,1,835.72,593.69Z"/><path class="cls-6" d="M1093.21,593.69h119.27a3,3,0,0,1,3,3v49.09a0,0,0,0,1,0,0H1093.21a0,0,0,0,1,0,0V593.69A0,0,0,0,1,1093.21,593.69Z"/><path class="cls-5" d="M1034.68,510.49h-132a5.41,5.41,0,0,0-5.41,5.41v77.78h137.44Z"/><path class="cls-3" d="M942.6,594.69a1,1,0,0,1-1-1v-77.3a1,1,0,0,1,2,0v77.3A1,1,0,0,1,942.6,594.69Z"/><path class="cls-3" d="M989.32,594.69a1,1,0,0,1-1-1v-77.3a1,1,0,0,1,2,0v77.3A1,1,0,0,1,989.32,594.69Z"/><path class="cls-6" d="M1141.51,510.49H1034.68v83.2h112.24V515.91A5.41,5.41,0,0,0,1141.51,510.49Z"/><path class="cls-4" d="M1070.44,594.69a1,1,0,0,1-1-1v-77.3a1,1,0,0,1,2,0v77.3A1,1,0,0,1,1070.44,594.69Z"/><path class="cls-4" d="M1112.16,594.69a1,1,0,0,1-1-1v-77.3a1,1,0,0,1,2,0v77.3A1,1,0,0,1,1112.16,594.69Z"/><rect class="cls-6" x="1079.18" y="856.11" width="304.4" height="2886.95"/><path class="cls-5" d="M1034.68,510.49H958.1V333a3,3,0,0,1,3-3h73.58Z"/><path class="cls-6" d="M1090.8,510.49h-56.12V330h53.12a3,3,0,0,1,3,3Z"/><path class="cls-5" d="M978.48,232.1h56.2a0,0,0,0,1,0,0V330a0,0,0,0,1,0,0h-59.2a0,0,0,0,1,0,0V235.1A3,3,0,0,1,978.48,232.1Z"/><path class="cls-6" d="M1034.68,232.1h35.75a3,3,0,0,1,3,3V330a0,0,0,0,1,0,0h-38.75a0,0,0,0,1,0,0V232.1A0,0,0,0,1,1034.68,232.1Z"/><rect class="cls-6" x="978.39" y="330.05" width="19.91" height="180.45"/><rect class="cls-5" x="516.87" y="2886.06" width="562.31" height="947"/><rect class="cls-6" x="1079.18" y="2886.06" width="428.35" height="947"/><path class="cls-4" d="M686,652.78h407.21v-7H689a3,3,0,0,0-3,3Z"/><path class="cls-4" d="M1093.21,652.78h252.57v-4a3,3,0,0,0-3-3H1093.21Z"/><path class="cls-6" d="M1507.53,2886.06h27v23.49a3,3,0,0,1-1.35,2.51l-25.6,16.79Z"/><polygon class="cls-5" points="1093.21 677.51 715.01 677.51 685.99 652.78 1093.21 652.78 1093.21 677.51"/><polygon class="cls-6" points="1093.21 677.51 1316.76 677.51 1345.78 652.78 1093.21 652.78 1093.21 677.51"/><rect class="cls-6" x="874.69" y="652.78" width="58.83" height="196.33"/><path class="cls-3" d="M766.95,850.11a1,1,0,0,1-1-1V653.36a1,1,0,0,1,2,0V849.11A1,1,0,0,1,766.95,850.11Z"/><path class="cls-3" d="M822.76,850.11a1,1,0,0,1-1-1V653.36a1,1,0,0,1,2,0V849.11A1,1,0,0,1,822.76,850.11Z"/><path class="cls-3" d="M558.51,3834.06a1,1,0,0,1-1-1v-947a1,1,0,0,1,2,0v947A1,1,0,0,1,558.51,3834.06Z"/><path class="cls-3" d="M626.94,3834.06a1,1,0,0,1-1-1v-947a1,1,0,0,1,2,0v947A1,1,0,0,1,626.94,3834.06Z"/><path class="cls-3" d="M695.38,3834.06a1,1,0,0,1-1-1v-947a1,1,0,0,1,2,0v947A1,1,0,0,1,695.38,3834.06Z"/><path class="cls-3" d="M763.81,3834.06a1,1,0,0,1-1-1v-947a1,1,0,0,1,2,0v947A1,1,0,0,1,763.81,3834.06Z"/><path class="cls-3" d="M832.24,3834.06a1,1,0,0,1-1-1v-947a1,1,0,0,1,2,0v947A1,1,0,0,1,832.24,3834.06Z"/><path class="cls-3" d="M900.68,3834.06a1,1,0,0,1-1-1v-947a1,1,0,0,1,2,0v947A1,1,0,0,1,900.68,3834.06Z"/><path class="cls-3" d="M969.11,3834.06a1,1,0,0,1-1-1v-947a1,1,0,0,1,2,0v947A1,1,0,0,1,969.11,3834.06Z"/><path class="cls-3" d="M1037.55,3834.06a1,1,0,0,1-1-1v-947a1,1,0,0,1,2,0v947A1,1,0,0,1,1037.55,3834.06Z"/><path class="cls-4" d="M1130.93,3834.06a1,1,0,0,1-1-1v-947a1,1,0,0,1,2,0v947A1,1,0,0,1,1130.93,3834.06Z"/><path class="cls-4" d="M1195.9,3834.06a1,1,0,0,1-1-1v-947a1,1,0,0,1,2,0v947A1,1,0,0,1,1195.9,3834.06Z"/><path class="cls-4" d="M1260.87,3834.06a1,1,0,0,1-1-1v-947a1,1,0,0,1,2,0v947A1,1,0,0,1,1260.87,3834.06Z"/><path class="cls-4" d="M1325.84,3834.06a1,1,0,0,1-1-1v-947a1,1,0,0,1,2,0v947A1,1,0,0,1,1325.84,3834.06Z"/><path class="cls-4" d="M1390.82,3834.06a1,1,0,0,1-1-1v-947a1,1,0,0,1,2,0v947A1,1,0,0,1,1390.82,3834.06Z"/><path class="cls-4" d="M1455.79,3834.06a1,1,0,0,1-1-1v-947a1,1,0,0,1,2,0v947A1,1,0,0,1,1455.79,3834.06Z"/><path class="cls-3" d="M699.66,2880.06a1,1,0,0,1-1-1v-2023a1,1,0,0,1,2,0v2023A1,1,0,0,1,699.66,2880.06Z"/><path class="cls-3" d="M765.18,2880.06a1,1,0,0,1-1-1v-2023a1,1,0,0,1,2,0v2023A1,1,0,0,1,765.18,2880.06Z"/><path class="cls-3" d="M1027.27,2880.06a1,1,0,0,1-1-1v-2023a1,1,0,0,1,2,0v2023A1,1,0,0,1,1027.27,2880.06Z"/><path class="cls-3" d="M961.75,2880.06a1,1,0,0,1-1-1v-2023a1,1,0,0,1,2,0v2023A1,1,0,0,1,961.75,2880.06Z"/><path class="cls-3" d="M896.23,2880.06a1,1,0,0,1-1-1v-2023a1,1,0,0,1,2,0v2023A1,1,0,0,1,896.23,2880.06Z"/><path class="cls-3" d="M830.7,2880.06a1,1,0,0,1-1-1v-2023a1,1,0,0,1,2,0v2023A1,1,0,0,1,830.7,2880.06Z"/><path class="cls-3" d="M985.46,850.11a1,1,0,0,1-1-1V653.36a1,1,0,0,1,2,0V849.11A1,1,0,0,1,985.46,850.11Z"/><path class="cls-3" d="M1041.27,850.11a1,1,0,0,1-1-1V653.36a1,1,0,0,1,2,0V849.11A1,1,0,0,1,1041.27,850.11Z"/><path class="cls-4" d="M1143.13,850.11a1,1,0,0,1-1-1V653.36a1,1,0,0,1,2,0V849.11A1,1,0,0,1,1143.13,850.11Z"/><path class="cls-4" d="M1205,850.11a1,1,0,0,1-1-1V653.36a1,1,0,0,1,2,0V849.11A1,1,0,0,1,1205,850.11Z"/><path class="cls-4" d="M1266.84,850.11a1,1,0,0,1-1-1V653.36a1,1,0,0,1,2,0V849.11A1,1,0,0,1,1266.84,850.11Z"/><path class="cls-4" d="M1139.87,2880.06a1,1,0,0,1-1-1v-2023a1,1,0,1,1,2,0v2023A1,1,0,0,1,1139.87,2880.06Z"/><path class="cls-4" d="M1201.73,2880.06a1,1,0,0,1-1-1v-2023a1,1,0,0,1,2,0v2023A1,1,0,0,1,1201.73,2880.06Z"/><path class="cls-4" d="M1263.59,2880.06a1,1,0,0,1-1-1v-2023a1,1,0,0,1,2,0v2023A1,1,0,0,1,1263.59,2880.06Z"/><path class="cls-4" d="M1325.44,2880.06a1,1,0,0,1-1-1v-2023a1,1,0,0,1,2,0v2023A1,1,0,0,1,1325.44,2880.06Z"/><path class="cls-4" d="M489.91,2886.06H1534.49v-4a3,3,0,0,0-3-3H492.91a3,3,0,0,0-3,3Z"/><polygon class="cls-3" points="1507.53 2964.84 1507.93 3383.36 516.87 3383.36 516.87 2964.84 1507.53 2964.84"/><rect class="cls-8" x="516.87" y="3383.36" width="990.66" height="227.8"/><path class="cls-1" d="M842.76,3031.1H1182a34.06,34.06,0,0,0-24.22-10.12H867a34.06,34.06,0,0,0-24.22,10.12Z"/><path class="cls-1" d="M1152,3027a1,1,0,0,1-1-1v-61.2a1,1,0,0,1,2,0V3026A1,1,0,0,1,1152,3027Z"/><path class="cls-1" d="M872.79,3027a1,1,0,0,1-1-1v-61.2a1,1,0,0,1,2,0V3026A1,1,0,0,1,872.79,3027Z"/><g class="cls-9"><polygon class="cls-5" points="534.63 3339.22 842.76 3031.1 1182.04 3031.1 1501.11 3350.16 1500.14 3374.75 534.63 3374.75 534.63 3339.22"/></g><rect class="cls-4" x="786.68" y="3118.48" width="590.98" height="186.38" rx="3" ry="3"/><polygon class="cls-1" points="938.41 3183.88 936.41 3183.88 936.41 3161.21 864.6 3161.21 864.6 3159.21 938.41 3159.21 938.41 3183.88"/><rect class="cls-1" x="932.11" y="3197.38" width="50" height="2"/><rect class="cls-1" x="932.11" y="3210.38" width="50" height="2"/><rect class="cls-1" x="994.74" y="3217.95" width="39.57" height="2"/><polygon class="cls-1" points="1028.92 3225.27 1027.57 3223.79 1032.83 3218.95 1027.57 3214.11 1028.92 3212.64 1035.79 3218.95 1028.92 3225.27"/><rect class="cls-1" x="863.6" y="3135.13" width="2" height="61"/><rect class="cls-1" x="834.24" y="3194.13" width="35" height="2"/><rect class="cls-1" x="834.24" y="3145.13" width="31.36" height="2"/><rect class="cls-1" x="834.24" y="3135.13" width="2" height="61"/><rect class="cls-1" x="915.49" y="3182.88" width="80.25" height="2"/><rect class="cls-1" x="918.48" y="3182.88" width="2" height="44"/><rect class="cls-1" x="918.48" y="3224.88" width="77.27" height="2"/><rect class="cls-1" x="993.74" y="3182.88" width="2" height="47"/><rect class="cls-1" x="1310.84" y="3150.75" width="24.31" height="2"/><rect class="cls-1" x="1310.84" y="3163.59" width="24.31" height="2"/><rect class="cls-1" x="1310.84" y="3176.42" width="24.31" height="2"/><rect class="cls-1" x="1310.84" y="3189.26" width="24.31" height="2"/><rect class="cls-1" x="1300.99" y="3139" width="2" height="66.46"/><rect class="cls-1" x="1300.99" y="3201.01" width="44" height="2"/><rect class="cls-1" x="1342.99" y="3139" width="2" height="64"/><rect class="cls-1" x="1300.99" y="3139" width="47" height="2"/><path class="cls-1" d="M941.75,3269.16a1,1,0,0,1-.32-.05,22.66,22.66,0,0,1-14.58-14.62c-1.94-6.6-.24-13.7,4.79-20a1,1,0,1,1,1.56,1.25c-5.91,7.38-5.67,14-4.43,18.17a20.64,20.64,0,0,0,13.29,13.29,1,1,0,0,1-.32,1.95Z"/><path class="cls-1" d="M948.74,3277.22h0a1,1,0,0,1-1-1l0-10.44a3.45,3.45,0,0,1,.29-1.6,1.93,1.93,0,0,1,2.07-1.09,2.31,2.31,0,0,1,1.6,1.66,28.56,28.56,0,0,0,5.2,7.74c0-.38,0-.79,0-1.13,0-2,0-3.59,1-4.13a1.58,1.58,0,0,1,1.74.29,20.28,20.28,0,0,0,4,2.49c-.21-1.51-.48-5.43,1.07-6.1.24-.11,1.09-.36,1.84.74.24.36.46.71.66,1,.84,1.38,1.3,2.13,3.1,2.29a1,1,0,0,1,.91,1.08,1,1,0,0,1-1.08.91c-2.8-.23-3.73-1.75-4.62-3.22a12.4,12.4,0,0,0,.16,3.34,1.58,1.58,0,0,1-.59,1.84c-.42.27-1.51,1-6.16-2.47,0,.56,0,1.35,0,1.89,0,1.95,0,3.35-1,3.78-.4.17-1,.2-1.8-.58-2.36-2.44-5.26-6.35-6.26-9.12l-.05-.14a3.12,3.12,0,0,0,0,.49l0,10.44A1,1,0,0,1,948.74,3277.22Z"/><path class="cls-1" d="M953.2,3283.7a1,1,0,0,1,0-2c.62,0,.84-.26,1.34-1.05a3.42,3.42,0,0,1,3-2c.48,0,.69.18,2.3,1.55.39.33.9.76,1.28,1.08,1.6-2.18,3.7-4.69,5.86-5.19a2.1,2.1,0,0,1,1.84.26,2.52,2.52,0,0,1,.75,2.09c0,.76.09,1,.2,1l.09,0c2.45-1.3,4.91-2.67,7.3-4.06a1,1,0,1,1,1,1.73c-2.41,1.4-4.89,2.78-7.37,4.1a1.94,1.94,0,0,1-1.46.26c-1.68-.46-1.74-2.07-1.78-2.93,0-.15,0-.35,0-.5l-.12,0c-1.75.41-4,3.49-4.75,4.5a2.58,2.58,0,0,1-1,.93c-.69.3-1,0-3.1-1.75-.42-.36-1-.82-1.26-1.05-.43.07-.65.36-1.07,1a3.43,3.43,0,0,1-3,2Zm16.51-4.2Z"/><path class="cls-1" d="M926.65,3237.28a1,1,0,0,1-.24-2l6-1.49a1,1,0,1,1,.48,1.94l-6,1.49A1,1,0,0,1,926.65,3237.28Z"/><path class="cls-1" d="M934.27,3241.41a1,1,0,0,1-1-.73l-1.57-5.61a1,1,0,0,1,1.93-.54l1.57,5.61a1,1,0,0,1-1,1.27Z"/><path class="cls-1" d="M875,3249.8H859.19l-7.88-13.65,7.88-13.65H875l7.88,13.65Zm-14.61-2H873.8l6.73-11.65-6.73-11.65H860.34l-6.73,11.65Z"/><path class="cls-1" d="M853,3287.77H837.26l-7.88-13.65,7.88-13.65H853l7.88,13.65Zm-14.61-2h13.46l6.73-11.65-6.73-11.65H838.42l-6.73,11.65Z"/><path class="cls-1" d="M853,3262.46H837.26l-7.88-13.65,7.88-13.65H853l7.88,13.65Zm-14.61-2h13.46l6.73-11.65-6.73-11.65H838.42l-6.73,11.65Z"/><path class="cls-1" d="M1155.49,3170.28a5.72,5.72,0,1,1,5.72-5.72A5.73,5.73,0,0,1,1155.49,3170.28Zm0-9.45a3.72,3.72,0,1,0,3.72,3.72A3.73,3.73,0,0,0,1155.49,3160.83Z"/><path class="cls-1" d="M1178.32,3146.42a5.72,5.72,0,1,1,5.72-5.72A5.73,5.73,0,0,1,1178.32,3146.42Zm0-9.45a3.72,3.72,0,1,0,3.72,3.72A3.73,3.73,0,0,0,1178.32,3137Z"/><rect class="cls-1" x="1142.01" y="3147.99" width="2" height="13.51" transform="translate(-2028.18 2058.19) rotate(-51.01)"/><rect class="cls-1" x="1166.27" y="3168.58" width="2" height="14.85" transform="translate(-1903.89 1755.61) rotate(-45)"/><rect class="cls-1" x="1135.59" y="3175" width="14.85" height="2" transform="translate(-1910.99 1738.46) rotate(-45)"/><rect class="cls-1" x="1159.84" y="3150.75" width="14.85" height="2" transform="translate(-1886.74 1748.51) rotate(-45)"/><rect class="cls-1" x="1175.78" y="3178.95" width="2" height="9.45"/><rect class="cls-1" x="1182.04" y="3178.95" width="2" height="9.45"/><rect class="cls-1" x="1176.78" y="3182.67" width="6.26" height="2"/><rect class="cls-1" x="1126.89" y="3141.83" width="2" height="9.45"/><rect class="cls-1" x="1133.15" y="3141.83" width="2" height="9.45"/><rect class="cls-1" x="1127.89" y="3145.55" width="6.26" height="2"/><rect class="cls-1" x="1126.89" y="3181.4" width="2" height="9.45"/><rect class="cls-1" x="1133.15" y="3181.4" width="2" height="9.45"/><rect class="cls-1" x="1127.89" y="3185.13" width="6.26" height="2"/><polygon class="cls-1" points="1054.63 3237.03 1047.34 3237.03 1047.34 3200.99 1054.63 3200.99 1054.63 3202.99 1049.34 3202.99 1049.34 3235.03 1054.63 3235.03 1054.63 3237.03"/><polygon class="cls-1" points="1156.3 3237.03 1149.01 3237.03 1149.01 3235.03 1154.3 3235.03 1154.3 3202.99 1149.01 3202.99 1149.01 3200.99 1156.3 3200.99 1156.3 3237.03"/><rect class="cls-1" x="1060.72" y="3217.95" width="82.2" height="2"/><path class="cls-1" d="M1225.34,3267.54a4.84,4.84,0,0,1-4.4-2.69,4.78,4.78,0,0,1,1.66-6.06l14.51-8.28c-1.27-5-2.44-9.61-3.53-13.83-8-30.93-11.28-43.73-8.75-89.37l.06-1.12,30.84,5.28,0,.88a74,74,0,0,1-1.91,10.6c-3.53,15.94-10.09,45.6-.76,85.33,0,.16.07.32.09.48l1.44,9.11a4.79,4.79,0,0,1-4.55,5.54,54.14,54.14,0,0,0-9.47.92l-14.12,3.09A5,5,0,0,1,1225.34,3267.54Zm1.43-119c-2.41,44.41.66,56.3,8.75,87.64,1.14,4.43,2.38,9.24,3.72,14.58l.18.74-15.77,9a2.78,2.78,0,0,0-.9,3.51,2.89,2.89,0,0,0,3.24,1.48l14.12-3.09a55.52,55.52,0,0,1,9.82-1,2.76,2.76,0,0,0,2.05-1,2.8,2.8,0,0,0,.6-2.21l-1.44-9.12c0-.11,0-.22-.07-.33-9.44-40.18-2.81-70.13.75-86.22a94.79,94.79,0,0,0,1.8-9.38Z"/><rect class="cls-1" x="1239.12" y="3139.56" width="2" height="29.51" transform="translate(-2085.36 3809.11) rotate(-79.68)"/><path class="cls-1" d="M1224.85,3227.26a10,10,0,0,1-2.09-.22,11,11,0,0,1-7.27-4.64,11.25,11.25,0,0,1-1.2-8.55c2.33-10.93,7.54-12.22,11.5-11.37a14.15,14.15,0,0,1,8.14,4.88,10.61,10.61,0,0,1,2.2,9h0a15.35,15.35,0,0,1-4.6,8.29A10,10,0,0,1,1224.85,3227.26Zm-.91-23c-3.69,0-6.27,3.35-7.68,10a9.3,9.3,0,0,0,.93,7.06,9.08,9.08,0,0,0,6,3.76,7.85,7.85,0,0,0,7-2,13.53,13.53,0,0,0,4-7.21h0a8.65,8.65,0,0,0-1.8-7.31,12.33,12.33,0,0,0-7-4.18A6.93,6.93,0,0,0,1223.94,3204.28Z"/><path class="cls-1" d="M1193.51,3235.26a1,1,0,0,1-.9-1.43c2.28-4.79,13.79-14.38,18.55-16.1a1,1,0,1,1,.68,1.88c-4.26,1.54-15.39,10.81-17.43,15.08A1,1,0,0,1,1193.51,3235.26Z"/><path class="cls-1" d="M1210,3225.59l-.24,0a1,1,0,0,1-.73-1.21l1.47-5.92a1,1,0,1,1,1.94.48l-1.47,5.92A1,1,0,0,1,1210,3225.59Z"/><path class="cls-1" d="M1211.5,3219.67a1,1,0,0,1-.31,0l-6.19-2a1,1,0,0,1,.61-1.9l6.19,2a1,1,0,0,1-.31,2Z"/><path class="cls-1" d="M1188.22,3254.85a1,1,0,0,1-1-.88c-.52-4.28,1.1-6.22,2.67-8.1a10.9,10.9,0,0,0,2.68-4.74c.29-1.19-.13-1.59-.27-1.73-.7-.66-2.4-.74-4.14-.19-2,.63-3.48,1.87-3.75,3.16a1,1,0,0,1-2-.41c.51-2.41,3-4,5.11-4.65,2-.62,4.6-.77,6.1.64a3.53,3.53,0,0,1,.85,3.66,12.87,12.87,0,0,1-3.09,5.55c-1.47,1.76-2.64,3.15-2.22,6.57a1,1,0,0,1-.87,1.11Z"/><circle class="cls-1" cx="1188.18" cy="3258.06" r="1.33" transform="translate(-2100.66 4358.16) rotate(-88.46)"/><path class="cls-1" d="M1174.66,3266.26h0a1,1,0,0,1-1-1c.09-4.31,2-6,3.79-7.64a10.9,10.9,0,0,0,3.32-4.32,2,2,0,0,0-.32-2.26,5.37,5.37,0,0,0-5.19-1,3.64,3.64,0,0,0-2.69,3.11,1,1,0,1,1-2-.27,5.64,5.64,0,0,1,4.07-4.75c2.57-.82,5.7-.16,7.26,1.53a4,4,0,0,1,.71,4.37,12.87,12.87,0,0,1-3.84,5.06c-1.71,1.53-3.05,2.75-3.13,6.19A1,1,0,0,1,1174.66,3266.26Z"/><circle class="cls-1" cx="1174.02" cy="3269.42" r="1.33" transform="translate(-2246.17 3877.48) rotate(-80.33)"/><path class="cls-1" d="M1202.64,3254.41h-2.55v-12.05a1.57,1.57,0,0,1,.75-1.33s1.8-2.77,1.8-1.11Z"/><circle class="cls-5" cx="1286.52" cy="3223.65" r="17.77"/><path class="cls-1" d="M1276.73,3243.09l-7,13.49a1.58,1.58,0,0,0,1.16,2.29l5.84.9Z"/><path class="cls-1" d="M1272.59,3256.29c-2.72,0-4.84-3.43-4.84-7.81s2.13-7.81,4.84-7.81,4.84,3.43,4.84,7.81S1275.31,3256.29,1272.59,3256.29Zm0-13.62c-1.34,0-2.84,2.39-2.84,5.81s1.5,5.81,2.84,5.81,2.84-2.39,2.84-5.81S1273.94,3242.67,1272.59,3242.67Z"/><rect class="cls-1" x="1293.04" y="3247.61" width="22.49" height="43.07"/><path id="SVGID-5" data-name="SVGID" class="cls-1" d="M1290.46,3273l-8.84.63a8.93,8.93,0,0,1-9.56-9.13l.78-32.23a24.09,24.09,0,0,1,24.08-23.51h0a24.09,24.09,0,0,1,23.9,27.11l-1.21,9.55A31.63,31.63,0,0,1,1290.46,3273Z"/><g class="cls-10"><ellipse class="cls-5" cx="1287.78" cy="3221.59" rx="26.75" ry="24.99"/><path class="cls-5" d="M1282,3240.41s12.82,2.77,12.82,11.64,5.38,8.61,9.84,8.6,8,.41,9.9-1.64c3.06-3.31,23.54-48.87,7.36-48.08a239.68,239.68,0,0,1-30.26-.53Z"/></g><rect class="cls-1" x="1268.75" y="3245.74" width="19.04" height="2"/><ellipse class="cls-1" cx="1289.54" cy="3252.72" rx="6.99" ry="9.17"/><path class="cls-3" d="M1267.34,3394.38c6.15-54.45-7.25-115.15,18.21-115.15,0,0,32.66-1.64,41.1-.15,16,2.82,11.31,75.65,12.07,115.3Z"/><path class="cls-11" d="M1360.26,3299.56"/><path class="cls-1" d="M1266.35,3289c-7.79.75-16.09,4.52-23.26,2.39-6.42-1.91-25.12-22.66-39.15-38.55a4.62,4.62,0,0,0-7.68,1.15h0a4.62,4.62,0,0,0,.15,4.13c5.74,10.49,33.51,57.42,67.83,51.65Z"/><path class="cls-3" d="M1355.76,3295a41.61,41.61,0,0,0-27-15.89c-9.76-1.57-25.05.82-35-.16-20.22-2-28.84,5.76-28.84,5.76v29.71l69.66,1.06Z"/><polygon class="cls-3" points="1308.8 3273.15 1318.04 3275.28 1318.04 3279.94 1291.05 3279.94 1291.05 3275.28 1308.8 3273.15"/><path class="cls-3" d="M1208.67,3255s-9.1,8.81-8.83,12.26,23.93,38.51,36.43,42.79,31.81,4.28,31.81,4.28v-31.76s-18,11.42-26.76,6.43S1208.67,3255,1208.67,3255Z"/><path class="cls-3" d="M1338.8,3311.33s8.09,10.43,8.09,15.64-4.66,13.33-11.57,22.37-.85,15.62-.85,15.62,16.46-10.67,24.68-21.86,11.6-25-3.39-48.15C1342.77,3294.83,1338.8,3311.33,1338.8,3311.33Z"/><rect class="cls-5" x="516.87" y="3365.15" width="990.66" height="130"/><path class="cls-3" d="M943.86,3486.87a1,1,0,0,1-1-1V3365.15a1,1,0,1,1,2,0v120.72A1,1,0,0,1,943.86,3486.87Z"/><path class="cls-3" d="M1243.74,3496.15a1,1,0,0,1-1-1v-130a1,1,0,0,1,2,0v130A1,1,0,0,1,1243.74,3496.15Z"/><path class="cls-3" d="M644.32,3486.87a1,1,0,0,1-1-1V3365.15a1,1,0,0,1,2,0v120.72A1,1,0,0,1,644.32,3486.87Z"/><polygon class="cls-1" points="734.72 3362.44 709.75 3362.33 712.24 3359.01 730.82 3359.38 734.72 3362.44"/><polygon class="cls-1" points="708.79 3365.46 733.82 3365.46 730.82 3332.86 714.05 3332.86 708.79 3365.46"/><path class="cls-1" d="M749,3331.4l4.77,13.5a1,1,0,0,1-.69,1.3l-5.52,1.47Z"/><path class="cls-1" d="M729.86,3358l7.82,1.25a9.45,9.45,0,0,0,10.92-8.72l2-30.75a23.59,23.59,0,0,0-21.47-25h0a23.59,23.59,0,0,0-25.65,24.39l.36,9.42A31,31,0,0,0,729.86,3358Z"/><path class="cls-4" d="M706.11,3341.72c-8.94-14-9-26.39-4.17-34.62,8.16-13.85,17.48-13.41,29-13.4,13.58,0,25.92,12.68,22.71,25.88a17.26,17.26,0,0,1-3.15,7c-3.4,3.73-14.61,7.07-26,3.54S724.5,3370.5,706.11,3341.72Z"/><ellipse class="cls-1" cx="721.32" cy="3337.21" rx="7.22" ry="9.47"/><path class="cls-1" d="M831.3,3466.07h0a4.43,4.43,0,0,0-1.23-6.54l-12.33-7.32-6.59,9.1c5.92,2.47,11.64,4.79,15,6.14A4.42,4.42,0,0,0,831.3,3466.07Z"/><path class="cls-12" d="M667.2,3499.25h0a4.81,4.81,0,0,0,3.87-4.72v-15.37l-11,2.44c.46,4.47.92,8.93,1.37,13.4A4.81,4.81,0,0,0,667.2,3499.25Z"/><path class="cls-3" d="M755.69,3466.48c-.66-9.41-2.07-33-2.57-38.08,13.68,17.32,41.31,25.93,58,32.91l6.59-9.1c-5.45-2.42-50.67-26.53-56.09-49.32-6.89-29-6.58-38.81-26.94-40.45-8.32-.76-8.23-.76-27.74,0a29.9,29.9,0,0,0-24.12,12.76c-8.8,12.57-15,27.76-22.18,40-4.27,7.3-4.29,17.93-3.87,26.94.62,13.18,1.94,26.32,3.3,39.47l11-2.44c0-17.22,3-34.48,3-51.89,7.8-7,11-12.28,17-17.87,0,0-.65,50.58-3,57.08Z"/><polygon class="cls-3" points="726.48 3372.32 709.88 3358.74 707.67 3362.33 729.34 3380.94 726.48 3372.32"/><polygon class="cls-3" points="733.28 3359.59 726.48 3372.32 729.34 3380.94 736.04 3362.56 733.28 3359.59"/><polygon class="cls-1" points="709.88 3358.74 726.48 3372.32 733.28 3359.59 709.88 3358.74"/><path class="cls-1" d="M729.34,3381.94a1,1,0,0,1-.65-.24L707,3363.09a1,1,0,0,1,1.3-1.52l20.57,17.66,6.21-17a1,1,0,0,1,1.88.69l-6.71,18.38a1,1,0,0,1-.69.63A1,1,0,0,1,729.34,3381.94Z"/><path class="cls-1" d="M747.39,3390.49H735.77a1,1,0,0,1,0-2h11.62a1,1,0,1,1,0,2Z"/><path class="cls-1" d="M728.63,3467.23h0a1,1,0,0,1-1-1l.71-85.29a1,1,0,0,1,1-1,1,1,0,0,1,1,1l-.71,85.29A1,1,0,0,1,728.63,3467.23Z"/><path class="cls-6" d="M741,3279.21H649.71a1,1,0,0,1-1-1V3157.14a1,1,0,0,1,1-1H741a1,1,0,0,1,1,1v121.07A1,1,0,0,1,741,3279.21Zm-90.33-2H740V3158.14H650.71Z"/><path class="cls-6" d="M734.6,3075.44H625.85a1,1,0,0,1-1-1v-60a1,1,0,0,1,1-1H734.6a1,1,0,0,1,1,1v60A1,1,0,0,1,734.6,3075.44Zm-107.75-2H733.6v-58H626.85Z"/><path class="cls-6" d="M1410.6,3064.92h-88.88a1,1,0,0,1-1-1v-65.66a1,1,0,0,1,1-1h88.88a1,1,0,0,1,1,1v65.66A1,1,0,0,1,1410.6,3064.92Zm-87.88-2h86.88v-63.66h-86.88Z"/><path class="cls-1" d="M629.87,3462h763.84a3,3,0,0,1,3,3v146.12a0,0,0,0,1,0,0H626.87a0,0,0,0,1,0,0V3465A3,3,0,0,1,629.87,3462Z"/><path class="cls-1" d="M981.56,3440.42v-14.47H972.9v14.47l-10,17.1a3,3,0,0,0,2.59,4.52H989a3,3,0,0,0,2.59-4.52Z"/><path class="cls-1" d="M879.08,3457.52l-10-17.1v-31.47h-8.66v31.47l-10,17.1a3,3,0,0,0,2.59,4.52h23.56A3,3,0,0,0,879.08,3457.52Z"/><path class="cls-1" d="M1195.21,3463a1,1,0,0,1-1-1v-89.29H1179a14.11,14.11,0,0,0-6.29,1.32,13.83,13.83,0,0,1,2.85,3.38,19.51,19.51,0,0,1,2.64,9.56c0,3-1.24,14.35-7.3,14.35s-7.33-11.32-7.33-14.35a19.51,19.51,0,0,1,2.64-9.56,13.83,13.83,0,0,1,2.85-3.37,15.59,15.59,0,0,0-12.57,0,13.83,13.83,0,0,1,2.85,3.38A19.51,19.51,0,0,1,1162,3387c0,3-1.24,14.35-7.3,14.35s-7.33-11.32-7.33-14.35a19.51,19.51,0,0,1,2.64-9.56,13.83,13.83,0,0,1,2.85-3.37,15.59,15.59,0,0,0-12.57,0,13.83,13.83,0,0,1,2.85,3.38,19.51,19.51,0,0,1,2.64,9.56c0,3-1.24,14.35-7.3,14.35s-7.33-11.32-7.33-14.35a19.51,19.51,0,0,1,2.64-9.56,13.83,13.83,0,0,1,2.85-3.37,15.59,15.59,0,0,0-12.57,0,13.83,13.83,0,0,1,2.85,3.38,19.51,19.51,0,0,1,2.64,9.56c0,3-1.24,14.35-7.3,14.35s-7.33-11.32-7.33-14.35a19.51,19.51,0,0,1,2.64-9.56,13.83,13.83,0,0,1,2.85-3.37,15.59,15.59,0,0,0-12.58,0,13.82,13.82,0,0,1,2.85,3.38,19.51,19.51,0,0,1,2.64,9.56c0,3-1.24,14.35-7.3,14.35s-7.33-11.32-7.33-14.35a19.51,19.51,0,0,1,2.64-9.56,13.83,13.83,0,0,1,2.85-3.37,15.59,15.59,0,0,0-12.57,0,13.83,13.83,0,0,1,2.85,3.38,19.51,19.51,0,0,1,2.64,9.56c0,3-1.24,14.35-7.3,14.35s-7.33-11.32-7.33-14.35a19.51,19.51,0,0,1,2.64-9.56,13.83,13.83,0,0,1,2.85-3.37,15.59,15.59,0,0,0-12.57,0,13.83,13.83,0,0,1,2.85,3.38,19.51,19.51,0,0,1,2.64,9.56c0,3-1.24,14.35-7.3,14.35s-7.33-11.32-7.33-14.35a19.51,19.51,0,0,1,2.64-9.56,13.83,13.83,0,0,1,2.85-3.37,15.59,15.59,0,0,0-12.57,0,13.83,13.83,0,0,1,2.85,3.38,19.51,19.51,0,0,1,2.64,9.56c0,3-1.24,14.35-7.3,14.35s-7.33-11.32-7.33-14.35a19.51,19.51,0,0,1,2.64-9.56,13.83,13.83,0,0,1,2.85-3.37,15.59,15.59,0,0,0-12.58,0,13.83,13.83,0,0,1,2.85,3.38,19.51,19.51,0,0,1,2.64,9.56c0,3-1.24,14.35-7.3,14.35s-7.33-11.32-7.33-14.35a19.51,19.51,0,0,1,2.64-9.56,13.83,13.83,0,0,1,2.85-3.37,15.59,15.59,0,0,0-12.57,0,13.83,13.83,0,0,1,2.85,3.38,19.51,19.51,0,0,1,2.64,9.56c0,3-1.24,14.35-7.3,14.35s-7.33-11.32-7.33-14.35a19.51,19.51,0,0,1,2.64-9.56,13.83,13.83,0,0,1,2.85-3.37,15.59,15.59,0,0,0-12.57,0,13.83,13.83,0,0,1,2.85,3.38,19.51,19.51,0,0,1,2.64,9.56c0,3-1.24,14.35-7.3,14.35s-7.33-11.32-7.33-14.35a19.51,19.51,0,0,1,2.64-9.56,13.83,13.83,0,0,1,2.85-3.37,15.59,15.59,0,0,0-12.57,0,13.83,13.83,0,0,1,2.85,3.38,19.51,19.51,0,0,1,2.64,9.56c0,3-1.24,14.35-7.3,14.35S985.2,3390,985.2,3387a19.51,19.51,0,0,1,2.64-9.56,13.83,13.83,0,0,1,2.85-3.37,15.59,15.59,0,0,0-12.57,0,13.83,13.83,0,0,1,2.85,3.38,19.51,19.51,0,0,1,2.64,9.56c0,3-1.24,14.35-7.3,14.35S969,3390,969,3387a19.51,19.51,0,0,1,2.64-9.56,13.83,13.83,0,0,1,2.85-3.37,14.11,14.11,0,0,0-6.29-1.32H953V3462a1,1,0,0,1-2,0v-90.29a1,1,0,0,1,1-1H968.2a15.74,15.74,0,0,1,8.11,2,17.21,17.21,0,0,1,16.22,0,17.21,17.21,0,0,1,16.22,0,17.21,17.21,0,0,1,16.22,0,17.21,17.21,0,0,1,16.22,0,17.21,17.21,0,0,1,16.22,0,17.21,17.21,0,0,1,16.22,0,17.21,17.21,0,0,1,16.22,0,17.21,17.21,0,0,1,16.22,0,17.21,17.21,0,0,1,16.22,0,17.21,17.21,0,0,1,16.22,0,17.21,17.21,0,0,1,16.22,0,17.21,17.21,0,0,1,16.22,0,15.74,15.74,0,0,1,8.11-2h16.22a1,1,0,0,1,1,1V3462A1,1,0,0,1,1195.21,3463Zm-24.32-87.85c-5.23,4-5.32,11.39-5.32,11.82,0,4.17,1.6,12.35,5.3,12.35s5.33-8.18,5.33-12.35C1176.2,3386.58,1176.12,3379.15,1170.89,3375.19Zm-16.22,0c-5.23,4-5.32,11.39-5.32,11.82,0,4.17,1.6,12.35,5.3,12.35s5.33-8.18,5.33-12.35C1160,3386.58,1159.91,3379.15,1154.67,3375.19Zm-16.22,0c-5.23,4-5.32,11.39-5.32,11.82,0,4.17,1.6,12.35,5.3,12.35s5.33-8.18,5.33-12.35C1143.77,3386.58,1143.69,3379.15,1138.46,3375.19Zm-16.22,0c-5.23,4-5.32,11.39-5.32,11.82,0,4.17,1.6,12.35,5.3,12.35s5.33-8.18,5.33-12.35C1127.56,3386.58,1127.48,3379.15,1122.24,3375.19Zm-16.22,0c-5.23,4-5.32,11.39-5.32,11.82,0,4.17,1.6,12.35,5.3,12.35s5.33-8.18,5.33-12.35C1111.34,3386.58,1111.26,3379.15,1106,3375.19Zm-16.22,0c-5.23,4-5.32,11.39-5.32,11.82,0,4.17,1.6,12.35,5.3,12.35s5.33-8.18,5.33-12.35C1095.13,3386.58,1095,3379.15,1089.81,3375.19Zm-16.22,0c-5.23,4-5.32,11.39-5.32,11.82,0,4.17,1.6,12.35,5.3,12.35s5.33-8.18,5.33-12.35C1078.91,3386.58,1078.83,3379.15,1073.6,3375.19Zm-16.22,0c-5.23,4-5.32,11.39-5.32,11.82,0,4.17,1.6,12.35,5.3,12.35s5.33-8.18,5.33-12.35C1062.7,3386.58,1062.62,3379.15,1057.38,3375.19Zm-16.22,0c-5.23,4-5.32,11.39-5.32,11.82,0,4.17,1.6,12.35,5.3,12.35s5.33-8.18,5.33-12.35C1046.48,3386.58,1046.4,3379.15,1041.17,3375.19Zm-16.22,0c-5.23,4-5.32,11.39-5.32,11.82,0,4.17,1.6,12.35,5.3,12.35s5.33-8.18,5.33-12.35C1030.27,3386.58,1030.18,3379.15,1024.95,3375.19Zm-16.22,0c-5.23,4-5.32,11.39-5.32,11.82,0,4.17,1.6,12.35,5.3,12.35s5.33-8.18,5.33-12.35C1014.05,3386.58,1014,3379.15,1008.73,3375.19Zm-16.22,0c-5.23,4-5.32,11.39-5.32,11.82,0,4.17,1.6,12.35,5.3,12.35s5.33-8.18,5.33-12.35C997.83,3386.58,997.75,3379.15,992.52,3375.19Zm-16.22,0c-5.23,4-5.32,11.39-5.32,11.82,0,4.17,1.6,12.35,5.3,12.35s5.33-8.18,5.33-12.35C981.62,3386.58,981.54,3379.15,976.3,3375.19Z"/><path class="cls-1" d="M1234.84,3385.72v-18h-8.69v18a13.49,13.49,0,0,0-9.15,12.76V3416h27v-17.55A13.49,13.49,0,0,0,1234.84,3385.72Z"/><path class="cls-4" d="M1090.31,3416.17h249.55a3,3,0,0,1,3,3V3462a0,0,0,0,1,0,0H1087.31a0,0,0,0,1,0,0v-42.88A3,3,0,0,1,1090.31,3416.17Z"/><path class="cls-1" d="M1287.8,3387.89V3375h-11.27v12.84l-13.07,22.26a3.91,3.91,0,0,0,3.37,5.88h30.67a3.91,3.91,0,0,0,3.37-5.88Z"/><path class="cls-1" d="M934,3424.69v-13.53h-10.7v13.53A16.62,16.62,0,0,0,912,3440.42V3462h33.25v-21.62A16.62,16.62,0,0,0,934,3424.69Z"/><path class="cls-4" d="M1396.71,3481H626.87a1,1,0,1,1,0-2h769.84a1,1,0,0,1,0,2Z"/><path class="cls-4" d="M1148.24,3612.16a1,1,0,0,1-1-1V3480a1,1,0,1,1,2,0v131.17A1,1,0,0,1,1148.24,3612.16Z"/><path class="cls-4" d="M875.34,3612.16a1,1,0,0,1-1-1V3480a1,1,0,1,1,2,0v131.17A1,1,0,0,1,875.34,3612.16Z"/><path class="cls-6" d="M546.87,2964.84v608.29h30V3024.85a60,60,0,0,1,60-60Z"/><path class="cls-5" d="M606.87,2964.86a60,60,0,0,0-60,60v551.62h-30V2964.84Z"/><path class="cls-6" d="M1507.93,2964.84v608.29h-30V3024.85a60,60,0,0,0-60-60Z"/><path class="cls-6" d="M1079.18,2964.84v625.37h30V3024.85a60,60,0,0,1,60-60l-27.85-4.71Z"/><path class="cls-5" d="M989.18,2964.86a60,60,0,0,1,60,60v565.38h30V2964.84Z"/><g class="cls-13"><rect class="cls-3" x="677.75" y="1029.59" width="675.84" height="386.39"/><polygon class="cls-8" points="677.75 1250.59 677.75 1494.2 1383.59 1497.23 1383.59 1250.59 677.75 1250.59"/><rect class="cls-14" x="802.24" y="1029.59" width="2" height="212.76"/><rect class="cls-14" x="1209.77" y="1029.59" width="2" height="214.02"/><rect class="cls-14" x="1006" y="1029.59" width="2" height="212.76"/><rect class="cls-14" x="677.75" y="1241.35" width="760.04" height="2"/><g class="cls-9"><polygon class="cls-5" points="1353.36 1250.73 1167.7 1059.66 873.79 1059.66 671.37 1250.73 1353.36 1250.73"/></g><polygon class="cls-4" points="766.23 1131.57 777.3 1322.22 771.49 1322.77 746.42 1133.45 766.23 1131.57"/><polygon class="cls-4" points="767.14 1133.65 738.22 1322.83 732.43 1322.16 747.37 1131.37 767.14 1133.65"/><polygon class="cls-4" points="833.45 1131.37 848.39 1322.16 842.6 1322.83 813.68 1133.65 833.45 1131.37"/><polygon class="cls-4" points="834.4 1133.45 809.33 1322.77 803.52 1322.22 814.59 1131.57 834.4 1133.45"/><path class="cls-4" d="M846.87,1254.72H733.95a1,1,0,0,1-1-1V1103.84a3,3,0,0,1,3-3H844.87a3,3,0,0,1,3,3v149.87A1,1,0,0,1,846.87,1254.72Z"/><rect class="cls-1" x="732.95" y="1112.58" width="114.93" height="142.23"/><path class="cls-4" d="M830.5,1207a1,1,0,0,1-.82-.43l-23.29-33.86-14.29,9.82a1,1,0,0,1-1.4-.27l-19.1-29.05-20.46,27.52a1,1,0,1,1-1.6-1.19l21.32-28.67a1,1,0,0,1,.83-.4,1,1,0,0,1,.81.45l19.32,29.39,14.27-9.81a1,1,0,0,1,1.39.26l23.86,34.68a1,1,0,0,1-.82,1.57Z"/><path class="cls-6" d="M1140.2,1162.58h263.39a0,0,0,0,1,0,0V1271a0,0,0,0,1,0,0H1137.2a0,0,0,0,1,0,0V1165.58A3,3,0,0,1,1140.2,1162.58Z"/><path class="cls-4" d="M1221.3,1272a1,1,0,0,1-1-1V1162.58a1,1,0,0,1,2,0V1271A1,1,0,0,1,1221.3,1272Z"/><path class="cls-4" d="M1373.59,1217.79H1137.2a1,1,0,0,1,0-2h236.39a1,1,0,1,1,0,2Z"/><path class="cls-4" d="M1331,1272a1,1,0,0,1-1-1V1162.58a1,1,0,0,1,2,0V1271A1,1,0,0,1,1331,1272Z"/><polygon class="cls-15" points="897.41 1498.03 888.62 1498.03 886.62 1475.43 899.41 1475.43 897.41 1498.03"/><polygon class="cls-15" points="1347.95 1498.03 1339.16 1498.03 1337.16 1475.43 1349.95 1475.43 1347.95 1498.03"/><path class="cls-6" d="M1397.74,1485.43H838.83v-148a3,3,0,0,1,3-3h555.92Z"/><g class="cls-16"><path class="cls-1" d="M1022.18,1485.46l-2-.06c.19-5.88-2.9-11.49-9.2-16.67-15.68-12.89-44.91-18.46-60.58-14.83-29.55,6.84-77-9.87-108.32-20.92l-3.58-1.26.66-1.89,3.59,1.26c31.15,11,78.22,27.57,107.21,20.86,16.11-3.73,46.18,2,62.3,15.23C1019,1472.7,1022.39,1479,1022.18,1485.46Z"/><path class="cls-1" d="M1177,1435c-19.36,0-32.47-15.76-44.06-29.71-9.33-11.22-18.13-21.81-29-23.6-23.45-3.86-46.09,7.36-68,18.22-16.43,8.15-31.94,15.84-47.22,17.07-13.1,1.06-26.72-1.31-39.88-3.61-15.54-2.71-31.61-5.5-46.41-2.46-13.41,2.76-27.63-.72-42.68-4.4-6.78-1.66-13.8-3.37-21.11-4.63l.34-2c7.38,1.27,14.43,3,21.25,4.66,14.82,3.63,28.83,7.05,41.8,4.38,15.18-3.12,31.44-.29,47.16,2.45,13,2.27,26.54,4.62,39.38,3.58,14.9-1.2,30.24-8.81,46.49-16.87,22.17-11,45.1-22.36,69.19-18.4,11.58,1.91,20.62,12.78,30.19,24.29,12.11,14.57,24.62,29.65,43.72,29,13.66-.48,36.92-12,61.55-24.25,37.95-18.83,81-40.18,103.91-28.92,14.62,7.17,28.87,18.83,42.64,30.1,4.2,3.44,8.17,6.69,12.08,9.75l-1.23,1.57c-3.93-3.07-7.9-6.33-12.12-9.77-13.69-11.2-27.85-22.78-42.26-29.85-22.07-10.83-64.61,10.28-102.14,28.91-24.82,12.32-48.27,24-62.37,24.46Z"/><path class="cls-1" d="M1059.41,1485.77c-3.35-9.44-9.52-18.32-15-26.15-6.79-9.78-12.16-17.51-9.62-22.84,2.64-5.55,10.34-11,19.63-13.85,8.23-2.54,24.85-5.17,43.69,5.79,4.85,2.82,9.79,6,15,9.28,26.71,16.95,57,36.16,98.81,30.42,26.31-3.61,45.57-19.77,61.05-32.76,14.17-11.89,26.41-22.17,39.22-18.74,10.27,2.74,24.48,13.28,39.52,24.44,15.51,11.5,31.54,23.4,46.36,29.58l-.77,1.85c-15-6.27-31.18-18.24-46.78-29.82-14.88-11-28.94-21.47-38.84-24.12-11.8-3.15-23.1,6.33-37.42,18.34-15.67,13.15-35.18,29.52-62.07,33.21a109.58,109.58,0,0,1-14.89,1c-35.25,0-62.68-17.41-85.26-31.74-5.22-3.31-10.14-6.44-15-9.24-18.17-10.58-34.17-8.05-42.09-5.61-10,3.08-16.44,8.65-18.41,12.8s3.29,12,9.46,20.84c5.51,7.94,11.76,16.93,15.2,26.62Z"/><path class="cls-1" d="M1198.2,1356.22a13.83,13.83,0,0,1-5.1-1c-4.7-1.82-10.54-4.92-17.3-8.52-7.1-3.78-15.16-8.06-23-11.38l.78-1.84c8,3.35,16.06,7.66,23.2,11.46,6.7,3.57,12.5,6.65,17.08,8.42,10.36,4,25.38-8.41,37.31-19.68l1.37,1.46C1214.61,1352.07,1204.6,1356.22,1198.2,1356.22Z"/><path class="cls-1" d="M992.42,1388.63q-1.86,0-3.82-.13c-24-1.57-30.07-22.2-34.91-38.77-1.61-5.52-3.13-10.73-5.14-14.86l1.8-.87c2.08,4.28,3.63,9.57,5.26,15.18,4.91,16.81,10.47,35.86,33.12,37.34,21.48,1.4,32.65-9.66,43.44-20.36,9.14-9.06,17.77-17.62,31.85-17.94,33.38-.77,75.41,2.15,104.39,31.8,18.87,19.31,60.09-8.78,93.21-31.34,8.18-5.57,15.91-10.84,22.81-15.07l1,1.71c-6.86,4.21-14.57,9.46-22.73,15-25.6,17.44-56,38.12-77.86,38.12-7,0-13.07-2.09-17.91-7-28.44-29.1-69.94-32-102.92-31.2-13.28.31-21.64,8.59-30.49,17.36C1023.12,1377.93,1012.32,1388.63,992.42,1388.63Z"/><path class="cls-1" d="M882.27,1355.63c-9.77,0-24.61-4.26-39-8.39l-4.71-1.35.55-1.92,4.71,1.35c16.42,4.71,33.39,9.58,42.27,8a1.83,1.83,0,0,0,1.6-1.08c.58-1.41.3-5.53-8-17.24l1.63-1.16c6.89,9.66,9.59,15.92,8.27,19.16a3.81,3.81,0,0,1-3.11,2.3A24.21,24.21,0,0,1,882.27,1355.63Z"/><path class="cls-1" d="M887.81,1381.68c-9.5,0-18.62-4-27.53-8-7-3.09-14.22-6.28-21.63-7.59l.35-2c7.65,1.35,15,4.59,22.09,7.73,12.89,5.7,25.07,11.07,38.32,5.43,15.94-6.79,13.8-25.6,10.54-42.69l2-.37c2.63,13.81,7,36.92-11.72,44.91A31.17,31.17,0,0,1,887.81,1381.68Z"/><path class="cls-1" d="M890,1486.18a71.81,71.81,0,0,1-13.26-16.26c-5.62-9.07-17.7-7.24-29.38-5.46-3,.45-5.76.88-8.42,1.12l-.18-2c2.6-.23,5.37-.65,8.3-1.1,11.75-1.79,25.06-3.81,31.38,6.38a69.87,69.87,0,0,0,12.89,15.81Z"/><path class="cls-1" d="M1022.18,1485.46l-2-.06c.19-5.88-2.9-11.49-9.2-16.67-15.68-12.89-44.91-18.46-60.58-14.83-29.55,6.84-77-9.87-108.32-20.92l-3.58-1.26.66-1.89,3.59,1.26c31.15,11,78.22,27.57,107.21,20.86,16.11-3.73,46.18,2,62.3,15.23C1019,1472.7,1022.39,1479,1022.18,1485.46Z"/><path class="cls-1" d="M887.81,1381.68c-9.5,0-18.62-4-27.53-8-7-3.09-14.22-6.28-21.63-7.59l.35-2c7.65,1.35,15,4.59,22.09,7.73,12.89,5.7,25.07,11.07,38.32,5.43,15.94-6.79,13.8-25.6,10.54-42.69l2-.37c2.63,13.81,7,36.92-11.72,44.91A31.17,31.17,0,0,1,887.81,1381.68Z"/><path class="cls-1" d="M992.42,1388.63q-1.86,0-3.82-.13c-24-1.57-30.07-22.2-34.91-38.77-1.61-5.52-3.13-10.73-5.14-14.86l1.8-.87c2.08,4.28,3.63,9.57,5.26,15.18,4.91,16.81,10.47,35.86,33.12,37.34,21.48,1.4,32.65-9.66,43.44-20.36,9.14-9.06,17.77-17.62,31.85-17.94,33.38-.77,75.41,2.15,104.39,31.8,18.87,19.31,60.09-8.78,93.21-31.34,8.18-5.57,15.91-10.84,22.81-15.07l1,1.71c-6.86,4.21-14.57,9.46-22.73,15-33.74,23-75.72,51.6-95.77,31.09-28.44-29.1-69.94-32-102.92-31.2-13.28.31-21.64,8.59-30.49,17.36C1023.12,1377.93,1012.32,1388.63,992.42,1388.63Z"/><path class="cls-1" d="M1397.3,1377c-13.58-6.69-30.78-12.56-57.52-19.61-11.29-3-17.12-6.65-17.84-11.24-.61-3.87,2.61-8.09,9.55-12.52l1.08,1.69c-6.12,3.91-9.12,7.55-8.65,10.53.39,2.52,3.55,6.23,16.37,9.61,26.88,7.09,44.19,13,57.9,19.75Z"/><path class="cls-1" d="M1177,1435c-19.36,0-32.47-15.76-44.06-29.71-9.33-11.22-18.13-21.81-29-23.6-23.45-3.86-46.09,7.36-68,18.22-16.43,8.15-31.94,15.84-47.22,17.07-13.1,1.06-26.72-1.31-39.88-3.61-15.54-2.71-31.61-5.5-46.41-2.46-13.41,2.76-27.63-.72-42.68-4.4-6.78-1.66-13.8-3.37-21.11-4.63l.34-2c7.38,1.27,14.43,3,21.25,4.66,14.82,3.63,28.83,7.05,41.8,4.38,15.18-3.12,31.44-.29,47.16,2.45,13,2.27,26.54,4.62,39.38,3.58,14.9-1.2,30.24-8.81,46.49-16.87,22.17-11,45.1-22.36,69.19-18.4,11.58,1.91,20.62,12.78,30.19,24.29,12.11,14.57,24.62,29.65,43.72,29,13.66-.48,36.92-12,61.55-24.25,37.95-18.83,81-40.18,103.91-28.92,14.62,7.17,28.87,18.83,42.64,30.1,4.2,3.44,8.17,6.69,12.08,9.75l-1.23,1.57c-3.93-3.07-7.9-6.33-12.12-9.77-13.69-11.2-27.85-22.78-42.26-29.85-22.07-10.83-64.61,10.28-102.14,28.91-24.82,12.32-48.27,24-62.37,24.46Z"/><path class="cls-1" d="M1127.44,1486.28a208.46,208.46,0,0,1-17-12.38c-11.61-9.06-23.63-18.43-31-16.54-1.91.49-3,1.32-3.22,2.55-1,5,9.71,16,20.83,24.73l-1.23,1.57c-5.47-4.29-23.19-18.91-21.55-26.71.43-2,2-3.39,4.68-4.08,8.36-2.14,20.21,7.11,32.76,16.9a206.93,206.93,0,0,0,16.81,12.26Z"/><path class="cls-1" d="M1059.41,1485.77c-3.35-9.44-9.52-18.32-15-26.15-6.79-9.78-12.16-17.51-9.62-22.84,2.64-5.55,10.34-11,19.63-13.85,8.23-2.54,24.85-5.17,43.69,5.79,4.85,2.82,9.79,6,15,9.28,26.71,16.95,57,36.16,98.81,30.42,26.31-3.61,45.57-19.77,61.05-32.76,14.17-11.89,26.41-22.17,39.22-18.74,10.27,2.74,24.48,13.28,39.52,24.44,15.51,11.5,31.54,23.4,46.36,29.58l-.77,1.85c-15-6.27-31.18-18.24-46.78-29.82-14.88-11-28.94-21.47-38.84-24.12-11.8-3.15-23.1,6.33-37.42,18.34-15.67,13.15-35.18,29.52-62.07,33.21a109.58,109.58,0,0,1-14.89,1c-35.25,0-62.68-17.41-85.26-31.74-5.22-3.31-10.14-6.44-15-9.24-18.17-10.58-34.17-8.05-42.09-5.61-10,3.08-16.44,8.65-18.41,12.8s3.29,12,9.46,20.84c5.51,7.94,11.76,16.93,15.2,26.62Z"/><path class="cls-1" d="M1360.59,1486.1c-16.32-18.11-30.69-28.3-51.85-23.11-13.21,3.24-22.56,13-30.69,23.06l-1.56-1.26c8.35-10.34,18-20.37,31.77-23.75,22.06-5.41,37.47,5.57,53.82,23.71Z"/><path class="cls-1" d="M1397.73,1350.32a59.1,59.1,0,0,1-18-3.5c-6.74-2.28-10.32-4.91-10.64-7.79-.15-1.36.36-3.41,3.67-5.44l1,1.7c-1.33.82-2.89,2.09-2.73,3.51.1.93,1.22,3.38,9.3,6.12a57.14,57.14,0,0,0,17.34,3.4Z"/><path class="cls-1" d="M1397.3,1377c-13.58-6.69-30.78-12.56-57.52-19.61-11.29-3-17.12-6.65-17.84-11.24-.61-3.87,2.61-8.09,9.55-12.52l1.08,1.69c-6.12,3.91-9.12,7.55-8.65,10.53.39,2.52,3.55,6.23,16.37,9.61,26.88,7.09,44.19,13,57.9,19.75Z"/><path class="cls-1" d="M1397.73,1350.32a59.1,59.1,0,0,1-18-3.5c-6.74-2.28-10.32-4.91-10.64-7.79-.15-1.36.36-3.41,3.67-5.44l1,1.7c-1.33.82-2.89,2.09-2.73,3.51.1.93,1.22,3.38,9.3,6.12a57.14,57.14,0,0,0,17.34,3.4Z"/><path class="cls-1" d="M1198.2,1356.22a13.83,13.83,0,0,1-5.1-1c-4.7-1.82-10.54-4.92-17.3-8.52-7.1-3.78-15.16-8.06-23-11.38l.78-1.84c8,3.35,16.06,7.66,23.2,11.46,6.7,3.57,12.5,6.65,17.08,8.42,10.36,4,25.38-8.41,37.31-19.68l1.37,1.46C1214.61,1352.07,1204.6,1356.22,1198.2,1356.22Z"/><path class="cls-1" d="M890,1486.18a71.81,71.81,0,0,1-13.26-16.26c-5.62-9.07-17.7-7.24-29.38-5.46-3,.45-5.76.88-8.42,1.12l-.18-2c2.6-.23,5.37-.65,8.3-1.1,11.75-1.79,25.06-3.81,31.38,6.38a69.87,69.87,0,0,0,12.89,15.81Z"/><path class="cls-1" d="M1360.59,1486.1c-16.32-18.11-30.69-28.3-51.85-23.11-13.21,3.24-22.56,13-30.69,23.06l-1.56-1.26c8.35-10.34,18-20.37,31.77-23.75,22.06-5.41,37.47,5.57,53.82,23.71Z"/><path class="cls-1" d="M1127.44,1486.28a208.46,208.46,0,0,1-17-12.38c-11.61-9.06-23.63-18.43-31-16.54-1.91.49-3,1.32-3.22,2.55-1,5,9.71,16,20.83,24.73l-1.23,1.57c-5.47-4.29-23.19-18.91-21.55-26.71.43-2,2-3.39,4.68-4.08,8.36-2.14,20.21,7.11,32.76,16.9a206.93,206.93,0,0,0,16.81,12.26Z"/><path class="cls-1" d="M882.27,1355.63c-9.77,0-24.61-4.26-39-8.39l-4.71-1.35.55-1.92,4.71,1.35c16.42,4.71,33.39,9.58,42.27,8a1.83,1.83,0,0,0,1.6-1.08c.58-1.41.3-5.53-8-17.24l1.63-1.16c6.89,9.66,9.59,15.92,8.27,19.16a3.81,3.81,0,0,1-3.11,2.3A24.21,24.21,0,0,1,882.27,1355.63Z"/><path class="cls-1" d="M992.23,1350.88a2.26,2.26,0,0,1-1.56-.58c-2.78-2.49,1.16-13.06,2.44-16.24l1.86.74c-2.94,7.33-3.9,13.16-3,14,.16.14.7.08,1.56-.38a92.41,92.41,0,0,0,9.61-6.44c6.05-4.4,11.77-8.56,15.57-8.56v2c-3.15,0-9.13,4.34-14.4,8.18a93.4,93.4,0,0,1-9.85,6.59A5,5,0,0,1,992.23,1350.88Z"/></g><rect class="cls-1" x="904.75" y="1360.88" width="36.74" height="53.5" transform="translate(430.38 -204.5) rotate(16.44)"/><rect class="cls-1" x="936.35" y="1380.88" width="36.74" height="53.5" transform="translate(55.93 -36.35) rotate(2.25)"/><rect class="cls-1" x="980.44" y="1360.76" width="36.74" height="53.5" transform="translate(-353.11 341.03) rotate(-16.51)"/><rect class="cls-1" x="1322.62" y="1350.9" width="36.74" height="53.5" transform="translate(-336.2 437.86) rotate(-16.51)"/><rect class="cls-1" x="1051.46" y="1362.48" width="141.13" height="83.6" transform="translate(-196.18 182.28) rotate(-8.54)"/><rect class="cls-1" x="1206.6" y="1372.48" width="141.13" height="83.6" transform="translate(139.65 -114.58) rotate(5.43)"/><path class="cls-4" d="M1029.14,1353.68h.15a1.42,1.42,0,0,1,1.42,1.42v20.82a0,0,0,0,1,0,0h-3a0,0,0,0,1,0,0V1355.1A1.42,1.42,0,0,1,1029.14,1353.68Z" transform="translate(119.88 -82.64) rotate(4.88)"/><path class="cls-17" d="M1027.19,1375.79l2.16.18-1.1,3.76a.31.31,0,0,1-.61-.05Z"/><path class="cls-4" d="M1030.45,1385.17h3a0,0,0,0,1,0,0v7.61a1.29,1.29,0,0,1-1.29,1.29h-.41a1.29,1.29,0,0,1-1.29-1.29v-7.61A0,0,0,0,1,1030.45,1385.17Z" transform="translate(-517.13 617.4) rotate(-26.91)"/><path class="cls-4" d="M1278.73,1344.76h.15a1.42,1.42,0,0,1,1.42,1.42V1367a0,0,0,0,1,0,0h-3a0,0,0,0,1,0,0v-20.82A1.42,1.42,0,0,1,1278.73,1344.76Z" transform="translate(-545.96 1735.36) rotate(-58.42)"/><path class="cls-17" d="M1287.71,1362.63l1.13-1.85,2.86,2.67a.31.31,0,0,1-.32.52Z"/><path class="cls-4" d="M1167.7,1059.66H873.79a13,13,0,0,1,12.26-8.76h269.38a13,13,0,0,1,12.26,8.76Z"/><path class="cls-4" d="M929.81,1056.28a1,1,0,0,1-1-1v-25.68a1,1,0,0,1,2,0v25.68A1,1,0,0,1,929.81,1056.28Z"/><path class="cls-4" d="M1111.68,1056.28a1,1,0,0,1-1-1v-25.68a1,1,0,0,1,2,0v25.68A1,1,0,0,1,1111.68,1056.28Z"/><path class="cls-3" d="M1023.63,1334.42H889.75l-2.87-60.85a34.24,34.24,0,0,1,34.2-35.86h71.21a34.24,34.24,0,0,1,34.2,35.86Z"/><path class="cls-3" d="M889.19,1323h21a5.71,5.71,0,0,1,5.71,5.71v5.71a0,0,0,0,1,0,0H883.49a0,0,0,0,1,0,0v-5.71A5.71,5.71,0,0,1,889.19,1323Z"/><path class="cls-1" d="M890.72,1301.91h24.51l-7.62,11.62L892.34,1323a9.12,9.12,0,0,1-9.12-9.12h0a9.12,9.12,0,0,1,2.26-6Z"/><path class="cls-1" d="M1023.7,1301.91H991.52l7.66,21.1h22.89a9.12,9.12,0,0,0,9.12-9.12h0a9.12,9.12,0,0,0-2.26-6Z"/><rect class="cls-5" x="911.09" y="1294.66" width="91.21" height="39.76"/><path class="cls-5" d="M988.23,1267.68h0a77.41,77.41,0,0,0-63,0l-.06,0a70.26,70.26,0,0,0-24.27,17.87l-14.34,16.35,67.81,24.73,72.42-24.73-14.36-16.38A70.26,70.26,0,0,0,988.23,1267.68Z"/><path class="cls-1" d="M975.72,1275.36l-19,13.82-19-13.82a.77.77,0,0,1-.31-.67l2-31.56h34.72l2,31.56A.77.77,0,0,1,975.72,1275.36Z"/><rect class="cls-18" x="956.37" y="1289.17" width="0.74" height="33.84"/><rect class="cls-1" x="935.74" y="1284.94" width="37.31" height="49.48"/><path class="cls-1" d="M971.65,1289.84l-9.94.51a5,5,0,0,0-4.74,4.48h0a5,5,0,0,0,3.21,5.22l16.72,6.36,25.4,16.65,11.49-16.16-39.13-16.34A6.51,6.51,0,0,0,971.65,1289.84Z"/><path class="cls-1" d="M933,1349.46a6.28,6.28,0,0,1-8.11,4.41l-6-2.05a6.52,6.52,0,0,1-2.5-1.81l-30.8-30,20.33-9.29,14.37,23.77,10.59,8.56a6.28,6.28,0,0,1,2.14,6.42Z"/><path id="SVGID-6" data-name="SVGID" class="cls-1" d="M960.89,1269.94l6,.52a11.46,11.46,0,0,0,12.45-11.5l-.23-29.26a24,24,0,0,0-23.58-23.78h0a24,24,0,0,0-24.22,26.59l1,9.52A31.48,31.48,0,0,0,960.89,1269.94Z"/><g class="cls-19"><ellipse class="cls-4" cx="962.22" cy="1217.32" rx="24.87" ry="26.62" transform="translate(-270.59 2159.62) rotate(-89.07)"/><path class="cls-4" d="M955.38,1237.38s-12.8,2.55-12.95,11.38-6.24,5.26-6.24,5.26l-.2,12.51c-.06,3.93-30.56-13.07-30.56-13.07s-5.39-47.1,10.7-46.05a238.53,238.53,0,0,0,30.12,0Z"/></g><ellipse class="cls-1" cx="945.38" cy="1245.59" rx="9.62" ry="7.33" transform="translate(-315.41 2170.59) rotate(-89.07)"/><path class="cls-4" d="M946.12,1230.48c2,10.19,12.91,12.77,23.81,10.67s17.63-8.07,15.67-18.26-12.38-16.75-23.28-14.65S944.16,1220.29,946.12,1230.48Z"/><path class="cls-3" d="M1003.14,1323h21a5.71,5.71,0,0,1,5.71,5.71v5.71a0,0,0,0,1,0,0H997.44a0,0,0,0,1,0,0v-5.71A5.71,5.71,0,0,1,1003.14,1323Z"/><path class="cls-4" d="M963.28,1189.13H951.62a1,1,0,0,1-1-1v-.2a25.8,25.8,0,0,0-5.7-15.87,15.71,15.71,0,0,1-3.33-9.75,16.05,16.05,0,0,1,15-15.83,15.87,15.87,0,0,1,13.23,25.79,25,25,0,0,0-5.53,15.65v.2A1,1,0,0,1,963.28,1189.13Zm-10.68-2h9.69a27.05,27.05,0,0,1,6-16.11,13.87,13.87,0,0,0-11.57-22.54,14,14,0,0,0-13.11,13.83,13.72,13.72,0,0,0,2.91,8.52A27.91,27.91,0,0,1,952.61,1187.13Z"/><path class="cls-4" d="M960.44,1197.78h-6a3.84,3.84,0,0,1-3.84-3.84v-5.81a1,1,0,0,1,1-1h11.66a1,1,0,0,1,1,1v5.81A3.84,3.84,0,0,1,960.44,1197.78Zm-7.82-8.65v4.81a1.84,1.84,0,0,0,1.84,1.84h6a1.84,1.84,0,0,0,1.84-1.84v-4.81Z"/><path class="cls-4" d="M957.45,1144.53a1,1,0,0,1-1-1V1132a1,1,0,0,1,2,0v11.51A1,1,0,0,1,957.45,1144.53Z"/><path class="cls-4" d="M988,1163.69H976.45a1,1,0,0,1,0-2H988a1,1,0,0,1,0,2Z"/><path class="cls-4" d="M938.45,1163.69H926.94a1,1,0,1,1,0-2h11.51a1,1,0,1,1,0,2Z"/><path class="cls-4" d="M941.61,1150.29a1,1,0,0,1-.71-.29l-8.14-8.14a1,1,0,0,1,1.41-1.41l8.14,8.14a1,1,0,0,1-.71,1.71Z"/><path class="cls-4" d="M973.77,1150.29a1,1,0,0,1-.71-1.71l8.14-8.14a1,1,0,0,1,1.41,1.41l-8.14,8.14A1,1,0,0,1,973.77,1150.29Z"/><path class="cls-4" d="M980.57,1185.16a1,1,0,0,1-.71-.29l-8.14-8.14a1,1,0,1,1,1.41-1.41l8.14,8.14a1,1,0,0,1-.71,1.71Z"/><path class="cls-4" d="M934.81,1185.16a1,1,0,0,1-.71-1.71l8.14-8.14a1,1,0,1,1,1.41,1.41l-8.14,8.14A1,1,0,0,1,934.81,1185.16Z"/><path class="cls-6" d="M677.75,1477.86h30V1089.59a60,60,0,0,1,60-60h-90Z"/><path class="cls-3" d="M1294.4,1334.44H1165.11l-2.77-58.77a33.07,33.07,0,0,1,33-34.63h68.77a33.07,33.07,0,0,1,33,34.63Z"/><polygon class="cls-4" points="1268.38 1334.43 1190.22 1334.43 1188.46 1286.04 1271.06 1286.04 1268.38 1334.43"/><path class="cls-4" d="M1262.84,1272.13l-.27-.13c-29.28-13.92-36.25-13.92-65.53,0l-.33.16a41.35,41.35,0,0,0-14.19,11.14L1166.26,1303h127L1277,1283.25A41.36,41.36,0,0,0,1262.84,1272.13Z"/><path class="cls-3" d="M1229.76,1197.52h0a23.56,23.56,0,0,1,23.56,23.56v22.1a0,0,0,0,1,0,0H1206.2a0,0,0,0,1,0,0v-22.1a23.56,23.56,0,0,1,23.56-23.56Z"/><polygon class="cls-1" points="1245.47 1277.15 1229.76 1290.74 1214.05 1277.15 1215.99 1243.27 1243.53 1243.27 1245.47 1277.15"/><polygon class="cls-1" points="1245.2 1272.93 1229.76 1286.33 1214.32 1272.93 1214.04 1277.14 1229.76 1290.74 1245.47 1277.15 1245.2 1272.93"/><path class="cls-1" d="M1245.28,1251.06h-31a11.86,11.86,0,0,1-11.67-9.74h0a7.55,7.55,0,0,1,7.43-8.9h39.52a7.55,7.55,0,0,1,7.43,8.9h0A11.86,11.86,0,0,1,1245.28,1251.06Z"/><path id="SVGID-7" data-name="SVGID" class="cls-1" d="M1227.38,1265.07h4.76a17,17,0,0,0,17-16.18l1.47-29.45a20.89,20.89,0,0,0-20.86-21.93h0a20.89,20.89,0,0,0-20.86,21.93l1.47,29.45A17,17,0,0,0,1227.38,1265.07Z"/><g class="cls-20"><path class="cls-3" d="M1209.49,1209.13c0,12.75,11.53,23.09,25.76,23.09s25.76-10.34,25.76-23.09-11.53-20.09-25.76-20.09S1209.49,1196.38,1209.49,1209.13Z"/><ellipse class="cls-3" cx="1200.2" cy="1213.56" rx="16.89" ry="21.96"/></g><rect class="cls-18" x="1229.44" y="1290.73" width="0.74" height="32.68"/><rect class="cls-1" x="1211.74" y="1286.65" width="36.03" height="47.79"/><path class="cls-4" d="M1293.26,1303h-29.14l6.94,20.37h20.73a8.55,8.55,0,0,0,8.26-8.81h0a9.15,9.15,0,0,0-2-5.81Z"/><path class="cls-4" d="M1166.26,1303h29.14l-6.94,20.37h-20.73a8.55,8.55,0,0,1-8.26-8.81h0a9.15,9.15,0,0,1,2-5.81Z"/><path class="cls-1" d="M1188.46,1304.85a1,1,0,0,1-1-1v-26.51a1,1,0,0,1,2,0v26.51A1,1,0,0,1,1188.46,1304.85Z"/><path class="cls-1" d="M1271.06,1304.86a1,1,0,0,1-1-1v-26.52a1,1,0,0,1,2,0v26.52A1,1,0,0,1,1271.06,1304.86Z"/><path class="cls-1" d="M1224.65,1295.23a5.11,5.11,0,0,0-4.85-3.85h-6.41a5.61,5.61,0,0,0-2.72.71l-33.57,17.78,11.35,13.54,20.18-16,13.05-5.61a5.5,5.5,0,0,0,3-6.55Z"/><path class="cls-1" d="M1246.12,1291.38h-6.41a5.11,5.11,0,0,0-4.85,3.85h0a5.5,5.5,0,0,0,3,6.55l13.05,5.61,20.18,16,11.35-13.54-33.57-17.78A5.61,5.61,0,0,0,1246.12,1291.38Z"/><path class="cls-3" d="M1164.37,1323.41h20.32a5.51,5.51,0,0,1,5.51,5.51v5.51a0,0,0,0,1,0,0h-31.35a0,0,0,0,1,0,0v-5.51A5.51,5.51,0,0,1,1164.37,1323.41Z"/><path class="cls-3" d="M1274.42,1323.41h20.32a5.51,5.51,0,0,1,5.51,5.51v5.51a0,0,0,0,1,0,0h-31.35a0,0,0,0,1,0,0v-5.51A5.51,5.51,0,0,1,1274.42,1323.41Z"/></g><path class="cls-4" d="M1507.53,3800.88H516.87a1,1,0,1,1,0-2h990.66a1,1,0,1,1,0,2Z"/><path class="cls-5" d="M1018.4,5.89l-6.18,226.21h12.23V0h0A6.05,6.05,0,0,0,1018.4,5.89Z"/><path class="cls-6" d="M1024.45,0h0V232.1h12.23L1030.5,5.89A6.05,6.05,0,0,0,1024.45,0Z"/><path class="cls-4" d="M835.72,593.14h376.77a3,3,0,0,1,3,3v4a0,0,0,0,1,0,0H832.72a0,0,0,0,1,0,0v-4A3,3,0,0,1,835.72,593.14Z"/><path class="cls-4" d="M900.24,509.94h243.69a3,3,0,0,1,3,3v4a0,0,0,0,1,0,0H897.24a0,0,0,0,1,0,0v-4A3,3,0,0,1,900.24,509.94Z"/><path class="cls-4" d="M1073.43,251.25H975.48a1,1,0,0,1,0-2h97.95a1,1,0,0,1,0,2Z"/><path class="cls-4" d="M1073.43,271.85H975.48a1,1,0,0,1,0-2h97.95a1,1,0,0,1,0,2Z"/><path class="cls-4" d="M1073.43,292.44H975.48a1,1,0,0,1,0-2h97.95a1,1,0,0,1,0,2Z"/><path class="cls-4" d="M1073.43,313H975.48a1,1,0,0,1,0-2h97.95a1,1,0,0,1,0,2Z"/><path class="cls-4" d="M1030.84,19.25h-12.78a1,1,0,1,1,0-2h12.78a1,1,0,0,1,0,2Z"/><path class="cls-5" d="M1282.28,1150.86h35.11a4.87,4.87,0,0,1,4.87,4.87v6.85a0,0,0,0,1,0,0h-44.85a0,0,0,0,1,0,0v-6.85A4.87,4.87,0,0,1,1282.28,1150.86Z" transform="translate(2599.67 2313.44) rotate(-180)"/><path class="cls-3" d="M1322.26,1155h-44.85a1,1,0,0,1,0-2h44.85a1,1,0,0,1,0,2Z"/><rect class="cls-1" x="1162.7" y="1124.16" width="11" height="38.43" rx="1" ry="1"/><rect class="cls-1" x="1175.24" y="1124.16" width="12.99" height="38.43" rx="1" ry="1"/><rect class="cls-1" x="1193.49" y="1123.53" width="10" height="38.43" rx="1" ry="1" transform="matrix(0.96, -0.28, 0.28, 0.96, -275.32, 387.68)"/><path class="cls-21" d="M1168.2,1160a3.15,3.15,0,1,1,3.15-3.15A3.15,3.15,0,0,1,1168.2,1160Zm0-4.29a1.15,1.15,0,1,0,1.15,1.15A1.15,1.15,0,0,0,1168.2,1155.67Z"/><path class="cls-21" d="M1181.74,1160a3.15,3.15,0,1,1,3.15-3.15A3.15,3.15,0,0,1,1181.74,1160Zm0-4.29a1.15,1.15,0,1,0,1.15,1.15A1.15,1.15,0,0,0,1181.74,1155.67Z"/><path class="cls-21" d="M1202.15,1158.25a3.15,3.15,0,1,1,3.15-3.15A3.15,3.15,0,0,1,1202.15,1158.25Zm0-4.29a1.15,1.15,0,1,0,1.15,1.15A1.15,1.15,0,0,0,1202.15,1154Z"/><path class="cls-6" d="M1079.18,1029.59v459.18h30V1089.59a60,60,0,0,1,60-60Z"/><path class="cls-5" d="M989.18,1029.61a60,60,0,0,1,60,60v399.19h30V1029.59Z"/><path class="cls-4" d="M671.54,1477.86h383.85a3,3,0,0,1,3,3v18.82a0,0,0,0,1,0,0H668.54a0,0,0,0,1,0,0v-18.82A3,3,0,0,1,671.54,1477.86Z"/><path class="cls-4" d="M1103,1477.86H1359.8a3,3,0,0,1,3,3v18.82a0,0,0,0,1,0,0H1100a0,0,0,0,1,0,0v-18.82A3,3,0,0,1,1103,1477.86Z"/><path class="cls-1" d="M757.22,1428.94c-5.53-15.93-13.54-27-24.65-23.77-8.21,2.39-10.14,18-4.61,33.93s16.57,26.58,24.65,23.77S762.76,1444.88,757.22,1428.94Z"/><path class="cls-1" d="M787.36,1425c2.8-16.63-.43-37.48-16.56-37.48-15.72,0-22.68,15.83-23.28,32.34-.62,16.86,6.39,30.46,16.48,32.18C792.14,1456.82,784.56,1441.63,787.36,1425Z"/><path class="cls-5" d="M722.9,1430.08h67.55a0,0,0,0,1,0,0v40.45a7.33,7.33,0,0,1-7.33,7.33H730.23a7.33,7.33,0,0,1-7.33-7.33v-40.45A0,0,0,0,1,722.9,1430.08Z"/><path class="cls-3" d="M790.45,1435.77H722.9a1,1,0,1,1,0-2h67.55a1,1,0,0,1,0,2Z"/><path class="cls-3" d="M1027.27,1044.24a1,1,0,0,1-1-1V856.11a1,1,0,0,1,2,0v187.13A1,1,0,0,1,1027.27,1044.24Z"/><path class="cls-4" d="M1139.87,1038.23a1,1,0,0,1-1-1V856.11a1,1,0,1,1,2,0v181.12A1,1,0,0,1,1139.87,1038.23Z"/><g class="cls-9"><path class="cls-1" d="M1138.23,2106.43H855.36a15,15,0,0,1,0-30H965a45,45,0,0,0,0-90H0v330H776.9a45,45,0,0,0,0-90h-36.1a15,15,0,1,1,0-30h397.42a45,45,0,1,0,0-90Z"/></g><path class="cls-4" d="M647.75,856.11h735.84v-4a3,3,0,0,0-3-3H650.75a3,3,0,0,0-3,3Z"/><rect class="cls-4" x="506.73" y="3567.54" width="1010.94" height="45.35" rx="3" ry="3"/><path class="cls-3" d="M558.51,2990.34a1,1,0,0,1-1-1V2886.06a1,1,0,0,1,2,0v103.28A1,1,0,0,1,558.51,2990.34Z"/><path class="cls-4" d="M1455.79,2979.29a1,1,0,0,1-1-1v-92.23a1,1,0,0,1,2,0v92.23A1,1,0,0,1,1455.79,2979.29Z"/><path class="cls-3" d="M1037.55,2990.34a1,1,0,0,1-1-1V2886.06a1,1,0,0,1,2,0v103.28A1,1,0,0,1,1037.55,2990.34Z"/><path class="cls-4" d="M1130.93,2979.62a1,1,0,0,1-1-1v-92.56a1,1,0,0,1,2,0v92.56A1,1,0,0,1,1130.93,2979.62Z"/><path class="cls-4" d="M1920,3666.09c-64.84-77.67-171.86-103.29-265.86-57.29-130.89,64.05-117.13,244.6-252.1,139-118.71-92.84-240.78-51.67-317.18,55.43-33.36,46.76-58.72,144-130.86,125.37-83.06-21.46-123.6,84.2-123.6,84.2H1920Z"/><path class="cls-4" d="M0,1135.78H535.8s-10.66-124-172.66-98.55c-73.61,11.55-101.93-67.31-130-117.43-56-100-178-117.05-233.14-44Z"/><g class="cls-9"><path class="cls-1" d="M1383.48,380.75H1140.62a15,15,0,0,1,0-30h59.6a45,45,0,0,0,45-45h0a45,45,0,0,0-45-45H0v210H1383.48a45,45,0,0,0,45-45h0A45,45,0,0,0,1383.48,380.75Z"/></g><g class="cls-9"><path class="cls-1" d="M1920,712.75H1040.48a45,45,0,0,0-45,45h0a45,45,0,0,0,45,45H1920Z"/></g><rect class="cls-1" x="1007.21" y="1130.02" width="155.93" height="89.96" rx="33.25" ry="33.25"/><polygon class="cls-1" points="1025.08 1205.16 998.02 1247.13 1043.1 1216 1025.08 1205.16"/><path class="cls-4" d="M1047.54,1180.49v-17.68a.56.56,0,0,1,.23-.48.91.91,0,0,1,.55-.17h9.26q.65,0,.65.75a1,1,0,0,1-.17.58.55.55,0,0,1-.48.25h-8.32v7.15h4.08a.57.57,0,0,1,.48.22.89.89,0,0,1,.17.56q0,.7-.65.7h-4.08v7.2h8.32a.57.57,0,0,1,.47.23.91.91,0,0,1,.18.57q0,.78-.65.78h-9.26a.87.87,0,0,1-.55-.18A.59.59,0,0,1,1047.54,1180.49Z"/><path class="cls-4" d="M1060.1,1176.46v-6.94a.58.58,0,0,1,.25-.44.92.92,0,0,1,.61-.21.89.89,0,0,1,.57.21.58.58,0,0,1,.26.44v6.93a3.26,3.26,0,0,0,1,2.31,3.09,3.09,0,0,0,4.58,0,3.26,3.26,0,0,0,1-2.31v-7a.53.53,0,0,1,.26-.44,1,1,0,0,1,.6-.18,1,1,0,0,1,.58.18.54.54,0,0,1,.25.44v7a4.69,4.69,0,0,1-1.47,3.42,4.93,4.93,0,0,1-8.41-3.42Z"/><path class="cls-4" d="M1073.9,1180.49v-11a.55.55,0,0,1,.23-.44,1,1,0,0,1,.6-.18.9.9,0,0,1,.57.18.55.55,0,0,1,.23.45v1.29a4.12,4.12,0,0,1,1.38-1.47,3.72,3.72,0,0,1,2.11-.61h.91a.62.62,0,0,1,.47.24.84.84,0,0,1,0,1.11.61.61,0,0,1-.47.24H1079a3.27,3.27,0,0,0-2.39,1.05,3.72,3.72,0,0,0-1,2.74v6.41a.6.6,0,0,1-.25.47.92.92,0,0,1-.61.21.87.87,0,0,1-.59-.21A.6.6,0,0,1,1073.9,1180.49Z"/><path class="cls-4" d="M1082.35,1176.41v-2.91a4.54,4.54,0,0,1,1.46-3.37,5,5,0,0,1,6.93-.06,4.45,4.45,0,0,1,1.44,3.38,3.33,3.33,0,0,1-.17,1.17,1.09,1.09,0,0,1-.55.62,2.59,2.59,0,0,1-.69.23,5.57,5.57,0,0,1-.86.05H1084v1a3,3,0,0,0,1.1,2.46,4.29,4.29,0,0,0,2.85.92,4.23,4.23,0,0,0,1.55-.26,4.47,4.47,0,0,0,1-.52,1.07,1.07,0,0,1,.56-.26.64.64,0,0,1,.51.27.86.86,0,0,1,.22.53q0,.55-1.12,1.13a6,6,0,0,1-2.78.58,5.9,5.9,0,0,1-4-1.37A4.52,4.52,0,0,1,1082.35,1176.41Zm1.69-2.13h5.2a2.14,2.14,0,0,0,1-.17.8.8,0,0,0,.26-.71,3.22,3.22,0,0,0-.92-2.27,3.06,3.06,0,0,0-2.33-1,3.16,3.16,0,0,0-2.3.93,3,3,0,0,0-.95,2.22Z"/><path class="cls-4" d="M1095.51,1180.49V1162a.54.54,0,0,1,.23-.44,1,1,0,0,1,.6-.18,1,1,0,0,1,.61.18.54.54,0,0,1,.25.44v12.66l6.34-5.64a.88.88,0,0,1,.39-.16.86.86,0,0,1,.58.25.74.74,0,0,1,.27.56.58.58,0,0,1-.18.47l-3.82,3.35,4.5,6.58a.84.84,0,0,1,.1.36.82.82,0,0,1-.29.57.87.87,0,0,1-.62.29.61.61,0,0,1-.52-.31l-4.37-6.42-2.39,2.11v3.87a.6.6,0,0,1-.25.47.91.91,0,0,1-.61.21.87.87,0,0,1-.59-.21A.6.6,0,0,1,1095.51,1180.49Z"/><path class="cls-4" d="M1107.28,1177.92a2.92,2.92,0,0,1,1.55-2.84,10.11,10.11,0,0,1,4.51-.8h1.33v-.61a4,4,0,0,0-.75-2.44,2.68,2.68,0,0,0-2.31-1,4.64,4.64,0,0,0-1.89.37,9.5,9.5,0,0,1-.9.37.56.56,0,0,1-.49-.28,1.11,1.11,0,0,1-.18-.61q0-.49,1.12-.91a6.82,6.82,0,0,1,2.39-.42,4.3,4.3,0,0,1,3.58,1.42,5.6,5.6,0,0,1,1.13,3.6v6.76a.6.6,0,0,1-.23.48.9.9,0,0,1-.6.19.81.81,0,0,1-.56-.19.62.62,0,0,1-.22-.48v-1.14a5.13,5.13,0,0,1-3.93,2,3.71,3.71,0,0,1-2.55-.87A3.23,3.23,0,0,1,1107.28,1177.92Zm1.69-.16a2,2,0,0,0,.62,1.63,2.43,2.43,0,0,0,1.64.53,3.61,3.61,0,0,0,2.33-.91,2.48,2.48,0,0,0,1.1-1.82v-1.66h-1.09a16.38,16.38,0,0,0-1.75.08,8,8,0,0,0-1.42.29,2,2,0,0,0-1.07.68A1.89,1.89,0,0,0,1109,1177.76Z"/><path class="cls-4" d="M1120.15,1180a1.34,1.34,0,0,1,.35-.94,1.14,1.14,0,0,1,.88-.38.94.94,0,0,1,.76.38,1.43,1.43,0,0,1,.31.94,1.37,1.37,0,0,1-.32.89.94.94,0,0,1-.75.39,1.14,1.14,0,0,1-.88-.38A1.3,1.3,0,0,1,1120.15,1180Zm.18-17.2a.94.94,0,0,1,.31-.74,1,1,0,0,1,.71-.27.94.94,0,0,1,.68.27,1,1,0,0,1,.28.74q0,2.13-.14,6.72t-.14,6.72a.52.52,0,0,1-.21.44.77.77,0,0,1-.46.16q-.65,0-.65-.6,0-2.13-.18-6.72T1120.34,1162.84Z"/><ellipse class="cls-1" cx="251.67" cy="3505.99" rx="116.9" ry="123.87" transform="translate(-270.23 29.94) rotate(-4.43)"/><path class="cls-4" d="M266.77,3712.64a1,1,0,0,1-1-.92L241.1,3382.56a1,1,0,0,1,2-.15l24.67,329.16a1,1,0,0,1-.92,1.07Z"/><path class="cls-4" d="M255.93,3568l-.23,0L139.28,3541a1,1,0,0,1,.45-1.95L256.15,3566a1,1,0,0,1-.22,2Z"/><path class="cls-4" d="M172.69,3548.71a1,1,0,0,1-.79-.39l-37.83-49a1,1,0,0,1,1.58-1.22l37.83,49a1,1,0,0,1-.79,1.61Z"/><path class="cls-4" d="M172.66,3597.52a1,1,0,0,1-.62-1.78l47.65-37.79a1,1,0,1,1,1.24,1.57l-47.65,37.79A1,1,0,0,1,172.66,3597.52Z"/><path class="cls-4" d="M257.67,3591.23a1,1,0,0,1-.27-2l98.45-27.54a1,1,0,1,1,.54,1.93l-98.45,27.54A1,1,0,0,1,257.67,3591.23Z"/><path class="cls-4" d="M311.76,3576.1a1,1,0,0,1-.88-1.48l25.43-46.37a1,1,0,1,1,1.75,1l-25.43,46.37A1,1,0,0,1,311.76,3576.1Z"/><path class="cls-4" d="M323.75,3605.19a1,1,0,0,1-.58-.19l-32.59-23.33a1,1,0,0,1,1.16-1.63l32.59,23.33a1,1,0,0,1-.58,1.81Z"/><path class="cls-4" d="M250,3489.52a1,1,0,0,1-.21-2l111.53-23.89a1,1,0,1,1,.42,2L250.25,3489.5Z"/><path class="cls-4" d="M284.29,3482.19a1,1,0,0,1-1-1.3l25.68-82a1,1,0,0,1,1.91.6l-25.68,82A1,1,0,0,1,284.29,3482.19Z"/><path class="cls-4" d="M299.08,3434.95a1,1,0,0,1-1-.7l-14.7-46.57a1,1,0,1,1,1.91-.6l14.7,46.57a1,1,0,0,1-1,1.3Z"/><path class="cls-4" d="M250.85,3500.21a1,1,0,0,1-.47-.12l-101.61-54a1,1,0,1,1,.94-1.77l101.61,54a1,1,0,0,1-.47,1.88Z"/><path class="cls-4" d="M194.71,3470.41a1,1,0,0,1-1-1l-2.05-70.92a1,1,0,1,1,2-.06l2.05,70.92a1,1,0,0,1-1,1Z"/></g></g></svg>