<svg xmlns="http://www.w3.org/2000/svg" xmlns:xlink="http://www.w3.org/1999/xlink" viewBox="0 0 1704.23 8178.44"><defs><style>.cls-1{fill:#a8aee5;}.cls-2{fill:#c8bfde;}.cls-3{fill:#3d4689;}.cls-4{fill:#859cec;}.cls-5{clip-path:url(#clip-path);}.cls-6{clip-path:url(#clip-path-2);}.cls-7{fill:#181e47;}</style><clipPath id="clip-path"><circle class="cls-1" cx="1017.85" cy="343.55" r="45.42" transform="translate(32.32 771.06) rotate(-42.1)"/></clipPath><clipPath id="clip-path-2"><circle class="cls-1" cx="1449.69" cy="2339.04" r="21.97" transform="translate(-1093.74 1288.47) rotate(-35.77)"/></clipPath></defs><title>Risorsa 179</title><g id="Livello_2" data-name="Livello 2"><g id="Livello_1-2" data-name="Livello 1"><path class="cls-2" d="M1056.95,6882.21c6.09,6.51,32.89-8.66,59.86-33.88s43.9-50.95,37.81-57.46l-.27-.29a66.86,66.86,0,1,0-97.68,91.34Z"/><ellipse class="cls-1" cx="1105.79" cy="6836.54" rx="66.86" ry="16.14" transform="translate(-4371.27 2598.28) rotate(-43.08)"/><path class="cls-3" d="M1053.17,6879.18a1,1,0,0,1-.73-.32c-7.33-7.84,13.5-36.09,37.86-58.87s53.94-41.67,61.28-33.83a1,1,0,0,1-1.46,1.37c-5-5.34-29.67,7-58.45,33.93s-42.76,50.7-37.77,56a1,1,0,0,1-.73,1.68Z"/><path class="cls-1" d="M766.42,5006.36a3.91,3.91,0,0,1,2.89-.5,5.31,5.31,0,0,1,1.09.34,5.6,5.6,0,0,1,.88.49,7,7,0,0,1,.75.57l1-3.59a10.07,10.07,0,0,0-1.63-8.75l-20.53-34.27a3.91,3.91,0,0,1-3.74-.48,7.37,7.37,0,0,1-3-7.64,4.1,4.1,0,0,1,.91-1.68l-3.51-5.87c-2.74-3.63-6.49-5.31-9.49-4.89l-27,4.81a6.17,6.17,0,0,0-5,4.54h0l-7.09,25.28a5.29,5.29,0,0,1,2.4.86,8.54,8.54,0,0,1,3.53,8.86c-.86,3.08-3.84,4.1-6.65,2.29a7.77,7.77,0,0,1-2.07-2l-1,3.47a6.13,6.13,0,0,0,2.87,7l64.27,40.28a6.13,6.13,0,0,0,8.94-3.67l3.75-13.39h0a7.87,7.87,0,0,1-3.48-3.43l0-.1a9.42,9.42,0,0,1-.49-1.06c0-.12-.07-.25-.11-.37a8.83,8.83,0,0,1-.26-.86c-.05-.23-.07-.47-.1-.7s-.07-.38-.08-.57a7.42,7.42,0,0,1,0-1.27,6.33,6.33,0,0,1,.25-1.19,4.73,4.73,0,0,1,1-1.84A3.8,3.8,0,0,1,766.42,5006.36Z"/><path class="cls-2" d="M770.4,5006.21a6.69,6.69,0,0,1,1.63,1.06l1-3.59a6.13,6.13,0,0,0-3-7.08l-28.2-17.79c0,.17,0,.34-.09.51-.74,2.66-3.31,3.54-5.74,2a7.37,7.37,0,0,1-3-7.64c0-.13.09-.23.14-.35l-31-19.54a3.82,3.82,0,0,1-2-4.25l-.1-.05-7.09,25.29a5.29,5.29,0,0,1,2.4.86,8.54,8.54,0,0,1,3.53,8.86c-.86,3.08-3.84,4.1-6.65,2.29a7.77,7.77,0,0,1-2.07-2l-1,3.47a6.13,6.13,0,0,0,2.87,7l64.27,40.28a6.13,6.13,0,0,0,8.94-3.67l3.75-13.39a8.64,8.64,0,0,1-4.54-8.37C764.75,5006.63,767.45,5004.93,770.4,5006.21Z"/><path class="cls-1" d="M731.9,4994.87c-1,3.62-4.51,4.82-7.82,2.69a10,10,0,0,1-4.15-10.41c1-3.62,4.51-4.82,7.82-2.69A10,10,0,0,1,731.9,4994.87Z"/><path class="cls-3" d="M728.85,4994.38a7.11,7.11,0,0,1-3.84-1.22,11.32,11.32,0,0,1-4.83-8.21,1,1,0,1,1,2-.19,9.25,9.25,0,0,0,3.92,6.72c2,1.28,4,1.19,5.3-.23a1,1,0,0,1,1.47,1.35A5.36,5.36,0,0,1,728.85,4994.38Z"/><path class="cls-1" d="M756.53,5011.35c-.71,2.53-3.16,3.37-5.47,1.88a7,7,0,0,1-2.9-7.29c.71-2.53,3.16-3.37,5.47-1.88A7,7,0,0,1,756.53,5011.35Z"/><path class="cls-1" d="M712.49,4995.54c-.71,2.53-3.16,3.37-5.47,1.88a7,7,0,0,1-2.9-7.29c.71-2.53,3.16-3.37,5.47-1.88A7,7,0,0,1,712.49,4995.54Z"/><path class="cls-1" d="M741.16,5016.78a2.2,2.2,0,0,1-3.56,1.22,4.57,4.57,0,0,1-1.89-4.74,2.2,2.2,0,0,1,3.56-1.22A4.56,4.56,0,0,1,741.16,5016.78Z"/><path class="cls-1" d="M745.37,4997.38a2.2,2.2,0,0,1-3.56,1.22,4.57,4.57,0,0,1-1.89-4.74,2.2,2.2,0,0,1,3.56-1.22A4.57,4.57,0,0,1,745.37,4997.38Z"/><path class="cls-1" d="M710,4969.27a2.42,2.42,0,0,1-3.91,1.34,5,5,0,0,1-2.07-5.21,2.42,2.42,0,0,1,3.91-1.34A5,5,0,0,1,710,4969.27Z"/><circle class="cls-1" cx="400.15" cy="1330.81" r="21.97" transform="translate(-944.48 979.86) rotate(-58.64)"/><circle class="cls-4" cx="209.22" cy="1644.05" r="49.83" transform="translate(-1303.5 967.05) rotate(-58.64)"/><circle class="cls-1" cx="209.22" cy="1644.05" r="21.97" transform="translate(-1303.5 967.05) rotate(-58.64)"/><path class="cls-1" d="M120.17,1711.15l-48.54,79.63c-4,6.53-14.43,7.42-23.33,2h0c-8.91-5.43-12.91-15.12-8.93-21.65l48.54-79.63"/><path class="cls-2" d="M365.84,1250.41a26.09,26.09,0,0,0-32.16,5.69L231.89,1372.29h0l-81.2,15.34a56.56,56.56,0,0,0-37.8,26.14L13,1577.6a89.23,89.23,0,0,0-11.93,60.48l10.19,64a119.86,119.86,0,0,1,.11,37h0a33.55,33.55,0,0,0,18.11,35.07l57.92,29.08A17.44,17.44,0,0,0,110,1797l7.82-12.26,25.35-41.59,27-44.31,4.49-.75a47.91,47.91,0,0,0,33-22.32l102.22-167.7a47.91,47.91,0,0,0,4.4-40.49h0l112.14-184Z"/><circle class="cls-4" cx="148.35" cy="1743.93" r="49.83" transform="translate(-1417.98 962.96) rotate(-58.64)"/><circle class="cls-1" cx="148.35" cy="1743.93" r="21.97" transform="translate(-1417.98 962.96) rotate(-58.64)"/><circle class="cls-4" cx="341.79" cy="1426.56" r="49.83" transform="translate(-1054.22 975.94) rotate(-58.64)"/><path class="cls-4" d="M361.3,1301.09h28.91a28.63,28.63,0,0,1,28.63,28.63v0a0,0,0,0,1,0,0H332.67a0,0,0,0,1,0,0v0A28.63,28.63,0,0,1,361.3,1301.09Z" transform="translate(-943.02 951.64) rotate(-58.64)"/><path class="cls-3" d="M364.85,1359.94a1,1,0,0,1-.52-.15,29.63,29.63,0,0,1-9.88-40.72l15-24.69a29.63,29.63,0,0,1,40.72-9.88,1,1,0,0,1,.33,1.37l-44.85,73.58A1,1,0,0,1,364.85,1359.94Zm30-77.77a27.82,27.82,0,0,0-6.56.79,27.45,27.45,0,0,0-17.08,12.47l-15,24.69a27.63,27.63,0,0,0,8.37,37.44l43.79-71.84A27.41,27.41,0,0,0,394.84,1282.16Z"/><path class="cls-1" d="M89.86,1786.46H123a8.62,8.62,0,0,1,8.62,8.62v6.3A8.62,8.62,0,0,1,123,1810H89.86a7.18,7.18,0,0,1-7.18-7.18v-9.17a7.18,7.18,0,0,1,7.18-7.18Z" transform="translate(-1484.11 953.82) rotate(-58.64)"/><ellipse class="cls-1" cx="324.53" cy="1342.49" rx="11.74" ry="15.74" transform="translate(-990.71 920.9) rotate(-58.64)"/><path class="cls-3" d="M328.28,1356.43a20.16,20.16,0,0,1-10.37-3.05,19.68,19.68,0,0,1-8.12-9.21c-1.51-3.74-1.34-7.43.46-10.38s5-4.79,9-5.16a20.73,20.73,0,0,1,20,12.21c1.51,3.74,1.34,7.43-.46,10.38C336.73,1354.64,332.76,1356.43,328.28,1356.43Zm-7.49-25.88q-.68,0-1.34.06a8.79,8.79,0,0,0-7.81,12.81,17.67,17.67,0,0,0,7.31,8.25c6.94,4.23,15.09,3.56,18.18-1.5a9.44,9.44,0,0,0,.31-8.59,17.67,17.67,0,0,0-7.31-8.25A18.16,18.16,0,0,0,320.78,1330.55Z"/><path class="cls-1" d="M234.08,1371.86l-25.42,41.71a21,21,0,0,1-13.65,9.61l-66,13.7a6.29,6.29,0,0,1-6.64-9.43l23.76-39Z"/><circle class="cls-1" cx="341.79" cy="1426.56" r="21.97" transform="translate(-1054.22 975.94) rotate(-58.64)"/><path class="cls-1" d="M61.89,1538.79a6.29,6.29,0,0,0-8.64,2.1l-23.17,38a67.07,67.07,0,0,0-7.53,53.3l10.32,38.36a9.43,9.43,0,0,0,17.29,3L110,1575.46a6.29,6.29,0,0,0-2.1-8.64Z"/><path class="cls-3" d="M110,1576.46a1,1,0,0,1-.85-1.52,5.29,5.29,0,0,0-1.76-7.26l-46-28a1,1,0,1,1,1-1.71l46,28a7.29,7.29,0,0,1,2.43,10A1,1,0,0,1,110,1576.46Z"/><path class="cls-1" d="M173.31,1441.24l-59.21,11.6a18.86,18.86,0,0,0-12.48,8.69l-31,50.89a6.29,6.29,0,0,0,2.1,8.64l46,28a6.29,6.29,0,0,0,8.64-2.1l55.83-91.6A9.43,9.43,0,0,0,173.31,1441.24Z"/><path class="cls-3" d="M127.33,1548a1,1,0,0,1-.85-1.52l55.83-91.6a8.43,8.43,0,0,0-8.82-12.66l-59.21,11.6a1,1,0,1,1-.38-2l59.21-11.6A10.43,10.43,0,0,1,184,1455.92l-55.83,91.6A1,1,0,0,1,127.33,1548Z"/><path class="cls-3" d="M217.36,1622.39a1,1,0,0,1-.37-.07c-33.66-13.52-91.86-55.91-92.44-56.33a1,1,0,1,1,1.18-1.62c.58.43,58.58,42.66,92,56.09a1,1,0,0,1-.37,1.93Z"/><path class="cls-3" d="M219.56,1416.64a1,1,0,0,1-.72-1.69c.37-.39,37.75-39.6,71.22-75.87a1,1,0,1,1,1.47,1.36c-33.48,36.28-70.87,75.5-71.24,75.89A1,1,0,0,1,219.56,1416.64Z"/><rect class="cls-4" x="146.12" y="1540.69" width="35.74" height="14.22" rx="4.31" ry="4.31" transform="translate(-1243.01 882.26) rotate(-58.64)"/><ellipse class="cls-1" cx="376.14" cy="1257.82" rx="11.74" ry="15.74" transform="translate(-893.66 924.36) rotate(-58.64)"/><path class="cls-3" d="M379.89,1271.77a20.17,20.17,0,0,1-10.38-3.07c-7.88-4.8-11.32-13.59-7.67-19.59s13-7,20.93-2.16h0c7.88,4.8,11.32,13.59,7.66,19.59-1.8,3-5,4.79-9,5.16Q380.66,1271.77,379.89,1271.77Zm-7.53-25.9c-3.79,0-7.09,1.46-8.81,4.28-3.08,5.06.06,12.61,7,16.84a17.66,17.66,0,0,0,10.68,2.72,9.45,9.45,0,0,0,7.5-4.21c3.08-5.06-.06-12.61-7-16.84A18.26,18.26,0,0,0,372.36,1245.87Z"/><path class="cls-3" d="M405.26,1292.78a1,1,0,0,1-.52-.15l-15.7-9.57a1,1,0,0,1,1-1.71l15.7,9.57a1,1,0,0,1-.52,1.85Z"/><path class="cls-3" d="M401.21,1299.43a1,1,0,0,1-.52-.15L380,1286.66a1,1,0,0,1,1-1.71l20.71,12.62a1,1,0,0,1-.52,1.85Z"/><path class="cls-3" d="M397.15,1306.08a1,1,0,0,1-.52-.15l-23.26-14.18a1,1,0,0,1,1-1.71l23.26,14.18a1,1,0,0,1-.52,1.85Z"/><path class="cls-3" d="M389,1319.38a1,1,0,0,1-.52-.15L365.13,1305a1,1,0,0,1,1-1.71l23.39,14.26a1,1,0,0,1-.52,1.85Z"/><path class="cls-3" d="M385,1326a1,1,0,0,1-.52-.15l-23.39-14.26a1,1,0,0,1,1-1.71l23.39,14.26A1,1,0,0,1,385,1326Z"/><path class="cls-3" d="M380.94,1332.68a1,1,0,0,1-.52-.15L357,1318.28a1,1,0,0,1,1-1.71l23.39,14.26a1,1,0,0,1-.52,1.85Z"/><path class="cls-3" d="M376.88,1339.33a1,1,0,0,1-.52-.15L353,1324.93a1,1,0,0,1,1-1.71l23.39,14.26a1,1,0,0,1-.52,1.85Z"/><path class="cls-3" d="M368.77,1352.63a1,1,0,0,1-.52-.15l-16.14-9.84a1,1,0,0,1,1-1.71l16.14,9.84a1,1,0,0,1-.52,1.85Z"/><rect class="cls-1" x="104.3" y="1577.58" width="280.04" height="12.46" rx="4.31" ry="4.31" transform="translate(-1235.23 968.13) rotate(-58.64)"/><rect class="cls-1" x="326.68" y="1323.33" width="132.89" height="19.38" rx="7.18" ry="7.18" transform="matrix(0.52, -0.85, 0.85, 0.52, -949.73, 974.93)"/><path class="cls-1" d="M1045.75,2567.07l6.31,3.52,8.45-15.14-6.31-3.52Z"/><path class="cls-2" d="M1045.75,2567.07l6.31,3.52-1.58,1.68a.86.86,0,0,1-1.05.16l-3.87-2.16a.86.86,0,0,1-.41-1Z"/><path class="cls-4" d="M1048.32,2575.12l-4.46-2.49a1.06,1.06,0,0,1-.41-1.44l.38-.68a1.06,1.06,0,0,1,1.44-.41l4.46,2.49a1.06,1.06,0,0,1,.41,1.44l-.38.68a1.06,1.06,0,0,1-1.44.41"/><path class="cls-2" d="M1060.51,2555.45l-6.31-3.52,2.67-1.82,3.79,2.11Z"/><path class="cls-1" d="M1056.87,2550.11l3.79,2.11,2.11-3.79-3.79-2.11Z"/><path class="cls-2" d="M1062.77,2548.43l-3.79-2.11a29.54,29.54,0,0,1,5.22-6.8l2.3-2.23-.69,3.13a29.54,29.54,0,0,1-3,8"/><path class="cls-1" d="M756.79,2946.37l2.22,6.88,16.5-5.33-2.22-6.88Z"/><path class="cls-2" d="M756.79,2946.37l2.22,6.88-2.3.16a.86.86,0,0,1-.88-.6l-1.36-4.22a.86.86,0,0,1,.37-1Z"/><path class="cls-4" d="M753.18,2954l-1.57-4.86a1.06,1.06,0,0,1,.68-1.33l.74-.24a1.06,1.06,0,0,1,1.33.68l1.57,4.86a1.06,1.06,0,0,1-.68,1.33l-.74.24a1.06,1.06,0,0,1-1.33-.68"/><path class="cls-2" d="M775.51,2947.91l-2.22-6.88,3.19.49,1.33,4.13Z"/><path class="cls-1" d="M776.48,2941.52l1.33,4.13,4.13-1.33-1.33-4.13Z"/><path class="cls-2" d="M781.94,2944.32l-1.33-4.13a29.54,29.54,0,0,1,8.46-1.42l3.21-.07-2.64,1.82a29.54,29.54,0,0,1-7.69,3.79"/><path class="cls-1" d="M1376.77,3932.93l2.22,6.88,16.5-5.33-2.22-6.88Z"/><path class="cls-2" d="M1376.77,3932.93l2.22,6.88-2.3.16a.86.86,0,0,1-.88-.6l-1.36-4.22a.86.86,0,0,1,.37-1Z"/><path class="cls-4" d="M1373.17,3940.58l-1.57-4.86a1.06,1.06,0,0,1,.68-1.33l.74-.24a1.06,1.06,0,0,1,1.33.68l1.57,4.86a1.06,1.06,0,0,1-.68,1.33l-.74.24a1.06,1.06,0,0,1-1.33-.68"/><path class="cls-2" d="M1395.49,3934.47l-2.22-6.88,3.19.49,1.33,4.13Z"/><path class="cls-1" d="M1396.47,3928.09l1.33,4.13,4.13-1.33-1.33-4.13Z"/><path class="cls-2" d="M1401.92,3930.88l-1.33-4.13a29.54,29.54,0,0,1,8.46-1.42l3.21-.07-2.64,1.82a29.54,29.54,0,0,1-7.69,3.79"/><path class="cls-1" d="M89.07,7742.16l2.22,6.88,16.5-5.33-2.22-6.88Z"/><path class="cls-2" d="M89.07,7742.16l2.22,6.88-2.3.16a.86.86,0,0,1-.88-.6l-1.36-4.22a.86.86,0,0,1,.37-1Z"/><path class="cls-4" d="M85.47,7749.81l-1.57-4.86a1.06,1.06,0,0,1,.68-1.33l.74-.24a1.06,1.06,0,0,1,1.33.68l1.57,4.86a1.06,1.06,0,0,1-.68,1.33l-.74.24a1.06,1.06,0,0,1-1.33-.68"/><path class="cls-2" d="M107.79,7743.7l-2.22-6.88,3.19.49,1.33,4.13Z"/><path class="cls-1" d="M108.76,7737.31l1.33,4.13,4.13-1.33-1.33-4.13Z"/><path class="cls-2" d="M114.22,7740.11l-1.33-4.13a29.54,29.54,0,0,1,8.46-1.42l3.21-.07-2.64,1.82a29.54,29.54,0,0,1-7.69,3.79"/><path class="cls-1" d="M981.19,4190.13l-7,1.8,4.32,16.79,7-1.8Z"/><path class="cls-2" d="M981.19,4190.13l-7,1.8,0-2.3a.86.86,0,0,1,.65-.84l4.29-1.1a.86.86,0,0,1,1,.43Z"/><path class="cls-4" d="M973.78,4186.07l4.95-1.27a1.06,1.06,0,0,1,1.29.76l.19.75a1.06,1.06,0,0,1-.76,1.29l-4.95,1.27a1.06,1.06,0,0,1-1.29-.76l-.19-.75a1.06,1.06,0,0,1,.76-1.29"/><path class="cls-2" d="M978.52,4208.72l7-1.8-.68,3.16-4.2,1.08Z"/><path class="cls-1" d="M984.83,4210.08l-4.2,1.08,1.08,4.2,4.2-1.08Z"/><path class="cls-2" d="M981.72,4215.36l4.2-1.08a29.54,29.54,0,0,1,.91,8.53l-.13,3.21-1.66-2.75a29.54,29.54,0,0,1-3.32-7.91"/><path class="cls-1" d="M306.25,4792.1l4.19,5.89,14.13-10-4.19-5.89Z"/><path class="cls-2" d="M306.25,4792.1l4.19,5.89-2.15.84a.86.86,0,0,1-1-.3l-2.57-3.61a.86.86,0,0,1,0-1.06Z"/><path class="cls-4" d="M305.12,4800.47l-3-4.16a1.06,1.06,0,0,1,.25-1.47l.63-.45a1.06,1.06,0,0,1,1.47.25l3,4.16a1.06,1.06,0,0,1-.25,1.48l-.63.45a1.06,1.06,0,0,1-1.47-.25"/><path class="cls-2" d="M324.57,4787.94l-4.19-5.89,3.19-.5,2.51,3.53Z"/><path class="cls-1" d="M323.58,4781.55l2.51,3.53,3.53-2.51-2.51-3.53Z"/><path class="cls-2" d="M329.62,4782.57l-2.51-3.53a29.54,29.54,0,0,1,7.64-3.9l3-1-2,2.53a29.54,29.54,0,0,1-6.2,5.93"/><path class="cls-1" d="M266,6314.16l4.19,5.89,14.13-10-4.19-5.89Z"/><path class="cls-2" d="M266,6314.16l4.19,5.89-2.15.84a.86.86,0,0,1-1-.3l-2.57-3.61a.86.86,0,0,1,0-1.06Z"/><path class="cls-4" d="M264.9,6322.54l-3-4.16a1.06,1.06,0,0,1,.25-1.47l.63-.45a1.06,1.06,0,0,1,1.47.25l3,4.16a1.06,1.06,0,0,1-.25,1.48l-.63.45a1.06,1.06,0,0,1-1.47-.25"/><path class="cls-2" d="M284.35,6310l-4.19-5.89,3.19-.5,2.51,3.53Z"/><path class="cls-1" d="M283.36,6303.62l2.51,3.53,3.53-2.51-2.51-3.53Z"/><path class="cls-2" d="M289.4,6304.64l-2.51-3.53a29.54,29.54,0,0,1,7.64-3.9l3-1-2,2.53a29.54,29.54,0,0,1-6.2,5.93"/><path class="cls-1" d="M330.68,3646l4.16-5.91-14.17-10-4.16,5.91Z"/><path class="cls-2" d="M330.68,3646l4.16-5.91,1.51,1.74a.86.86,0,0,1,.05,1.06l-2.55,3.62a.86.86,0,0,1-1,.31Z"/><path class="cls-4" d="M339,3644.32,336,3648.5a1.06,1.06,0,0,1-1.47.25l-.63-.45a1.06,1.06,0,0,1-.26-1.47l2.94-4.18a1.06,1.06,0,0,1,1.47-.26l.63.45a1.06,1.06,0,0,1,.26,1.47"/><path class="cls-2" d="M320.67,3630.14l-4.16,5.91L315,3633.2l2.5-3.54Z"/><path class="cls-1" d="M315,3633.2l2.5-3.54-3.54-2.5-2.5,3.54Z"/><path class="cls-2" d="M313.93,3627.16l-2.5,3.54a29.54,29.54,0,0,1-6.22-5.91l-2-2.52,3,1a29.54,29.54,0,0,1,7.66,3.87"/><path class="cls-1" d="M1580.08,2158.72l3.9-6.08-14.59-9.37-3.9,6.08Z"/><path class="cls-2" d="M1580.08,2158.72l3.9-6.08,1.58,1.68a.86.86,0,0,1,.1,1.06l-2.39,3.73a.86.86,0,0,1-1,.35Z"/><path class="cls-4" d="M1588.28,2156.65l-2.76,4.3a1.06,1.06,0,0,1-1.46.32l-.65-.42a1.06,1.06,0,0,1-.32-1.46l2.76-4.3a1.06,1.06,0,0,1,1.46-.32l.65.42a1.06,1.06,0,0,1,.32,1.46"/><path class="cls-2" d="M1569.39,2143.27l-3.9,6.08-1.65-2.78,2.34-3.65Z"/><path class="cls-1" d="M1563.84,2146.57l2.34-3.65-3.65-2.34-2.34,3.65Z"/><path class="cls-2" d="M1562.53,2140.58l-2.34,3.65a29.54,29.54,0,0,1-6.47-5.63l-2.09-2.44,3.08.88a29.54,29.54,0,0,1,7.81,3.54"/><path class="cls-2" d="M754.68,2673.3l-1.7-5c-25.46-56.25-67.12-15.15-67.12-15.15s-48.79,32.32,1,68.81l5.47,3.74c-1.83,2.81,2.48,6.47,6.81,9.71,3.39,2.54,6.34,5.44,9.36,3.31,6.88-4.86,10.12-4.92,15.53,1.74l3,3.64a2,2,0,0,0,2.87.3l37.47-30.41a2,2,0,0,0,.3-2.87l-3-3.64c-5.41-6.67-4.92-9.56,1.25-15.29S754.72,2673.27,754.68,2673.3Zm-12.87,37.36a2.53,2.53,0,0,1-.72,3.34,3.83,3.83,0,0,1-2.36.83,2.67,2.67,0,0,0-2.54,2.06,3.83,3.83,0,0,1-1.29,2.14,2.55,2.55,0,0,1-3.51,0,5.07,5.07,0,0,1-1.78-3.18l-1.45-8.81a23.59,23.59,0,0,0-.93-3.73h0a23.59,23.59,0,0,0,3.48,1.69l8.34,3.23A5,5,0,0,1,741.81,2710.66Z"/><path class="cls-1" d="M755,2673.64l-2-5.39c-24.22-53.5-63.06-19-66.8-15.46l.06.07c-.3.22-.61.42-.9.66a19,19,0,0,0-1.32,28.4c4.94,4.87,12.47,5.66,18.7,2.61,8.66-4.24,13.58,1.19,16.39,8.34a81.52,81.52,0,0,0,9.66,17.81l-.61-3.7a23.59,23.59,0,0,0-.93-3.73h0a23.59,23.59,0,0,0,3.48,1.69l8.34,3.23a5,5,0,0,1,2.77,2.48,2.53,2.53,0,0,1-.72,3.34,3.83,3.83,0,0,1-2.36.83,2.67,2.67,0,0,0-2.54,2.06,3.87,3.87,0,0,1-.86,1.71,70.45,70.45,0,0,0,11.75,9.93l1.24.83,19-15.44a2,2,0,0,0,.3-2.87l-3-3.64c-5.41-6.67-4.93-9.56,1.24-15.29,2.45-2.27,1.45-5.45-.17-9.1C763.31,2677.46,758.51,2671.71,755,2673.64Z"/><path class="cls-4" d="M694.49,2695.07s-4.18,3.39-2.38,7.66,10.09,10.67,16.73,6.48,6.79-14.59,2-18.78S694.49,2695.07,694.49,2695.07Z"/><path class="cls-3" d="M704.1,2711.58a11.83,11.83,0,0,1-3.55-.57c-4.53-1.42-8.2-5.13-9.37-7.89-2.07-4.91,2.48-8.67,2.67-8.83l0,0a41.91,41.91,0,0,1,6.51-4c5-2.42,8.72-2.63,11.05-.6,2.57,2.23,4,6.16,3.66,10.27a12.85,12.85,0,0,1-5.74,10.11A9.74,9.74,0,0,1,704.1,2711.58Zm-9-15.73c-.24.2-3.54,3-2.08,6.49,1,2.38,4.31,5.56,8.12,6.76a8.23,8.23,0,0,0,7.15-.73,10.87,10.87,0,0,0,4.81-8.57c.26-3.49-.88-6.79-3-8.61C706.68,2688.2,698.13,2693.53,695.11,2695.85Z"/><path class="cls-4" d="M726,2669.48s4.18-3.39,8-.75,8.37,12.07,2.91,17.7-15.67,3.64-18.78-2S726,2669.48,726,2669.48Z"/><path class="cls-3" d="M728.53,2690.79a15.15,15.15,0,0,1-2-.13c-4.08-.54-7.65-2.72-9.3-5.7-1.5-2.7-.54-6.3,2.86-10.69a41.84,41.84,0,0,1,5.25-5.55l0,0c.19-.16,4.81-3.83,9.19-.8,2.46,1.71,5.33,6.07,5.79,10.79a10.27,10.27,0,0,1-2.74,8.43A12.5,12.5,0,0,1,728.53,2690.79Zm-1.88-20.54c-2.89,2.48-9.87,9.75-7.65,13.74,1.35,2.43,4.34,4.23,7.81,4.69a10.86,10.86,0,0,0,9.38-2.94,8.23,8.23,0,0,0,2.19-6.84c-.39-4-2.82-7.87-4.94-9.34C730.34,2667.41,726.9,2670.05,726.65,2670.25Z"/><path class="cls-3" d="M758.76,2721.88a1,1,0,0,1-.78-.37l-4.46-5.5a1,1,0,0,1,1.55-1.26l4.46,5.5a1,1,0,0,1-.78,1.63Z"/><path class="cls-3" d="M737.88,2738.83a1,1,0,0,1-.78-.37l-4.46-5.5a1,1,0,0,1,1.55-1.26l4.46,5.5a1,1,0,0,1-.78,1.63Z"/><path class="cls-3" d="M744.84,2733.18a1,1,0,0,1-.78-.37l-4.46-5.5a1,1,0,0,1,1.55-1.26l4.46,5.5a1,1,0,0,1-.78,1.63Z"/><path class="cls-3" d="M751.8,2727.53a1,1,0,0,1-.78-.37l-4.47-5.5a1,1,0,0,1,1.55-1.26l4.47,5.5a1,1,0,0,1-.78,1.63Z"/><path class="cls-3" d="M681.17,2705.83a8.9,8.9,0,0,1-.92,0,8.71,8.71,0,0,1-4.59-15.42,1,1,0,1,1,1.26,1.55,6.71,6.71,0,0,0,8.46,10.42,1,1,0,1,1,1.26,1.55A8.64,8.64,0,0,1,681.17,2705.83Z"/><path class="cls-3" d="M735.44,2664a1,1,0,0,1-.63-1.78,6.71,6.71,0,0,0-8.46-10.42,1,1,0,1,1-1.26-1.55,8.71,8.71,0,1,1,11,13.52A1,1,0,0,1,735.44,2664Z"/><path class="cls-3" d="M726,2742.77a1,1,0,0,1-.67-.25l-5.83-5.2a4.78,4.78,0,0,0-5.47-.62l-3.55,1.95a7.9,7.9,0,0,1-9.25-1.18l-.83-.78a22.6,22.6,0,0,0-4.48-3.28,8,8,0,0,1-3.33-10.23l.78-1.69a4.74,4.74,0,0,0-1.45-5.79l-4.1-3.12A1,1,0,0,1,689,2711l4.1,3.12a6.73,6.73,0,0,1,2.05,8.22l-.78,1.69a6,6,0,0,0,2.49,7.65,24.66,24.66,0,0,1,4.87,3.57l.83.78a5.91,5.91,0,0,0,6.92.88l3.55-1.95a6.78,6.78,0,0,1,7.77.88l5.83,5.2a1,1,0,0,1-.67,1.75Z"/><path class="cls-3" d="M766.12,2710.18a1,1,0,0,1-.87-.5l-3.89-6.78a6.78,6.78,0,0,1,.73-7.78l2.63-3.07a5.91,5.91,0,0,0,.56-7l-.59-1a24.64,24.64,0,0,1-2.49-5.5,6,6,0,0,0-7-4l-1.82.41a6.73,6.73,0,0,1-7.62-3.7l-2.21-4.65a1,1,0,0,1,1.81-.86l2.21,4.65a4.74,4.74,0,0,0,5.37,2.61l1.82-.41a8,8,0,0,1,9.33,5.37,22.62,22.62,0,0,0,2.29,5.06l.59,1a7.91,7.91,0,0,1-.75,9.3l-2.63,3.07a4.78,4.78,0,0,0-.52,5.48l3.89,6.78a1,1,0,0,1-.87,1.5Z"/><path class="cls-2" d="M1552.4,3622.72l5.16-1.3c58.08-21,20.39-65.72,20.39-65.72s-28.38-51.18-68.67-4.4l-4.16,5.16c-2.66-2-6.64,2-10.21,6-2.8,3.18-5.92,5.89-4,9.07,4.3,7.24,4.11,10.48-3,15.35l-3.86,2.66a2,2,0,0,0-.52,2.84l27.37,39.75a2,2,0,0,0,2.84.52l3.86-2.66c7.07-4.87,9.92-4.16,15.15,2.45S1552.42,3622.76,1552.4,3622.72Zm-36.23-15.77a2.53,2.53,0,0,1-3.27-1,3.83,3.83,0,0,1-.64-2.42,2.67,2.67,0,0,0-1.86-2.7,3.83,3.83,0,0,1-2-1.46,2.55,2.55,0,0,1,.32-3.49,5.07,5.07,0,0,1,3.31-1.52l8.89-.75a23.59,23.59,0,0,0,3.79-.63h0a23.59,23.59,0,0,0-2,3.33l-3.88,8.06A5,5,0,0,1,1516.17,3606.94Z"/><path class="cls-1" d="M1552,3623l5.53-1.59c55.24-19.93,23.87-61.37,20.67-65.38l-.07.05c-.19-.32-.37-.64-.59-1a19,19,0,0,0-28.21-3.55c-5.24,4.54-6.63,12-4.08,18.44,3.54,9-2.25,13.44-9.61,15.68a81.52,81.52,0,0,0-18.52,8.23l3.74-.31a23.59,23.59,0,0,0,3.79-.63h0a23.59,23.59,0,0,0-2,3.33l-3.88,8.06a5,5,0,0,1-2.69,2.56,2.53,2.53,0,0,1-3.27-1,3.83,3.83,0,0,1-.64-2.42,2.67,2.67,0,0,0-1.86-2.7,3.87,3.87,0,0,1-1.64-1,70.45,70.45,0,0,0-10.83,10.93L1497,3612l13.89,20.18a2,2,0,0,0,2.83.52l3.86-2.66c7.07-4.87,9.92-4.16,15.15,2.44,2.07,2.62,5.32,1.87,9.09.55C1547.57,3631,1553.68,3626.65,1552,3623Z"/><path class="cls-4" d="M1535.44,3561s-3-4.43-7.45-3-11.43,9.22-7.78,16.16,14,7.92,18.57,3.42S1535.44,3561,1535.44,3561Z"/><path class="cls-3" d="M1531.23,3581.34a14.86,14.86,0,0,1-2.28-.18,12.84,12.84,0,0,1-9.63-6.51,10.27,10.27,0,0,1-.25-8.86c1.78-4.4,5.76-7.78,8.6-8.72,5-1.67,8.45,3.15,8.59,3.36v0a41.85,41.85,0,0,1,3.47,6.8c2,5.17,1.93,8.9-.27,11.07A11.78,11.78,0,0,1,1531.23,3581.34Zm-1.46-22.61a4.64,4.64,0,0,0-1.47.24c-2.45.81-5.88,3.86-7.38,7.57a8.22,8.22,0,0,0,.17,7.18,10.87,10.87,0,0,0,8.16,5.47c3.46.54,6.83-.34,8.82-2.29,3.26-3.21-1.39-12.15-3.46-15.34C1534.45,3561.34,1532.55,3558.73,1529.77,3558.73Z"/><path class="cls-4" d="M1558.47,3594.44s3,4.43.12,8-12.69,7.39-17.88,1.5-2.4-15.91,3.42-18.57S1558.47,3594.44,1558.47,3594.44Z"/><path class="cls-3" d="M1547.9,3608a10.21,10.21,0,0,1-7.94-3.4,12.84,12.84,0,0,1-2.65-11.32c.86-4,3.32-7.41,6.41-8.82,2.81-1.28,6.32,0,10.44,3.69a41.74,41.74,0,0,1,5.12,5.67v0c.14.21,3.44,5.09.07,9.22-1.89,2.32-6.47,4.84-11.21,4.93Zm-1.9-22a3.45,3.45,0,0,0-1.45.3c-2.53,1.16-4.55,4-5.29,7.42a10.87,10.87,0,0,0,2.2,9.58,8.21,8.21,0,0,0,6.65,2.72c4-.07,8.07-2.19,9.7-4.19,2.37-2.91,0-6.55-.16-6.81C1555.65,3592.27,1550.12,3586,1546,3586Z"/><path class="cls-3" d="M1504.64,3624a1,1,0,0,1-.57-1.82l5.84-4a1,1,0,0,1,1.13,1.65l-5.84,4A1,1,0,0,1,1504.64,3624Z"/><path class="cls-3" d="M1489.4,3601.89a1,1,0,0,1-.57-1.82l5.83-4a1,1,0,0,1,1.13,1.65l-5.83,4A1,1,0,0,1,1489.4,3601.89Z"/><path class="cls-3" d="M1494.48,3609.27a1,1,0,0,1-.57-1.82l5.84-4a1,1,0,0,1,1.13,1.65l-5.84,4A1,1,0,0,1,1494.48,3609.27Z"/><path class="cls-3" d="M1499.56,3616.65a1,1,0,0,1-.57-1.82l5.84-4a1,1,0,0,1,1.13,1.65l-5.84,4A1,1,0,0,1,1499.56,3616.65Z"/><path class="cls-3" d="M1528.1,3552.91a1,1,0,0,1-.82-.43,8.71,8.71,0,0,1,14.34-9.88,1,1,0,1,1-1.65,1.13,6.71,6.71,0,0,0-11.05,7.61,1,1,0,0,1-.82,1.57Z"/><path class="cls-3" d="M1570.56,3608.69a8.71,8.71,0,0,1-7.19-3.77,1,1,0,1,1,1.65-1.13,6.71,6.71,0,0,0,11.05-7.61,1,1,0,1,1,1.65-1.13,8.7,8.7,0,0,1-7.16,13.64Z"/><path class="cls-3" d="M1486.4,3589.71a1,1,0,0,1-.69-1.72l5.65-5.4a4.78,4.78,0,0,0,1.05-5.41l-1.66-3.69a7.91,7.91,0,0,1,1.9-9.13l.84-.76a22.64,22.64,0,0,0,3.62-4.21,8,8,0,0,1,10.46-2.52l1.63.91a4.74,4.74,0,0,0,5.89-1l3.43-3.84a1,1,0,1,1,1.49,1.33l-3.43,3.84a6.73,6.73,0,0,1-8.36,1.4l-1.63-.91a6,6,0,0,0-7.82,1.88,24.71,24.71,0,0,1-3.95,4.58l-.84.76a5.91,5.91,0,0,0-1.42,6.83l1.66,3.69a6.78,6.78,0,0,1-1.49,7.67l-5.65,5.4A1,1,0,0,1,1486.4,3589.71Z"/><path class="cls-3" d="M1537.11,3635a7.91,7.91,0,0,1-5.61-2.34l-2.85-2.87a4.78,4.78,0,0,0-5.43-.95l-7.06,3.35a1,1,0,0,1-.86-1.81l7.06-3.35a6.78,6.78,0,0,1,7.7,1.34l2.85,2.87a5.91,5.91,0,0,0,6.88,1.1l1-.51a24.6,24.6,0,0,1,5.68-2.05,6,6,0,0,0,4.55-6.64l-.27-1.85a6.73,6.73,0,0,1,4.29-7.31l4.81-1.83a1,1,0,1,1,.71,1.87l-4.81,1.83a4.74,4.74,0,0,0-3,5.15l.27,1.85a8,8,0,0,1-6.08,8.88,22.61,22.61,0,0,0-5.22,1.89l-1,.51A7.93,7.93,0,0,1,1537.11,3635Z"/><path class="cls-1" d="M1076.19,498.31l118.1-106.72a2.37,2.37,0,0,0,.17-3.35l-51.92-57.46L1020.93,440.68l51.92,57.46A2.37,2.37,0,0,0,1076.19,498.31Z"/><path class="cls-1" d="M1016.83,444.38l-17.2,15.54,51.92,57.46a2.37,2.37,0,0,0,3.35.17l13.68-12.36a2.37,2.37,0,0,0,.17-3.35Z"/><rect class="cls-2" x="950.08" y="248.71" width="163.91" height="164.05" rx="2.37" ry="2.37" transform="translate(44.57 777.26) rotate(-42.1)"/><rect class="cls-2" x="946.94" y="315.13" width="23.18" height="164.05" rx="2.37" ry="2.37" transform="translate(-18.93 745.12) rotate(-42.1)"/><circle class="cls-1" cx="1017.85" cy="343.55" r="45.42" transform="translate(32.32 771.06) rotate(-42.1)"/><g class="cls-5"><path class="cls-3" d="M1028.49,401.69q-1.2,0-2.4-.06a46.34,46.34,0,1,1,2.4.06Zm-.11-90.84a44.48,44.48,0,1,0,2.3.06Q1029.53,310.84,1028.39,310.84Z"/></g><path class="cls-3" d="M1039.09,245.73a5.73,5.73,0,1,1,3.84-1.48h0A5.71,5.71,0,0,1,1039.09,245.73Zm0-9.47a3.74,3.74,0,1,0,2.77,1.23A3.72,3.72,0,0,0,1039.09,236.26Zm3.18,7.25h0Z"/><path class="cls-3" d="M1050.24,258.07h-.3a5.74,5.74,0,1,1,4.14-1.47h0A5.7,5.7,0,0,1,1050.24,258.07Zm0-9.47a3.74,3.74,0,1,0,2.51,6.51h0a3.74,3.74,0,0,0-2.51-6.51Z"/><path class="cls-3" d="M1123,338.62a5.72,5.72,0,0,1-4.26-1.89h0l-16.27-18A5.74,5.74,0,0,1,1111,311l16.28,18a5.73,5.73,0,0,1-4.25,9.58Zm-2.78-3.23a3.74,3.74,0,1,0,5.54-5l-16.28-18a3.74,3.74,0,1,0-5.54,5Z"/><path class="cls-3" d="M1173.5,411.38a1,1,0,0,1-.74-.33L1014.56,236a1,1,0,1,1,1.48-1.34l158.2,175.07a1,1,0,0,1-.74,1.67Z"/><rect class="cls-4" x="878.61" y="411.45" width="229.36" height="5.53" transform="translate(634.67 -600.47) rotate(47.9)"/><path class="cls-1" d="M328.64,448.39h88.55a2.37,2.37,0,0,1,2.37,2.37V638.64a2.37,2.37,0,0,1-2.37,2.37H328.64a0,0,0,0,1,0,0V448.39a0,0,0,0,1,0,0Z" transform="translate(162.7 -81.37) rotate(15.82)"/><path class="cls-2" d="M177.87,415.36H337.18a2.37,2.37,0,0,1,2.37,2.37V605.6a2.37,2.37,0,0,1-2.37,2.37H175.5a0,0,0,0,1,0,0V417.72a2.37,2.37,0,0,1,2.37-2.37Z" transform="matrix(0.96, 0.27, -0.27, 0.96, 149.28, -50.83)"/><path class="cls-3" d="M432,508.07a1,1,0,0,1-.27,0l-239.23-67.8a1,1,0,0,1,.54-1.92l239.23,67.8a1,1,0,0,1-.27,2Z"/><path class="cls-3" d="M246.79,439.8a5.74,5.74,0,1,1,5.52-4.17A5.72,5.72,0,0,1,246.79,439.8Zm0-9.48a3.75,3.75,0,1,0,1,.14A3.75,3.75,0,0,0,246.79,430.33Z"/><path class="cls-3" d="M307.37,457a5.74,5.74,0,1,1,5.52-4.17A5.72,5.72,0,0,1,307.37,457Zm0-9.47a3.74,3.74,0,1,0,1,.14A3.74,3.74,0,0,0,307.37,447.5Z"/><path class="cls-3" d="M291.63,457.1a1,1,0,0,1-.27,0l-34-9.63a1,1,0,0,1-.69-1.23l5.41-19.08a1,1,0,0,1,1.23-.69l34,9.63a1,1,0,0,1,.69,1.23l-5.41,19.08A1,1,0,0,1,291.63,457.1Zm-32.75-11.32,32.06,9.09,4.86-17.15-32.06-9.09Z"/><path class="cls-1" d="M179.28,472.79H319.8a2.37,2.37,0,0,1,2.37,2.37v131.7a0,0,0,0,1,0,0H176.91a0,0,0,0,1,0,0V475.16a2.37,2.37,0,0,1,2.37-2.37Z" transform="translate(156.65 -47.59) rotate(15.82)"/><path class="cls-2" d="M306.51,625.65,155.18,582.76a4.74,4.74,0,0,1-3.37-3.7L130.41,462.89a2.37,2.37,0,0,1,3-2.71l151.33,42.89a4.74,4.74,0,0,1,3.37,3.7l21.41,116.17A2.37,2.37,0,0,1,306.51,625.65Z"/><path class="cls-3" d="M269,520a1,1,0,0,1-.27,0L149.43,486.17a1,1,0,0,1,.54-1.92L269.3,518.06a1,1,0,0,1-.27,2Z"/><circle class="cls-3" cx="173.57" cy="491.97" r="3.16" transform="matrix(0.27, -0.96, 0.96, 0.27, -347.09, 524.81)"/><circle class="cls-3" cx="245.16" cy="512.26" r="3.16" transform="translate(-314.54 608.45) rotate(-74.18)"/><path class="cls-1" d="M252.11,6853.75h88.55a2.37,2.37,0,0,1,2.37,2.37V7044a2.37,2.37,0,0,1-2.37,2.37H252.11a0,0,0,0,1,0,0V6853.75a0,0,0,0,1,0,0Z" transform="translate(-5203.42 11208.1) rotate(-125.29)"/><path class="cls-2" d="M287.91,6952.65H447.22a2.37,2.37,0,0,1,2.37,2.37V7142.9a2.37,2.37,0,0,1-2.37,2.37H285.55a0,0,0,0,1,0,0V6955a2.37,2.37,0,0,1,2.37-2.37Z" transform="translate(-5173.71 11421.28) rotate(-125.29)"/><path class="cls-3" d="M372.52,7146.95a1,1,0,0,1-.82-.42L228,6943.57a1,1,0,0,1,1.63-1.16l143.65,203a1,1,0,0,1-.82,1.58Z"/><path class="cls-3" d="M327.21,7121.83a5.73,5.73,0,1,1,3.31-1.05A5.74,5.74,0,0,1,327.21,7121.83Zm0-9.47a3.71,3.71,0,0,0-2.15.69h0a3.73,3.73,0,1,0,2.79-.63A3.81,3.81,0,0,0,327.2,7112.36Zm-2.73-.13h0Z"/><path class="cls-3" d="M290.84,7070.44a5.73,5.73,0,1,1,3.31-1.05A5.74,5.74,0,0,1,290.84,7070.44Zm0-9.47a3.71,3.71,0,0,0-2.15.69h0a3.74,3.74,0,1,0,2.79-.63A3.81,3.81,0,0,0,290.82,7061Zm-2.73-.13h0Z"/><path class="cls-3" d="M310.36,7112.09a1,1,0,0,1-.82-.42l-20.41-28.84a1,1,0,0,1,.24-1.39L305.56,7070a1,1,0,0,1,1.39.24l20.41,28.84a1,1,0,0,1-.24,1.39l-16.19,11.46A1,1,0,0,1,310.36,7112.09Zm-19-29.6,19.25,27.2,14.55-10.3-19.25-27.2Z"/><path class="cls-1" d="M321.2,6965H461.72a2.37,2.37,0,0,1,2.37,2.37v131.7a0,0,0,0,1,0,0H318.83a0,0,0,0,1,0,0v-131.7A2.37,2.37,0,0,1,321.2,6965Z" transform="translate(-5122.21 11414.1) rotate(-125.29)"/><path class="cls-2" d="M401,6929.48l90.87,128.39a4.74,4.74,0,0,1,.3,5l-56.27,103.86a2.37,2.37,0,0,1-4,.24L341,7038.58a4.74,4.74,0,0,1-.3-5L397,6929.72A2.37,2.37,0,0,1,401,6929.48Z"/><path class="cls-3" d="M434.89,7138.24a1,1,0,0,1-.82-.42l-71.65-101.24a1,1,0,0,1,1.63-1.16l71.65,101.24a1,1,0,0,1-.82,1.58Z"/><circle class="cls-3" cx="420.56" cy="7116.99" r="3.16" transform="translate(-4034.32 1550.8) rotate(-35.29)"/><circle class="cls-3" cx="377.57" cy="7056.25" r="3.16" transform="translate(-4007.13 1514.8) rotate(-35.29)"/><path class="cls-1" d="M1298.38,4859.28h77.44a2.37,2.37,0,0,1,2.37,2.37v187.88a2.37,2.37,0,0,1-2.37,2.37h-77.44a0,0,0,0,1,0,0V4859.28a0,0,0,0,1,0,0Z" transform="translate(-2485.66 1531.22) rotate(-33.04)"/><rect class="cls-2" x="1160.67" y="4921.46" width="164.05" height="192.61" rx="2.37" ry="2.37" transform="translate(-2535.02 1489.15) rotate(-33.04)"/><path class="cls-3" d="M1205.85,5112.55a1,1,0,0,1-.55-1.84l142.15-92.46a1.37,1.37,0,0,0,.4-1.89l-59.83-92a1.37,1.37,0,0,0-1.89-.4L1144,5016.44a1,1,0,0,1-1.09-1.68L1285,4922.3a3.37,3.37,0,0,1,4.66,1l59.83,92a3.37,3.37,0,0,1-1,4.66l-142.15,92.46A1,1,0,0,1,1205.85,5112.55Z"/><rect class="cls-1" x="1188.03" y="4986.77" width="116.76" height="73.42" rx="2.37" ry="2.37" transform="translate(-2537.54 1492.1) rotate(-33.04)"/><path class="cls-3" d="M1155.21,4991a8,8,0,1,1,6.67-12.32h0a8,8,0,0,1-6.67,12.32Zm0-13.95a6,6,0,1,0,5,2.72h0a5.94,5.94,0,0,0-3.77-2.59A6,6,0,0,0,1155.18,4977Z"/><path class="cls-3" d="M1183.39,4972.63a8,8,0,1,1,6.67-12.32h0a8,8,0,0,1-6.67,12.32Zm0-13.95a6,6,0,1,0,5,2.72h0a5.93,5.93,0,0,0-3.77-2.59A6,6,0,0,0,1183.37,4958.68Z"/><path class="cls-3" d="M1218.2,4950a8,8,0,1,1,4.33-1.29A8,8,0,0,1,1218.2,4950Zm0-13.94a6,6,0,1,0,5,2.71A5.94,5.94,0,0,0,1218.18,4936Z"/><path class="cls-3" d="M1246.39,4931.66a8,8,0,0,1-1.67-.18,7.93,7.93,0,1,1,1.67.18Zm0-14a6,6,0,1,0,5,2.72h0a5.94,5.94,0,0,0-3.77-2.59A6,6,0,0,0,1246.36,4917.71Z"/><path class="cls-4" d="M1153.73,4940.91h42.37a2.37,2.37,0,0,1,2.37,2.37v3.16a0,0,0,0,1,0,0h-47.1a0,0,0,0,1,0,0v-3.16a2.37,2.37,0,0,1,2.37-2.37Z" transform="translate(-2505.58 1440.21) rotate(-33.04)"/><path class="cls-4" d="M1230.54,4887.06h54.33a2.37,2.37,0,0,1,2.37,2.37v3.16a0,0,0,0,1,0,0h-59.07a0,0,0,0,1,0,0v-3.16a2.37,2.37,0,0,1,2.37-2.37Z" transform="translate(-2462.83 1476.64) rotate(-33.04)"/><path class="cls-3" d="M1165,5017.64a1,1,0,0,1-.55-1.84l108.11-70.32a1,1,0,0,1,1.09,1.68l-108.11,70.32A1,1,0,0,1,1165,5017.64Z"/><path class="cls-3" d="M1232.68,5077.21a1,1,0,0,1-.84-.45l-40-61.54a1,1,0,1,1,1.68-1.09l40,61.54a1,1,0,0,1-.84,1.55Z"/><circle class="cls-3" cx="1187.9" cy="5001.77" r="3.16" transform="translate(-2535.16 1456.69) rotate(-33.04)"/><circle class="cls-3" cx="1250.28" cy="4961.19" r="3.16" transform="translate(-2502.95 1484.14) rotate(-33.04)"/><path class="cls-1" d="M162.37,5341.23H316.16a2.37,2.37,0,0,1,2.37,2.37v372.5a2.37,2.37,0,0,1-2.37,2.37H162.37a0,0,0,0,1,0,0V5341.23a0,0,0,0,1,0,0Z" transform="translate(-2523.76 734.41) rotate(-27.47)"/><rect class="cls-2" x="97.23" y="5375.09" width="156.15" height="377.24" rx="2.37" ry="2.37" transform="translate(-2546.73 708.18) rotate(-27.47)"/><path class="cls-3" d="M245.7,5568.55a1,1,0,0,1-.89-.54l-51.12-98.32a1,1,0,0,1,1.77-.92l51.12,98.32a1,1,0,0,1-.89,1.46Z"/><path class="cls-3" d="M134,5654.57a1,1,0,0,1-.46-1.89l203.69-105.9a1,1,0,1,1,.92,1.77l-203.69,105.9A1,1,0,0,1,134,5654.57Z"/><path class="cls-3" d="M179.57,5654.2a1,1,0,0,1-.46-1.89l73.54-38.24a1,1,0,1,1,.92,1.77L180,5654.09A1,1,0,0,1,179.57,5654.2Z"/><path class="cls-3" d="M129.9,5422.31a5.76,5.76,0,0,1-1.73-.27,5.74,5.74,0,0,1-.92-10.56l21.54-11.2a5.74,5.74,0,0,1,5.29,10.18l-21.54,11.2A5.71,5.71,0,0,1,129.9,5422.31Zm21.52-20.67a3.71,3.71,0,0,0-1.72.42l-21.54,11.2a3.74,3.74,0,0,0,3.45,6.63l21.54-11.2h0a3.74,3.74,0,0,0-1.73-7.05Z"/><rect class="cls-1" x="134.33" y="5501.61" width="63.94" height="89.55" rx="2.37" ry="2.37" transform="translate(-2539.75 702.07) rotate(-27.47)"/><path class="cls-3" d="M172.85,5594.43a1,1,0,0,1-.89-.54l-41.31-79.45a1,1,0,1,1,1.77-.92L173.74,5593a1,1,0,0,1-.89,1.46Z"/><path class="cls-4" d="M146.41,5502.19h18.95a0,0,0,0,1,0,0v11.08a2.37,2.37,0,0,1-2.37,2.37H148.77a2.37,2.37,0,0,1-2.37-2.37v-11.08A0,0,0,0,1,146.41,5502.19Z" transform="translate(-2523.64 693.04) rotate(-27.47)"/><circle class="cls-3" cx="202.97" cy="5485.37" r="3.16" transform="translate(-2507.47 712.11) rotate(-27.47)"/><circle class="cls-3" cx="237.3" cy="5551.4" r="3.16" transform="translate(-2534.06 735.39) rotate(-27.47)"/><rect class="cls-1" x="1430.09" y="52.69" width="21.86" height="46.83" transform="translate(2747.11 -537.42) rotate(151.82)"/><rect class="cls-1" x="1414.25" y="36.45" width="39.85" height="15.7" transform="translate(2719.22 -594.03) rotate(151.82)"/><path class="cls-1" d="M1448,90.5h35.11a4.74,4.74,0,0,1,4.74,4.74v29a0,0,0,0,1,0,0H1448a0,0,0,0,1,0,0V90.5A0,0,0,0,1,1448,90.5Z" transform="translate(2812.58 -491.36) rotate(151.82)"/><path class="cls-2" d="M1479.57,69.7H1534a4.74,4.74,0,0,1,4.74,4.74V101a2.37,2.37,0,0,1-2.37,2.37H1477.2a2.37,2.37,0,0,1-2.37-2.37V74.43a4.74,4.74,0,0,1,4.74-4.74Z" transform="translate(2875.78 -548.83) rotate(151.82)"/><path class="cls-3" d="M1497.74,98.82a1,1,0,0,1-.88-.53l-5.34-10a1,1,0,0,1,.41-1.35l23.43-12.55a1,1,0,0,1,1.35.41l5.34,10a1,1,0,0,1-.41,1.35L1498.21,98.7A1,1,0,0,1,1497.74,98.82Zm-4-10.56,4.4,8.21,21.66-11.61-4.4-8.21Z"/><path class="cls-2" d="M1448.56,14.16H1503a4.74,4.74,0,0,1,4.74,4.74v11a0,0,0,0,1,0,0h-63.91a0,0,0,0,1,0,0v-11A4.74,4.74,0,0,1,1448.56,14.16Z" transform="translate(2786.96 -655.62) rotate(151.82)"/><path class="cls-2" d="M1439.9,36.17h61.54a2.37,2.37,0,0,1,2.37,2.37V80.63a2.37,2.37,0,0,1-2.37,2.37H1439.9a0,0,0,0,1,0,0V36.17A0,0,0,0,1,1439.9,36.17Z" transform="translate(2797.32 -583.08) rotate(151.82)"/><path class="cls-4" d="M1451.28,35.37h33.35a2.37,2.37,0,0,1,2.37,2.37v1.62a0,0,0,0,1,0,0h-38.09a0,0,0,0,1,0,0V37.74a2.37,2.37,0,0,1,2.37-2.37Z" transform="translate(2779.51 -623.04) rotate(151.82)"/><path class="cls-3" d="M1417.34,56.07a1,1,0,0,1-.47-1.88l87.33-46.79a1,1,0,1,1,.95,1.76l-87.33,46.79A1,1,0,0,1,1417.34,56.07Z"/><path class="cls-3" d="M1464.58,113.63a4.47,4.47,0,0,1-3.93-2.35h0a4.45,4.45,0,1,1,3.93,2.35Zm0-6.91a2.46,2.46,0,0,0-2.16,3.61h0a2.45,2.45,0,1,0,2.87-3.51A2.46,2.46,0,0,0,1464.57,106.72Z"/><path class="cls-4" d="M1464.93,84.75l8.47-4.54a2.37,2.37,0,0,1,3.21,1l1,1.88,23-12.35-6.09-11.37a2.37,2.37,0,0,0-3.21-1l-18.87,10.11a2.37,2.37,0,0,0-1,3.21l.63,1.18a2.37,2.37,0,0,1-1,3.21l-8.59,4.6a2.34,2.34,0,0,0-.9,3.28A2.43,2.43,0,0,0,1464.93,84.75Z"/><rect class="cls-1" x="1470.85" y="5428.93" width="21.86" height="46.83" transform="translate(7012.08 6609.66) rotate(117.02)"/><rect class="cls-1" x="1438.09" y="5422.27" width="39.85" height="15.7" transform="translate(6957.73 6598.51) rotate(117.02)"/><path class="cls-1" d="M1501.82,5445.77h35.11a4.74,4.74,0,0,1,4.74,4.74v29a0,0,0,0,1,0,0h-39.85a0,0,0,0,1,0,0v-33.72A0,0,0,0,1,1501.82,5445.77Z" transform="translate(7079.37 6589.02) rotate(117.02)"/><path class="cls-2" d="M1514.53,5406.54H1569a4.74,4.74,0,0,1,4.74,4.74v26.61a2.37,2.37,0,0,1-2.37,2.37h-59.17a2.37,2.37,0,0,1-2.37-2.37v-26.61a4.74,4.74,0,0,1,4.74-4.74Z" transform="translate(7073.52 6514.14) rotate(117.02)"/><path class="cls-3" d="M1540.75,5438.8a1,1,0,0,1-.45-.11l-10.08-5.14a1,1,0,0,1-.44-1.35l12.08-23.68a1,1,0,0,1,1.34-.44l10.08,5.14a1,1,0,0,1,.44,1.35l-12.08,23.68A1,1,0,0,1,1540.75,5438.8Zm-8.73-6.58,8.3,4.23,11.17-21.89-8.3-4.23Z"/><path class="cls-2" d="M1452.24,5380.23h54.43a4.74,4.74,0,0,1,4.74,4.74v11a0,0,0,0,1,0,0h-63.91a0,0,0,0,1,0,0v-11A4.74,4.74,0,0,1,1452.24,5380.23Z" transform="translate(6951.47 6518.26) rotate(117.02)"/><path class="cls-2" d="M1465.72,5397.76h61.54a2.37,2.37,0,0,1,2.37,2.37v42.09a2.37,2.37,0,0,1-2.37,2.37h-61.54a0,0,0,0,1,0,0v-46.83a0,0,0,0,1,0,0Z" transform="translate(7007.44 6550.17) rotate(117.02)"/><path class="cls-4" d="M1465.12,5403.16h33.35a2.37,2.37,0,0,1,2.37,2.37v1.62a0,0,0,0,1,0,0h-38.09a0,0,0,0,1,0,0v-1.62A2.37,2.37,0,0,1,1465.12,5403.16Z" transform="translate(6970.08 6541.01) rotate(117.02)"/><path class="cls-3" d="M1450.33,5449.57a1,1,0,0,1-.89-1.45l45-88.26a1,1,0,0,1,1.78.91l-45,88.26A1,1,0,0,1,1450.33,5449.57Z"/><path class="cls-3" d="M1520,5470.51a4.44,4.44,0,0,1-2-.49h0a4.42,4.42,0,1,1,2,.49Zm0-6.91a2.45,2.45,0,0,0-1.12,4.64h0a2.45,2.45,0,1,0,1.12-4.64Z"/><path class="cls-4" d="M1506.35,5445.79l4.37-8.56a2.37,2.37,0,0,1,3.19-1l1.9,1,11.88-23.29-11.49-5.86a2.37,2.37,0,0,0-3.19,1l-9.73,19.07a2.37,2.37,0,0,0,1,3.19l1.19.61a2.37,2.37,0,0,1,1,3.19l-4.43,8.68a2.34,2.34,0,0,0,1.14,3.21A2.43,2.43,0,0,0,1506.35,5445.79Z"/><path class="cls-3" d="M174,2856.49a1,1,0,0,1-.41-.09l-45.46-20.56A1,1,0,1,1,129,2834l45.46,20.56a1,1,0,0,1-.41,1.91Z"/><path class="cls-3" d="M174,2856.49a1,1,0,0,1-.87-.5L143,2803.78a1,1,0,1,1,1.73-1L174.89,2855a1,1,0,0,1-.86,1.5Z"/><path class="cls-1" d="M207.43,2815.2h56.81a7.1,7.1,0,0,1,7.1,7.1v100.63a7.1,7.1,0,0,1-7.1,7.1H207.43a0,0,0,0,1,0,0V2815.2a0,0,0,0,1,0,0Z" transform="translate(-1911.55 953.59) rotate(-43.5)"/><rect class="cls-2" x="94.52" y="2880.51" width="152.08" height="114.84" rx="7.1" ry="7.1" transform="translate(-1975.41 924.15) rotate(-43.5)"/><rect class="cls-4" x="150.11" y="2961.12" width="161.69" height="7.1" transform="translate(-1977.24 973.06) rotate(-43.5)"/><rect class="cls-1" x="111.14" y="2901.78" width="100.31" height="89.88" rx="2.37" ry="2.37" transform="translate(-1984.01 920.18) rotate(-43.5)"/><path class="cls-3" d="M232.89,2932a10.73,10.73,0,1,1,7.79-18.12h0a10.73,10.73,0,0,1-7.79,18.12Zm0-19.46a8.73,8.73,0,1,0,6.34,2.72A8.7,8.7,0,0,0,232.89,2912.5Z"/><path class="cls-3" d="M208.08,2910.22a1,1,0,0,1-.73-.31l-6.08-6.41a1,1,0,0,1,0-1.41l14.13-13.4a1,1,0,0,1,1.41,0l6.08,6.41a1,1,0,0,1,0,1.41l-14.13,13.4A1,1,0,0,1,208.08,2910.22Zm-4.66-7.37,4.7,5,12.68-12-4.7-5Z"/><path class="cls-3" d="M192.23,2893.52a1,1,0,0,1-.69-1.73l14.13-13.4a1,1,0,0,1,1.38,1.45l-14.13,13.4A1,1,0,0,1,192.23,2893.52Z"/><path class="cls-3" d="M187.07,2888.08a1,1,0,0,1-.69-1.73L200.5,2873a1,1,0,1,1,1.38,1.45l-14.13,13.4A1,1,0,0,1,187.07,2888.08Z"/><path class="cls-3" d="M181.9,2882.64a1,1,0,0,1-.69-1.73l14.13-13.4a1,1,0,1,1,1.38,1.45l-14.13,13.4A1,1,0,0,1,181.9,2882.64Z"/><path class="cls-3" d="M176.74,2877.2a1,1,0,0,1-.69-1.73l14.13-13.4a1,1,0,1,1,1.38,1.45l-14.13,13.4A1,1,0,0,1,176.74,2877.2Z"/><path class="cls-3" d="M164.85,3006.3a1,1,0,0,1-.73-.31l-61.87-65.2a1,1,0,0,1,1.45-1.38l61.87,65.2a1,1,0,0,1-.73,1.69Z"/><path class="cls-4" d="M154.27,2848.36h33.82a8.26,8.26,0,0,1,8.26,8.26v0a0,0,0,0,1,0,0H146a0,0,0,0,1,0,0v0a8.26,8.26,0,0,1,8.26-8.26Z" transform="translate(-1916.43 901.11) rotate(-43.5)"/><rect class="cls-1" x="1299.55" y="1622.97" width="285.92" height="187.33" rx="2.37" ry="2.37" transform="translate(1208.87 -513.41) rotate(34.06)"/><rect class="cls-2" x="1286.64" y="1614.24" width="285.92" height="187.33" rx="2.37" ry="2.37" transform="translate(1201.76 -507.67) rotate(34.06)"/><rect class="cls-1" x="1296.24" y="1631.25" width="263.34" height="158.29" rx="2.37" ry="2.37" transform="translate(1202.87 -506.3) rotate(34.06)"/><circle class="cls-3" cx="1477.33" cy="1637.3" r="3.16" transform="translate(-706.49 1944.22) rotate(-55.94)"/><path class="cls-3" d="M1401.81,1795.12a1,1,0,0,1-.56-.17l-41.86-28.3a1,1,0,1,1,1.12-1.66l41.86,28.3a1,1,0,0,1-.56,1.83Z"/><rect class="cls-4" x="1278.45" y="1794.82" width="195.88" height="11.42" rx="2.37" ry="2.37" transform="translate(1244.5 -461.99) rotate(34.06)"/><rect class="cls-4" x="1348.51" y="1789.25" width="66.17" height="7.15" transform="translate(1241.09 -466.22) rotate(34.06)"/><rect class="cls-1" x="1174.57" y="5980.66" width="285.92" height="187.33" rx="2.37" ry="2.37" transform="translate(-3013.19 1615.83) rotate(-31.93)"/><rect class="cls-2" x="1161.33" y="5988.91" width="285.92" height="187.33" rx="2.37" ry="2.37" transform="translate(-3019.55 1610.08) rotate(-31.93)"/><rect class="cls-1" x="1174.21" y="6005.98" width="263.34" height="158.29" rx="2.37" ry="2.37" transform="translate(-3020.66 1611.3) rotate(-31.93)"/><circle class="cls-3" cx="1259.22" cy="6010.24" r="3.16" transform="translate(-2988.12 1575.3) rotate(-31.93)"/><path class="cls-3" d="M1328.86,6170.75a1,1,0,0,1-.53-1.85l42.88-26.72a1,1,0,0,1,1.06,1.7l-42.88,26.72A1,1,0,0,1,1328.86,6170.75Z"/><rect class="cls-4" x="1269.31" y="6163.15" width="195.88" height="11.42" rx="2.37" ry="2.37" transform="translate(-3055.66 1656.43) rotate(-31.93)"/><rect class="cls-4" x="1329.25" y="6157.4" width="66.17" height="7.15" transform="translate(-3052.24 1652.64) rotate(-31.93)"/><path class="cls-1" d="M1406.72,2279.39a49.83,49.83,0,0,1,69.56,11.31l13.06,18.13-80.87,58.26L1395.41,2349A49.83,49.83,0,0,1,1406.72,2279.39Z"/><circle class="cls-2" cx="1449.69" cy="2339.04" r="49.83" transform="translate(-1093.74 1288.47) rotate(-35.77)"/><circle class="cls-1" cx="1449.69" cy="2339.04" r="21.97" transform="translate(-1093.74 1288.47) rotate(-35.77)"/><g class="cls-6"><path class="cls-3" d="M1435.88,2342.78a23,23,0,0,1-13.46-41.59h0a23,23,0,1,1,13.46,41.59Zm-12.29-40a21,21,0,1,0,29.27,4.76,20.83,20.83,0,0,0-29.27-4.76Z"/></g><path class="cls-1" d="M1411,3488.75l4.95-3.12,3.72.85,2.67-1.68-1.44-2.28,1.9-1.2,3.72.85,4.95-3.12a1.8,1.8,0,0,0,.56-2.48l-9.11-14.47a1.8,1.8,0,0,0-2.48-.56l-19,12a1.8,1.8,0,0,0-.56,2.48l7.67,12.18a1.8,1.8,0,0,0,2.48.56"/><path class="cls-2" d="M1412.25,3490.81l4.95-3.12,3.72.85,2.67-1.68-1.44-2.28,1.9-1.2,3.72.85,4.95-3.12a1.8,1.8,0,0,0,.56-2.48l-9.11-14.47a1.8,1.8,0,0,0-2.48-.56l-19,12a1.8,1.8,0,0,0-.56,2.48l7.67,12.18a1.8,1.8,0,0,0,2.48.56"/><path class="cls-3" d="M1428.13,3479.15a1,1,0,0,1-.85-.47l-7-11a1,1,0,0,1,1.69-1.07l7,11a1,1,0,0,1-.85,1.53Z"/><path class="cls-3" d="M1406.81,3479.28a1,1,0,0,1-.53-1.85l3-1.92a1,1,0,0,1,1.07,1.69l-3,1.92A1,1,0,0,1,1406.81,3479.28Z"/><path class="cls-3" d="M1409.18,3483a1,1,0,0,1-.53-1.85l3-1.92a1,1,0,1,1,1.07,1.69l-3,1.92A1,1,0,0,1,1409.18,3483Z"/><path class="cls-3" d="M1411.56,3486.82a1,1,0,0,1-.53-1.85l3-1.92a1,1,0,0,1,1.07,1.69l-3,1.92A1,1,0,0,1,1411.56,3486.82Z"/><path class="cls-1" d="M741.3,1317.62l-18.05-22a3.17,3.17,0,0,0-4.46-.44l-47.09,38.66a3.17,3.17,0,0,0-.44,4.46l18.05,22a3.17,3.17,0,0,0,4.46.44l47.09-38.66A3.17,3.17,0,0,0,741.3,1317.62Z"/><path class="cls-2" d="M738.79,1314.56l-18.05-22a3.17,3.17,0,0,0-4.46-.44l-47.09,38.66a3.17,3.17,0,0,0-.44,4.46l18.05,22a3.17,3.17,0,0,0,4.46.44L738.35,1319A3.17,3.17,0,0,0,738.79,1314.56Z"/><path class="cls-1" d="M713.53,1298.41a.79.79,0,0,0-1.11-.11l-26.28,21.57h0L676,1328.19a.79.79,0,0,0-.11,1.11L694,1351.39a.79.79,0,0,0,1.11.11l10.14-8.33h0l26.28-21.57a.79.79,0,0,0,.11-1.11Z"/><circle class="cls-3" cx="681.36" cy="1343.29" r="2.32" transform="translate(-697.56 737.27) rotate(-39.38)"/><circle class="cls-3" cx="721.03" cy="1300.23" r="1.16" transform="matrix(0.77, -0.63, 0.63, 0.77, -661.23, 752.66)"/><path class="cls-3" d="M728.62,1310.48a1,1,0,0,1-.77-.37l-4.88-6a1,1,0,1,1,1.55-1.27l4.88,6a1,1,0,0,1-.77,1.63Z"/><path class="cls-1" d="M1384.57,1017.36l24.54,41.81a3.17,3.17,0,0,0,4.34,1.13l69-40.47a3.17,3.17,0,0,0,1.13-4.34L1459,973.69a3.17,3.17,0,0,0-4.34-1.13l-69,40.47A3.17,3.17,0,0,0,1384.57,1017.36Z"/><path class="cls-2" d="M1386.58,1020.78l24.54,41.81a3.17,3.17,0,0,0,4.34,1.13l69-40.47a3.17,3.17,0,0,0,1.13-4.34L1461,977.1a3.17,3.17,0,0,0-4.34-1.13l-69,40.47A3.17,3.17,0,0,0,1386.58,1020.78Z"/><path class="cls-1" d="M1418.86,1058.18a.79.79,0,0,0,1.08.28l41.27-24.22h0l16.1-9.45a.79.79,0,0,0,.28-1.08l-24.65-42a.79.79,0,0,0-1.08-.28l-16.1,9.45h0l-41.27,24.22a.79.79,0,0,0-.28,1.08Z"/><circle class="cls-3" cx="1406.8" cy="1046.43" r="1.16" transform="matrix(0.86, -0.51, 0.51, 0.86, -336.15, 856.07)"/><rect class="cls-3" x="1464.12" y="998.04" width="10.28" height="4.64" rx="2.32" ry="2.32" transform="translate(1350.26 2773.85) rotate(-120.41)"/><path class="cls-3" d="M1404.64,1043.75a1,1,0,0,1-.86-.49l-3.9-6.64a1,1,0,1,1,1.72-1l3.9,6.64a1,1,0,0,1-.86,1.51Z"/><rect class="cls-1" x="797.31" y="2205.78" width="40.37" height="67.26" rx="9.47" ry="9.47" transform="translate(1062.74 -131.9) rotate(25.96)"/><rect class="cls-2" x="793.76" y="2204.05" width="40.37" height="67.26" rx="9.47" ry="9.47" transform="translate(1061.63 -130.52) rotate(25.96)"/><rect class="cls-1" x="801.28" y="2215.26" width="35.28" height="24.38" rx="0.79" ry="0.79" transform="translate(1057.65 -133.73) rotate(25.96)"/><path class="cls-3" d="M830.56,2215.82a1,1,0,0,1-.44-.1l-8.87-4.32a1,1,0,1,1,.88-1.8l8.87,4.32a1,1,0,0,1-.44,1.9Z"/><path class="cls-3" d="M822.52,2252.34a1,1,0,0,1-.44-.1l-24.62-12a1,1,0,1,1,.88-1.8l24.62,12a1,1,0,0,1-.44,1.9Z"/><path class="cls-3" d="M819.49,2258.56a1,1,0,0,1-.44-.1l-24.62-12a1,1,0,1,1,.88-1.8l24.62,12a1,1,0,0,1-.44,1.9Z"/><path class="cls-3" d="M816.46,2264.78a1,1,0,0,1-.44-.1l-24.62-12a1,1,0,1,1,.88-1.8l24.62,12a1,1,0,0,1-.44,1.9Z"/><path class="cls-3" d="M797.5,2260.34a1,1,0,0,1-.9-1.44l9.54-19.59a1,1,0,0,1,1.8.88l-9.54,19.59A1,1,0,0,1,797.5,2260.34Z"/><path class="cls-3" d="M807,2265a1,1,0,0,1-.9-1.44l9.54-19.59a1,1,0,0,1,1.8.88l-9.54,19.59A1,1,0,0,1,807,2265Z"/><path class="cls-3" d="M979.44,1618.75a1,1,0,0,1-.82-.42l-8.16-11.6a1,1,0,0,1,1.64-1.15l8.16,11.6a1,1,0,0,1-.82,1.58Z"/><path class="cls-1" d="M937.77,1530.35h27.69a4.22,4.22,0,0,1,4.22,4.22v71.55a4.22,4.22,0,0,1-4.22,4.22H937.77a2.11,2.11,0,0,1-2.11-2.11v-75.77a2.11,2.11,0,0,1,2.11-2.11Z" transform="translate(2635.28 2306.82) rotate(144.88)"/><path class="cls-2" d="M942.76,1528.32h25.58a4.22,4.22,0,0,1,4.22,4.22v71.55a4.22,4.22,0,0,1-4.22,4.22h-29.8a0,0,0,0,1,0,0v-75.77A4.22,4.22,0,0,1,942.76,1528.32Z" transform="translate(2639.35 2301.49) rotate(144.88)"/><path class="cls-2" d="M945.76,1584,973,1564.8a4.22,4.22,0,0,1,5.88,1l14,19.95a4.22,4.22,0,0,1-1,5.88l-24.38,17.14Z"/><path class="cls-2" d="M922.08,1543l23.8-16.74a4.22,4.22,0,0,1,5.88,1l5.93,8.43a4.22,4.22,0,0,1-1,5.88l-27.25,19.17-8.36-11.89A4.22,4.22,0,0,1,922.08,1543Z"/><rect class="cls-1" x="956.92" y="1575.6" width="27.28" height="22" rx="4.22" ry="4.22" transform="translate(2677.14 2326.08) rotate(144.88)"/><path class="cls-3" d="M946,1577a1,1,0,0,1-.58-1.82l20-14a1,1,0,1,1,1.15,1.64l-20,14A1,1,0,0,1,946,1577Z"/><path class="cls-3" d="M942.08,1571.39a1,1,0,0,1-.58-1.82l20-14a1,1,0,1,1,1.15,1.64l-20,14A1,1,0,0,1,942.08,1571.39Z"/><path class="cls-3" d="M938.12,1565.76a1,1,0,0,1-.58-1.82l20-14a1,1,0,1,1,1.15,1.64l-20,14A1,1,0,0,1,938.12,1565.76Z"/><path class="cls-3" d="M962.56,1571.08a1,1,0,0,1-.82-.42l-13.61-19.35a1,1,0,0,1,1.64-1.15l13.61,19.35a1,1,0,0,1-.82,1.58Z"/><path class="cls-3" d="M954.83,1576.52a1,1,0,0,1-.82-.42l-13.61-19.35a1,1,0,0,1,1.64-1.15l13.61,19.35a1,1,0,0,1-.82,1.58Z"/><path class="cls-3" d="M930.06,1553.73a1,1,0,0,1-.58-1.82l22.31-15.69a1,1,0,1,1,1.15,1.64l-22.31,15.69A1,1,0,0,1,930.06,1553.73Z"/><path class="cls-3" d="M927.3,1549.8a1,1,0,0,1-.58-1.82L949,1532.29a1,1,0,1,1,1.15,1.64l-22.31,15.69A1,1,0,0,1,927.3,1549.8Z"/><path class="cls-1" d="M179.07,986.16l8.46,7.5a.79.79,0,0,0,1.11-.07L203,977.45a.79.79,0,0,0-.07-1.11l-8.46-7.5a4.74,4.74,0,0,0-6.69.4l-9.07,10.24A4.74,4.74,0,0,0,179.07,986.16Z"/><path class="cls-4" d="M179,972.74l2.09-2.36a3.14,3.14,0,0,1,2.62-1.05l3.67.3L179,979.08l-.74-3.61a3.14,3.14,0,0,1,.73-2.73"/><path class="cls-2" d="M197.9,983.16l4.19-4.72,24.41,21.64a3.16,3.16,0,1,1-4.19,4.72Z"/><path class="cls-2" d="M193.71,987.88l4.19-4.72,27.56,24.44a3.16,3.16,0,0,1-4.19,4.72Z"/><path class="cls-2" d="M189.53,992.61l4.19-4.72,24.41,21.64a3.16,3.16,0,1,1-4.19,4.72Z"/><path class="cls-3" d="M184.45,991.92a1,1,0,0,1-.75-1.66l15.36-17.32a1,1,0,1,1,1.5,1.33L185.2,991.59A1,1,0,0,1,184.45,991.92Z"/><path class="cls-3" d="M180,988a1,1,0,0,1-.75-1.66L194.6,969a1,1,0,1,1,1.5,1.33l-15.36,17.32A1,1,0,0,1,180,988Z"/><path class="cls-2" d="M560.06,4085.83l-11.29-5.66h0a16.51,16.51,0,0,1,1.7-8.09l8.21-16.37a8.42,8.42,0,0,1,15.05,7.55l-8.21,16.37a16.21,16.21,0,0,1-5.47,6.21Z"/><path class="cls-3" d="M554.41,4084a1,1,0,0,1-.89-1.45l13.54-27a1,1,0,1,1,1.79.9l-13.54,27A1,1,0,0,1,554.41,4084Z"/><path class="cls-3" d="M560.48,4082.33a1,1,0,0,1-.45-.11l-6.95-3.48a2.58,2.58,0,0,1-1.15-3.46l.42-.85a2.58,2.58,0,0,1,3.46-1.15l5.53,2.77a.58.58,0,0,0,.78-.26l.43-.85a.58.58,0,0,0-.26-.78l-5.53-2.77a2.58,2.58,0,0,1-1.15-3.46l.42-.85a2.58,2.58,0,0,1,3.46-1.15l5.53,2.77a.58.58,0,0,0,.78-.26l.43-.85a.58.58,0,0,0-.26-.78l-5.53-2.77a2.58,2.58,0,0,1-1.15-3.46l.43-.85a2.58,2.58,0,0,1,3.46-1.15l5.53,2.77a.58.58,0,0,0,.78-.26l.43-.85a.58.58,0,0,0-.26-.78l-6.95-3.48a1,1,0,0,1,.9-1.79l6.95,3.48a2.58,2.58,0,0,1,1.15,3.46l-.43.85a2.58,2.58,0,0,1-3.46,1.15l-5.53-2.77a.58.58,0,0,0-.78.26l-.43.85a.58.58,0,0,0,.26.78l5.53,2.77a2.58,2.58,0,0,1,1.15,3.46l-.43.85a2.58,2.58,0,0,1-3.46,1.15l-5.53-2.77a.58.58,0,0,0-.78.26l-.42.85a.57.57,0,0,0,0,.44.58.58,0,0,0,.29.34l5.53,2.77a2.58,2.58,0,0,1,1.15,3.46l-.43.85a2.58,2.58,0,0,1-3.46,1.15l-5.53-2.77a.58.58,0,0,0-.78.26l-.42.85a.57.57,0,0,0,0,.44.58.58,0,0,0,.29.34l6.95,3.48a1,1,0,0,1-.45,1.89Z"/><path class="cls-4" d="M541.21,4102.28l1.41-2.82,5.64,2.83-1.41,2.82a3.16,3.16,0,0,1-4.24,1.41h0A3.16,3.16,0,0,1,541.21,4102.28Z"/><path class="cls-1" d="M547.59,4079.58a.79.79,0,0,0-1.06.35l-4,8a14.23,14.23,0,0,0-1.13,9.92,2.39,2.39,0,0,0,1.25,1.56l5.67,2.84a2.39,2.39,0,0,0,2,.07,14.23,14.23,0,0,0,7.27-6.84l4-8a.79.79,0,0,0-.35-1.06Z"/><path class="cls-2" d="M819.45,6257.75l9.83-7.93h0a16.51,16.51,0,0,1,6.66,4.9l11.5,14.25a8.42,8.42,0,0,1-13.11,10.57l-11.5-14.25a16.21,16.21,0,0,1-3.38-7.55Z"/><path class="cls-3" d="M843.33,6278.3a1,1,0,0,1-.78-.37l-19-23.51a1,1,0,1,1,1.56-1.26l19,23.51a1,1,0,0,1-.78,1.63Z"/><path class="cls-3" d="M839.08,6279.54a2.58,2.58,0,0,1-2-1l-.6-.74a2.58,2.58,0,0,1,.39-3.63l4.82-3.89a.58.58,0,0,0,.09-.81l-.6-.74a.57.57,0,0,0-.39-.21.57.57,0,0,0-.42.13l-4.82,3.89a2.58,2.58,0,0,1-3.63-.39l-.6-.74a2.58,2.58,0,0,1,.39-3.63l4.82-3.89a.58.58,0,0,0,.09-.81l-.6-.74a.58.58,0,0,0-.81-.09l-4.82,3.89a2.58,2.58,0,0,1-3.63-.39l-.6-.74a2.58,2.58,0,0,1,.39-3.63l4.82-3.89a.58.58,0,0,0,.09-.81l-.6-.74a.58.58,0,0,0-.81-.09l-6,4.88a1,1,0,1,1-1.26-1.56l6-4.88a2.58,2.58,0,0,1,3.63.39l.6.74a2.58,2.58,0,0,1-.39,3.63l-4.82,3.89a.58.58,0,0,0-.09.81l.6.74a.58.58,0,0,0,.81.09l4.82-3.89a2.58,2.58,0,0,1,3.63.39l.6.74a2.58,2.58,0,0,1-.39,3.63l-4.82,3.89a.58.58,0,0,0-.09.81l.6.74a.58.58,0,0,0,.81.09l4.82-3.89a2.58,2.58,0,0,1,3.63.39l.6.74a2.58,2.58,0,0,1-.39,3.63l-4.82,3.89a.58.58,0,0,0-.09.81l.6.74a.58.58,0,0,0,.81.09l6-4.88a1,1,0,1,1,1.26,1.56l-6,4.88A2.57,2.57,0,0,1,839.08,6279.54Z"/><path class="cls-4" d="M812.29,6233.79l2,2.46-4.91,4-2-2.46a3.16,3.16,0,0,1,.48-4.44h0A3.16,3.16,0,0,1,812.29,6233.79Z"/><path class="cls-1" d="M830.3,6249a.79.79,0,0,0,.12-1.11l-5.65-7a14.23,14.23,0,0,0-8.56-5.14,2.39,2.39,0,0,0-1.94.49l-4.94,4a2.39,2.39,0,0,0-.89,1.79,14.23,14.23,0,0,0,3.21,9.45l5.65,7a.79.79,0,0,0,1.11.12Z"/><path class="cls-2" d="M364.66,2003a14.45,14.45,0,1,0-23.18-15.67,40.43,40.43,0,0,1-11.12,17l-1.06.94,9.58,10.85.33-.29a39.81,39.81,0,0,1,18.65-9.51A14.34,14.34,0,0,0,364.66,2003Z"/><path class="cls-3" d="M332.18,2009.61a1,1,0,0,1-.66-1.75l17.65-15.6a1,1,0,0,1,1.32,1.5l-17.65,15.6A1,1,0,0,1,332.18,2009.61Z"/><path class="cls-3" d="M336,2013.95a1,1,0,0,1-.66-1.75L353,1996.6a1,1,0,0,1,1.32,1.5l-17.65,15.6A1,1,0,0,1,336,2013.95Z"/><path class="cls-1" d="M321.74,2008.55h14.82a.79.79,0,0,1,.79.79v10a2.37,2.37,0,0,1-2.37,2.37H323.32a2.37,2.37,0,0,1-2.37-2.37v-10a.79.79,0,0,1,.79-.79Z" transform="translate(1621.24 434.12) rotate(48.53)"/><path class="cls-4" d="M322.55,2022.9l-1.91-2.16a3.16,3.16,0,0,1-.69-2.87l.63-2.46,7.25,8.21-2.52.32A3.16,3.16,0,0,1,322.55,2022.9Z"/><path class="cls-2" d="M1334.41,3010.92l-.63,2.33a50.65,50.65,0,0,1-10.8,20.09l-2.33,2.66a.41.41,0,0,1-.65,0l-21.59-33.44.47-.46a50.65,50.65,0,0,0,13.73-25.19h0a.19.19,0,0,1,.35-.06l21.28,33a1.44,1.44,0,0,1,.18,1.16"/><path class="cls-2" d="M1312.59,2976.86h0a.19.19,0,0,1,.26-.14,2,2,0,0,0-.16-.32c-2.29-3.54-15.62,1-29.79,10.15s-23.79,19.43-21.51,23,15.62-1,29.79-10.15c9.36-6,16.73-12.58,20-17.34a50.55,50.55,0,0,0,1.41-5.17"/><path class="cls-1" d="M1288.15,2994.85a56.63,56.63,0,0,1-12.92,6.46.62.62,0,0,1-.65-1,56.63,56.63,0,0,1,11.2-9.12,57.77,57.77,0,0,1,12.57-6.34.62.62,0,0,1,.63,1,61.63,61.63,0,0,1-6.65,6.09c-1.31,1-2.72,2-4.18,2.9"/><path class="cls-1" d="M1298.4,3002.51l.47-.46a50.64,50.64,0,0,0,12.26-19.8s0-.06-.05,0c-3.33,4.75-10.64,11.2-19.88,17.17-14.17,9.15-27.5,13.69-29.79,10.15l21.29,33c2.29,3.54,15.62-1,29.79-10.15q1.87-1.21,3.62-2.43l-17.7-27.41Z"/><path class="cls-3" d="M1278.16,3010.35a1,1,0,0,1-.84-.46l-1.36-2.1a1,1,0,1,1,1.68-1.08l1.36,2.1a1,1,0,0,1-.84,1.54Z"/><path class="cls-3" d="M1294.07,3035a1,1,0,0,1-.84-.46l-2.65-4.11a1,1,0,1,1,1.68-1.08l2.65,4.11a1,1,0,0,1-.84,1.54Zm-5.3-8.21a1,1,0,0,1-.84-.46l-2.65-4.11a1,1,0,1,1,1.68-1.08l2.65,4.11a1,1,0,0,1-.84,1.54Zm-5.3-8.21a1,1,0,0,1-.84-.46L1280,3014a1,1,0,1,1,1.68-1.08l2.65,4.11a1,1,0,0,1-.84,1.54Z"/><path class="cls-3" d="M1298.08,3041.2a1,1,0,0,1-.84-.46l-1.36-2.1a1,1,0,1,1,1.68-1.08l1.36,2.1a1,1,0,0,1-.84,1.54Z"/><path class="cls-3" d="M1309.46,2992.5a1,1,0,0,1-.84-.46l-1.36-2.1a1,1,0,1,1,1.68-1.08l1.36,2.1a1,1,0,0,1-.84,1.54Z"/><path class="cls-3" d="M1325.83,3017.84a1,1,0,0,1-.84-.46l-2.73-4.22a1,1,0,0,1,1.68-1.08l2.73,4.22a1,1,0,0,1-.84,1.54Zm-5.46-8.45a1,1,0,0,1-.84-.46l-2.73-4.22a1,1,0,0,1,1.68-1.08l2.73,4.22a1,1,0,0,1-.84,1.54Zm-5.46-8.45a1,1,0,0,1-.84-.46l-2.73-4.22a1,1,0,1,1,1.68-1.08l2.73,4.22a1,1,0,0,1-.84,1.54Z"/><path class="cls-3" d="M1329.91,3024.17a1,1,0,0,1-.84-.46l-1.36-2.1a1,1,0,1,1,1.68-1.08l1.36,2.1a1,1,0,0,1-.84,1.54Z"/><path class="cls-1" d="M364,2562.48a4.47,4.47,0,0,0-6.91,5.65l4.27,5.22,6.91-5.65Z"/><path class="cls-2" d="M371.95,2579.2a4.46,4.46,0,0,0,.63-6.28l-4.27-5.22-6.91,5.65,4.27,5.22A4.46,4.46,0,0,0,371.95,2579.2Z"/><path class="cls-3" d="M370.19,2575.32a1,1,0,0,1-.78-.37l-8-9.79a1,1,0,0,1,1.55-1.27l8,9.79a1,1,0,0,1-.77,1.63Z"/><path class="cls-1" d="M890.1,3925.82a4.47,4.47,0,0,0-4.19,7.89l6,3.16,4.19-7.89Z"/><path class="cls-2" d="M903.85,3938.19a4.46,4.46,0,0,0-1.85-6l-6-3.16-4.19,7.89,6,3.16A4.46,4.46,0,0,0,903.85,3938.19Z"/><path class="cls-3" d="M900.35,3935.37a1,1,0,0,1-.47-.12l-11.16-5.93a1,1,0,0,1,.94-1.77l11.16,5.93a1,1,0,0,1-.47,1.88Z"/><path class="cls-1" d="M1429.79,7277a4.47,4.47,0,0,0-4.19,7.89l6,3.16,4.19-7.89Z"/><path class="cls-2" d="M1443.55,7289.35a4.46,4.46,0,0,0-1.85-6l-6-3.16-4.19,7.89,6,3.16A4.46,4.46,0,0,0,1443.55,7289.35Z"/><path class="cls-3" d="M1440,7286.53a1,1,0,0,1-.47-.12l-11.16-5.93a1,1,0,0,1,.94-1.77l11.16,5.93a1,1,0,0,1-.47,1.88Z"/><path class="cls-1" d="M1390.83,2786.09l73.17,54.18a3.34,3.34,0,0,0,4.67-.7l6.1-8.24.53-.71,3.13-4.23a3.34,3.34,0,0,0-.7-4.67l-2.16-1.6a7,7,0,0,1,1-11.83l21.38-10.65a11.09,11.09,0,0,0,1.66-18.84l-15.94-11.8a5.83,5.83,0,0,0-6.74-.26,5.46,5.46,0,0,0-2.15,6.07,5.49,5.49,0,0,1-1.91,6l-22.29,16.88a6.68,6.68,0,0,1-8,0l-18.24-13.51a1.11,1.11,0,0,0-1.56.23l-.43.58-14.89-11a3.34,3.34,0,0,0-4.67.7l-2,2.76-1.34-1a3.34,3.34,0,0,0-4.67.7l-4.64,6.27A3.34,3.34,0,0,0,1390.83,2786.09Z"/><path class="cls-3" d="M1451.79,2805a1,1,0,0,1-.8-1.6c1.83-2.48,1.82-6.37-1.76-9a1,1,0,1,1,1.19-1.61c4.58,3.39,4.54,8.62,2.17,11.82A1,1,0,0,1,1451.79,2805Z"/><path class="cls-1" d="M1455.82,2835.83h3.46a3.34,3.34,0,0,1,3.34,3.34v2a0,0,0,0,1,0,0h-10.13a0,0,0,0,1,0,0v-2A3.34,3.34,0,0,1,1455.82,2835.83Z" transform="translate(939.69 5987.08) rotate(-143.48)"/><path class="cls-1" d="M1397.66,2792.76h5.68a1.11,1.11,0,0,1,1.11,1.11v4.26a0,0,0,0,1,0,0h-10.13a0,0,0,0,1,0,0v-2A3.34,3.34,0,0,1,1397.66,2792.76Z" transform="translate(860.42 5874.79) rotate(-143.48)"/><path class="cls-4" d="M1439.66,2798.66l-1.61-1.19,5.13-6.93a7.69,7.69,0,0,1,10.74-1.6l6.37,4.72-1.19,1.61-6.37-4.72a5.68,5.68,0,0,0-7.94,1.18Z"/><path class="cls-2" d="M1391.72,2786.75l80.32,59.48a3.34,3.34,0,0,0,4.67-.7l6.1-8.24.53-.71,3.13-4.23a3.34,3.34,0,0,0-.7-4.67l-2.16-1.6a7,7,0,0,1,1-11.83l21.38-10.65a11.09,11.09,0,0,0,1.66-18.84l-15.94-11.8a5.83,5.83,0,0,0-6.74-.26,5.46,5.46,0,0,0-2.15,6.07,5.49,5.49,0,0,1-1.91,6l-22.29,16.88a6.68,6.68,0,0,1-8,0l-18.24-13.51a1.11,1.11,0,0,0-1.56.23l-.43.58-14.89-11a3.34,3.34,0,0,0-4.67.7l-2,2.76-8.49-6.29Z"/><path class="cls-3" d="M1470.8,2817.48a1,1,0,0,1-.51-1.86l32.35-19.16a3.3,3.3,0,0,0,1.53-3,3.65,3.65,0,0,0-1.6-2.53l-6.51-4.75a2.57,2.57,0,0,0-3,0l-32.59,23.26a1,1,0,1,1-1.16-1.63l32.61-23.27a4.58,4.58,0,0,1,5.28.07l6.51,4.75a5.6,5.6,0,0,1,2.41,4,5.31,5.31,0,0,1-2.49,4.86l-32.36,19.17A1,1,0,0,1,1470.8,2817.48Z"/><path class="cls-3" d="M1489.65,2793.62a2.78,2.78,0,1,0,3.89-.61,2.78,2.78,0,0,0-3.89.61"/><path class="cls-3" d="M1474.33,2803.25a2.78,2.78,0,1,0,3.89-.61,2.78,2.78,0,0,0-3.89.61"/><path class="cls-3" d="M1471.72,2837.15a1,1,0,0,1-.59-.2l-17.15-12.7a1,1,0,1,1,1.19-1.61l17.15,12.7a1,1,0,0,1-.6,1.8Z"/><path class="cls-3" d="M1476.19,2831.11a1,1,0,0,1-.59-.2l-17.15-12.7a1,1,0,1,1,1.19-1.61l17.15,12.7a1,1,0,0,1-.6,1.8Z"/><rect class="cls-1" x="1391.47" y="2774.03" width="10.01" height="14.48" rx="3.34" ry="3.34" transform="translate(863.62 5847.48) rotate(-143.48)"/><path class="cls-1" d="M1120.7,3890l36.94-83.21a3.34,3.34,0,0,0-1.7-4.41l-9.37-4.16-.81-.36-4.81-2.13a3.34,3.34,0,0,0-4.41,1.7l-1.09,2.45a7,7,0,0,1-11.78,1.56l-15-18.55a11.09,11.09,0,0,0-18.75,2.49l-8,18.12a5.83,5.83,0,0,0,1.22,6.64,5.46,5.46,0,0,0,6.39.78,5.49,5.49,0,0,1,6.25.56l21.34,18.08a6.68,6.68,0,0,1,1.79,7.8l-9.21,20.75a1.11,1.11,0,0,0,.57,1.47l.66.29-7.52,16.94a3.34,3.34,0,0,0,1.7,4.41l3.13,1.39-.68,1.52a3.34,3.34,0,0,0,1.7,4.41l7.13,3.16A3.34,3.34,0,0,0,1120.7,3890Z"/><path class="cls-3" d="M1115.11,3831.8a1,1,0,0,1-.91-1.41,8.84,8.84,0,0,1,4.92-4.88,8,8,0,0,1,6.14.19,1,1,0,0,1-.81,1.83,6,6,0,0,0-4.62-.15,6.88,6.88,0,0,0-3.8,3.83A1,1,0,0,1,1115.11,3831.8Z"/><path class="cls-1" d="M1155.6,3810.77h3.46a3.34,3.34,0,0,1,3.34,3.34v2a0,0,0,0,1,0,0h-10.13a0,0,0,0,1,0,0v-2a3.34,3.34,0,0,1,3.34-3.34Z" transform="translate(5112.37 4302.86) rotate(113.94)"/><path class="cls-1" d="M1126.24,3876.92h5.68A1.11,1.11,0,0,1,1133,3878v4.26a0,0,0,0,1,0,0H1122.9a0,0,0,0,1,0,0v-2A3.34,3.34,0,0,1,1126.24,3876.92Z" transform="translate(5131.56 4422.67) rotate(113.94)"/><path class="cls-4" d="M1121.52,3841.43l-7.88-3.5a7.69,7.69,0,0,1-3.9-10.13l3.22-7.25,1.83.81-3.22,7.25a5.68,5.68,0,0,0,2.88,7.49l7.88,3.5Z"/><path class="cls-2" d="M1121.15,3889l40.55-91.35a3.34,3.34,0,0,0-1.7-4.41l-9.37-4.16-.81-.36-4.81-2.13a3.34,3.34,0,0,0-4.41,1.7l-1.09,2.45a7,7,0,0,1-11.78,1.56l-15-18.55a11.09,11.09,0,0,0-18.75,2.49l-8,18.12a5.83,5.83,0,0,0,1.22,6.64,5.46,5.46,0,0,0,6.39.78,5.49,5.49,0,0,1,6.24.56l21.34,18.08a6.68,6.68,0,0,1,1.79,7.8l-9.21,20.75a1.11,1.11,0,0,0,.57,1.47l.66.29-7.52,16.94a3.34,3.34,0,0,0,1.7,4.41l3.13,1.39-4.29,9.66Z"/><path class="cls-3" d="M1127.55,3818.67a1,1,0,0,1-.67-.26l-29.81-26.76a4.58,4.58,0,0,1-1.08-5.17l3.22-7.39a5.6,5.6,0,0,1,3.4-3.23,5.3,5.3,0,0,1,5.29,1.37l25.76,27.41a1,1,0,0,1-1.46,1.37l-25.75-27.4a3.3,3.3,0,0,0-3.29-.83,3.65,3.65,0,0,0-2.12,2.11l-3.22,7.39a2.57,2.57,0,0,0,.6,2.9l29.8,26.74a1,1,0,0,1-.67,1.74Z"/><path class="cls-3" d="M1106.52,3791.9a2.78,2.78,0,1,0-1.44-3.66,2.78,2.78,0,0,0,1.44,3.66"/><path class="cls-3" d="M1119.25,3804.76a2.78,2.78,0,1,0-1.44-3.66,2.78,2.78,0,0,0,1.44,3.66"/><path class="cls-3" d="M1143.27,3820.64a1,1,0,0,1-.91-1.41l8.66-19.5a1,1,0,0,1,1.83.81l-8.66,19.5A1,1,0,0,1,1143.27,3820.64Z"/><path class="cls-3" d="M1136.4,3817.59a1,1,0,0,1-.91-1.41l8.66-19.5a1,1,0,0,1,1.83.81l-8.66,19.5A1,1,0,0,1,1136.4,3817.59Z"/><rect class="cls-1" x="1109.75" y="3878.29" width="10.01" height="14.48" rx="3.34" ry="3.34" transform="translate(5118.4 4443.08) rotate(113.94)"/><rect class="cls-1" x="282.55" y="3712.22" width="32.71" height="9.08" transform="translate(-1361.24 377.96) rotate(-21.84)"/><rect class="cls-7" x="359.94" y="3694.85" width="13.19" height="28.56" transform="translate(-1353.55 402.57) rotate(-21.84)"/><path class="cls-1" d="M360.31,3697.33a4,4,0,0,0-5.15-2.2L273.25,3728a4,4,0,0,0-2.2,5.15l10.34,25.8a4,4,0,0,0,5.15,2.2l9.07-3.63a3.5,3.5,0,0,1,4.55,1.94l15.93,39.74a4,4,0,0,0,5.15,2.2l18.16-7.28a4,4,0,0,0,2.2-5.15l-15.93-39.74a3.5,3.5,0,0,1,1.94-4.55l44.53-17.85Z"/><polygon class="cls-1" points="409.43 3759.61 384.45 3769.62 346.57 3735.4 371.56 3725.39 409.43 3759.61"/><rect class="cls-7" x="290.31" y="3722.29" width="46.48" height="10.49" transform="translate(-1364.2 384.18) rotate(-21.84)"/><rect class="cls-1" x="378.21" y="3762.29" width="38.71" height="4.62" rx="2.31" ry="2.31" transform="translate(-1371.96 418.1) rotate(-21.84)"/><path class="cls-3" d="M327.11,3752.71a8.5,8.5,0,0,1-3.41-.7,8.37,8.37,0,0,1-4.44-4.6,1,1,0,1,1,1.86-.74,6.38,6.38,0,0,0,3.38,3.51,7.26,7.26,0,0,0,5.68-.09,1,1,0,1,1,.74,1.86A10.26,10.26,0,0,1,327.11,3752.71Z"/><path class="cls-4" d="M326.34,3761.93l-.74-1.86,5-2a9.49,9.49,0,0,0,5.28-12.34l-5.47-13.66,1.86-.74,5.47,13.66a11.49,11.49,0,0,1-6.39,14.94Z"/><rect class="cls-4" x="351.28" y="3698.32" width="13.19" height="28.56" transform="translate(-1355.46 399.6) rotate(-21.84)"/><path class="cls-2" d="M260.64,3694.21h67.13a0,0,0,0,1,0,0v22.29a0,0,0,0,1,0,0H260.64a4,4,0,0,1-4-4v-14.38A4,4,0,0,1,260.64,3694.21Z" transform="translate(-1357.48 374.66) rotate(-21.84)"/><path class="cls-2" d="M279.15,3755.76l-62.25,43.55a4,4,0,0,1-6-2l-11-33.08a4,4,0,0,1,2.6-5L272.05,3738Z"/><path class="cls-2" d="M433,3691l-61.91,35.5a4,4,0,0,1-5.64-2l-12.08-30.14a4,4,0,0,1,2.59-5.28l68.5-19.42Z"/><rect class="cls-2" x="428.28" y="3666.46" width="13.18" height="22.95" transform="translate(-1337.04 425.76) rotate(-21.84)"/><path class="cls-2" d="M469.69,3643.09H507a0,0,0,0,1,0,0v20.14a0,0,0,0,1,0,0H469.69a4,4,0,0,1-4-4V3647A4,4,0,0,1,469.69,3643.09Z" transform="translate(-1324.12 443.14) rotate(-21.84)"/><path class="cls-2" d="M351.66,3700.8a4,4,0,0,0-5.15-2.2l-81.92,32.83a4,4,0,0,0-2.2,5.15l10.34,25.8a4,4,0,0,0,5.15,2.2l9.07-3.63a3.5,3.5,0,0,1,4.55,1.94l15.93,39.74a4,4,0,0,0,5.15,2.2l18.16-7.28a4,4,0,0,0,2.2-5.15L317,3752.67a3.5,3.5,0,0,1,1.94-4.55l44.53-17.85Z"/><polygon class="cls-2" points="400.78 3763.08 375.8 3773.09 337.92 3738.87 362.9 3728.86 400.78 3763.08"/><path class="cls-3" d="M285.27,3745.52a1,1,0,0,1-.93-.63l-3.9-9.74a1,1,0,0,1,.56-1.3l43.14-17.29a1,1,0,0,1,1.3.56l3.9,9.74a1,1,0,0,1-.56,1.3l-43.14,17.29A1,1,0,0,1,285.27,3745.52Zm-2.6-10.18,3.16,7.88,41.29-16.55-3.16-7.88Z"/><rect class="cls-2" x="369.56" y="3765.76" width="38.71" height="4.62" rx="2.31" ry="2.31" transform="translate(-1373.87 415.13) rotate(-21.84)"/><rect class="cls-1" x="320.56" y="3680.98" width="9.32" height="22.29" rx="3.5" ry="3.5" transform="translate(-1350.19 385.98) rotate(-21.84)"/><rect class="cls-1" x="500.89" y="3635.4" width="9.32" height="20.14" rx="3.5" ry="3.5" transform="translate(-1319.89 449.72) rotate(-21.84)"/><rect class="cls-1" x="436.3" y="3663.88" width="9.32" height="23.08" rx="3.5" ry="3.5" transform="translate(-1335.66 427.84) rotate(-21.84)"/><path class="cls-2" d="M440.2,3663.43H473a0,0,0,0,1,0,0v7.82a0,0,0,0,1,0,0H440.2a1.17,1.17,0,0,1-1.17-1.17v-5.49A1.17,1.17,0,0,1,440.2,3663.43Z" transform="translate(-1331.58 432.87) rotate(-21.84)"/><path class="cls-3" d="M311.55,3768.17A2.91,2.91,0,1,0,310,3772a2.91,2.91,0,0,0,1.59-3.8"/><path class="cls-3" d="M318.65,3785.88a2.91,2.91,0,1,0-1.59,3.8,2.91,2.91,0,0,0,1.59-3.8"/><polygon class="cls-4" points="778.52 5915.4 735.36 5903.57 707.22 5880.55 687.08 5840.58 645.51 5877.02 651.32 5899.17 728.16 5962.06 751.02 5963.36 778.52 5915.4"/><path class="cls-2" d="M698.24,5896.68a35.07,35.07,0,0,0-49.35,4.93l-87.15,106.5a50,50,0,0,0,7,70.34h0l141-172.32Z"/><path class="cls-1" d="M639.1,6071.42l87.15-106.5a35.07,35.07,0,0,0-4.93-49.35l-11.54-9.45-141,172.32h0A50,50,0,0,0,639.1,6071.42Z"/><path class="cls-3" d="M648.52,6060.9a1,1,0,0,1-.63-.23l-77.37-63.31a1,1,0,0,1,1.27-1.55l77.37,63.31a1,1,0,0,1-.63,1.77Z"/><path class="cls-3" d="M653.77,5951a1,1,0,0,1-.63-.23L626.47,5929a1,1,0,0,1,1.27-1.55l26.67,21.82a1,1,0,0,1-.63,1.77Z"/><path class="cls-4" d="M691,5867.72h26a0,0,0,0,1,0,0v77.86a13,13,0,0,1-13,13h0a13,13,0,0,1-13-13v-77.86A0,0,0,0,1,691,5867.72Z" transform="translate(3904.05 891.12) rotate(39.29)"/><path class="cls-3" d="M638.35,5956a1,1,0,0,1-.63-.23l-19.88-16.27a1,1,0,0,1,1.27-1.55L639,5954.27a1,1,0,0,1-.63,1.77Z"/><path class="cls-3" d="M644.08,6066.33a1,1,0,0,1-.63-.23l-77.37-63.31a1,1,0,0,1,1.27-1.55l77.37,63.31a1,1,0,0,1-.63,1.77Z"/><path class="cls-4" d="M314.55,3272.06h9.57a0,0,0,0,1,0,0v7.32a4.79,4.79,0,0,1-4.79,4.79h0a4.79,4.79,0,0,1-4.79-4.79v-7.32A0,0,0,0,1,314.55,3272.06Z" transform="translate(-2245.34 1211.61) rotate(-45.58)"/><path class="cls-2" d="M292.94,3233.22h0a8.46,8.46,0,0,1,8.46,8.46v29.58a0,0,0,0,1,0,0H284.48a0,0,0,0,1,0,0v-29.58a8.46,8.46,0,0,1,8.46-8.46Z" transform="translate(-2234.78 1185) rotate(-45.58)"/><path class="cls-3" d="M306.52,3266.55a1,1,0,0,1-.7-.29l-15.52-15.21a1,1,0,1,1,1.4-1.43l15.52,15.21a1,1,0,0,1-.7,1.71Z"/><path class="cls-1" d="M302.74,3263.49h17.36a.79.79,0,0,1,.79.79v8.2a4.74,4.74,0,0,1-4.74,4.74h-9.47a4.74,4.74,0,0,1-4.74-4.74v-8.2A.79.79,0,0,1,302.74,3263.49Z" transform="translate(-2242.17 1203.63) rotate(-45.58)"/><path class="cls-3" d="M317.11,3283.63a1,1,0,0,1-.71-1.7l2.47-2.52a1,1,0,0,1,1.43,1.4l-2.47,2.52A1,1,0,0,1,317.11,3283.63Z"/><path class="cls-3" d="M319.09,3277.1a1,1,0,0,1-.71-1.7l2.47-2.52a1,1,0,0,1,1.43,1.4l-2.47,2.52A1,1,0,0,1,319.09,3277.1Z"/><circle class="cls-3" cx="291.01" cy="3250.34" r="3.16" transform="translate(-2234.01 1183.05) rotate(-45.58)"/><path class="cls-4" d="M433.63,8096.64h9.57a0,0,0,0,1,0,0V8104a4.79,4.79,0,0,1-4.79,4.79h0a4.79,4.79,0,0,1-4.79-4.79v-7.32A0,0,0,0,1,433.63,8096.64Z" transform="translate(-7547.82 9539.93) rotate(-97.1)"/><path class="cls-2" d="M401.74,8088.24h0a8.46,8.46,0,0,1,8.46,8.46v29.58a0,0,0,0,1,0,0H393.28a0,0,0,0,1,0,0V8096.7A8.46,8.46,0,0,1,401.74,8088.24Z" transform="translate(-7593.58 9508.67) rotate(-97.1)"/><path class="cls-3" d="M399.06,8108.6a1,1,0,0,1-.12-2l21.56-2.69a1,1,0,0,1,.25,2l-21.56,2.69Z"/><path class="cls-1" d="M418.75,8097.2h17.36a.79.79,0,0,1,.79.79v8.2a4.74,4.74,0,0,1-4.74,4.74h-9.47a4.74,4.74,0,0,1-4.74-4.74V8098a.79.79,0,0,1,.79-.79Z" transform="translate(-7561.54 9530.57) rotate(-97.1)"/><path class="cls-3" d="M440.58,8108.24a1,1,0,0,1-1-.88l-.44-3.5a1,1,0,0,1,2-.25l.44,3.5a1,1,0,0,1-.87,1.12Z"/><path class="cls-3" d="M436.7,8102.63a1,1,0,0,1-1-.88l-.44-3.5a1,1,0,0,1,.87-1.12,1,1,0,0,1,1.12.87l.44,3.5a1,1,0,0,1-.87,1.12Z"/><circle class="cls-3" cx="399.06" cy="8107.6" r="3.16" transform="translate(-999.73 111.61) rotate(-7.1)"/><polygon class="cls-2" points="378.77 3204.82 394.52 3191.7 412.89 3141.83 354.63 3137.63 378.77 3204.82"/><polygon class="cls-1" points="354.63 3137.63 378.77 3204.82 382.84 3162.82 354.63 3137.63"/><path class="cls-3" d="M382.84,3163.82a1,1,0,0,1-.57-1.82l30.05-21a1,1,0,1,1,1.14,1.64l-30.05,21A1,1,0,0,1,382.84,3163.82Z"/><polygon class="cls-2" points="106.54 6577.55 122.29 6564.43 140.66 6514.56 82.39 6510.36 106.54 6577.55"/><polygon class="cls-1" points="82.39 6510.36 106.54 6577.55 110.61 6535.54 82.39 6510.36"/><path class="cls-3" d="M110.61,6536.54a1,1,0,0,1-.57-1.82l30.05-21a1,1,0,1,1,1.14,1.64l-30.05,21A1,1,0,0,1,110.61,6536.54Z"/><polygon class="cls-2" points="291.27 5111.55 343.76 5096.74 348.48 5069.45 286.54 5062.64 282.34 5084.67 291.27 5111.55"/><polygon class="cls-1" points="282.34 5084.67 291.27 5111.55 318.56 5079.42 286.54 5062.64 282.34 5084.67"/><path class="cls-3" d="M318.56,5080.42a1,1,0,0,1-.32-1.95l29.92-10a1,1,0,0,1,.63,1.9l-29.92,10A1,1,0,0,1,318.56,5080.42Z"/><polygon class="cls-1" points="997.21 4693.35 1043.76 4673.57 1038.66 4650.44 1016.12 4638.8 989.94 4643.89 997.21 4693.35"/><polygon class="cls-2" points="989.94 4643.89 1016.12 4638.8 1038.66 4650.44 1043.76 4673.57 1016.85 4673.57 999.76 4663.53 989.94 4643.89"/><path class="cls-3" d="M997.21,4694.35a1,1,0,0,1-.71-1.7l19.64-19.78a1,1,0,0,1,1.42,1.41l-19.64,19.78A1,1,0,0,1,997.21,4694.35Z"/><polygon class="cls-1" points="1393.94 6715 1378.99 6672.52 1394.5 6661.8 1431.93 6672.52 1431.93 6687.69 1419.44 6710.28 1393.94 6715"/><polygon class="cls-2" points="1394.5 6661.8 1378.99 6672.52 1401.91 6696.84 1431.93 6672.52 1394.5 6661.8"/><path class="cls-3" d="M1419.44,6711.28a1,1,0,0,1-.61-.21l-17.53-13.43a1,1,0,1,1,1.22-1.59l17.53,13.43a1,1,0,0,1-.61,1.79Z"/><polygon class="cls-2" points="1331.55 5666.23 1331.55 5722.52 1366.59 5702.84 1361.87 5675.67 1331.55 5666.23"/><polygon class="cls-1" points="1331.55 5666.23 1361.87 5675.67 1366.59 5702.84 1344.94 5691.3 1331.55 5666.23"/><path class="cls-3" d="M1331.55,5723.52a1,1,0,0,1-.92-1.39l13.38-31.22a1,1,0,1,1,1.84.79l-13.38,31.22A1,1,0,0,1,1331.55,5723.52Z"/><polygon class="cls-2" points="864.92 8031.89 875.48 8020.34 907.35 8010.39 928.79 8049.11 923.72 8064.75 864.92 8031.89"/><polygon class="cls-1" points="923.72 8064.75 864.92 8031.89 913.64 8049.47 907.35 8010.39 928.79 8049.11 923.72 8064.75"/><path class="cls-3" d="M923.72,8065.75a1,1,0,0,1-.84-.45L912.81,8050a1,1,0,1,1,1.67-1.1l10.07,15.28a1,1,0,0,1-.83,1.55Z"/><polygon class="cls-2" points="817.4 7082.47 831.96 7085.91 830.75 7107.8 802.62 7138.32 785.17 7140.24 771.24 7131.52 772.6 7114.64 817.4 7082.47"/><polygon class="cls-1" points="771.24 7131.52 772.6 7114.64 817.4 7082.47 803.41 7121.44 785.17 7140.24 771.24 7131.52"/><path class="cls-3" d="M803.41,7122.44a1,1,0,0,1-.45-1.89l27.34-13.64a1,1,0,1,1,.89,1.79l-27.34,13.64A1,1,0,0,1,803.41,7122.44Z"/><polygon class="cls-1" points="665.6 4287.14 681 4241.5 712.1 4258.03 697.14 4299.37 667.83 4311.97 665.6 4287.14"/><polygon class="cls-2" points="681 4241.5 683.53 4279.27 697.14 4299.37 712.1 4258.03 681 4241.5"/><path class="cls-3" d="M665.6,4288.14a1,1,0,0,1-.4-1.92l17.92-7.87a1,1,0,1,1,.8,1.83L666,4288.06A1,1,0,0,1,665.6,4288.14Z"/><path class="cls-2" d="M99.32,4162.66l-65.56,105a3.79,3.79,0,0,0,1.21,5.23l69.53,43.4a3.79,3.79,0,0,0,5.23-1.21l65.56-105Z"/><path class="cls-2" d="M208.31,4381.11l69.53,43.4a3.79,3.79,0,0,0,5.23-1.21l65.56-105-76-47.41-65.56,105A3.79,3.79,0,0,0,208.31,4381.11Z"/><path class="cls-2" d="M183.75,4215.36l-65.56,105a3.79,3.79,0,0,0,1.21,5.23l74,46.19a3.79,3.79,0,0,0,5.23-1.21l65.56-105Z"/><path class="cls-1" d="M207.7,4151l-69.53-43.4a3.79,3.79,0,0,0-5.23,1.21l-33.62,53.87,76,47.41,33.62-53.87A3.79,3.79,0,0,0,207.7,4151Z"/><path class="cls-1" d="M296.61,4206.46l-74-46.19a3.79,3.79,0,0,0-5.23,1.21l-33.62,53.87,80.44,50.2,33.62-53.87A3.79,3.79,0,0,0,296.61,4206.46Z"/><path class="cls-1" d="M348.63,4318.26l33.62-53.87a3.79,3.79,0,0,0-1.21-5.23l-69.53-43.4a3.79,3.79,0,0,0-5.23,1.21l-33.62,53.87Z"/><path class="cls-3" d="M192.94,4317.59h0a1,1,0,0,1-.85-.53l-16.44-30.54a1,1,0,0,1,.92-1.47l34.66,1.35a1,1,0,0,1,.81,1.53l-18.22,29.2A1,1,0,0,1,192.94,4317.59Zm-14.73-30.48L193,4314.6l16.4-26.27Z"/><path class="cls-3" d="M366.44,4290.72a1,1,0,0,1-.53-.15L116.6,4135a1,1,0,0,1,1.06-1.7L367,4288.87a1,1,0,0,1-.53,1.85Z"/><rect class="cls-4" x="72.59" y="4233.31" width="181.92" height="9.98" transform="translate(-3518.51 2133) rotate(-58.03)"/><rect class="cls-4" x="161.5" y="4288.8" width="181.92" height="9.98" transform="translate(-3523.75 2234.53) rotate(-58.03)"/><path class="cls-4" d="M79.09,4161h27.73a3.79,3.79,0,0,1,3.79,3.79v4.4a0,0,0,0,1,0,0H75.3a0,0,0,0,1,0,0v-4.4A3.79,3.79,0,0,1,79.09,4161Z" transform="translate(-3489.65 2038.67) rotate(-58.03)"/><path class="cls-3" d="M192.16,4296.82a1,1,0,0,1-.53-.15l-5.54-3.46a1,1,0,1,1,1.06-1.7l5.54,3.46a1,1,0,0,1-.53,1.85Z"/><circle class="cls-3" cx="196.62" cy="4298.6" r="2.2" transform="translate(-3554.11 2189.42) rotate(-58.03)"/><path class="cls-2" d="M1360.58,4466.18l94.3,104.59a4.31,4.31,0,0,0,6.09.32l69.24-62.42a4.31,4.31,0,0,0,.32-6.09L1436.22,4398Z"/><path class="cls-2" d="M1633.57,4415.47,1702.8,4353a4.31,4.31,0,0,0,.32-6.09l-94.3-104.59-75.64,68.2,94.3,104.59A4.31,4.31,0,0,0,1633.57,4415.47Z"/><path class="cls-2" d="M1444.65,4390.38l94.3,104.59a4.31,4.31,0,0,0,6.09.32l73.69-66.44a4.31,4.31,0,0,0,.32-6.09l-94.3-104.59Z"/><path class="cls-1" d="M1381.76,4344l-69.24,62.42a4.31,4.31,0,0,0-.32,6.09l48.36,53.64,75.64-68.2-48.36-53.64A4.31,4.31,0,0,0,1381.76,4344Z"/><path class="cls-1" d="M1470.29,4264.21l-73.69,66.44a4.31,4.31,0,0,0-.32,6.09l48.36,53.64,80.09-72.21-48.36-53.64A4.31,4.31,0,0,0,1470.29,4264.21Z"/><path class="cls-1" d="M1608.82,4242.37l-48.36-53.64a4.31,4.31,0,0,0-6.09-.32l-69.24,62.42a4.31,4.31,0,0,0-.32,6.09l48.36,53.64Z"/><path class="cls-3" d="M1519.66,4421.46a1,1,0,0,1-1-1.31l12.33-37.47a1,1,0,0,1,1.69-.36l26.21,29.07a1,1,0,0,1-.53,1.65l-38.54,8.4Zm12.74-36.52-11.25,34.17,35.15-7.66Z"/><path class="cls-3" d="M1335,4438.76a1,1,0,0,1-.67-1.74l248.24-223.81a1,1,0,1,1,1.34,1.49L1335.62,4438.5A1,1,0,0,1,1335,4438.76Z"/><rect class="cls-4" x="1359.95" y="4413.98" width="206.9" height="11.35" transform="translate(-839.19 8466.01) rotate(-132.04)"/><rect class="cls-4" x="1448.48" y="4334.17" width="206.9" height="11.35" transform="translate(-632.11 8398.5) rotate(-132.04)"/><path class="cls-4" d="M1345.5,4469.25H1377a4.31,4.31,0,0,1,4.31,4.31v5a0,0,0,0,1,0,0h-40.16a0,0,0,0,1,0,0v-5a4.31,4.31,0,0,1,4.31-4.31Z" transform="translate(-1050.02 8480.73) rotate(-132.04)"/><path class="cls-3" d="M1529.74,4412.37a1,1,0,0,1-.67-1.74l5.51-5a1,1,0,1,1,1.34,1.49l-5.51,5A1,1,0,0,1,1529.74,4412.37Z"/><circle class="cls-3" cx="1539.69" cy="4402.4" r="2.5" transform="translate(-2551.77 2163.71) rotate(-42.04)"/><path class="cls-2" d="M1389.26,7857l-116.83,43.89a3.82,3.82,0,0,0-2.23,4.92l29.05,77.34a3.82,3.82,0,0,0,4.92,2.23L1421,7941.5Z"/><path class="cls-2" d="M1342.62,8098.62l29.05,77.34a3.82,3.82,0,0,0,4.92,2.23l116.83-43.89-31.74-84.5-116.83,43.89A3.82,3.82,0,0,0,1342.62,8098.62Z"/><path class="cls-2" d="M1424.54,7950.92l-116.83,43.89a3.82,3.82,0,0,0-2.23,4.92l30.92,82.31a3.82,3.82,0,0,0,4.92,2.23l116.83-43.89Z"/><path class="cls-1" d="M1483.16,7914.07l-29.05-77.34a3.82,3.82,0,0,0-4.92-2.23L1389.26,7857l31.74,84.5,59.92-22.51A3.82,3.82,0,0,0,1483.16,7914.07Z"/><path class="cls-1" d="M1520.31,8013l-30.92-82.31a3.82,3.82,0,0,0-4.92-2.23l-59.92,22.51,33.61,89.47,59.92-22.51A3.82,3.82,0,0,0,1520.31,8013Z"/><path class="cls-1" d="M1493.43,8134.31l59.92-22.51a3.82,3.82,0,0,0,2.23-4.92l-29.05-77.34a3.82,3.82,0,0,0-4.92-2.23l-59.92,22.51Z"/><path class="cls-3" d="M1369.86,8038.57a1,1,0,0,1-1-1.16l5.56-34.52a1,1,0,0,1,1.63-.61L1403,8024.6a1,1,0,0,1-.29,1.71l-32.48,12.2A1,1,0,0,1,1369.86,8038.57Zm6.27-33.63-5,31.09,29.25-11Z"/><path class="cls-3" d="M1525.18,8123.38a1,1,0,0,1-.94-.65l-104.17-277.3a1,1,0,0,1,1.87-.7L1526.12,8122a1,1,0,0,1-.94,1.35Z"/><rect class="cls-4" x="1302.63" y="7951.87" width="183.37" height="10.06" transform="translate(-2709.08 998.56) rotate(-20.59)"/><rect class="cls-4" x="1339.78" y="8050.76" width="183.37" height="10.06" transform="translate(-2741.48 1017.94) rotate(-20.59)"/><path class="cls-4" d="M1368.69,7850.94h27.95a3.82,3.82,0,0,1,3.82,3.82v4.44a0,0,0,0,1,0,0h-35.59a0,0,0,0,1,0,0v-4.44A3.82,3.82,0,0,1,1368.69,7850.94Z" transform="translate(-2674.01 987.96) rotate(-20.59)"/><path class="cls-3" d="M1382,8021.47a1,1,0,0,1-.94-.65l-2.31-6.16a1,1,0,0,1,1.87-.7l2.31,6.16a1,1,0,0,1-.94,1.35Z"/><circle class="cls-3" cx="1383.82" cy="8025.42" r="2.22" transform="translate(-2733.84 999.24) rotate(-20.59)"/></g></g></svg>