<svg xmlns="http://www.w3.org/2000/svg" viewBox="0 0 252 310.25">
	<a class="hide-on-fallback">
		<path class="b1_fill" d="M234.72,310.25H218.28A18.12,18.12,0,0,1,201,297.58h51A18.12,18.12,0,0,1,234.72,310.25Z"/><path class="w_fill" d="M111.45,35.88l7.07,13.62a1.59,1.59,0,0,1-1.17,2.31l-5.89.91Z"/><path class="w_fill" d="M95.39,66.11l8.93.63A9,9,0,0,0,114,57.53L113.19,25A24.32,24.32,0,0,0,88.87,1.25h0A24.32,24.32,0,0,0,64.74,28.63L66,38.27A31.94,31.94,0,0,0,95.39,66.11Z"/><path class="b1_fill" d="M133.59,130.18c-.44,6.43,2.78,21,3.18,26s3.89,27.74,4.29,30.42-40.47,6.43-40.6.94-11-56.41-11.66-61.37-24.24-52.78-24-53.82,2.17-2.16,2.81-2.26a45.2,45.2,0,0,1,7.27-.84c3.55-.07,18.45.45,21.11.61S99.82,74,99.82,74L123.37,97.8Z"/><ellipse class="b4_fill" cx="100.24" cy="25.56" rx="18.69" ry="17.46"/><ellipse class="b4_fill" cx="79.33" cy="24.12" rx="18.69" ry="21.68"/><ellipse class="b4_fill" cx="72.33" cy="50.02" rx="17.23" ry="16.09"/><path class="b2_fill" d="M149.19,123.34a336.28,336.28,0,0,1-15.66-33.62c-5.42-13.55-13.1-16.77-24-17.54-14.89-1.06-30.12-1.8-44.82.15-16,2.12-29,11.36-35.83,26.59C22.85,112.38,17.16,126.14,13,140.28c-1.76,6-2.65,24,22.75,28.92L104,167.83l5.89-58.93c3.59,6,19.38,32.84,31.13,37.13,6.46,2.36,39.46-2.16,58.92-5.31l-2.45-16.85C181.46,124.14,157,124,149.19,123.34Z"/><polygon class="b2_fill" points="106.07 102.71 118.47 106.04 123.37 120.16 111.45 171.85 102.12 170.12 106.07 102.71"/><path class="w_fill" d="M213.37,123.53c-4.41.15-11.09.27-15.93.35l1.95,13.94c3.11-.5,7-1,10.5-1.37a8.6,8.6,0,0,0,7.6-9.25h0A4,4,0,0,0,213.37,123.53Z"/><path class="b4_fill" d="M86.25,159.47a1,1,0,0,1-.24,0c-4.22-1.05-8.36-1.95-12.37-2.81-11.83-2.55-24.06-5.19-39-12.2l-1-.47,23-38.43a1,1,0,1,1,1.72,1L36.48,143.08c14.27,6.55,25.6,9,37.58,11.59,4,.87,8.18,1.77,12.43,2.83a1,1,0,0,1-.24,2Z"/><path class="w_fill" d="M94.82,71.33q-.58,2.08-1.14,3.88A11.22,11.22,0,0,1,75.27,80a39.83,39.83,0,0,1-7-8.12l13.14-1.37Z"/><polygon class="w_fill" points="70.07 72.11 92.78 71.73 92.78 40.45 70.07 40.45 70.07 72.11"/><ellipse class="b4_fill" cx="91.03" cy="19.08" rx="20.42" ry="19.08"/><path class="b4_fill" d="M90.79,31.92S77.84,34.72,77.84,43.68a13.1,13.1,0,0,1-4.07,9.83,11.47,11.47,0,0,0-3.7,8.24v.16c0,4-6.17-10.75-6.17-10.75s1.83-21.53,7.42-35.42c6.1-15.18,11-11.54,11-11.54Z"/><ellipse class="w_fill" cx="83.76" cy="44.93" rx="7.44" ry="9.76"/><rect class="b1_fill" y="198.67" width="68.29" height="76.18"/><rect class="b1_fill" x="68.29" y="198.67" width="68.66" height="76.18"/><path class="w_fill" d="M112.57,265.67H82.66a1,1,0,0,1-1-1v-9.29a1,1,0,0,1,1-1h29.91a1,1,0,0,1,1,1v9.29A1,1,0,0,1,112.57,265.67Zm-28.91-2h27.91v-7.29H83.66Z"/><path class="w_fill" d="M18.22,269.26a9,9,0,0,0,17.69,2.25c.78-3,1.78-7,2.87-11.42L18.22,258Z"/><path class="w_fill" d="M226.22,260.68c-2.15-3.36-4.67-7.26-7.5-11.51l-13.11,12.22c2.72,3,5.15,5.89,7.17,8.57a8.17,8.17,0,0,0,13.44-9.28Z"/><path class="b4_fill" d="M141.06,167.83H47.53c-19.65,0-29.3,8.93-29.3,27.16v63l20.56,2.06C43.47,241,50,211.92,50,198.67h95.41c8,14,41.19,41.67,60.18,62.72l13.11-12.22C198.08,218.05,161.59,167.83,141.06,167.83Z"/><path class="b1_fill" d="M70.07,69.74S64,68.28,63.61,83.57,73.79,133,74.5,140.85s-1.79,41.09-3.39,43.77-55.21,14-55.21,14-8.58-47.09-6.61-53.88,17.15-52.53,25-60S57.24,71.17,70.07,69.74Z"/><path class="b1_fill" d="M92.78,69.71s25.23.84,30.59,4.46S134.63,84.48,135.16,88s-9.25,20.23-10.45,22.51-5,11.72-5.23,9.68-8.58-29.24-10.72-32.46S99.18,71.41,92.78,69.71Z"/><path class="b4_fill" d="M94.82,38.21c0,3.48-1.92,13.85,1.12,15s17.89-1.55,17.9-.86,3.39,18.73.13,22.43-19.72-7.3-21.2-8.67S89.7,54,89.52,51.1c-.26-4.06-.58-13.18-.58-13.18Z"/><path class="b4_fill" d="M109.85,109.9h-.17L92.62,107a1,1,0,0,1,.33-2L110,107.92a1,1,0,0,1-.16,2Z"/><path class="b4_fill" d="M70.9,6.66c-.75,5.25-3.12,12.25,2.75,18.37S84.17,39.35,96.28,39.35,115.07,34,115.07,34l-.55-15.85L106.9,9.25Z"/>
	</a>
	<image src="assets/png/senzatetto.png" alt="Senzatetto" xlink:href="">
</svg>