<svg xmlns="http://www.w3.org/2000/svg" viewBox="0 0 1920 890.5"><defs><style>.cls-1{fill:#3d4689;}.cls-2{fill:#fff;}.cls-3{fill:#859cec;}.cls-4{fill:#c8bfde;}.cls-5{fill:#a8aee5;}.cls-6{fill:#ffddd3;}.cls-7{opacity:0.5;}</style></defs><title>strada2_1</title><g id="Livello_2" data-name="Livello 2"><g id="Livello_1-2" data-name="Livello 1"><path class="cls-1" d="M490.31,890.5a6.8,6.8,0,0,1-5.89-3.39l-33.27-57.4c-10.88-18.78-7.6-58-8.19-66.27,0,0-22.62,37.21-25.85,51.18-3,12.82-8,47.19-11.12,70a6.75,6.75,0,0,1-6.69,5.85h0a6.75,6.75,0,0,1-6.74-6.46c-.66-15.69-1.95-56.12,1.07-78.14,4.68-34.19,15-67.6,23-101.58h55.11c15.9,22.93,19.66,50.5,10.34,76.48-11.62,32.39-2.35,60,9.62,88.52q2.47,5.87,4.91,11.76a6.8,6.8,0,0,1-6.28,9.42Z"/><path class="cls-2" d="M498.73,624.53c19.27,19,21.53,68,23.89,86a5.1,5.1,0,0,1-3.74,5.6h0a5.09,5.09,0,0,1-6.27-3.69c-5.74-23.41-9.75-53.91-27.93-72.24"/><path class="cls-2" d="M415.89,644.69c-7,26.6-25.44,57.38-40.92,74.72a5,5,0,0,1-3.71,1.67h0a5,5,0,0,1-4.34-7.35c13-23.52,27.07-50.24,26.86-79.16Z"/><path class="cls-3" d="M416.61,704.32l-10.06-61.22-19.88-7.76,16.8-29.53a14.19,14.19,0,0,1,12.34-7.18h47.39a38.65,38.65,0,0,1,29.3,13.44L501,622l-18,20.1-9-5.79-2.32,68Z"/><polygon class="cls-2" points="450.18 598.63 439.44 617.51 428.92 598.63 450.18 598.63"/><rect class="cls-2" x="428.92" y="567.35" width="21.26" height="31.28"/><path class="cls-2" d="M411.45,563.08l-7.68,16.12a.69.69,0,0,0,.75,1l6.93-1.33Z"/><path class="cls-2" d="M444.34,571.55c0-5.08-4.45-8-8-9.59a26.78,26.78,0,0,1-26.75-1.11L409,586.14a5.9,5.9,0,0,0,6.32,6l11.14-.79a29.89,29.89,0,0,0,23.69-14.74C450,576.73,444.34,579.83,444.34,571.55Z"/><path class="cls-1" d="M455.17,556.29a22.77,22.77,0,1,0-45.35-3.41l-.19,8A26.78,26.78,0,0,0,436.38,562c3.51,1.55,8,4.51,8,9.59,0,8.28,5.69,5.17,5.84,5.09A29.82,29.82,0,0,0,454,565.31Z"/><ellipse class="cls-2" cx="437.37" cy="569.49" rx="6.96" ry="9.14"/><path class="cls-4" d="M479.22,725.62a21.06,21.06,0,0,1-18.46-10.91l-3-5.42a1,1,0,0,1,1.75-1l3,5.42a19.06,19.06,0,0,0,16.7,9.88,1,1,0,0,1,0,2Z"/><path class="cls-4" d="M413.06,725.62a1,1,0,0,1-.09-2c.21-.06,3.45-1.26,6.8-15.06a1,1,0,1,1,1.94.47C417.88,724.82,413.83,725.62,413.06,725.62Zm-.1-2Z"/><path class="cls-2" d="M430.41,630.36H415.89a1,1,0,1,1,0-2h14.52a1,1,0,0,1,0,2Z"/><path class="cls-2" d="M577.68,646.07S542,694,519.67,706.19a4.28,4.28,0,0,0-2.12,4.84h0a4.27,4.27,0,0,0,6.15,2.69c30.13-16.15,62.42-53.23,62.42-53.23Z"/><path class="cls-2" d="M638.11,822.46c9.33,14.27,7.26,44.93,9.43,61.83a5.49,5.49,0,0,1-5.43,6.21h0a5.48,5.48,0,0,1-5.2-3.76l-21.23-64.28S629.8,809.76,638.11,822.46Z"/><path class="cls-2" d="M564.41,822.46l-9.94,61.71a5.46,5.46,0,0,0,5.39,6.33h0a5.51,5.51,0,0,0,5.25-3.94c6.8-22.14,24.91-38.79,20.13-64.1Z"/><path class="cls-2" d="M637.56,659.32c16.44,16.06,25.33,38.35,26.73,64.83a4.22,4.22,0,0,0,4.21,4h0a4.23,4.23,0,0,0,4.23-4.28c-.3-26.32-3.39-53.81-25-75.69"/><polygon class="cls-2" points="610.21 620.6 592.8 624.35 592.8 590.76 608.15 590.76 610.21 620.6"/><path class="cls-2" d="M574.17,586.71l-5.49,12.45a.69.69,0,0,0,.43.93l5.07,1.56Z"/><path class="cls-2" d="M588.42,613.55l-7.92.56a8,8,0,0,1-8.57-8.18l.7-28.89A21.59,21.59,0,0,1,594.21,556h0a21.59,21.59,0,0,1,21.42,24.3l-1.08,8.56A28.35,28.35,0,0,1,588.42,613.55Z"/><path class="cls-1" d="M607.67,611.78c.48,7.44,8.13,32.56,37.54,29.89s28.53-42.17,10.31-52.52-25-6.29-35.82-9.24c-10.57-31.92-27.12-23.15-45.53-25.45-10.74,12-6.22,27.17-3.11,30.58s13.36,6.47,23.83,3.24S607.19,604.34,607.67,611.78Z"/><ellipse class="cls-2" cx="598.75" cy="594.74" rx="6.6" ry="8.67"/><path class="cls-4" d="M623.69,654.91l11.21,7.34,16-17.62-31-22.33a9,9,0,0,0-5.27-1.7H585.43a6.79,6.79,0,0,0-5.43,2.72l-9.31,12.41a15.38,15.38,0,0,0-3.08,9.23h0a15.38,15.38,0,0,0,6.15,12.3l6.66,5,1.6,33.64L527.56,822.46h141s-20.83-97.73-44.86-126.57V641.42"/><path class="cls-1" d="M621.63,696.89H591.19a1,1,0,0,1,0-2h30.44a1,1,0,1,1,0,2Z"/><path class="cls-1" d="M574,807.44l-.22,0a1,1,0,0,1-.75-1.2l19.23-84.91a1,1,0,0,1,2,.44L575,806.66A1,1,0,0,1,574,807.44Z"/><path class="cls-1" d="M630.1,807.44a1,1,0,0,1-1-.83L614.69,721.7a1,1,0,1,1,2-.33l14.42,84.91a1,1,0,0,1-.82,1.15Z"/><path class="cls-2" d="M610.92,620.59S599,638.13,594.23,638.13s-5.93-7.93-4.86-17.54Z"/><rect class="cls-5" y="52.71" width="1920" height="452.27"/><rect class="cls-4" y="346.98" width="1920" height="2"/><path class="cls-4" d="M1920,192.85H806.11a1,1,0,0,1,0-2H1920Z"/><path class="cls-4" d="M806.12,192.85a1,1,0,0,1-1-1V52.71a1,1,0,1,1,2,0V191.85A1,1,0,0,1,806.12,192.85Z"/><path class="cls-4" d="M1264.72,192.85a1,1,0,0,1-1-1V52.71a1,1,0,1,1,2,0V191.85A1,1,0,0,1,1264.72,192.85Z"/><path class="cls-4" d="M1723.32,192.85a1,1,0,0,1-1-1V52.71a1,1,0,1,1,2,0V191.85A1,1,0,0,1,1723.32,192.85Z"/><rect class="cls-6" y="16.09" width="777.52" height="145.75"/><path class="cls-4" d="M777.52,131.84a30,30,0,0,1-30,30H0v30H747.52a30,30,0,0,0,30-30h0Z"/><path class="cls-4" d="M807.52,22.71a30,30,0,0,0-30,30v30a30,30,0,0,1,30-30H1920v-30Z"/><path class="cls-4" d="M0,57H676.18a3,3,0,0,1,3,3v44.73a3,3,0,0,1-3,3H0a0,0,0,0,1,0,0V57A0,0,0,0,1,0,57Z"/><ellipse class="cls-2" cx="1569.87" cy="395.24" rx="143.16" ry="135.09" transform="translate(1139.51 1955.85) rotate(-88.71)"/><path class="cls-1" d="M1704.4,418.06a1,1,0,0,0-1.29-.59l-31.24,11.64,31.61-61.7a1,1,0,1,0-1.78-.91l-32.61,63.64-44.92,16.74a1,1,0,0,0-.7.26l-53.67,20,1.12-56.09,55.31-81.25a1,1,0,0,0,.56-.82l30.09-44.2a1,1,0,0,0-1.65-1.13l-29,42.61-16-68.54a1,1,0,1,0-1.95.45l16.41,70.33L1571,407.41l3.09-155.27a1,1,0,0,0-1-1,1,1,0,0,0-1,1l-2.81,141.42-73.64-113.45a1,1,0,0,0-1.68,1.09L1539,350.62l-32.42,9.05-27.81-17.75a1,1,0,1,0-1.08,1.69L1504,360.4l-20.53,5.73a1,1,0,1,0,.54,1.93l56.13-15.67L1569,396.79a1,1,0,0,0,.19.21l-.27,13.43-.25.37a1,1,0,0,0,.22,1.34l-1.11,55.78a1,1,0,0,0,0,1.76l-.44,22-37.58-17.92a1,1,0,0,0-.05-.23,1,1,0,0,0-1.32-.51l-.09,0-45.46-21.68s0,0,0,0l-26.73-67.15a1,1,0,0,0-1.86.74l26,65.2-40.77-19.44a1,1,0,1,0-.86,1.81l87.34,41.65-36.22,16.17a1,1,0,1,0,.82,1.83l37.77-16.87,39,18.6h0l-2.77,139.57a1,1,0,0,0,1,1h0a1,1,0,0,0,1-1l3.26-164.22L1624.19,449l36.43,17.74a1,1,0,0,0,.88-1.8l-34.71-16.9,77-28.71A1,1,0,0,0,1704.4,418.06Z"/><circle class="cls-1" cx="477.1" cy="439.43" r="34.7"/><circle class="cls-3" cx="477.1" cy="439.43" r="15.29"/><circle class="cls-1" cx="221.68" cy="439.43" r="34.7"/><circle class="cls-3" cx="221.68" cy="439.43" r="15.29"/><path class="cls-1" d="M149.52,410.79H84.58c-5.32,0-9.64-5.89-9.64-13.15h0c0-7.26,4.31-13.15,9.64-13.15h64.93"/><path class="cls-3" d="M512.47,389.89a18.17,18.17,0,0,0-15-17.06l-106-18.41h0L352.93,311.7a39.38,39.38,0,0,0-29.24-13H190.1a62.13,62.13,0,0,0-40.28,14.83l-34.34,29.24a83.46,83.46,0,0,1-22,13.48h0a23.36,23.36,0,0,0-14.29,23.48l3.7,45a12.14,12.14,0,0,0,11.85,11.14l10.12.21h70l2.07,2.4A33.36,33.36,0,0,0,202.25,450H339a33.36,33.36,0,0,0,25.67-12.06h150Z"/><circle class="cls-1" cx="140.24" cy="439.43" r="34.7"/><circle class="cls-3" cx="140.24" cy="439.43" r="15.29"/><circle class="cls-1" cx="399.03" cy="439.43" r="34.7"/><path class="cls-1" d="M467.36,409.37h20.13a19.93,19.93,0,0,1,19.93,19.93v0a0,0,0,0,1,0,0h-60a0,0,0,0,1,0,0v0A19.93,19.93,0,0,1,467.36,409.37Z"/><path class="cls-2" d="M508.43,430.31h-62v-1a21,21,0,0,1,20.93-20.93h20.13a21,21,0,0,1,20.93,20.93Zm-60-2H506.4a19,19,0,0,0-18.91-17.93H467.36A19,19,0,0,0,448.45,428.31Z"/><rect class="cls-2" x="426.98" y="429.31" width="92.53" height="13.49" rx="5" ry="5"/><path class="cls-2" d="M81,426.41h23.07a6,6,0,0,1,6,6v4.39a6,6,0,0,1-6,6H81a5,5,0,0,1-5-5v-6.39A5,5,0,0,1,81,426.41Z"/><ellipse class="cls-2" cx="442.76" cy="398.7" rx="8.17" ry="10.96"/><path class="cls-2" d="M392.52,355.57h-34a14.59,14.59,0,0,1-10.66-4.63l-32.06-34.27a4.38,4.38,0,0,1,3.2-7.36h31.78Z"/><path class="cls-1" d="M392.52,356.57h-34a15.64,15.64,0,0,1-11.4-5l-32.06-34.27a5.38,5.38,0,0,1,3.93-9h31.78a1,1,0,0,1,0,2H319a3.38,3.38,0,0,0-2.47,5.68l32.06,34.27a13.63,13.63,0,0,0,9.93,4.32h34a1,1,0,0,1,0,2Z"/><circle class="cls-3" cx="399.03" cy="439.43" r="15.29"/><path class="cls-2" d="M230.87,313.68a4.38,4.38,0,0,0-4.38-4.38h-31a46.7,46.7,0,0,0-34.42,14.84l-19.06,20a6.56,6.56,0,0,0,4.45,11.39h80a4.38,4.38,0,0,0,4.38-4.38Z"/><path class="cls-1" d="M226.5,356.57h-80a7.56,7.56,0,0,1-5.13-13.12l19-20a47.7,47.7,0,0,1,35.14-15.15h31a5.38,5.38,0,0,1,5.38,5.38v37.51A5.38,5.38,0,0,1,226.5,356.57Zm-31-46.26a45.7,45.7,0,0,0-33.69,14.53l-19.06,20a5.57,5.57,0,0,0,3.73,9.7h80a3.38,3.38,0,0,0,3.38-3.38V313.68a3.38,3.38,0,0,0-3.38-3.38Z"/><path class="cls-2" d="M329.25,344.57l-28.36-31a13.13,13.13,0,0,0-9.69-4.27h-41.5a4.38,4.38,0,0,0-4.38,4.38v37.51a4.38,4.38,0,0,0,4.38,4.38h74.7A6.56,6.56,0,0,0,329.25,344.57Z"/><path class="cls-1" d="M324.4,356.57h-74.7a5.38,5.38,0,0,1-5.38-5.38V313.68a5.38,5.38,0,0,1,5.38-5.38h41.5a14.16,14.16,0,0,1,10.43,4.59l28.36,31h0a7.57,7.57,0,0,1-5.58,12.67Zm-74.7-46.26a3.38,3.38,0,0,0-3.38,3.38v37.51a3.38,3.38,0,0,0,3.38,3.38h74.7a5.57,5.57,0,0,0,4.11-9.32l-28.36-31a12.16,12.16,0,0,0-9-3.94Z"/><path class="cls-1" d="M344.47,437.05h-.17a1,1,0,0,1-.81-1.16c4.79-27.64,0-74.46,0-74.93a1,1,0,0,1,2-.21c0,.47,4.83,47.57,0,75.48A1,1,0,0,1,344.47,437.05Z"/><path class="cls-1" d="M238.1,437.05a1,1,0,0,1-1-.84c-4.16-25-.05-74.95,0-75.45V309.31a1,1,0,0,1,2,0v51.54c0,.58-4.14,50.33,0,75a1,1,0,0,1-.82,1.15Z"/><path class="cls-1" d="M472.7,382.52A210.16,210.16,0,0,1,432,378.63c-33.7-6.76-70.57-14.77-70.94-14.85a1,1,0,0,1,.42-2c.37.08,37.22,8.09,70.91,14.85,34.23,6.87,67.85,3.16,74.66.07a1,1,0,0,1,.83,1.82C503.73,380.43,490.19,382.52,472.7,382.52Z"/><rect class="cls-2" x="250.07" y="372.7" width="24.89" height="9.9" rx="3" ry="3"/><ellipse class="cls-2" cx="511.8" cy="398.7" rx="8.17" ry="10.96"/><path class="cls-1" d="M442.76,410.66c-5.06,0-9.17-5.37-9.17-12s4.12-12,9.17-12,9.17,5.37,9.17,12S447.81,410.66,442.76,410.66Zm0-21.92c-4,0-7.17,4.47-7.17,10s3.22,10,7.17,10,7.17-4.47,7.17-10S446.71,388.74,442.76,388.74Z"/><path class="cls-1" d="M511.8,410.66c-5.06,0-9.17-5.37-9.17-12s4.12-12,9.17-12,9.17,5.37,9.17,12S516.86,410.66,511.8,410.66Zm0-21.92c-4,0-7.17,4.47-7.17,10s3.22,10,7.17,10,7.17-4.47,7.17-10S515.76,388.74,511.8,388.74Z"/><rect class="cls-2" x="501" y="415.64" width="2" height="12.81"/><rect class="cls-2" x="495.58" y="410.94" width="2" height="17.51"/><rect class="cls-2" x="490.16" y="409.48" width="2" height="18.97"/><rect class="cls-2" x="484.73" y="409.37" width="2" height="19.07"/><rect class="cls-2" x="479.31" y="409.37" width="2" height="19.07"/><rect class="cls-2" x="473.89" y="409.37" width="2" height="19.07"/><rect class="cls-2" x="468.46" y="409.37" width="2" height="19.07"/><rect class="cls-2" x="463.04" y="409.37" width="2" height="19.07"/><rect class="cls-2" x="457.62" y="410.78" width="2" height="17.66"/><rect class="cls-2" x="452.19" y="415.12" width="2" height="13.33"/><rect class="cls-2" x="172.72" y="434.12" width="194.99" height="8.67" rx="3" ry="3"/><circle class="cls-1" cx="1314.45" cy="140.72" r="34.7"/><circle class="cls-3" cx="1314.45" cy="140.72" r="15.29"/><circle class="cls-1" cx="1569.87" cy="140.72" r="34.7"/><circle class="cls-3" cx="1569.87" cy="140.72" r="15.29"/><path class="cls-1" d="M1642,112.09H1707c5.32,0,9.64-5.89,9.64-13.15h0c0-7.26-4.31-13.15-9.64-13.15H1642"/><path class="cls-3" d="M1279.08,91.19a18.17,18.17,0,0,1,15-17.06l106-18.41h0L1438.62,13a39.38,39.38,0,0,1,29.24-13h133.59a62.13,62.13,0,0,1,40.28,14.83l34.34,29.24a83.46,83.46,0,0,0,22,13.48h0A23.36,23.36,0,0,1,1712.34,81l-3.7,45a12.14,12.14,0,0,1-11.85,11.14l-10.12.21h-70l-2.07,2.4a33.36,33.36,0,0,1-25.24,11.55H1452.55a33.36,33.36,0,0,1-25.67-12.06h-150Z"/><circle class="cls-1" cx="1651.31" cy="140.72" r="34.7"/><circle class="cls-3" cx="1651.31" cy="140.72" r="15.29"/><circle class="cls-1" cx="1392.52" cy="140.72" r="34.7"/><path class="cls-1" d="M1284.13,110.67h60a0,0,0,0,1,0,0v0a19.93,19.93,0,0,1-19.93,19.93h-20.13a19.93,19.93,0,0,1-19.93-19.93v0A0,0,0,0,1,1284.13,110.67Z" transform="translate(2628.25 241.27) rotate(-180)"/><path class="cls-2" d="M1345.13,131.6h-62v-1a21,21,0,0,1,20.93-20.93h20.13a21,21,0,0,1,20.93,20.93Zm-60-2h57.95a19,19,0,0,0-18.91-17.93h-20.13A19,19,0,0,0,1285.15,129.6Z"/><rect class="cls-2" x="1272.04" y="130.6" width="92.53" height="13.49" rx="5" ry="5" transform="translate(2636.61 274.7) rotate(-180)"/><path class="cls-2" d="M1686.49,127.71h23.07a6,6,0,0,1,6,6v4.39a6,6,0,0,1-6,6h-23.07a5,5,0,0,1-5-5v-6.39A5,5,0,0,1,1686.49,127.71Z" transform="translate(3397.06 271.8) rotate(-180)"/><ellipse class="cls-2" cx="1348.8" cy="100" rx="8.17" ry="10.96"/><path class="cls-2" d="M1399,56.87h34a14.59,14.59,0,0,0,10.66-4.63L1475.77,18a4.38,4.38,0,0,0-3.2-7.36h-31.78Z"/><path class="cls-1" d="M1433,57.87h-34a1,1,0,0,1,0-2h34a13.63,13.63,0,0,0,9.93-4.32L1475,17.28a3.38,3.38,0,0,0-2.47-5.68h-31.78a1,1,0,1,1,0-2h31.78a5.38,5.38,0,0,1,3.93,9l-32.06,34.27A15.64,15.64,0,0,1,1433,57.87Z"/><circle class="cls-3" cx="1392.52" cy="140.72" r="15.29"/><path class="cls-2" d="M1560.68,15a4.38,4.38,0,0,1,4.38-4.38h31a46.7,46.7,0,0,1,34.42,14.84l19.06,20a6.56,6.56,0,0,1-4.45,11.39h-80a4.38,4.38,0,0,1-4.38-4.38Z"/><path class="cls-1" d="M1645.07,57.87h-80a5.38,5.38,0,0,1-5.38-5.38V15a5.38,5.38,0,0,1,5.38-5.38h31a47.71,47.71,0,0,1,35.14,15.15l19.06,20a7.56,7.56,0,0,1-5.18,13.08Zm-80-46.26a3.38,3.38,0,0,0-3.38,3.38V52.49a3.38,3.38,0,0,0,3.38,3.38h80a5.56,5.56,0,0,0,3.78-9.65l-19.11-20.08A45.7,45.7,0,0,0,1596,11.6Z"/><path class="cls-2" d="M1462.3,45.87l28.36-31a13.13,13.13,0,0,1,9.69-4.27h41.5a4.38,4.38,0,0,1,4.38,4.38V52.49a4.38,4.38,0,0,1-4.38,4.38h-74.7A6.56,6.56,0,0,1,1462.3,45.87Z"/><path class="cls-1" d="M1541.84,57.87h-74.7a7.56,7.56,0,0,1-5.58-12.67l28.36-31a14.16,14.16,0,0,1,10.43-4.59h41.5a5.38,5.38,0,0,1,5.38,5.38V52.49A5.38,5.38,0,0,1,1541.84,57.87Zm-79.54-12,.74.67a5.56,5.56,0,0,0,4.11,9.32h74.7a3.38,3.38,0,0,0,3.38-3.38V15a3.38,3.38,0,0,0-3.38-3.38h-41.5a12.16,12.16,0,0,0-8.95,3.94l-28.36,31Z"/><path class="cls-1" d="M1447.08,138.35a1,1,0,0,1-1-.83c-4.84-27.91-.06-75,0-75.48a1,1,0,0,1,2,.21c0,.47-4.8,47.29,0,74.93a1,1,0,0,1-.81,1.16Z"/><path class="cls-1" d="M1553.45,138.35h-.17a1,1,0,0,1-.82-1.15c4.12-24.71,0-74.45,0-75V10.6a1,1,0,0,1,2,0V62.15c0,.42,4.15,50.42,0,75.37A1,1,0,0,1,1553.45,138.35Z"/><path class="cls-1" d="M1318.85,83.82c-17.5,0-31-2.1-35.14-4a1,1,0,0,1,.83-1.82c6.81,3.09,40.43,6.8,74.66-.07,33.69-6.76,70.54-14.77,70.91-14.85a1,1,0,1,1,.42,2c-.37.08-37.24,8.1-70.94,14.85A210.21,210.21,0,0,1,1318.85,83.82Z"/><rect class="cls-2" x="1516.6" y="74" width="24.89" height="9.9" rx="3" ry="3" transform="translate(3058.08 157.89) rotate(-180)"/><ellipse class="cls-2" cx="1279.75" cy="100" rx="8.17" ry="10.96"/><path class="cls-1" d="M1348.8,112c-5.06,0-9.17-5.37-9.17-12s4.12-12,9.17-12,9.17,5.37,9.17,12S1353.86,112,1348.8,112Zm0-21.92c-4,0-7.17,4.47-7.17,10s3.22,10,7.17,10,7.17-4.47,7.17-10S1352.75,90,1348.8,90Z"/><path class="cls-1" d="M1279.75,112c-5.06,0-9.17-5.37-9.17-12s4.12-12,9.17-12,9.17,5.37,9.17,12S1284.81,112,1279.75,112Zm0-21.92c-4,0-7.17,4.47-7.17,10s3.22,10,7.17,10,7.17-4.47,7.17-10S1283.71,90,1279.75,90Z"/><rect class="cls-2" x="1288.55" y="116.94" width="2" height="12.81"/><rect class="cls-2" x="1293.97" y="112.23" width="2" height="17.51"/><rect class="cls-2" x="1299.4" y="110.77" width="2" height="18.97"/><rect class="cls-2" x="1304.82" y="110.67" width="2" height="19.07"/><rect class="cls-2" x="1310.24" y="110.67" width="2" height="19.07"/><rect class="cls-2" x="1315.67" y="110.67" width="2" height="19.07"/><rect class="cls-2" x="1321.09" y="110.67" width="2" height="19.07"/><rect class="cls-2" x="1326.51" y="110.67" width="2" height="19.07"/><rect class="cls-2" x="1331.94" y="112.08" width="2" height="17.66"/><rect class="cls-2" x="1337.36" y="116.41" width="2" height="13.33"/><rect class="cls-2" x="1423.84" y="135.42" width="194.99" height="8.67" rx="3" ry="3" transform="translate(3042.67 279.52) rotate(-180)"/><g class="cls-7"><path class="cls-2" d="M1197.66,845.5h0a45,45,0,0,0,45,45H1920v-210H1465.93a45,45,0,0,0-45,45h0a45,45,0,0,0,45,45h59.6a15,15,0,0,1,15,15h0a15,15,0,0,1-15,15H1242.66A45,45,0,0,0,1197.66,845.5Z"/></g></g></g></svg>