<svg xmlns="http://www.w3.org/2000/svg" viewBox="0 0 1920 344"><defs><style>.cls-1{fill:#a8aee5;}.cls-2{fill:#c8bfde;}.cls-3{fill:#3d4689;}.cls-4{fill:#859cec;}.cls-5{fill:#fff;}</style></defs><title>strada1</title><g id="Livello_2" data-name="Livello 2"><g id="Livello_1-2" data-name="Livello 1"><rect class="cls-1" y="30" width="1920" height="314"/><rect class="cls-2" width="1920" height="30"/><rect class="cls-2" y="186" width="1920" height="2"/><circle class="cls-3" cx="1506.76" cy="275.62" r="34.7"/><circle class="cls-4" cx="1506.76" cy="275.62" r="15.29"/><circle class="cls-3" cx="1251.34" cy="275.62" r="34.7"/><circle class="cls-4" cx="1251.34" cy="275.62" r="15.29"/><path class="cls-3" d="M1179.17,247h-64.93c-5.32,0-9.64-5.89-9.64-13.15h0c0-7.26,4.31-13.15,9.64-13.15h64.93"/><path class="cls-4" d="M1542.13,226.09a18.17,18.17,0,0,0-15-17.06l-106-18.41h0l-38.54-42.72a39.38,39.38,0,0,0-29.24-13H1219.75a62.13,62.13,0,0,0-40.28,14.83L1145.12,179a83.46,83.46,0,0,1-22,13.48h0a23.36,23.36,0,0,0-14.29,23.48l3.7,45A12.14,12.14,0,0,0,1124.42,272l10.12.21h70l2.07,2.4a33.36,33.36,0,0,0,25.24,11.55h136.75a33.36,33.36,0,0,0,25.67-12.06h150Z"/><circle class="cls-3" cx="1169.89" cy="275.62" r="34.7"/><circle class="cls-4" cx="1169.89" cy="275.62" r="15.29"/><circle class="cls-3" cx="1428.68" cy="275.62" r="34.7"/><path class="cls-3" d="M1497,245.57h20.13a19.93,19.93,0,0,1,19.93,19.93v0a0,0,0,0,1,0,0h-60a0,0,0,0,1,0,0v0A19.93,19.93,0,0,1,1497,245.57Z"/><path class="cls-5" d="M1538.08,266.5h-62v-1A21,21,0,0,1,1497,244.57h20.13a21,21,0,0,1,20.93,20.93Zm-60-2h57.95a19,19,0,0,0-18.91-17.93H1497A19,19,0,0,0,1478.11,264.5Z"/><rect class="cls-5" x="1456.64" y="265.5" width="92.53" height="13.49" rx="5" ry="5"/><path class="cls-5" d="M1110.64,262.61h23.07a6,6,0,0,1,6,6V273a6,6,0,0,1-6,6h-23.07a5,5,0,0,1-5-5v-6.39A5,5,0,0,1,1110.64,262.61Z"/><ellipse class="cls-5" cx="1472.41" cy="234.9" rx="8.17" ry="10.96"/><path class="cls-5" d="M1422.17,191.77h-34a14.59,14.59,0,0,1-10.66-4.63l-32.06-34.27a4.38,4.38,0,0,1,3.2-7.36h31.78Z"/><path class="cls-3" d="M1422.17,192.77h-34a15.64,15.64,0,0,1-11.4-5l-32.06-34.27a5.38,5.38,0,0,1,3.93-9h31.78a1,1,0,0,1,0,2h-31.78a3.38,3.38,0,0,0-2.47,5.68l32.06,34.27a13.64,13.64,0,0,0,9.93,4.32h34a1,1,0,0,1,0,2Z"/><circle class="cls-4" cx="1428.68" cy="275.62" r="15.29"/><path class="cls-5" d="M1260.53,149.88a4.38,4.38,0,0,0-4.38-4.38h-31a46.7,46.7,0,0,0-34.42,14.84l-19.06,20a6.56,6.56,0,0,0,4.45,11.39h80a4.38,4.38,0,0,0,4.38-4.38Z"/><path class="cls-3" d="M1256.15,192.77h-80a7.56,7.56,0,0,1-5.13-13.12l19-20a47.7,47.7,0,0,1,35.14-15.15h31a5.38,5.38,0,0,1,5.38,5.38v37.51A5.38,5.38,0,0,1,1256.15,192.77Zm-31-46.26A45.7,45.7,0,0,0,1191.46,161l-19.06,20a5.57,5.57,0,0,0,3.73,9.7h80a3.38,3.38,0,0,0,3.38-3.38V149.88a3.38,3.38,0,0,0-3.38-3.38Z"/><path class="cls-5" d="M1358.9,180.77l-28.36-31a13.13,13.13,0,0,0-9.69-4.27h-41.5a4.38,4.38,0,0,0-4.38,4.38v37.51a4.38,4.38,0,0,0,4.38,4.38h74.7A6.56,6.56,0,0,0,1358.9,180.77Z"/><path class="cls-3" d="M1354.06,192.77h-74.7a5.38,5.38,0,0,1-5.38-5.38V149.88a5.38,5.38,0,0,1,5.38-5.38h41.5a14.16,14.16,0,0,1,10.43,4.59l28.36,31a7.56,7.56,0,0,1-5.58,12.67Zm-74.7-46.26a3.38,3.38,0,0,0-3.38,3.38v37.51a3.38,3.38,0,0,0,3.38,3.38h74.7a5.56,5.56,0,0,0,4.11-9.32h0l-28.36-31a12.16,12.16,0,0,0-9-3.94Z"/><path class="cls-3" d="M1374.12,273.25H1374a1,1,0,0,1-.81-1.16c4.79-27.64,0-74.46,0-74.93a1,1,0,0,1,2-.21c0,.47,4.83,47.57,0,75.48A1,1,0,0,1,1374.12,273.25Z"/><path class="cls-3" d="M1267.75,273.25a1,1,0,0,1-1-.84c-4.16-25-.05-74.95,0-75.45V145.5a1,1,0,1,1,2,0V197c0,.58-4.14,50.33,0,75a1,1,0,0,1-.82,1.15Z"/><path class="cls-3" d="M1502.35,218.72a210.17,210.17,0,0,1-40.74-3.89c-33.7-6.76-70.57-14.77-70.94-14.85a1,1,0,0,1,.43-2c.37.08,37.22,8.09,70.91,14.85,34.23,6.87,67.85,3.16,74.66.07a1,1,0,0,1,.83,1.82C1533.38,216.62,1519.85,218.72,1502.35,218.72Z"/><rect class="cls-5" x="1279.72" y="208.9" width="24.89" height="9.9" rx="3" ry="3"/><ellipse class="cls-5" cx="1541.45" cy="234.9" rx="8.17" ry="10.96"/><path class="cls-3" d="M1472.41,246.86c-5.06,0-9.17-5.37-9.17-12s4.12-12,9.17-12,9.17,5.37,9.17,12S1477.47,246.86,1472.41,246.86Zm0-21.92c-4,0-7.17,4.47-7.17,10s3.22,10,7.17,10,7.17-4.47,7.17-10S1476.36,224.94,1472.41,224.94Z"/><path class="cls-3" d="M1541.45,246.86c-5.06,0-9.17-5.37-9.17-12s4.12-12,9.17-12,9.17,5.37,9.17,12S1546.51,246.86,1541.45,246.86Zm0-21.92c-4,0-7.17,4.47-7.17,10s3.22,10,7.17,10,7.17-4.47,7.17-10S1545.41,224.94,1541.45,224.94Z"/><rect class="cls-5" x="1530.65" y="251.83" width="2" height="12.81"/><rect class="cls-5" x="1525.23" y="247.13" width="2" height="17.51"/><rect class="cls-5" x="1519.81" y="245.67" width="2" height="18.97"/><rect class="cls-5" x="1514.38" y="245.57" width="2" height="19.07"/><rect class="cls-5" x="1508.96" y="245.57" width="2" height="19.07"/><rect class="cls-5" x="1503.54" y="245.57" width="2" height="19.07"/><rect class="cls-5" x="1498.11" y="245.57" width="2" height="19.07"/><rect class="cls-5" x="1492.69" y="245.57" width="2" height="19.07"/><rect class="cls-5" x="1487.27" y="246.98" width="2" height="17.66"/><rect class="cls-5" x="1481.84" y="251.31" width="2" height="13.33"/><rect class="cls-5" x="1202.38" y="270.32" width="194.99" height="8.67" rx="3" ry="3"/></g></g></svg>