<svg xmlns="http://www.w3.org/2000/svg" viewBox="0 0 1364.75 907.9">
	<defs>
	<style>
		.cls-8{fill:#edbdb3;}
		.cls-9{fill:#d45954;}
</style>
</defs>
<title>techstore
</title>
<g id="Livello_2" data-name="Livello 2">
	<g id="Livello_1-2" data-name="Livello 1">
	<ellipse class="w_fill" cx="1233.67" cy="358.59" rx="131.02" ry="138.84" transform="translate(-24.03 96.43) rotate(-4.43)"/>
<path class="b1_fill" d="M1364.11,340.61a1,1,0,0,0-1.37.35l-38.19,64.15L1241,447.87l-.88-11.76h0l-5.58-74.46,25.14-44.37,100.74,8.44h.08a1,1,0,0,0,.08-2l-55.14-4.62,37.4-36.7a1,1,0,0,0-1.4-1.43l-38.63,37.91-42-3.52,42-74.14a1,1,0,0,0-1.74-1l-66.76,117.83-10.34-138a1,1,0,0,0-2,.15l11.4,152.11L1177,297.44l12.24-69.5a1,1,0,0,0-2-.35l-11.92,67.66-30.23-40.17a1,1,0,0,0-1.6,1.2L1233.62,376l4.4,58.66-31.56-11.34h0L1144.38,401l-39.91-63.3a1,1,0,0,0-1.69,1.07l38.54,61.14-35.45-12.74a1,1,0,1,0-.68,1.88l98.36,35.36-63,30.5a1,1,0,0,0,.44,1.9,1,1,0,0,0,.43-.1l64.78-31.35,32,11.5.95,12.63h0l10.47,139.66a1,1,0,0,0,1,.93h.08a1,1,0,0,0,.92-1.07l-10.42-139,40.45-20.71,33.18,39.08a1,1,0,0,0,1.52-1.29l-32.88-38.72,79.38-40.63a1,1,0,1,0-.91-1.78l-34,17.42L1364.46,342A1,1,0,0,0,1364.11,340.61Z"/>
<g class="opacity_5">
	<polygon class="w_fill" points="0 18 0 187.48 1135.85 187.48 936.14 18 0 18"/>
</g>
<rect class="w_fill" y="17" width="936.14" height="2"/>
<rect class="w_fill" x="829.99" y="-28.22" width="2" height="261.93" transform="translate(214.96 669.85) rotate(-49.68)"/>
<rect class="w_fill" x="624.99" y="-28.22" width="2" height="261.93" transform="translate(142.61 513.55) rotate(-49.68)"/>
<rect class="w_fill" x="419.99" y="-28.22" width="2" height="261.93" transform="translate(70.25 357.24) rotate(-49.68)"/>
<rect class="w_fill" x="214.99" y="-28.22" width="2" height="261.93" transform="translate(-2.1 200.94) rotate(-49.68)"/>
<polygon class="w_fill" points="110.2 188.24 0 94.72 0 92.1 111.49 186.72 110.2 188.24"/>
<rect class="b4_fill" y="246.39" width="1135.85" height="406.11"/>
<path class="b3_fill" d="M994.13,577.68H0V652.5H997.13V580.68A3,3,0,0,0,994.13,577.68Z"/>
<rect class="w_fill" y="596.68" width="997.13" height="2"/>
<polygon class="b2_fill" points="307.64 405.04 307.64 369.3 393.64 369.3 393.64 367.3 276.03 367.3 276.03 369.3 305.64 369.3 305.64 405.04 132.41 405.04 132.41 407.04 436.15 407.04 436.15 405.04 307.64 405.04"/>
<polygon class="b2_fill" points="1057.76 572.62 1057.76 532.78 1084.86 532.78 1084.86 530.78 1023.99 530.78 1023.99 490.94 1043.74 490.94 1043.74 488.94 981.61 488.94 981.61 490.94 1021.99 490.94 1021.99 530.78 914.7 530.78 914.7 532.78 1055.76 532.78 1055.76 572.62 1020.11 572.62 1020.11 574.62 1118.24 574.62 1118.24 572.62 1057.76 572.62"/>
<rect class="w_fill" x="1034.99" y="-28.65" width="2" height="262.26" transform="translate(286.42 824.93) rotate(-49.59)"/>
<path class="b1_fill" d="M885.66,489.94H847.54l5.22-37.62a1,1,0,1,0-2-.27l-5.26,37.89h-7L833.27,452a1,1,0,1,0-2,.27l5.22,37.62H696.29a3,3,0,0,0-3,3v77.68a3,3,0,0,0,3,3h28.24v4.06H857.42v-4.06h28.24a3,3,0,0,0,3-3V492.94A3,3,0,0,0,885.66,489.94Z"/>
<rect class="w_fill" x="738.09" y="495.61" width="145.76" height="72.33"/>
<path class="b1_fill" d="M955.84,187.48V12a12,12,0,0,0-12-12h-176a12,12,0,0,0-12,12V187.48Z"/>
<path class="w_fill" d="M908.16,89.16c0,28.9-23.43,0-52.33,0s-52.33,28.9-52.33,0a52.33,52.33,0,0,1,104.65,0Z"/>
<path class="w_fill" d="M787.42,150h-4.63v-20.9H778V125h14.2v4.08h-4.79Z"/>
<path class="w_fill" d="M806,150H794.72V125H806v4h-6.61V135h6.13v4h-6.13V146H806Z"/>
<path class="w_fill" d="M817.42,128.76q-2,0-3.15,2.34a15,15,0,0,0-1.15,6.51q0,8.68,4.53,8.68a8.27,8.27,0,0,0,4.15-1.26v4.14a8.31,8.31,0,0,1-4.68,1.21,7.35,7.35,0,0,1-6.49-3.36q-2.26-3.36-2.26-9.44t2.33-9.48a7.43,7.43,0,0,1,6.49-3.4,9.1,9.1,0,0,1,2.62.38,10.5,10.5,0,0,1,2.69,1.32L821,130.16a13.88,13.88,0,0,0-1.64-1A4.19,4.19,0,0,0,817.42,128.76Z"/>
<path class="w_fill" d="M840.53,150h-4.65v-11h-6.13v11H825.1V125h4.65V135h6.13V125h4.65Z"/>
<path class="w_fill" d="M865,143.15a7.5,7.5,0,0,1-1.77,5.37,6.7,6.7,0,0,1-5.1,1.86,11.21,11.21,0,0,1-5.55-1.28v-4.6a9.61,9.61,0,0,0,5.14,1.83,2.59,2.59,0,0,0,2-.73,2.84,2.84,0,0,0,.67-2,3.63,3.63,0,0,0-.8-2.28,11.92,11.92,0,0,0-2.65-2.3,11.78,11.78,0,0,1-2.44-2.13,7.67,7.67,0,0,1-1.28-2.28,8.69,8.69,0,0,1-.45-2.94,7.09,7.09,0,0,1,1.79-5.09,6.3,6.3,0,0,1,4.79-1.88,10.5,10.5,0,0,1,5.52,1.61L863.32,130a14.65,14.65,0,0,0-1.72-.85,4.92,4.92,0,0,0-1.92-.38,2.11,2.11,0,0,0-1.74.74,3.11,3.11,0,0,0-.61,2,3.5,3.5,0,0,0,.73,2.2,10.75,10.75,0,0,0,2.54,2.14,10.56,10.56,0,0,1,3.41,3.35A7.79,7.79,0,0,1,865,143.15Z"/>
<path class="w_fill" d="M876.2,150h-4.63v-20.9h-4.79V125H881v4.08H876.2Z"/>
<path class="w_fill" d="M900.39,137.51q0,6.2-2.32,9.54a8.32,8.32,0,0,1-13.31,0q-2.32-3.32-2.32-9.58t2.32-9.51a7.69,7.69,0,0,1,6.7-3.31,7.58,7.58,0,0,1,6.63,3.32Q900.39,131.3,900.39,137.51Zm-13.21,0a15.49,15.49,0,0,0,1.08,6.51,3.4,3.4,0,0,0,3.16,2.24q4.2,0,4.2-8.75t-4.17-8.75a3.42,3.42,0,0,0-3.2,2.23A15.47,15.47,0,0,0,887.18,137.51Z"/>
<path class="w_fill" d="M908.52,140.31V150h-4.65V125H910q3.86,0,5.7,1.83t1.84,5.59q0,4.73-3.2,6.61l4.8,11h-5l-3.95-9.72Zm0-4h1.2a2.79,2.79,0,0,0,2.36-.93,4.5,4.5,0,0,0,.72-2.78,3.94,3.94,0,0,0-.76-2.73,3.08,3.08,0,0,0-2.35-.81h-1.16Z"/>
<path class="w_fill" d="M932.71,150H921.44V125h11.26v4h-6.61V135h6.13v4h-6.13V146h6.61Z"/>
<polygon class="w_fill" points="516.76 524.87 534.41 524.87 534.41 494.62 518.85 494.62 516.76 524.87"/>
<path class="w_fill" d="M554,493.27l3.33,10.11a2.1,2.1,0,0,1-.82,2.4l-3.84,2.59Z"/>
<path class="w_fill" d="M536.3,518l3.75.6a12,12,0,0,0,13.86-11.07l1.6-25a21.89,21.89,0,0,0-19.92-23.2h0a21.89,21.89,0,0,0-23.8,22.63l.33,8.74A28.74,28.74,0,0,0,536.3,518Z"/>
<path class="b1_fill" d="M520.8,515.54c-3.74,6.57-33.41,19.44-33.42-12.25,0-16.37,19.45-24,23.94-31.64,7.57-12.85,17.14-13.37,27.79-13.36,12.6,0,22.19,11.76,19.21,24a16,16,0,0,1-2.92,6.53c-3.15,3.46-13.55,6.56-24.16,3.28S526.58,505.37,520.8,515.54Z"/>
<ellipse class="w_fill" cx="528.38" cy="498.66" rx="6.69" ry="8.79"/>
<path class="b2_fill" d="M567.2,644.56c-5.43-9.54-8.34-24-9.3-37.52l-50.16-.13c-4.47,12.14-7.49,23.32-5.09,36.28s5.73,25.82,8.27,38.8c1.08,5.52,1.21,11.22,1.77,16.84L477,772.61l13.27,1.24,11.62,1.08,7.4-8.68c13.87-24.16,33.3-58.49,38.36-66.8a4.44,4.44,0,0,0,.4-.89h0c18.7,22.38,13,49.52,20.48,75.28h18.3v-7.59c0-7.3-.25-14.62,0-21.91C588.31,709.51,585.16,676.13,567.2,644.56Z"/>
<path class="w_fill" d="M490.3,773.84l-7.58-.71L471,804.46a5.78,5.78,0,0,0,3.59,7.52h0a5.78,5.78,0,0,0,6.8-2.53l20.56-34.52Z"/>
<path class="cls-8" d="M490.3,773.84l11.62,1.08Z"/>
<path class="w_fill" d="M571.56,773.84c.47,9.39,1.76,22.89,2.5,33.64a6.41,6.41,0,0,0,6.39,6h0a6.41,6.41,0,0,0,6.41-6.41V773.84Z"/>
<path class="w_fill" d="M627.62,618.19h0a4.11,4.11,0,0,0-1.14-6.07L615,605.34l-6.11,8.45c5.49,2.29,10.8,4.44,13.93,5.69A4.1,4.1,0,0,0,627.62,618.19Z"/>
<path class="w_fill" d="M475.39,649h0A4.46,4.46,0,0,0,479,644.6V630.34l-10.17,2.26c.43,4.14.86,8.29,1.27,12.43A4.46,4.46,0,0,0,475.39,649Z"/>
<path class="b1_fill" d="M557.9,607c-.62-8.73-.52-18.36.57-21.92,11.22,11.12,34.95,22.18,50.46,28.66l6.11-8.45c-5.06-2.25-47-24.61-52-45.75-6.39-26.86-6.1-36-25-37.52,1,9.46-.22,17.16-5,17.16-4.34,0-14.36-14.09-16.51-17.18H516a27.73,27.73,0,0,0-22.38,11.83C485.46,545.55,476,559.64,469.34,571c-4,6.77-4,16.64-3.59,25,.57,12.22,1.8,24.42,3.06,36.61L479,630.34V582.21c7.24-6.46,13-11.39,18.51-16.58l8.53-8.39c2.18,9,6.5,20.31,9,30.52-1.88,5.27-5,13.13-7.25,19.15h0Z"/>
<polygon class="cls-9" points="557.9 607.04 507.74 606.91 507.74 606.91 557.9 607.04 557.9 607.04"/>
<path class="w_fill" d="M533,539.22c4.77,0,6-7.7,5-17.16-1.5-.12-3.12-.2-4.88-.23l-16.62.21C518.67,525.13,528.69,539.22,533,539.22Z"/>
<rect class="b4_fill" x="506.61" y="626.19" width="23.96" height="2" transform="translate(-279.95 470.22) rotate(-39.29)"/>
<path class="w_fill" d="M554.42,548.15H543.64a1,1,0,1,1,0-2h10.78a1,1,0,0,1,0,2Z"/>
<path class="b1_fill" d="M977.09,713.7H932.21l8.08-29.88a1,1,0,0,0-1.93-.52l-8.22,30.41H921.6l-7.78-48.3a1,1,0,0,0-2,.32l7.73,48H764.86a3,3,0,0,0-3,3v90a3,3,0,0,0,3,3h27.05v4.06h39.88V809.7h78.37v4.06H950V809.7h27.05a3,3,0,0,0,3-3v-90A3,3,0,0,0,977.09,713.7Z"/>
<rect class="w_fill" x="807.32" y="719.44" width="167.3" height="84.52"/>
<path class="b4_fill" d="M716.23,813.74h70.45a0,0,0,0,1,0,0v74.82a0,0,0,0,1,0,0H713.23a0,0,0,0,1,0,0V816.74A3,3,0,0,1,716.23,813.74Z"/>
<path class="w_fill" d="M1028.71,888.56h-262V816.74a3,3,0,0,1,3-3h256a3,3,0,0,1,3,3Z"/>
<path class="b4_fill" d="M1028.71,834.74h-262a1,1,0,0,1,0-2h262a1,1,0,0,1,0,2Z"/>
<path class="b4_fill" d="M53.67,813.74H194.13a0,0,0,0,1,0,0v74.82a0,0,0,0,1,0,0H50.67a0,0,0,0,1,0,0V816.74A3,3,0,0,1,53.67,813.74Z"/>
<path class="w_fill" d="M436.16,888.56h-332V816.74a3,3,0,0,1,3-3h326a3,3,0,0,1,3,3Z"/>
<path class="b4_fill" d="M436.16,834.74h-332a1,1,0,0,1,0-2h332a1,1,0,1,1,0,2Z"/>
<path class="b1_fill" d="M373.43,726H248.74l4.58-29.69a1,1,0,1,0-2-.3l-4.63,30h-8.77l-5.89-46a1,1,0,1,0-2,.25L235.93,726H194.06a3,3,0,0,0-3,3V806.7a3,3,0,0,0,3,3h21.05v4.06H352.38V809.7h21.05a3,3,0,0,0,3-3V729A3,3,0,0,0,373.43,726Z"/>
<rect class="w_fill" x="225.86" y="731.69" width="145.76" height="72.33"/>
<rect class="b1_fill" y="187.48" width="1135.85" height="7"/>
<path class="b3_fill" d="M1135.85,194.48H0v70H1115.85a6,6,0,0,1,6,6V907.9h14V194.48Z"/>
<path class="b1_fill" d="M369.83,477.62H337.17l6.67-54.33a1,1,0,1,0-2-.24l-6.7,54.58h-13l-9.45-46.36a1,1,0,1,0-2,.4l9.37,46H157.6a3,3,0,0,0-3,3v90a3,3,0,0,0,3,3h27.05v4.06h39.88v-4.06H302.9v4.06h39.88v-4.06h27.05a3,3,0,0,0,3-3v-90A3,3,0,0,0,369.83,477.62Z"/>
<rect class="w_fill" x="200.07" y="483.36" width="167.3" height="84.52"/>
<g class="opacity_5">
	<path class="w_fill" d="M1115.85,264.48H0v61H1003a18,18,0,0,1,12.73,5.27l39.89,39.89a18,18,0,0,1,5.27,12.73V907.9h61V270.48A6,6,0,0,0,1115.85,264.48Z"/>
</g>
<path class="w_fill" d="M736.49,354.11H620.39a43.18,43.18,0,0,0-43.18,43.18v30.45a43.07,43.07,0,0,0,15,32.75L568,498.08l41.37-28.57a43.22,43.22,0,0,0,11,1.42H736.49a43.18,43.18,0,0,0,43.18-43.18V397.29A43.18,43.18,0,0,0,736.49,354.11Z"/>
<path class="b1_fill" d="M618,402a.45.45,0,0,1,0-.18l5.44-17.65q.18-.6,1-.6a1,1,0,0,1,1,.6l5.42,17.69a.32.32,0,0,0,0,.07.33.33,0,0,1,0,.07.6.6,0,0,1-.34.51,1.31,1.31,0,0,1-.7.21.62.62,0,0,1-.65-.44l-1.2-4h-7.18l-1.21,4q-.1.44-.68.44a1.21,1.21,0,0,1-.68-.21A.61.61,0,0,1,618,402Zm3.33-5.2h6.29l-3.14-10.5Z"/>
<path class="b1_fill" d="M633.88,402V391a.53.53,0,0,1,.23-.46,1,1,0,0,1,.6-.17.86.86,0,0,1,.55.18.56.56,0,0,1,.23.45v1.21a3.76,3.76,0,0,1,1.35-1.42,3.88,3.88,0,0,1,2.13-.58,4.37,4.37,0,0,1,3.25,1.43,4.77,4.77,0,0,1,1.38,3.43V402a.57.57,0,0,1-.26.49,1,1,0,0,1-.6.18,1,1,0,0,1-.57-.18.57.57,0,0,1-.26-.49v-6.9a3.23,3.23,0,0,0-1-2.28,3.05,3.05,0,0,0-2.29-1,3,3,0,0,0-2.16.91,3.17,3.17,0,0,0-.94,2.39V402a.59.59,0,0,1-.26.47.93.93,0,0,1-.6.21.86.86,0,0,1-.6-.21A.61.61,0,0,1,633.88,402Z"/>
<path class="b1_fill" d="M647.11,397.93v-2.78a5,5,0,0,1,1.27-3.55,4.87,4.87,0,0,1,3.74-1.37,5.53,5.53,0,0,1,2.61.56q1.05.56,1.05,1.13a.86.86,0,0,1-.23.56.68.68,0,0,1-.52.27,1,1,0,0,1-.48-.23,4.72,4.72,0,0,0-.92-.47,3.83,3.83,0,0,0-1.43-.24,3.42,3.42,0,0,0-2.54.88,3.34,3.34,0,0,0-.87,2.46v2.77a3.37,3.37,0,0,0,.87,2.48,3.45,3.45,0,0,0,2.56.88,4.09,4.09,0,0,0,1.5-.24,4.18,4.18,0,0,0,.94-.48,1,1,0,0,1,.51-.24.7.7,0,0,1,.56.26.87.87,0,0,1,.22.57q0,.6-1.09,1.16a5.89,5.89,0,0,1-2.7.56,4.94,4.94,0,0,1-3.77-1.35A5,5,0,0,1,647.11,397.93Z"/>
<path class="b1_fill" d="M659,402V383.5a.54.54,0,0,1,.23-.44,1,1,0,0,1,.6-.18,1,1,0,0,1,.61.18.54.54,0,0,1,.25.44v8.74a3.83,3.83,0,0,1,3.43-2,4.33,4.33,0,0,1,3.24,1.43,4.79,4.79,0,0,1,1.36,3.43V402a.58.58,0,0,1-.25.49,1,1,0,0,1-.61.18,1,1,0,0,1-.57-.18.57.57,0,0,1-.26-.49v-6.9a3.23,3.23,0,0,0-1-2.28,3,3,0,0,0-4.43-.1,3.15,3.15,0,0,0-.95,2.39V402a.59.59,0,0,1-.26.47.93.93,0,0,1-.6.21.88.88,0,0,1-.59-.21A.6.6,0,0,1,659,402Z"/>
<path class="b1_fill" d="M672.23,397.93V395a4.54,4.54,0,0,1,1.46-3.37,5,5,0,0,1,6.93-.06,4.45,4.45,0,0,1,1.44,3.38,3.33,3.33,0,0,1-.17,1.17,1.09,1.09,0,0,1-.55.62,2.61,2.61,0,0,1-.69.23,5.58,5.58,0,0,1-.86.05h-5.88v1a3,3,0,0,0,1.1,2.46,4.29,4.29,0,0,0,2.85.92,4.22,4.22,0,0,0,1.55-.26,4.49,4.49,0,0,0,1-.52,1.07,1.07,0,0,1,.56-.26.64.64,0,0,1,.51.27.86.86,0,0,1,.22.53q0,.55-1.12,1.13a6,6,0,0,1-2.78.58,5.9,5.9,0,0,1-4-1.37A4.52,4.52,0,0,1,672.23,397.93Zm1.69-2.13h5.2a2.15,2.15,0,0,0,1-.17.8.8,0,0,0,.26-.71,3.22,3.22,0,0,0-.92-2.27,3.06,3.06,0,0,0-2.33-1,3.16,3.16,0,0,0-2.3.93,3,3,0,0,0-.95,2.22Z"/>
<path class="b1_fill" d="M690.87,397.93V395.1a4.65,4.65,0,0,1,1.46-3.42,4.74,4.74,0,0,1,3.46-1.44,4.85,4.85,0,0,1,3.48,1.43,4.6,4.6,0,0,1,1.48,3.43v2.83a4.94,4.94,0,0,1-9.88,0Zm1.69,0a3.34,3.34,0,0,0,.95,2.34,3,3,0,0,0,2.27,1,3.07,3.07,0,0,0,2.31-1,3.32,3.32,0,0,0,1-2.34v-2.82a3.19,3.19,0,0,0-1-2.28,3.1,3.1,0,0,0-2.3-1,3,3,0,0,0-2.27,1,3.23,3.23,0,0,0-.95,2.28Z"/>
<path class="b1_fill" d="M703.32,405.27a3,3,0,0,1,2.21-2.83,1.81,1.81,0,0,1-1.43-1.78,2.09,2.09,0,0,1,1.3-1.86A4.06,4.06,0,0,1,704,395.5v-1a4.09,4.09,0,0,1,1.24-3.09,4.93,4.93,0,0,1,6.28-.11,4.1,4.1,0,0,1,.88-1.18,1.48,1.48,0,0,1,1-.44.77.77,0,0,1,.57.21.65.65,0,0,1,.21.47.53.53,0,0,1-.44.57,2.13,2.13,0,0,0-1.46,1.1,4,4,0,0,1,.73,2.45v1a4.12,4.12,0,0,1-1.27,3.1,4.5,4.5,0,0,1-3.25,1.23,4.71,4.71,0,0,1-2-.43q-.81.44-.81,1a.9.9,0,0,0,.6.83,5,5,0,0,0,1.49.4l1.95.25a13.19,13.19,0,0,1,2,.4,3,3,0,0,1,1.5,1,2.69,2.69,0,0,1,.6,1.81,3.11,3.11,0,0,1-1.4,2.73,6.42,6.42,0,0,1-3.69,1,7,7,0,0,1-3.81-.94A2.87,2.87,0,0,1,703.32,405.27Zm1.64-.16a2,2,0,0,0,1,1.72,4.7,4.7,0,0,0,2.64.65,4.38,4.38,0,0,0,2.56-.65,2,2,0,0,0,.92-1.75,1.61,1.61,0,0,0-.26-.91,1.9,1.9,0,0,0-.61-.6,3.8,3.8,0,0,0-.92-.36,6.34,6.34,0,0,0-1-.2l-1.09-.11-.88-.09Q705,403.52,705,405.11Zm.65-9.64a3.23,3.23,0,0,0,.77,2.23,2.65,2.65,0,0,0,2.09.86,2.59,2.59,0,0,0,2-.86,3.19,3.19,0,0,0,.77-2.2v-1a3.11,3.11,0,0,0-.77-2.16,2.93,2.93,0,0,0-4.13,0,3.1,3.1,0,0,0-.77,2.16Z"/>
<path class="b1_fill" d="M715.85,405.27a3,3,0,0,1,2.21-2.83,1.81,1.81,0,0,1-1.43-1.78,2.09,2.09,0,0,1,1.3-1.86,4.06,4.06,0,0,1-1.43-3.28v-1a4.09,4.09,0,0,1,1.24-3.09,4.93,4.93,0,0,1,6.28-.11,4.1,4.1,0,0,1,.88-1.18,1.48,1.48,0,0,1,1-.44.77.77,0,0,1,.57.21.65.65,0,0,1,.21.47.53.53,0,0,1-.44.57,2.13,2.13,0,0,0-1.46,1.1,4,4,0,0,1,.73,2.45v1a4.12,4.12,0,0,1-1.27,3.1A4.5,4.5,0,0,1,721,399.8a4.71,4.71,0,0,1-2-.43q-.81.44-.81,1a.9.9,0,0,0,.6.83,5,5,0,0,0,1.49.4l1.95.25a13.19,13.19,0,0,1,2,.4,3,3,0,0,1,1.5,1,2.69,2.69,0,0,1,.6,1.81,3.11,3.11,0,0,1-1.4,2.73,6.42,6.42,0,0,1-3.69,1,7,7,0,0,1-3.81-.94A2.87,2.87,0,0,1,715.85,405.27Zm1.64-.16a2,2,0,0,0,1,1.72,4.7,4.7,0,0,0,2.64.65,4.38,4.38,0,0,0,2.56-.65,2,2,0,0,0,.92-1.75,1.61,1.61,0,0,0-.26-.91,1.9,1.9,0,0,0-.61-.6,3.8,3.8,0,0,0-.92-.36,6.34,6.34,0,0,0-1-.2l-1.09-.11-.88-.09Q717.49,403.52,717.49,405.11Zm.65-9.64a3.23,3.23,0,0,0,.77,2.23,2.65,2.65,0,0,0,2.09.86,2.59,2.59,0,0,0,2-.86,3.19,3.19,0,0,0,.77-2.2v-1a3.11,3.11,0,0,0-.77-2.16,2.93,2.93,0,0,0-4.13,0,3.1,3.1,0,0,0-.77,2.16Z"/>
<path class="b1_fill" d="M729.38,386.43a1,1,0,0,1-.34-.77,1,1,0,0,1,.34-.75,1.18,1.18,0,0,1,.83-.31,1.1,1.1,0,0,1,.79.31,1,1,0,0,1,.32.75,1,1,0,0,1-.32.77,1.08,1.08,0,0,1-.79.33A1.15,1.15,0,0,1,729.38,386.43Zm0,15.59V391a.54.54,0,0,1,.23-.44,1,1,0,0,1,.6-.18,1,1,0,0,1,.61.18.54.54,0,0,1,.25.44v11a.6.6,0,0,1-.26.47.93.93,0,0,1-.6.21.88.88,0,0,1-.59-.21A.6.6,0,0,1,729.38,402Z"/>
<path class="b1_fill" d="M603.89,438V427a.53.53,0,0,1,.23-.46,1,1,0,0,1,.6-.17.86.86,0,0,1,.55.18.56.56,0,0,1,.23.45v1.21a3.76,3.76,0,0,1,1.35-1.42,3.88,3.88,0,0,1,2.13-.58,4.37,4.37,0,0,1,3.25,1.43,4.77,4.77,0,0,1,1.38,3.43V438a.57.57,0,0,1-.26.49,1,1,0,0,1-.6.18,1,1,0,0,1-.57-.18.57.57,0,0,1-.26-.49v-6.9a3.23,3.23,0,0,0-1-2.28,3.05,3.05,0,0,0-2.29-1,3,3,0,0,0-2.16.91,3.17,3.17,0,0,0-.94,2.39V438a.59.59,0,0,1-.26.47.93.93,0,0,1-.6.21.86.86,0,0,1-.6-.21A.61.61,0,0,1,603.89,438Z"/>
<path class="b1_fill" d="M617.56,422.43a1,1,0,0,1-.34-.77,1,1,0,0,1,.34-.75,1.18,1.18,0,0,1,.83-.31,1.1,1.1,0,0,1,.79.31,1,1,0,0,1,.32.75,1,1,0,0,1-.32.77,1.08,1.08,0,0,1-.79.33A1.15,1.15,0,0,1,617.56,422.43Zm0,15.59V427a.54.54,0,0,1,.23-.44,1,1,0,0,1,.6-.18,1,1,0,0,1,.61.18.54.54,0,0,1,.25.44v11a.6.6,0,0,1-.26.47.93.93,0,0,1-.6.21.88.88,0,0,1-.59-.21A.6.6,0,0,1,617.56,438Z"/>
<path class="b1_fill" d="M622.84,433.93V431a4.54,4.54,0,0,1,1.46-3.37,5,5,0,0,1,6.93-.06,4.45,4.45,0,0,1,1.44,3.38,3.33,3.33,0,0,1-.17,1.17,1.09,1.09,0,0,1-.55.62,2.61,2.61,0,0,1-.69.23,5.58,5.58,0,0,1-.86.05h-5.88v1a3,3,0,0,0,1.1,2.46,4.29,4.29,0,0,0,2.85.92,4.22,4.22,0,0,0,1.55-.26,4.49,4.49,0,0,0,1-.52,1.07,1.07,0,0,1,.56-.26.64.64,0,0,1,.51.27.86.86,0,0,1,.22.53q0,.55-1.12,1.13a6,6,0,0,1-2.78.58,5.9,5.9,0,0,1-4-1.37A4.52,4.52,0,0,1,622.84,433.93Zm1.69-2.13h5.2a2.15,2.15,0,0,0,1-.17.8.8,0,0,0,.26-.71,3.22,3.22,0,0,0-.92-2.27,3.06,3.06,0,0,0-2.33-1,3.16,3.16,0,0,0-2.3.93,3,3,0,0,0-.95,2.22Z"/>
<path class="b1_fill" d="M636,438V427a.53.53,0,0,1,.23-.46,1,1,0,0,1,.6-.17.86.86,0,0,1,.55.18.56.56,0,0,1,.23.45v1.21a3.76,3.76,0,0,1,1.35-1.42,3.88,3.88,0,0,1,2.13-.58,4.37,4.37,0,0,1,3.25,1.43,4.77,4.77,0,0,1,1.38,3.43V438a.57.57,0,0,1-.26.49,1,1,0,0,1-.6.18,1,1,0,0,1-.57-.18A.57.57,0,0,1,644,438v-6.9a3.23,3.23,0,0,0-1-2.28,3.05,3.05,0,0,0-2.29-1,3,3,0,0,0-2.16.91,3.17,3.17,0,0,0-.94,2.39V438a.59.59,0,0,1-.26.47.93.93,0,0,1-.6.21.86.86,0,0,1-.6-.21A.61.61,0,0,1,636,438Z"/>
<path class="b1_fill" d="M649.62,434.87V421.19a.53.53,0,0,1,.26-.44,1,1,0,0,1,.57-.18,1,1,0,0,1,.6.18.53.53,0,0,1,.26.44v5.2h3.35a.53.53,0,0,1,.43.21.83.83,0,0,1,0,1,.53.53,0,0,1-.43.21h-3.35v7a2.37,2.37,0,0,0,.53,1.77,2.74,2.74,0,0,0,1.88.5h.73a.75.75,0,0,1,.56.23.77.77,0,0,1,.22.55.81.81,0,0,1-.22.56.73.73,0,0,1-.56.24h-.73Q649.62,438.69,649.62,434.87Z"/>
<path class="b1_fill" d="M657.47,433.93V431a4.54,4.54,0,0,1,1.46-3.37,5,5,0,0,1,6.93-.06A4.45,4.45,0,0,1,667.3,431a3.33,3.33,0,0,1-.17,1.17,1.09,1.09,0,0,1-.55.62,2.61,2.61,0,0,1-.69.23,5.58,5.58,0,0,1-.86.05h-5.88v1a3,3,0,0,0,1.1,2.46,4.29,4.29,0,0,0,2.85.92,4.22,4.22,0,0,0,1.55-.26,4.49,4.49,0,0,0,1-.52,1.07,1.07,0,0,1,.56-.26.64.64,0,0,1,.51.27.86.86,0,0,1,.22.53q0,.55-1.12,1.13a6,6,0,0,1-2.78.58,5.9,5.9,0,0,1-4-1.37A4.52,4.52,0,0,1,657.47,433.93Zm1.69-2.13h5.2a2.15,2.15,0,0,0,1-.17.8.8,0,0,0,.26-.71,3.22,3.22,0,0,0-.92-2.27,3.06,3.06,0,0,0-2.33-1,3.16,3.16,0,0,0-2.3.93,3,3,0,0,0-.95,2.22Z"/>
<path class="b1_fill" d="M676.17,433.93v-2.78a5,5,0,0,1,1.27-3.55,4.87,4.87,0,0,1,3.74-1.37,5.53,5.53,0,0,1,2.61.56q1.05.56,1.05,1.13a.86.86,0,0,1-.23.56.68.68,0,0,1-.52.27,1,1,0,0,1-.48-.23,4.72,4.72,0,0,0-.92-.47,3.83,3.83,0,0,0-1.43-.24,3.42,3.42,0,0,0-2.54.88,3.34,3.34,0,0,0-.87,2.46v2.77a3.37,3.37,0,0,0,.87,2.48,3.45,3.45,0,0,0,2.56.88,4.09,4.09,0,0,0,1.5-.24,4.18,4.18,0,0,0,.94-.48,1,1,0,0,1,.51-.24.7.7,0,0,1,.56.26.87.87,0,0,1,.22.57q0,.6-1.09,1.16a5.89,5.89,0,0,1-2.7.56,4.94,4.94,0,0,1-3.77-1.35A5,5,0,0,1,676.17,433.93Z"/>
<path class="b1_fill" d="M688.28,438V419.48a.54.54,0,0,1,.23-.44,1,1,0,0,1,.6-.18,1,1,0,0,1,.61.18.54.54,0,0,1,.25.44V438a.61.61,0,0,1-.25.47.91.91,0,0,1-.61.21.88.88,0,0,1-.59-.21A.6.6,0,0,1,688.28,438Z"/>
<path class="b1_fill" d="M694.24,422.43a1,1,0,0,1-.34-.77,1,1,0,0,1,.34-.75,1.18,1.18,0,0,1,.83-.31,1.1,1.1,0,0,1,.79.31,1,1,0,0,1,.32.75,1,1,0,0,1-.32.77,1.08,1.08,0,0,1-.79.33A1.15,1.15,0,0,1,694.24,422.43Zm0,15.59V427a.54.54,0,0,1,.23-.44,1,1,0,0,1,.6-.18,1,1,0,0,1,.61.18.54.54,0,0,1,.25.44v11a.6.6,0,0,1-.26.47.93.93,0,0,1-.6.21.88.88,0,0,1-.59-.21A.6.6,0,0,1,694.24,438Z"/>
<path class="b1_fill" d="M699.51,433.93V431a4.54,4.54,0,0,1,1.46-3.37,5,5,0,0,1,6.93-.06,4.45,4.45,0,0,1,1.44,3.38,3.33,3.33,0,0,1-.17,1.17,1.09,1.09,0,0,1-.55.62,2.61,2.61,0,0,1-.69.23,5.58,5.58,0,0,1-.86.05H701.2v1a3,3,0,0,0,1.1,2.46,4.29,4.29,0,0,0,2.85.92,4.22,4.22,0,0,0,1.55-.26,4.49,4.49,0,0,0,1-.52,1.07,1.07,0,0,1,.56-.26.64.64,0,0,1,.51.27.86.86,0,0,1,.22.53q0,.55-1.12,1.13a6,6,0,0,1-2.78.58,5.9,5.9,0,0,1-4-1.37A4.52,4.52,0,0,1,699.51,433.93Zm1.69-2.13h5.2a2.15,2.15,0,0,0,1-.17.8.8,0,0,0,.26-.71,3.22,3.22,0,0,0-.92-2.27,3.06,3.06,0,0,0-2.33-1,3.16,3.16,0,0,0-2.3.93,3,3,0,0,0-.95,2.22Z"/>
<path class="b1_fill" d="M712.67,438V427a.53.53,0,0,1,.23-.46,1,1,0,0,1,.6-.17.86.86,0,0,1,.55.18.56.56,0,0,1,.23.45v1.21a3.76,3.76,0,0,1,1.35-1.42,3.88,3.88,0,0,1,2.13-.58,4.37,4.37,0,0,1,3.25,1.43,4.77,4.77,0,0,1,1.38,3.43V438a.57.57,0,0,1-.26.49,1,1,0,0,1-.6.18,1,1,0,0,1-.57-.18.57.57,0,0,1-.26-.49v-6.9a3.23,3.23,0,0,0-1-2.28,3.05,3.05,0,0,0-2.29-1,3,3,0,0,0-2.16.91,3.17,3.17,0,0,0-.94,2.39V438a.59.59,0,0,1-.26.47.93.93,0,0,1-.6.21.86.86,0,0,1-.6-.21A.61.61,0,0,1,712.67,438Z"/>
<path class="b1_fill" d="M726.29,434.87V421.19a.53.53,0,0,1,.26-.44,1,1,0,0,1,.57-.18,1,1,0,0,1,.6.18.53.53,0,0,1,.26.44v5.2h3.35a.53.53,0,0,1,.43.21.83.83,0,0,1,0,1,.53.53,0,0,1-.43.21H728v7a2.37,2.37,0,0,0,.53,1.77,2.74,2.74,0,0,0,1.88.5h.73a.75.75,0,0,1,.56.23.77.77,0,0,1,.22.55.81.81,0,0,1-.22.56.73.73,0,0,1-.56.24h-.73Q726.29,438.69,726.29,434.87Z"/>
<path class="b1_fill" d="M734.85,422.43a1,1,0,0,1-.34-.77,1,1,0,0,1,.34-.75,1.18,1.18,0,0,1,.83-.31,1.1,1.1,0,0,1,.79.31,1,1,0,0,1,.32.75,1,1,0,0,1-.32.77,1.08,1.08,0,0,1-.79.33A1.15,1.15,0,0,1,734.85,422.43Zm0,15.59V427a.54.54,0,0,1,.23-.44,1,1,0,0,1,.6-.18,1,1,0,0,1,.61.18.54.54,0,0,1,.25.44v11a.6.6,0,0,1-.26.47.93.93,0,0,1-.6.21.88.88,0,0,1-.59-.21A.6.6,0,0,1,734.85,438Z"/>
<path class="b1_fill" d="M740,437.56a1.38,1.38,0,0,1,.33-.94,1,1,0,0,1,.83-.38,1,1,0,0,1,.79.39,1.36,1.36,0,0,1,.34.92,1.33,1.33,0,0,1-.34.9,1,1,0,0,1-.79.39,1,1,0,0,1-.83-.38A1.34,1.34,0,0,1,740,437.56Z"/>
<path class="b1_fill" d="M745.22,437.56a1.38,1.38,0,0,1,.33-.94,1,1,0,0,1,.83-.38,1,1,0,0,1,.79.39,1.36,1.36,0,0,1,.34.92,1.33,1.33,0,0,1-.34.9,1,1,0,0,1-.79.39,1,1,0,0,1-.83-.38A1.34,1.34,0,0,1,745.22,437.56Z"/>
<path class="b1_fill" d="M750.45,437.56a1.38,1.38,0,0,1,.33-.94,1,1,0,0,1,.83-.38,1,1,0,0,1,.79.39,1.36,1.36,0,0,1,.34.92,1.33,1.33,0,0,1-.34.9,1,1,0,0,1-.79.39,1,1,0,0,1-.83-.38A1.34,1.34,0,0,1,750.45,437.56Z"/>
</g>
</g>
</svg>