<svg xmlns="http://www.w3.org/2000/svg" xmlns:xlink="http://www.w3.org/1999/xlink" viewBox="0 0 1920 976.78"><defs><style>.cls-1{fill:#fff;}.cls-2{fill:#c8bfde;}.cls-3{fill:#a8aee5;}.cls-4{fill:#3d4689;}.cls-5{fill:#8690e5;}.cls-6{fill:#859cec;}.cls-7{clip-path:url(#clip-path);}.cls-8{clip-path:url(#clip-path-2);}.cls-9{clip-path:url(#clip-path-3);}.cls-10{clip-path:url(#clip-path-4);}</style><clipPath id="clip-path"><path class="cls-1" d="M399.39,902.58l64-9.08a13.06,13.06,0,0,0,9-6.29l12.65-21.68a33.31,33.31,0,0,1,13.88-13h0v11.59a4.68,4.68,0,0,0,4.68,4.68h27.63a2.59,2.59,0,0,1,2.2,4l-8,12.92a10.06,10.06,0,0,1-8.53,4.73H508.7a9.26,9.26,0,0,0-8.87,6.6l-7.5,22.5a27.09,27.09,0,0,1-2,4.89L481,942c-1.59,3-1.12,5.22,1.55,7.32l11.51,13.48a6.75,6.75,0,0,1,1.45,1.56l3.37,5.05a4.74,4.74,0,0,1-3.94,7.36h0a4.74,4.74,0,0,1-3.79-1.89l-6.2-8.27a13.48,13.48,0,0,0-2.95-2.88s-5.48-6.18-17.29-11.63S442.07,941.16,428.3,929c0,0-6.41,5-8,11.78-1.63,7-.92,12.93-.34,14.09l8,16a4.07,4.07,0,0,1-3.64,5.89h0a4.07,4.07,0,0,1-3.48-2l-21.79-35.88a15,15,0,0,1-2.17-7.77V910.5Z"/></clipPath><clipPath id="clip-path-2"><path class="cls-1" d="M614.08,911.69s-6.85,18.22-7.45,22.74,2.86,25.26,4.66,29.22c1.16,2.55,3.63,7.27,5.24,10.3a5.31,5.31,0,0,0,4.7,2.82h0a5.32,5.32,0,0,0,5.06-7,34,34,0,0,1-1.67-7c-.47-5.18-1.69-22.93-1.69-22.93l8.46-8.22s8.1-9.8,12-17.81,7-22.71,7-22.71a11.21,11.21,0,0,1,8.8-7.52l8.72-1.66a8.7,8.7,0,0,0,6.17-4.36L684,859.79a3.28,3.28,0,0,0-3-4.87l-27.81.34a5.19,5.19,0,0,1-5.4-5.19V839.21s-11.35,6.62-15.33,14l-17.47,32.58a12.54,12.54,0,0,1-10.4,5.92l-42.86.71-3.54.92c-3.81.35-7-8.14-10.68,7.49s5.69,47.45,8,49.94,13.85,14.14,15.19,17.1a16.52,16.52,0,0,1,1.06,4.13,5.53,5.53,0,0,0,5.45,4.75h0a5.5,5.5,0,0,0,5.44-6.36,38.3,38.3,0,0,0-1.38-6.29c-1.51-3.75-10.15-15.08-10.51-19.44S580.06,928,580.06,928s9.14,8.24,16.27,10.35a46,46,0,0,0,14.79,1.48"/></clipPath><clipPath id="clip-path-3"><path class="cls-1" d="M265.55,692.62l8.33.59a8.42,8.42,0,0,0,9-8.6l-.73-30.36a22.69,22.69,0,0,0-22.68-22.14h0A22.69,22.69,0,0,0,237,657.65l1.14,9A29.79,29.79,0,0,0,265.55,692.62Z"/></clipPath><clipPath id="clip-path-4"><path class="cls-2" d="M246.07,716.61,218.5,742.8a28.21,28.21,0,0,0-8.67,18l-4.89,55.7H192.3l-2.87-59a33,33,0,0,1,5.22-17.9s12.11-25.75,19.43-36.88,71.27-7.89,75.5-.68l15.55,26.49a28.84,28.84,0,0,0,12.23,11.32l46,22.45-5.2,13.25-54-18a28.34,28.34,0,0,1-13.6-9.73l-10-13.17Z"/></clipPath></defs><title>treno</title><g id="Livello_2" data-name="Livello 2"><g id="Livello_1-2" data-name="Livello 1"><rect class="cls-3" y="511.97" width="1920" height="314"/><rect class="cls-2" y="481.97" width="1920" height="30"/><rect class="cls-2" y="667.97" width="1920" height="2"/><path class="cls-3" d="M332,286.6v25a3,3,0,0,0,3,3h87v-73H287A45,45,0,0,1,332,286.6Z"/><path class="cls-3" d="M335,321.6a3,3,0,0,0-3,3v334a3,3,0,0,0,3,3h87v-340Z"/><path class="cls-3" d="M1380,286.6v25a3,3,0,0,0,3,3h87v-73H1335A45,45,0,0,1,1380,286.6Z"/><path class="cls-3" d="M1383,321.6a3,3,0,0,0-3,3v334a3,3,0,0,0,3,3h87v-340Z"/><rect class="cls-4" x="1397.5" y="314.6" width="185" height="7"/><rect class="cls-4" x="1398" y="661.6" width="185" height="7.38"/><rect class="cls-4" x="349.5" y="661.6" width="185" height="7.38"/><rect class="cls-4" x="349.5" y="314.6" width="185" height="7"/><path class="cls-5" d="M0,193.6v48H377a45,45,0,0,1,45,45v28H549a3,3,0,0,0,3-3v-25a45,45,0,0,1,45-45h828a45,45,0,0,1,45,45v28h127a3,3,0,0,0,3-3v-25a45,45,0,0,1,45-45h275v-48Z"/><path class="cls-5" d="M1470,661.6h127a3,3,0,0,0,3-3v-334a3,3,0,0,0-3-3H1470Z"/><path class="cls-5" d="M422,661.6H549a3,3,0,0,0,3-3v-334a3,3,0,0,0-3-3H422Z"/><path class="cls-2" d="M552,367.6H332a1,1,0,0,1,0-2H552a1,1,0,0,1,0,2Z"/><rect class="cls-2" y="214.6" width="1920" height="2"/><path class="cls-2" d="M1600,367.6H1380a1,1,0,0,1,0-2h220a1,1,0,0,1,0,2Z"/><path class="cls-2" d="M552,613.6H332a1,1,0,0,1,0-2H552a1,1,0,0,1,0,2Z"/><path class="cls-2" d="M1600,613.6H1380a1,1,0,0,1,0-2h220a1,1,0,0,1,0,2Z"/><path class="cls-2" d="M1314.34,242.6a1,1,0,0,1-1-1v-48a1,1,0,1,1,2,0v48A1,1,0,0,1,1314.34,242.6Z"/><path class="cls-2" d="M965,242.6a1,1,0,0,1-1-1v-48a1,1,0,1,1,2,0v48A1,1,0,0,1,965,242.6Z"/><path class="cls-2" d="M615.67,242.6a1,1,0,0,1-1-1v-48a1,1,0,0,1,2,0v48A1,1,0,0,1,615.67,242.6Z"/><path class="cls-2" d="M266,242.6a1,1,0,0,1-1-1v-48a1,1,0,0,1,2,0v48A1,1,0,0,1,266,242.6Z"/><path class="cls-2" d="M1663.67,242.6a1,1,0,0,1-1-1v-48a1,1,0,1,1,2,0v48A1,1,0,0,1,1663.67,242.6Z"/><path class="cls-2" d="M1091.27,184.6H.76V6.87H912.61a138.79,138.79,0,0,1,83.57,28l115.95,87.44C1138.67,142.31,1124.52,184.6,1091.27,184.6Z"/><path class="cls-1" d="M953.81,184.6H0V6.87H775.15a138.79,138.79,0,0,1,83.57,28L974.67,122.3C1001.21,142.31,987.05,184.6,953.81,184.6Z"/><rect class="cls-6" x="572.22" y="37.31" width="146.3" height="77.57" rx="9" ry="9"/><rect class="cls-6" x="398.91" y="37.31" width="146.3" height="77.57" rx="9" ry="9"/><rect class="cls-6" x="161.7" y="37.31" width="146.3" height="77.57" rx="9" ry="9"/><path class="cls-6" d="M125.7,114.88H0V37.31H125.7a9,9,0,0,1,9,9v59.57A9,9,0,0,1,125.7,114.88Z"/><path class="cls-6" d="M999.44,37.31H815.73a8.84,8.84,0,0,0-8.84,8.84V106a8.84,8.84,0,0,0,8.84,8.84H1102.3Z"/><path class="cls-4" d="M709.52,115.88H581.22a10,10,0,0,1-10-10V46.31a10,10,0,0,1,10-10h128.3a10,10,0,0,1,10,10v59.57A10,10,0,0,1,709.52,115.88ZM581.22,38.31a8,8,0,0,0-8,8v59.57a8,8,0,0,0,8,8h128.3a8,8,0,0,0,8-8V46.31a8,8,0,0,0-8-8Z"/><path class="cls-4" d="M536.22,115.88H407.91a10,10,0,0,1-10-10V46.31a10,10,0,0,1,10-10h128.3a10,10,0,0,1,10,10v59.57A10,10,0,0,1,536.22,115.88ZM407.91,38.31a8,8,0,0,0-8,8v59.57a8,8,0,0,0,8,8h128.3a8,8,0,0,0,8-8V46.31a8,8,0,0,0-8-8Z"/><path class="cls-4" d="M299,115.88H170.7a10,10,0,0,1-10-10V46.31a10,10,0,0,1,10-10H299a10,10,0,0,1,10,10v59.57A10,10,0,0,1,299,115.88ZM170.7,38.31a8,8,0,0,0-8,8v59.57a8,8,0,0,0,8,8H299a8,8,0,0,0,8-8V46.31a8,8,0,0,0-8-8Z"/><path class="cls-4" d="M125.7,115.88H0v-2H125.7a8,8,0,0,0,8-8V46.31a8,8,0,0,0-8-8H0v-2H125.7a10,10,0,0,1,10,10v59.57A10,10,0,0,1,125.7,115.88Z"/><path class="cls-4" d="M1102.3,115.88H815.73a9.85,9.85,0,0,1-9.84-9.84V46.15a9.85,9.85,0,0,1,9.84-9.84H999.44a1,1,0,0,1,0,2H815.73a7.85,7.85,0,0,0-7.84,7.84V106a7.85,7.85,0,0,0,7.84,7.84H1102.3a1,1,0,0,1,0,2Z"/><path class="cls-4" d="M41.08,0H672.24a3,3,0,0,1,3,3V6.87a0,0,0,0,1,0,0H38.08a0,0,0,0,1,0,0V3A3,3,0,0,1,41.08,0Z"/><path class="cls-4" d="M490.72,170.87H0v-2H490.45l35.11-20.48a1,1,0,0,1,.5-.14H1126a1,1,0,0,1,0,2H526.34l-35.11,20.48A1,1,0,0,1,490.72,170.87Z"/><path class="cls-4" d="M1069.05,139.45h-23.56a1,1,0,0,1,0-2h23.56a1,1,0,0,1,0,2Z"/><rect class="cls-4" y="186.6" width="1920" height="7"/><ellipse class="cls-1" cx="1630.69" cy="658.48" rx="130.82" ry="123.45" transform="translate(904.97 2260.37) rotate(-87.62)"/><path class="cls-4" d="M1622.52,877.1h0a1,1,0,0,1-1-1l13.6-348.33a1,1,0,1,1,2,.08l-13.6,348.33A1,1,0,0,1,1622.52,877.1Z"/><path class="cls-4" d="M1628.5,724.07a1,1,0,0,1-.31-1.95L1752,681a1,1,0,1,1,.63,1.9L1628.81,724A1,1,0,0,1,1628.5,724.07Z"/><path class="cls-4" d="M1717.39,694.58a1,1,0,0,1-.86-1.51l35.06-58.61a1,1,0,0,1,1.72,1l-35.06,58.61A1,1,0,0,1,1717.39,694.58Z"/><path class="cls-4" d="M1725.25,743.1a1,1,0,0,1-.57-.18l-49.88-34.59a1,1,0,0,1,1.14-1.64l49.88,34.59a1,1,0,0,1-.57,1.82Z"/><path class="cls-4" d="M1627,748.77a1,1,0,0,1-.45-.11L1510,690.33a1,1,0,0,1,.9-1.79l116.52,58.33a1,1,0,0,1-.45,1.89Z"/><path class="cls-4" d="M1549.3,709.57a1,1,0,0,1-1-.74l-17.92-67.51a1,1,0,1,1,1.93-.51l17.92,67.51a1,1,0,0,1-1,1.26Z"/><path class="cls-4" d="M1544.55,753.63a1,1,0,0,1-.39-1.92l50.08-21.06a1,1,0,1,1,.78,1.84l-50.08,21.06A1,1,0,0,1,1544.55,753.63Z"/><path class="cls-4" d="M1630.65,660.4a1,1,0,0,1-.86-.48L1563,549.33a1,1,0,1,1,1.71-1l66.78,110.59a1,1,0,0,1-.85,1.52Z"/><path class="cls-4" d="M1512.77,621.21a1,1,0,0,1,0-2l91.95-2.45a1,1,0,0,1,1,1,1,1,0,0,1-1,1l-91.95,2.45Z"/><path class="cls-4" d="M1556.13,620a1,1,0,0,1-.94-.66l-17.08-47.77a1,1,0,1,1,1.88-.67l17.08,47.77a1,1,0,0,1-.94,1.34Z"/><path class="cls-4" d="M1630.61,670a1,1,0,0,1-.75-1.66l89.27-101.38a1,1,0,0,1,1.5,1.32l-89.27,101.38A1,1,0,0,1,1630.61,670Z"/><path class="cls-4" d="M1683,610.42a1,1,0,0,1-1-.82l-14-75.67a1,1,0,0,1,2-.36l14,75.67a1,1,0,0,1-.8,1.17Z"/><circle class="cls-4" cx="1315.97" cy="758.47" r="34.7"/><circle class="cls-6" cx="1315.97" cy="758.47" r="15.29"/><circle class="cls-4" cx="1060.55" cy="758.47" r="34.7"/><circle class="cls-6" cx="1060.55" cy="758.47" r="15.29"/><path class="cls-4" d="M988.38,729.84H923.45c-5.32,0-9.64-5.89-9.64-13.15h0c0-7.26,4.31-13.15,9.64-13.15h64.93"/><path class="cls-6" d="M1351.34,708.94a18.17,18.17,0,0,0-15-17.06l-106-18.41h0l-38.54-42.72a39.38,39.38,0,0,0-29.24-13H1029a62.13,62.13,0,0,0-40.28,14.83l-34.34,29.24a83.46,83.46,0,0,1-22,13.48h0a23.36,23.36,0,0,0-14.29,23.48l3.7,45a12.14,12.14,0,0,0,11.85,11.14l10.12.21h70l2.07,2.4A33.36,33.36,0,0,0,1041.12,769h136.75A33.36,33.36,0,0,0,1203.54,757h150Z"/><circle class="cls-4" cx="979.1" cy="758.47" r="34.7"/><circle class="cls-6" cx="979.1" cy="758.47" r="15.29"/><circle class="cls-4" cx="1237.9" cy="758.47" r="34.7"/><path class="cls-4" d="M1306.23,728.41h20.13a19.93,19.93,0,0,1,19.93,19.93v0a0,0,0,0,1,0,0h-60a0,0,0,0,1,0,0v0A19.93,19.93,0,0,1,1306.23,728.41Z"/><path class="cls-1" d="M1347.29,749.35h-62v-1a21,21,0,0,1,20.93-20.93h20.13a21,21,0,0,1,20.93,20.93Zm-60-2h57.95a19,19,0,0,0-18.91-17.93h-20.13A19,19,0,0,0,1287.32,747.35Z"/><rect class="cls-1" x="1265.85" y="748.35" width="92.53" height="13.49" rx="5" ry="5"/><path class="cls-1" d="M919.85,745.46h23.07a6,6,0,0,1,6,6v4.39a6,6,0,0,1-6,6H919.85a5,5,0,0,1-5-5v-6.39a5,5,0,0,1,5-5Z"/><ellipse class="cls-1" cx="1281.62" cy="717.75" rx="8.17" ry="10.96"/><path class="cls-1" d="M1231.38,674.61h-34a14.59,14.59,0,0,1-10.66-4.63l-32.06-34.27a4.38,4.38,0,0,1,3.2-7.36h31.78Z"/><path class="cls-4" d="M1231.38,675.61h-34a15.64,15.64,0,0,1-11.4-5l-32.06-34.27a5.38,5.38,0,0,1,3.93-9h31.78a1,1,0,0,1,0,2h-31.78a3.38,3.38,0,0,0-2.47,5.68l32.06,34.27a13.63,13.63,0,0,0,9.93,4.32h34a1,1,0,0,1,0,2Z"/><circle class="cls-6" cx="1237.9" cy="758.47" r="15.29"/><path class="cls-1" d="M1069.74,632.73a4.38,4.38,0,0,0-4.38-4.38h-31A46.7,46.7,0,0,0,1000,643.19l-19.06,20a6.56,6.56,0,0,0,4.45,11.39h80a4.38,4.38,0,0,0,4.38-4.38Z"/><path class="cls-4" d="M1065.36,675.61h-80a7.56,7.56,0,0,1-5.13-13.12l19-20a47.71,47.71,0,0,1,35.14-15.15h31a5.38,5.38,0,0,1,5.38,5.38v37.51A5.38,5.38,0,0,1,1065.36,675.61Zm-31-46.26a45.71,45.71,0,0,0-33.69,14.53l-19.06,20a5.57,5.57,0,0,0,3.73,9.7h80a3.38,3.38,0,0,0,3.38-3.38V632.73a3.38,3.38,0,0,0-3.38-3.38Z"/><path class="cls-1" d="M1168.11,663.62l-28.36-31a13.13,13.13,0,0,0-9.69-4.27h-41.5a4.38,4.38,0,0,0-4.38,4.38v37.51a4.38,4.38,0,0,0,4.38,4.38h74.7A6.56,6.56,0,0,0,1168.11,663.62Z"/><path class="cls-4" d="M1163.27,675.61h-74.7a5.38,5.38,0,0,1-5.38-5.38V632.73a5.38,5.38,0,0,1,5.38-5.38h41.5a14.16,14.16,0,0,1,10.43,4.59l28.36,31a7.56,7.56,0,0,1-5.58,12.67Zm-74.7-46.26a3.38,3.38,0,0,0-3.38,3.38v37.51a3.38,3.38,0,0,0,3.38,3.38h74.7a5.56,5.56,0,0,0,4.11-9.32h0l-28.36-31a12.16,12.16,0,0,0-8.95-3.94Z"/><path class="cls-4" d="M1183.34,756.1h-.17a1,1,0,0,1-.81-1.16c4.79-27.64,0-74.46,0-74.93a1,1,0,1,1,2-.21c0,.47,4.83,47.57,0,75.48A1,1,0,0,1,1183.34,756.1Z"/><path class="cls-4" d="M1077,756.1a1,1,0,0,1-1-.84c-4.16-25-.05-74.95,0-75.45V628.35a1,1,0,1,1,2,0v51.54c0,.58-4.14,50.33,0,75a1,1,0,0,1-.82,1.15Z"/><path class="cls-4" d="M1311.56,701.57a210.18,210.18,0,0,1-40.74-3.89c-33.7-6.76-70.57-14.77-70.94-14.85a1,1,0,1,1,.42-2c.37.08,37.22,8.09,70.91,14.85,34.23,6.86,67.85,3.16,74.66.07a1,1,0,1,1,.83,1.82C1342.6,699.47,1329.06,701.57,1311.56,701.57Z"/><rect class="cls-1" x="1088.94" y="691.74" width="24.89" height="9.9" rx="3" ry="3"/><ellipse class="cls-1" cx="1350.67" cy="717.75" rx="8.17" ry="10.96"/><path class="cls-4" d="M1281.62,729.71c-5.06,0-9.17-5.37-9.17-12s4.12-12,9.17-12,9.17,5.37,9.17,12S1286.68,729.71,1281.62,729.71Zm0-21.92c-4,0-7.17,4.47-7.17,10s3.22,10,7.17,10,7.17-4.47,7.17-10S1285.58,707.79,1281.62,707.79Z"/><path class="cls-4" d="M1350.67,729.71c-5.06,0-9.17-5.37-9.17-12s4.12-12,9.17-12,9.17,5.37,9.17,12S1355.73,729.71,1350.67,729.71Zm0-21.92c-4,0-7.17,4.47-7.17,10s3.22,10,7.17,10,7.17-4.47,7.17-10S1354.62,707.79,1350.67,707.79Z"/><rect class="cls-1" x="1339.87" y="734.68" width="2" height="12.81"/><rect class="cls-1" x="1334.44" y="729.98" width="2" height="17.51"/><rect class="cls-1" x="1329.02" y="728.52" width="2" height="18.97"/><rect class="cls-1" x="1323.6" y="728.41" width="2" height="19.07"/><rect class="cls-1" x="1318.17" y="728.41" width="2" height="19.07"/><rect class="cls-1" x="1312.75" y="728.41" width="2" height="19.07"/><rect class="cls-1" x="1307.33" y="728.41" width="2" height="19.07"/><rect class="cls-1" x="1301.9" y="728.41" width="2" height="19.07"/><rect class="cls-1" x="1296.48" y="729.83" width="2" height="17.66"/><rect class="cls-1" x="1291.06" y="734.16" width="2" height="13.33"/><rect class="cls-1" x="1011.59" y="753.17" width="194.99" height="8.67" rx="3" ry="3"/><path class="cls-1" d="M192.3,816.49l.63,12.28a4.63,4.63,0,0,0,6,4.18h0a4.63,4.63,0,0,0,3.24-4.11l.82-12.35Z"/><path class="cls-4" d="M620.14,877.37a1,1,0,0,1-.43-.1c-28.75-13.83-77.25-32.24-124.16-50S400,791,371.23,777.12a1,1,0,0,1,.87-1.8c28.75,13.83,77.25,32.24,124.16,50s95.5,36.24,124.32,50.11a1,1,0,0,1-.43,1.9Z"/><path class="cls-2" d="M400.78,931.41s-8.61,13.76-11.31,17.93-.17,12.74.8,17.47c.42,2,.88,4.15,1.26,5.91a5.17,5.17,0,0,0,5,4.05h0a5.17,5.17,0,0,0,5-6.4c-.92-3.74-2-8.06-2.42-9.85-.84-3.43,9-8.9,9-8.9Z"/><path class="cls-2" d="M466.42,948.67,462,958.56a10.37,10.37,0,0,1-4.56,4.87l-4.05,2.17a4.08,4.08,0,0,0-.56,6.84h0a4.08,4.08,0,0,0,3.92.58l6.88-2.58a10.09,10.09,0,0,0,4.62-3.51l10.05-13.82Z"/><path class="cls-1" d="M399.39,902.58l64-9.08a13.06,13.06,0,0,0,9-6.29l12.65-21.68a33.31,33.31,0,0,1,13.88-13h0v11.59a4.68,4.68,0,0,0,4.68,4.68h27.63a2.59,2.59,0,0,1,2.2,4l-8,12.92a10.06,10.06,0,0,1-8.53,4.73H508.7a9.26,9.26,0,0,0-8.87,6.6l-7.5,22.5a27.09,27.09,0,0,1-2,4.89L481,942c-1.59,3-1.12,5.22,1.55,7.32l11.51,13.48a6.75,6.75,0,0,1,1.45,1.56l3.37,5.05a4.74,4.74,0,0,1-3.94,7.36h0a4.74,4.74,0,0,1-3.79-1.89l-6.2-8.27a13.48,13.48,0,0,0-2.95-2.88s-5.48-6.18-17.29-11.63S442.07,941.16,428.3,929c0,0-6.41,5-8,11.78-1.63,7-.92,12.93-.34,14.09l8,16a4.07,4.07,0,0,1-3.64,5.89h0a4.07,4.07,0,0,1-3.48-2l-21.79-35.88a15,15,0,0,1-2.17-7.77V910.5Z"/><g class="cls-7"><polygon class="cls-2" points="529.13 879.69 527.24 868.02 534.95 864.51 536.92 870.72 530.5 881.21 529.13 879.69"/></g><path class="cls-1" d="M406.68,908.16c-26.63-17.06-6.77-38.31-3-41.42-3.7-.66-24.46,4.16-23.67,24.36s23.67,23,23.67,23S430.73,926.6,406.68,908.16Z"/><path class="cls-4" d="M495.72,908.76a1,1,0,0,1-.5-.14l-26.35-15.3a1,1,0,0,1,1-1.73l26.35,15.3a1,1,0,0,1-.5,1.86Z"/><path class="cls-4" d="M469.38,893.46a1,1,0,0,1-.76-.35C453.12,874.9,437.13,854.6,421.67,835s-31.43-39.91-46.9-58.09a1,1,0,1,1,1.52-1.3c15.49,18.21,31.48,38.51,46.95,58.15s31.43,39.91,46.9,58.09a1,1,0,0,1-.76,1.65Z"/><path class="cls-2" d="M553.54,912.6s-8.37,24.46-14.1,32.43c-1.94,2.71-1.72,18.46-1.46,26.71a5.21,5.21,0,0,0,5.21,5h0a5.21,5.21,0,0,0,5.21-5.3c-.09-5.32-.13-12.92.41-14.37,1.34-3.66,11.44-17.31,11.44-17.31Z"/><path class="cls-2" d="M630.57,928s14,18.18,19.71,26.25c2,2.86,4.48,10.18,5.91,15.87a5.37,5.37,0,0,1-5.2,6.7h0a5.36,5.36,0,0,1-5.2-4c-1.14-4.46-3.24-11.26-5.79-13.08-3.95-2.83-24.23-13.94-24.23-13.94l3-13.31Z"/><path class="cls-1" d="M563.43,893.83C551.63,865.1,581.18,845,581.18,845s-31.61-4.44-36.18,23.48C541.46,890.17,560.76,903,560.76,903S575.24,922.56,563.43,893.83Z"/><path class="cls-1" d="M614.08,911.69s-6.85,18.22-7.45,22.74,2.86,25.26,4.66,29.22c1.16,2.55,3.63,7.27,5.24,10.3a5.31,5.31,0,0,0,4.7,2.82h0a5.32,5.32,0,0,0,5.06-7,34,34,0,0,1-1.67-7c-.47-5.18-1.69-22.93-1.69-22.93l8.46-8.22s8.1-9.8,12-17.81,7-22.71,7-22.71a11.21,11.21,0,0,1,8.8-7.52l8.72-1.66a8.7,8.7,0,0,0,6.17-4.36L684,859.79a3.28,3.28,0,0,0-3-4.87l-27.81.34a5.19,5.19,0,0,1-5.4-5.19V839.21s-11.35,6.62-15.33,14l-17.47,32.58a12.54,12.54,0,0,1-10.4,5.92l-42.86.71-3.54.92c-3.81.35-7-8.14-10.68,7.49s5.69,47.45,8,49.94,13.85,14.14,15.19,17.1a16.52,16.52,0,0,1,1.06,4.13,5.53,5.53,0,0,0,5.45,4.75h0a5.5,5.5,0,0,0,5.44-6.36,38.3,38.3,0,0,0-1.38-6.29c-1.51-3.75-10.15-15.08-10.51-19.44S580.06,928,580.06,928s9.14,8.24,16.27,10.35a46,46,0,0,0,14.79,1.48"/><g class="cls-8"><polygon class="cls-2" points="680.14 873.54 675.33 850.17 685.35 848.21 691.34 865.61 680.14 873.54"/></g><path class="cls-4" d="M650.34,892.17a1,1,0,0,1-.44-.1l-30.21-14.8a1,1,0,1,1,.88-1.8l30.21,14.8a1,1,0,0,1-.44,1.9Z"/><path class="cls-1" d="M357.76,775.33l11.64,4a4.63,4.63,0,0,0,6.11-4h0a4.63,4.63,0,0,0-2.63-4.53l-11.17-5.33Z"/><path class="cls-2" d="M224.46,703.38l5.28,99.08,50.77-.28s3.83-21.4,3.83-98.31C252.52,693.23,224.46,703.38,224.46,703.38Z"/><path class="cls-4" d="M248.38,862.92,213.14,967.27a7.06,7.06,0,0,0,6.38,9.31h0a7.05,7.05,0,0,0,6.53-3.7c10.13-18.81,53.63-99.59,57.25-106.36,4.1-7.66-2.79-64.34-2.79-64.34l-50.77.28-2.58,14.8A47.62,47.62,0,0,0,240.29,859l29.57,29.76a28.38,28.38,0,0,1,7.28,12.65l18.81,70.14a7.06,7.06,0,0,0,6.82,5.23h.14a7.06,7.06,0,0,0,7-7.94l-10.77-85.59a27.44,27.44,0,0,0-4.11-11.4c-7.81-12.17-20.14-42.22-26.15-52.09"/><rect class="cls-1" x="241.93" y="668.67" width="21.19" height="29.18" transform="translate(505.05 1366.53) rotate(-180)"/><path class="cls-1" d="M280.53,664.42l6.59,12.71a1.49,1.49,0,0,1-1.09,2.15l-5.5.85Z"/><path class="cls-1" d="M265.55,692.62l8.33.59a8.42,8.42,0,0,0,9-8.6l-.73-30.36a22.69,22.69,0,0,0-22.68-22.14h0A22.69,22.69,0,0,0,237,657.65l1.14,9A29.79,29.79,0,0,0,265.55,692.62Z"/><g class="cls-9"><ellipse class="cls-4" cx="268.07" cy="644.17" rx="25.2" ry="23.54"/><path class="cls-4" d="M259.83,661.89s-12.08,2.61-12.08,11-5.83,5.07-5.83,5.07v11.85c0,3.72-29.12-11.9-29.12-11.9s-5.82-44.49,9.42-43.75a225.76,225.76,0,0,0,28.5-.5Z"/></g><ellipse class="cls-1" cx="254.7" cy="672.86" rx="6.94" ry="9.11"/><path class="cls-2" d="M246.07,716.61,218.5,742.8a28.21,28.21,0,0,0-8.67,18l-4.89,55.7H192.3l-2.87-59a33,33,0,0,1,5.22-17.9s12.11-25.75,19.43-36.88,71.27-7.89,75.5-.68l15.55,26.49a28.84,28.84,0,0,0,12.23,11.32l46,22.45-5.2,13.25-54-18a28.34,28.34,0,0,1-13.6-9.73l-10-13.17Z"/><g class="cls-10"><ellipse class="cls-1" cx="253.7" cy="694.63" rx="13.02" ry="6.51"/></g><path class="cls-4" d="M259.86,803.18h0a1,1,0,0,1-1-1c4.2-90.43-1.31-99.47-2.23-100.34a1,1,0,0,1,0-2,1.43,1.43,0,0,1,1.24.37c2.24,1.87,7,15.55,3,102A1,1,0,0,1,259.86,803.18Z"/><path class="cls-3" d="M231.51,824.95a1,1,0,0,1-.06-2,14.75,14.75,0,0,0,13.19-10.6l1.2-4.14a1,1,0,1,1,1.92.56l-1.2,4.14a16.76,16.76,0,0,1-15,12Z"/><path class="cls-3" d="M282.79,823.88c-3.32,0-4.9-10.25-5.54-16.36a1,1,0,0,1,2-.21c.77,7.31,2.45,14.12,3.59,14.57a1,1,0,0,1,1,1A1,1,0,0,1,282.79,823.88Z"/><ellipse class="cls-4" cx="272.89" cy="647.68" rx="20.37" ry="19.03"/></g></g></svg>