<?xml version="1.0" standalone="no"?>
<!DOCTYPE svg PUBLIC "-//W3C//DTD SVG 20010904//EN"
 "http://www.w3.org/TR/2001/REC-SVG-20010904/DTD/svg10.dtd">
<svg version="1.0" xmlns="http://www.w3.org/2000/svg"
 width="1024.000000pt" height="1024.000000pt" viewBox="0 0 1024.000000 1024.000000"
 preserveAspectRatio="xMidYMid meet">
<metadata>
Created by potrace 1.11, written by Peter Selinger 2001-2013
</metadata>
<g transform="translate(0.000000,1024.000000) scale(0.100000,-0.100000)"
fill="#000000" stroke="none">
<path d="M2275 8280 c-520 -47 -937 -215 -1238 -501 -129 -121 -214 -236 -292
-394 -101 -202 -161 -411 -197 -680 -19 -146 -19 -3024 0 -3170 36 -269 96
-478 197 -680 78 -157 161 -271 289 -392 272 -260 647 -425 1116 -490 175 -24
605 -24 780 0 274 38 485 100 695 202 542 264 815 667 912 1345 17 115 18 237
18 1590 0 1145 -3 1488 -13 1570 -86 694 -366 1117 -917 1385 -207 101 -424
164 -685 200 -138 19 -525 27 -665 15z m465 -985 c405 -61 629 -305 689 -748
15 -109 15 -2745 0 -2854 -72 -528 -389 -784 -944 -760 -276 12 -442 76 -596
228 -65 64 -85 92 -128 180 -54 112 -83 210 -103 347 -19 126 -19 2738 0 2864
20 137 49 235 102 343 112 231 315 367 603 404 102 14 276 12 377 -4z"/>
<path d="M5880 8272 c-120 -32 -207 -102 -256 -206 l-24 -51 0 -2866 0 -2865
26 -51 c100 -203 487 -292 806 -187 90 30 185 88 221 136 60 78 57 14 57 1137
l0 1029 623 5 c669 4 715 7 967 63 255 56 526 174 720 311 183 130 368 340
461 526 156 309 231 723 215 1187 -14 392 -73 670 -197 929 -200 420 -584 713
-1109 846 -274 70 -379 75 -1480 74 -875 0 -971 -2 -1030 -17z m2081 -994
c325 -88 513 -294 592 -647 19 -85 21 -126 21 -361 0 -235 -2 -276 -21 -361
-78 -350 -270 -559 -591 -647 l-97 -26 -577 -4 -578 -3 0 1041 0 1041 578 -3
577 -4 96 -26z"/>
</g>
</svg>
